<svg width="243" height="516" viewBox="0 0 243 516" fill="none" xmlns="http://www.w3.org/2000/svg">
<g clip-path="url(#clip0)" filter="url(#filter0_d)">
<rect x="4" width="234.401" height="507.556" fill="#567FD5"/>
<path d="M95.0963 237.714L76.1399 237.714C75.276 237.714 74.5535 238.354 74.6062 239.216C74.9483 244.821 79.2424 258.419 87.0501 260.924C87.0901 260.937 87.1245 260.947 87.1654 260.956C87.9266 261.133 96.3666 263.077 100.776 263.321C106.821 263.655 116.818 259.452 116.818 259.452" stroke="white" stroke-width="7.51333" stroke-linecap="round" stroke-linejoin="round"/>
<path d="M92.8812 235.636C91.7433 237.37 92.2272 239.699 93.9621 240.837C95.6969 241.975 98.0258 241.491 99.1637 239.756L92.8812 235.636ZM157.037 278.138L154.047 275.864L157.037 278.138ZM142.004 247.873C142.938 246.02 142.193 243.761 140.34 242.827C138.487 241.894 136.228 242.639 135.294 244.492L142.004 247.873ZM153.651 237.567L150.087 238.754L153.651 237.567ZM153.715 237.818L157.418 237.19L153.715 237.818ZM99.1637 239.756C102.225 235.089 106.274 229.974 110.819 225.646C115.402 221.283 120.265 217.936 124.934 216.468C129.44 215.052 133.693 215.381 137.708 218.267C141.923 221.297 146.327 227.465 150.087 238.754L157.215 236.38C153.224 224.398 148.143 216.515 142.093 212.167C135.843 207.674 129.049 207.299 122.681 209.301C116.475 211.252 110.635 215.448 105.639 220.205C100.605 224.997 96.1985 230.578 92.8812 235.636L99.1637 239.756ZM150.011 238.446C150.204 239.582 151.729 248.663 152.853 257.902C153.417 262.532 153.87 267.121 154.012 270.742C154.084 272.562 154.072 274.037 153.98 275.109C153.933 275.646 153.873 275.996 153.824 276.194C153.758 276.458 153.768 276.231 154.047 275.864L160.028 280.412C160.66 279.581 160.956 278.65 161.116 278.002C161.293 277.288 161.399 276.518 161.465 275.757C161.597 274.232 161.596 272.4 161.519 270.446C161.365 266.518 160.883 261.691 160.312 256.994C159.166 247.578 157.617 238.358 157.418 237.19L150.011 238.446ZM154.047 275.864C152.996 277.246 150.968 278.891 148.518 279.351C146.334 279.762 143.148 279.36 139.198 275.464L133.922 280.813C139.333 286.15 144.923 287.671 149.906 286.735C154.623 285.849 158.153 282.877 160.028 280.412L154.047 275.864ZM139.198 275.464C137.725 274.011 136.888 271.86 136.684 268.985C136.48 266.099 136.944 262.818 137.741 259.601C138.53 256.412 139.602 253.462 140.485 251.295C140.925 250.217 141.312 249.345 141.587 248.75C141.724 248.452 141.833 248.224 141.905 248.075C141.941 248 141.968 247.946 141.985 247.911C141.993 247.894 141.999 247.883 142.002 247.876C142.004 247.873 142.005 247.871 142.005 247.87C142.005 247.87 142.005 247.87 142.005 247.87C142.005 247.871 142.005 247.871 142.005 247.871C142.004 247.872 142.004 247.873 138.649 246.182C135.294 244.492 135.294 244.492 135.294 244.493C135.293 244.494 135.293 244.495 135.292 244.496C135.291 244.498 135.29 244.5 135.289 244.502C135.287 244.507 135.283 244.513 135.28 244.521C135.272 244.536 135.262 244.557 135.249 244.584C135.223 244.636 135.187 244.71 135.141 244.804C135.05 244.992 134.922 245.261 134.764 245.603C134.449 246.287 134.015 247.262 133.528 248.459C132.557 250.841 131.35 254.149 130.448 257.795C129.552 261.412 128.908 265.543 129.19 269.516C129.472 273.497 130.714 277.649 133.922 280.813L139.198 275.464ZM150.087 238.754C150.063 238.681 150.033 238.576 150.011 238.446L157.418 237.19C157.367 236.888 157.295 236.618 157.215 236.38L150.087 238.754Z" fill="white"/>
<circle cx="121.241" cy="231.856" r="4.38278" fill="white"/>
<path opacity="0.35" d="M214.336 12.5014C214.336 11.7535 214.942 11.1471 215.69 11.1471H226.108C226.856 11.1471 227.462 11.7535 227.462 12.5014V16.2519C227.462 16.9998 226.856 17.6062 226.108 17.6062H215.69C214.942 17.6062 214.336 16.9998 214.336 16.2519V12.5014Z" stroke="black" stroke-width="0.625069"/>
<path opacity="0.4" d="M228.4 13.1265V15.6267C228.903 15.415 229.23 14.9224 229.23 14.3766C229.23 13.8308 228.903 13.3382 228.4 13.1265Z" fill="black"/>
<path d="M215.273 12.9181C215.273 12.4579 215.647 12.0847 216.107 12.0847H225.691C226.152 12.0847 226.525 12.4579 226.525 12.9181V15.8351C226.525 16.2954 226.152 16.6686 225.691 16.6686H216.107C215.647 16.6686 215.273 16.2954 215.273 15.8351V12.9181Z" fill="black"/>
<path fill-rule="evenodd" clip-rule="evenodd" d="M206.104 12.2564C207.489 12.2564 208.821 12.7886 209.825 13.743C209.901 13.8167 210.021 13.8157 210.096 13.7409L210.818 13.0117C210.856 12.9737 210.877 12.9223 210.877 12.8688C210.877 12.8153 210.855 12.7641 210.817 12.7266C208.182 10.2016 204.025 10.2016 201.391 12.7266C201.353 12.7641 201.331 12.8153 201.331 12.8688C201.33 12.9223 201.351 12.9737 201.389 13.0117L202.112 13.7409C202.186 13.8159 202.307 13.8168 202.383 13.743C203.386 12.7886 204.719 12.2564 206.104 12.2564ZM206.104 14.6289C206.865 14.6289 207.599 14.9118 208.163 15.4226C208.239 15.4951 208.359 15.4935 208.434 15.419L209.156 14.6898C209.194 14.6515 209.215 14.5996 209.214 14.5457C209.214 14.4918 209.191 14.4403 209.153 14.4029C207.435 12.805 204.775 12.805 203.057 14.4029C203.018 14.4403 202.996 14.4918 202.995 14.5458C202.995 14.5997 203.016 14.6516 203.054 14.6898L203.776 15.419C203.85 15.4935 203.97 15.4951 204.046 15.4226C204.61 14.9121 205.343 14.6293 206.104 14.6289ZM207.55 16.2252C207.551 16.2793 207.53 16.3315 207.491 16.3693L206.243 17.6293C206.206 17.6663 206.156 17.6871 206.104 17.6871C206.052 17.6871 206.002 17.6663 205.965 17.6293L204.717 16.3693C204.678 16.3314 204.657 16.2793 204.658 16.2252C204.659 16.1711 204.683 16.1199 204.723 16.0837C205.52 15.4093 206.688 15.4093 207.485 16.0837C207.525 16.12 207.549 16.1712 207.55 16.2252Z" fill="black"/>
<path fill-rule="evenodd" clip-rule="evenodd" d="M197.563 11.0428H196.938C196.593 11.0428 196.313 11.3227 196.313 11.6679V17.0852C196.313 17.4304 196.593 17.7103 196.938 17.7103H197.563C197.908 17.7103 198.188 17.4304 198.188 17.0852V11.6679C198.188 11.3227 197.908 11.0428 197.563 11.0428ZM194.021 12.5014H194.646C194.991 12.5014 195.271 12.7812 195.271 13.1264V17.0852C195.271 17.4304 194.991 17.7103 194.646 17.7103H194.021C193.676 17.7103 193.396 17.4304 193.396 17.0852V13.1264C193.396 12.7812 193.676 12.5014 194.021 12.5014ZM191.729 13.9598H191.104C190.759 13.9598 190.479 14.2397 190.479 14.5849V17.0852C190.479 17.4304 190.759 17.7102 191.104 17.7102H191.729C192.074 17.7102 192.354 17.4304 192.354 17.0852V14.5849C192.354 14.2397 192.074 13.9598 191.729 13.9598ZM188.812 15.2099H188.187C187.842 15.2099 187.562 15.4898 187.562 15.835V17.0852C187.562 17.4304 187.842 17.7102 188.187 17.7102H188.812C189.157 17.7102 189.437 17.4304 189.437 17.0852V15.835C189.437 15.4898 189.157 15.2099 188.812 15.2099Z" fill="black"/>
<path d="M25.7577 16.199L26.5497 16.1257C26.6169 16.4981 26.7451 16.7682 26.9343 16.9361C27.1235 17.1039 27.3662 17.1879 27.6622 17.1879C27.9156 17.1879 28.1368 17.1299 28.3261 17.0139C28.5184 16.8979 28.6755 16.7438 28.7976 16.5515C28.9197 16.3562 29.0219 16.0937 29.1044 15.7641C29.1868 15.4344 29.228 15.0987 29.228 14.7569C29.228 14.7202 29.2264 14.6653 29.2234 14.5921C29.0586 14.8545 28.8327 15.0682 28.5458 15.233C28.262 15.3948 27.9537 15.4756 27.621 15.4756C27.0656 15.4756 26.5955 15.2742 26.211 14.8713C25.8264 14.4684 25.6341 13.9374 25.6341 13.2781C25.6341 12.5975 25.834 12.0497 26.2339 11.6346C26.6367 11.2195 27.1403 11.0119 27.7446 11.0119C28.1811 11.0119 28.5794 11.1295 28.9395 11.3645C29.3027 11.5995 29.5774 11.9352 29.7636 12.3717C29.9528 12.8051 30.0475 13.4338 30.0475 14.2579C30.0475 15.1155 29.9544 15.7992 29.7682 16.3089C29.582 16.8155 29.3043 17.2016 28.935 17.4671C28.5687 17.7327 28.1384 17.8654 27.6439 17.8654C27.119 17.8654 26.6901 17.7205 26.3575 17.4305C26.0248 17.1375 25.8249 16.727 25.7577 16.199ZM29.1318 13.2369C29.1318 12.7639 29.0052 12.3884 28.7518 12.1107C28.5016 11.833 28.1994 11.6941 27.8454 11.6941C27.4791 11.6941 27.1602 11.8436 26.8885 12.1428C26.6169 12.4419 26.4811 12.8295 26.4811 13.3056C26.4811 13.7329 26.6093 14.0808 26.8656 14.3494C27.1251 14.6149 27.444 14.7477 27.8225 14.7477C28.204 14.7477 28.5168 14.6149 28.761 14.3494C29.0082 14.0808 29.1318 13.71 29.1318 13.2369ZM31.1235 13.8275V12.889H32.062V13.8275H31.1235ZM31.1235 17.751V16.8125H32.062V17.751H31.1235ZM35.7293 17.751V16.144H32.8176V15.3887L35.8804 11.0394H36.5534V15.3887H37.4598V16.144H36.5534V17.751H35.7293ZM35.7293 15.3887V12.3625L33.6279 15.3887H35.7293ZM41.2232 17.751H40.3992V12.4998C40.2008 12.6891 39.9398 12.8783 39.6163 13.0675C39.2958 13.2568 39.0074 13.3987 38.751 13.4933V12.6967C39.2119 12.48 39.6148 12.2175 39.9597 11.9093C40.3046 11.601 40.5487 11.3019 40.6922 11.0119H41.2232V17.751Z" fill="black"/>
<path d="M25.7577 16.199L25.7433 16.0434L25.5823 16.0583L25.6027 16.2187L25.7577 16.199ZM26.5497 16.1257L26.7035 16.098L26.6781 15.9569L26.5354 15.9701L26.5497 16.1257ZM28.3261 17.0139L28.2454 16.8801L28.2444 16.8807L28.3261 17.0139ZM28.7976 16.5515L28.9295 16.6353L28.9301 16.6343L28.7976 16.5515ZM29.2234 14.5921L29.3795 14.5856L29.3586 14.0829L29.091 14.509L29.2234 14.5921ZM28.5458 15.233L28.6232 15.3688L28.6237 15.3685L28.5458 15.233ZM26.2339 11.6346L26.1217 11.5257L26.1213 11.5262L26.2339 11.6346ZM28.9395 11.3645L28.8541 11.4953L28.8546 11.4957L28.9395 11.3645ZM29.7636 12.3717L29.6199 12.433L29.6204 12.4342L29.7636 12.3717ZM29.7682 16.3089L29.9149 16.3628L29.915 16.3625L29.7682 16.3089ZM28.935 17.4671L28.8437 17.3403L28.8432 17.3406L28.935 17.4671ZM26.3575 17.4305L26.2542 17.5478L26.2548 17.5483L26.3575 17.4305ZM28.7518 12.1107L28.6357 12.2153L28.6364 12.216L28.7518 12.1107ZM26.8656 14.3494L26.7526 14.4573L26.7539 14.4586L26.8656 14.3494ZM28.761 14.3494L28.646 14.2436L28.646 14.2436L28.761 14.3494ZM25.7721 16.3546L26.5641 16.2813L26.5354 15.9701L25.7433 16.0434L25.7721 16.3546ZM26.396 16.1535C26.4664 16.544 26.605 16.8528 26.8306 17.053L27.038 16.8192C26.8852 16.6836 26.7674 16.4522 26.7035 16.098L26.396 16.1535ZM26.8306 17.053C27.0532 17.2504 27.3349 17.3441 27.6622 17.3441V17.0316C27.3975 17.0316 27.1939 16.9574 27.038 16.8192L26.8306 17.053ZM27.6622 17.3441C27.9402 17.3441 28.1906 17.2802 28.4077 17.1471L28.2444 16.8807C28.0831 16.9795 27.8909 17.0316 27.6622 17.0316V17.3441ZM28.4068 17.1477C28.6201 17.019 28.7947 16.8477 28.9295 16.6353L28.6657 16.4677C28.5564 16.6399 28.4166 16.7768 28.2454 16.8801L28.4068 17.1477ZM28.9301 16.6343C29.064 16.4202 29.1713 16.1407 29.256 15.802L28.9528 15.7262C28.8726 16.0467 28.7754 16.2921 28.6651 16.4687L28.9301 16.6343ZM29.256 15.802C29.3415 15.4599 29.3842 15.1114 29.3842 14.7569H29.0717C29.0717 15.086 29.032 15.409 28.9528 15.7262L29.256 15.802ZM29.3842 14.7569C29.3842 14.7169 29.3826 14.6593 29.3795 14.5856L29.0673 14.5986C29.0703 14.6713 29.0717 14.7236 29.0717 14.7569H29.3842ZM29.091 14.509C28.9407 14.7483 28.7342 14.9445 28.468 15.0975L28.6237 15.3685C28.9312 15.1918 29.1764 14.9608 29.3557 14.6752L29.091 14.509ZM28.4684 15.0972C28.2086 15.2453 27.9271 15.3194 27.621 15.3194V15.6319C27.9803 15.6319 28.3153 15.5442 28.6232 15.3688L28.4684 15.0972ZM27.621 15.3194C27.1084 15.3194 26.6792 15.1355 26.324 14.7634L26.0979 14.9792C26.5119 15.4129 27.0227 15.6319 27.621 15.6319V15.3194ZM26.324 14.7634C25.9722 14.3949 25.7904 13.9051 25.7904 13.2781H25.4779C25.4779 13.9697 25.6806 14.542 26.0979 14.9792L26.324 14.7634ZM25.7904 13.2781C25.7904 12.6301 25.9796 12.1238 26.3464 11.743L26.1213 11.5262C25.6884 11.9756 25.4779 12.5649 25.4779 13.2781H25.7904ZM26.346 11.7434C26.718 11.3601 27.1805 11.1682 27.7446 11.1682V10.8557C27.1002 10.8557 26.5555 11.0789 26.1217 11.5257L26.346 11.7434ZM27.7446 11.1682C28.1512 11.1682 28.5198 11.2772 28.8541 11.4953L29.0249 11.2336C28.639 10.9818 28.2109 10.8557 27.7446 10.8557V11.1682ZM28.8546 11.4957C29.1892 11.7121 29.4447 12.0223 29.6199 12.433L29.9073 12.3103C29.7102 11.8482 29.4163 11.4868 29.0244 11.2333L28.8546 11.4957ZM29.6204 12.4342C29.7969 12.8383 29.8912 13.4417 29.8912 14.2579H30.2037C30.2037 13.4259 30.1088 12.7718 29.9068 12.3091L29.6204 12.4342ZM29.8912 14.2579C29.8912 15.1066 29.7987 15.7697 29.6214 16.2552L29.915 16.3625C30.11 15.8286 30.2037 15.1244 30.2037 14.2579H29.8912ZM29.6215 16.255C29.4441 16.7379 29.1832 17.0961 28.8437 17.3403L29.0262 17.594C29.4253 17.3071 29.72 16.8931 29.9149 16.3628L29.6215 16.255ZM28.8432 17.3406C28.5062 17.585 28.1086 17.7092 27.6439 17.7092V18.0217C28.1681 18.0217 28.6313 17.8803 29.0267 17.5936L28.8432 17.3406ZM27.6439 17.7092C27.1492 17.7092 26.7592 17.5733 26.4601 17.3127L26.2548 17.5483C26.6211 17.8676 27.0887 18.0217 27.6439 18.0217V17.7092ZM26.4607 17.3132C26.1621 17.0502 25.9761 16.6775 25.9127 16.1793L25.6027 16.2187C25.6736 16.7765 25.8875 17.2248 26.2542 17.5478L26.4607 17.3132ZM29.2881 13.2369C29.2881 12.7354 29.1532 12.3188 28.8673 12.0054L28.6364 12.216C28.8572 12.4581 28.9756 12.7923 28.9756 13.2369H29.2881ZM28.8679 12.0061C28.5899 11.6976 28.2464 11.5378 27.8454 11.5378V11.8504C28.1524 11.8504 28.4132 11.9684 28.6357 12.2153L28.8679 12.0061ZM27.8454 11.5378C27.4302 11.5378 27.0707 11.7097 26.7729 12.0377L27.0042 12.2478C27.2496 11.9776 27.528 11.8504 27.8454 11.8504V11.5378ZM26.7729 12.0377C26.4705 12.3706 26.3248 12.798 26.3248 13.3056H26.6373C26.6373 12.861 26.7632 12.5131 27.0042 12.2478L26.7729 12.0377ZM26.3248 13.3056C26.3248 13.7666 26.4643 14.1553 26.7526 14.4573L26.9787 14.2415C26.7542 14.0064 26.6373 13.6992 26.6373 13.3056H26.3248ZM26.7539 14.4586C27.0433 14.7549 27.4029 14.904 27.8225 14.904V14.5914C27.4852 14.5914 27.2068 14.475 26.9774 14.2402L26.7539 14.4586ZM27.8225 14.904C28.2449 14.904 28.6004 14.7549 28.876 14.4552L28.646 14.2436C28.4333 14.475 28.1631 14.5914 27.8225 14.5914V14.904ZM28.876 14.4552C29.1569 14.1501 29.2881 13.7373 29.2881 13.2369H28.9756C28.9756 13.6828 28.8596 14.0116 28.646 14.2436L28.876 14.4552ZM31.1235 13.8275H30.9672V13.9838H31.1235V13.8275ZM31.1235 12.889V12.7327H30.9672V12.889H31.1235ZM32.062 12.889H32.2183V12.7327H32.062V12.889ZM32.062 13.8275V13.9838H32.2183V13.8275H32.062ZM31.1235 17.751H30.9672V17.9072H31.1235V17.751ZM31.1235 16.8125V16.6562H30.9672V16.8125H31.1235ZM32.062 16.8125H32.2183V16.6562H32.062V16.8125ZM32.062 17.751V17.9072H32.2183V17.751H32.062ZM31.2798 13.8275V12.889H30.9672V13.8275H31.2798ZM31.1235 13.0453H32.062V12.7327H31.1235V13.0453ZM31.9057 12.889V13.8275H32.2183V12.889H31.9057ZM32.062 13.6712H31.1235V13.9838H32.062V13.6712ZM31.2798 17.751V16.8125H30.9672V17.751H31.2798ZM31.1235 16.9687H32.062V16.6562H31.1235V16.9687ZM31.9057 16.8125V17.751H32.2183V16.8125H31.9057ZM32.062 17.5947H31.1235V17.9072H32.062V17.5947ZM35.7293 17.751H35.573V17.9072H35.7293V17.751ZM35.7293 16.144H35.8856V15.9878H35.7293V16.144ZM32.8176 16.144H32.6613V16.3003H32.8176V16.144ZM32.8176 15.3887L32.6898 15.2987L32.6613 15.3392V15.3887H32.8176ZM35.8804 11.0394V10.8832H35.7993L35.7526 10.9494L35.8804 11.0394ZM36.5534 11.0394H36.7096V10.8832H36.5534V11.0394ZM36.5534 15.3887H36.3971V15.5449H36.5534V15.3887ZM37.4598 15.3887H37.6161V15.2324H37.4598V15.3887ZM37.4598 16.144V16.3003H37.6161V16.144H37.4598ZM36.5534 16.144V15.9878H36.3971V16.144H36.5534ZM36.5534 17.751V17.9072H36.7096V17.751H36.5534ZM35.7293 15.3887V15.5449H35.8856V15.3887H35.7293ZM35.7293 12.3625H35.8856V11.8635L35.6009 12.2734L35.7293 12.3625ZM33.6279 15.3887L33.4996 15.2995L33.3292 15.5449H33.6279V15.3887ZM35.8856 17.751V16.144H35.573V17.751H35.8856ZM35.7293 15.9878H32.8176V16.3003H35.7293V15.9878ZM32.9739 16.144V15.3887H32.6613V16.144H32.9739ZM32.9454 15.4786L36.0081 11.1294L35.7526 10.9494L32.6898 15.2987L32.9454 15.4786ZM35.8804 11.1957H36.5534V10.8832H35.8804V11.1957ZM36.3971 11.0394V15.3887H36.7096V11.0394H36.3971ZM36.5534 15.5449H37.4598V15.2324H36.5534V15.5449ZM37.3036 15.3887V16.144H37.6161V15.3887H37.3036ZM37.4598 15.9878H36.5534V16.3003H37.4598V15.9878ZM36.3971 16.144V17.751H36.7096V16.144H36.3971ZM36.5534 17.5947H35.7293V17.9072H36.5534V17.5947ZM35.8856 15.3887V12.3625H35.573V15.3887H35.8856ZM35.6009 12.2734L33.4996 15.2995L33.7563 15.4778L35.8576 12.4516L35.6009 12.2734ZM33.6279 15.5449H35.7293V15.2324H33.6279V15.5449ZM41.2232 17.751V17.9072H41.3795V17.751H41.2232ZM40.3992 17.751H40.2429V17.9072H40.3992V17.751ZM40.3992 12.4998H40.5554V12.1348L40.2913 12.3868L40.3992 12.4998ZM39.6163 13.0675L39.5374 12.9326L39.5369 12.933L39.6163 13.0675ZM38.751 13.4933H38.5948V13.7175L38.8052 13.6399L38.751 13.4933ZM38.751 12.6967L38.6846 12.5553L38.5948 12.5975V12.6967H38.751ZM40.6922 11.0119V10.8557H40.5951L40.5521 10.9427L40.6922 11.0119ZM41.2232 11.0119H41.3795V10.8557H41.2232V11.0119ZM41.2232 17.5947H40.3992V17.9072H41.2232V17.5947ZM40.5554 17.751V12.4998H40.2429V17.751H40.5554ZM40.2913 12.3868C40.1042 12.5652 39.854 12.7475 39.5374 12.9326L39.6952 13.2024C40.0257 13.0091 40.2973 12.8129 40.507 12.6129L40.2913 12.3868ZM39.5369 12.933C39.2218 13.119 38.942 13.2563 38.6969 13.3467L38.8052 13.6399C39.0728 13.5411 39.3699 13.3945 39.6958 13.2021L39.5369 12.933ZM38.9073 13.4933V12.6967H38.5948V13.4933H38.9073ZM38.8175 12.8381C39.2907 12.6156 39.7066 12.3451 40.0638 12.0258L39.8555 11.7928C39.523 12.09 39.1331 12.3444 38.6846 12.5553L38.8175 12.8381ZM40.0638 12.0258C40.4177 11.7095 40.677 11.395 40.8322 11.0812L40.5521 10.9427C40.4205 11.2088 40.1914 11.4925 39.8555 11.7928L40.0638 12.0258ZM40.6922 11.1682H41.2232V10.8557H40.6922V11.1682ZM41.067 11.0119V17.751H41.3795V11.0119H41.067Z" fill="black"/>
</g>
<defs>
<filter id="filter0_d" x="0" y="0" width="242.401" height="515.556" filterUnits="userSpaceOnUse" color-interpolation-filters="sRGB">
<feFlood flood-opacity="0" result="BackgroundImageFix"/>
<feColorMatrix in="SourceAlpha" type="matrix" values="0 0 0 0 0 0 0 0 0 0 0 0 0 0 0 0 0 0 127 0"/>
<feOffset dy="4"/>
<feGaussianBlur stdDeviation="2"/>
<feColorMatrix type="matrix" values="0 0 0 0 0.478431 0 0 0 0 0.478431 0 0 0 0 0.478431 0 0 0 0.25 0"/>
<feBlend mode="normal" in2="BackgroundImageFix" result="effect1_dropShadow"/>
<feBlend mode="normal" in="SourceGraphic" in2="effect1_dropShadow" result="shape"/>
</filter>
<clipPath id="clip0">
<rect width="234.401" height="507.556" fill="white" transform="translate(4)"/>
</clipPath>
</defs>
</svg>
