<svg width="243" height="519" viewBox="0 0 243 519" fill="none" xmlns="http://www.w3.org/2000/svg">
<g filter="url(#filter0_d)">
<rect x="4" width="234.401" height="510.682" fill="white"/>
</g>
<path d="M105.805 444.817C106.337 444.817 106.802 444.682 107.2 444.411C107.605 444.141 107.905 443.778 108.1 443.32H108.989C108.741 444.025 108.332 444.58 107.762 444.985C107.155 445.42 106.438 445.638 105.613 445.638C104.526 445.638 103.644 445.267 102.969 444.524C102.332 443.811 102.013 442.911 102.013 441.824C102.013 440.736 102.332 439.836 102.969 439.123C103.644 438.381 104.526 438.01 105.613 438.01C106.438 438.01 107.155 438.227 107.762 438.662C108.332 439.067 108.741 439.622 108.989 440.327H108.1C107.905 439.87 107.605 439.506 107.2 439.236C106.802 438.966 106.337 438.831 105.805 438.831C105.272 438.831 104.829 438.91 104.477 439.067C104.124 439.217 103.828 439.427 103.588 439.697C103.101 440.245 102.857 440.954 102.857 441.824C102.857 442.694 103.101 443.403 103.588 443.95C104.098 444.528 104.837 444.817 105.805 444.817ZM115.024 444.648C114.574 445.308 113.903 445.638 113.01 445.638C112.2 445.638 111.54 445.357 111.03 444.794C110.535 444.239 110.287 443.553 110.287 442.735C110.287 441.917 110.535 441.231 111.03 440.676C111.54 440.113 112.219 439.832 113.066 439.832C113.914 439.832 114.567 440.166 115.024 440.834V439.922H115.868V445.548H115.024V444.648ZM113.123 444.873C113.73 444.873 114.21 444.663 114.563 444.243C114.9 443.845 115.069 443.343 115.069 442.735C115.069 442.127 114.9 441.625 114.563 441.227C114.21 440.807 113.73 440.597 113.123 440.597C112.523 440.597 112.035 440.807 111.66 441.227C111.308 441.625 111.131 442.127 111.131 442.735C111.131 443.343 111.308 443.845 111.66 444.243C112.035 444.663 112.523 444.873 113.123 444.873ZM118.734 439.922V440.8C118.937 440.53 119.184 440.301 119.477 440.113C119.769 439.926 120.103 439.832 120.478 439.832C120.853 439.832 121.176 439.885 121.446 439.99C121.716 440.095 121.952 440.252 122.154 440.462C122.619 440.92 122.852 441.524 122.852 442.274V445.548H122.008V442.296C122.008 441.779 121.862 441.366 121.569 441.059C121.277 440.751 120.898 440.597 120.433 440.597C119.96 440.597 119.559 440.755 119.229 441.07C118.899 441.392 118.734 441.805 118.734 442.307V445.548H117.89V439.922H118.734ZM127.425 444.873C127.785 444.873 128.103 444.772 128.381 444.569C128.658 444.366 128.861 444.104 128.988 443.781H129.9C129.727 444.336 129.412 444.783 128.955 445.12C128.475 445.465 127.905 445.638 127.245 445.638C126.419 445.638 125.748 445.357 125.231 444.794C124.728 444.246 124.477 443.56 124.477 442.735C124.477 441.91 124.728 441.224 125.231 440.676C125.748 440.113 126.419 439.832 127.245 439.832C127.905 439.832 128.475 440.005 128.955 440.35C129.412 440.687 129.727 441.134 129.9 441.689H128.988C128.861 441.366 128.658 441.104 128.381 440.901C128.103 440.699 127.785 440.597 127.425 440.597C127.065 440.597 126.757 440.654 126.502 440.766C126.254 440.879 126.044 441.032 125.872 441.227C125.504 441.632 125.321 442.135 125.321 442.735C125.321 443.335 125.504 443.838 125.872 444.243C126.247 444.663 126.764 444.873 127.425 444.873ZM134.017 444.873C134.775 444.873 135.319 444.558 135.649 443.928H136.571C136.376 444.438 136.065 444.85 135.637 445.165C135.217 445.48 134.673 445.638 134.006 445.638C133.158 445.638 132.468 445.357 131.936 444.794C131.418 444.246 131.159 443.56 131.159 442.735C131.159 441.902 131.407 441.216 131.902 440.676C132.427 440.113 133.11 439.832 133.95 439.832C134.79 439.832 135.472 440.113 135.997 440.676C136.492 441.216 136.74 441.902 136.74 442.735V443.073H132.026C132.086 443.59 132.292 444.018 132.645 444.355C133.005 444.7 133.462 444.873 134.017 444.873ZM133.95 440.597C133.432 440.597 132.997 440.759 132.645 441.081C132.314 441.389 132.112 441.79 132.037 442.285H135.862C135.787 441.79 135.585 441.389 135.255 441.081C134.902 440.759 134.467 440.597 133.95 440.597ZM139.177 445.548H138.334V437.672H139.177V445.548Z" fill="black"/>
<path d="M101.574 446.673H140.471V447.236H101.574V446.673Z" fill="black"/>
<path d="M107.2 444.411L107.13 444.307L107.13 444.308L107.2 444.411ZM108.1 443.32V443.195H108.017L107.985 443.271L108.1 443.32ZM108.989 443.32L109.107 443.362L109.165 443.195H108.989V443.32ZM107.762 444.985L107.69 444.883L107.69 444.884L107.762 444.985ZM102.969 444.524L102.876 444.607L102.877 444.608L102.969 444.524ZM102.969 439.123L102.877 439.039L102.876 439.04L102.969 439.123ZM107.762 438.662L107.69 438.764L107.69 438.764L107.762 438.662ZM108.989 440.327V440.452H109.165L109.107 440.286L108.989 440.327ZM108.1 440.327L107.985 440.376L108.017 440.452H108.1V440.327ZM107.2 439.236L107.129 439.339L107.13 439.34L107.2 439.236ZM104.477 439.067L104.526 439.182L104.528 439.181L104.477 439.067ZM103.588 439.697L103.681 439.78L103.682 439.78L103.588 439.697ZM103.588 443.95L103.682 443.867L103.681 443.867L103.588 443.95ZM105.805 444.942C106.359 444.942 106.85 444.8 107.27 444.515L107.13 444.308C106.755 444.563 106.315 444.692 105.805 444.692V444.942ZM107.269 444.515C107.695 444.232 108.011 443.849 108.215 443.369L107.985 443.271C107.799 443.707 107.515 444.051 107.13 444.307L107.269 444.515ZM108.1 443.445H108.989V443.195H108.1V443.445ZM108.871 443.279C108.631 443.961 108.237 444.494 107.69 444.883L107.835 445.087C108.427 444.666 108.851 444.089 109.107 443.362L108.871 443.279ZM107.69 444.884C107.105 445.302 106.415 445.513 105.613 445.513V445.763C106.462 445.763 107.204 445.539 107.835 445.087L107.69 444.884ZM105.613 445.513C104.558 445.513 103.711 445.154 103.062 444.44L102.877 444.608C103.578 445.379 104.494 445.763 105.613 445.763V445.513ZM103.062 444.441C102.448 443.754 102.138 442.885 102.138 441.824H101.888C101.888 442.938 102.215 443.869 102.876 444.607L103.062 444.441ZM102.138 441.824C102.138 440.762 102.448 439.893 103.062 439.207L102.876 439.04C102.215 439.779 101.888 440.71 101.888 441.824H102.138ZM103.062 439.207C103.711 438.493 104.558 438.135 105.613 438.135V437.885C104.494 437.885 103.578 438.268 102.877 439.039L103.062 439.207ZM105.613 438.135C106.415 438.135 107.105 438.345 107.69 438.764L107.835 438.56C107.204 438.109 106.462 437.885 105.613 437.885V438.135ZM107.69 438.764C108.237 439.153 108.631 439.686 108.871 440.369L109.107 440.286C108.851 439.558 108.427 438.981 107.835 438.56L107.69 438.764ZM108.989 440.202H108.1V440.452H108.989V440.202ZM108.215 440.278C108.011 439.799 107.695 439.416 107.269 439.132L107.13 439.34C107.515 439.596 107.799 439.941 107.985 440.376L108.215 440.278ZM107.27 439.132C106.85 438.847 106.359 438.706 105.805 438.706V438.956C106.315 438.956 106.755 439.085 107.13 439.339L107.27 439.132ZM105.805 438.706C105.261 438.706 104.799 438.786 104.426 438.953L104.528 439.181C104.86 439.033 105.283 438.956 105.805 438.956V438.706ZM104.428 438.952C104.059 439.109 103.748 439.329 103.495 439.614L103.682 439.78C103.909 439.525 104.189 439.325 104.526 439.182L104.428 438.952ZM103.495 439.614C102.983 440.189 102.732 440.929 102.732 441.824H102.982C102.982 440.978 103.218 440.301 103.681 439.78L103.495 439.614ZM102.732 441.824C102.732 442.718 102.983 443.459 103.495 444.033L103.681 443.867C103.218 443.347 102.982 442.669 102.982 441.824H102.732ZM103.494 444.033C104.034 444.644 104.811 444.942 105.805 444.942V444.692C104.863 444.692 104.162 444.412 103.682 443.867L103.494 444.033ZM115.024 444.648H115.149V444.242L114.921 444.577L115.024 444.648ZM111.03 444.794L110.937 444.877L110.937 444.878L111.03 444.794ZM111.03 440.676L110.937 440.592L110.937 440.593L111.03 440.676ZM115.024 440.834L114.921 440.904L115.149 441.237V440.834H115.024ZM115.024 439.922V439.797H114.899V439.922H115.024ZM115.868 439.922H115.993V439.797H115.868V439.922ZM115.868 445.548V445.673H115.993V445.548H115.868ZM115.024 445.548H114.899V445.673H115.024V445.548ZM114.563 444.243L114.468 444.162L114.467 444.162L114.563 444.243ZM114.563 441.227L114.467 441.308L114.468 441.308L114.563 441.227ZM111.66 441.227L111.567 441.144L111.567 441.144L111.66 441.227ZM111.66 444.243L111.567 444.326L111.567 444.326L111.66 444.243ZM114.921 444.577C114.497 445.199 113.867 445.513 113.01 445.513V445.763C113.938 445.763 114.651 445.417 115.127 444.718L114.921 444.577ZM113.01 445.513C112.233 445.513 111.607 445.245 111.123 444.71L110.937 444.878C111.473 445.469 112.168 445.763 113.01 445.763V445.513ZM111.123 444.711C110.651 444.181 110.412 443.525 110.412 442.735H110.162C110.162 443.58 110.419 444.297 110.937 444.877L111.123 444.711ZM110.412 442.735C110.412 441.945 110.651 441.289 111.123 440.759L110.937 440.593C110.419 441.173 110.162 441.89 110.162 442.735H110.412ZM111.123 440.76C111.606 440.227 112.25 439.957 113.066 439.957V439.707C112.188 439.707 111.474 440 110.937 440.592L111.123 440.76ZM113.066 439.957C113.875 439.957 114.488 440.273 114.921 440.904L115.127 440.763C114.645 440.059 113.953 439.707 113.066 439.707V439.957ZM115.149 440.834V439.922H114.899V440.834H115.149ZM115.024 440.047H115.868V439.797H115.024V440.047ZM115.743 439.922V445.548H115.993V439.922H115.743ZM115.868 445.423H115.024V445.673H115.868V445.423ZM115.149 445.548V444.648H114.899V445.548H115.149ZM113.123 444.998C113.763 444.998 114.28 444.775 114.659 444.323L114.467 444.162C114.141 444.551 113.698 444.748 113.123 444.748V444.998ZM114.658 444.324C115.018 443.9 115.194 443.367 115.194 442.735H114.944C114.944 443.318 114.783 443.79 114.468 444.162L114.658 444.324ZM115.194 442.735C115.194 442.103 115.018 441.57 114.658 441.146L114.468 441.308C114.783 441.68 114.944 442.152 114.944 442.735H115.194ZM114.659 441.147C114.28 440.695 113.763 440.472 113.123 440.472V440.722C113.698 440.722 114.141 440.919 114.467 441.308L114.659 441.147ZM113.123 440.472C112.49 440.472 111.967 440.696 111.567 441.144L111.753 441.311C112.103 440.919 112.556 440.722 113.123 440.722V440.472ZM111.567 441.144C111.191 441.568 111.006 442.102 111.006 442.735H111.256C111.256 442.153 111.424 441.682 111.754 441.31L111.567 441.144ZM111.006 442.735C111.006 443.368 111.191 443.902 111.567 444.326L111.754 444.16C111.424 443.788 111.256 443.317 111.256 442.735H111.006ZM111.567 444.326C111.967 444.774 112.49 444.998 113.123 444.998V444.748C112.556 444.748 112.103 444.551 111.753 444.159L111.567 444.326ZM118.734 439.922H118.859V439.797H118.734V439.922ZM118.734 440.8H118.609V441.175L118.834 440.875L118.734 440.8ZM119.477 440.113L119.544 440.219V440.219L119.477 440.113ZM121.446 439.99L121.4 440.106V440.106L121.446 439.99ZM122.154 440.462L122.064 440.549L122.067 440.551L122.154 440.462ZM122.852 445.548V445.673H122.977V445.548H122.852ZM122.008 445.548H121.883V445.673H122.008V445.548ZM119.229 441.07L119.143 440.979L119.142 440.98L119.229 441.07ZM118.734 445.548V445.673H118.859V445.548H118.734ZM117.89 445.548H117.765V445.673H117.89V445.548ZM117.89 439.922V439.797H117.765V439.922H117.89ZM118.609 439.922V440.8H118.859V439.922H118.609ZM118.834 440.875C119.027 440.617 119.264 440.398 119.544 440.219L119.409 440.008C119.104 440.204 118.846 440.442 118.634 440.725L118.834 440.875ZM119.544 440.219C119.815 440.045 120.125 439.957 120.478 439.957V439.707C120.081 439.707 119.723 439.807 119.409 440.008L119.544 440.219ZM120.478 439.957C120.842 439.957 121.148 440.008 121.4 440.106L121.491 439.873C121.203 439.761 120.864 439.707 120.478 439.707V439.957ZM121.4 440.106C121.653 440.205 121.874 440.352 122.064 440.549L122.244 440.376C122.029 440.153 121.778 439.985 121.491 439.873L121.4 440.106ZM122.067 440.551C122.504 440.982 122.727 441.552 122.727 442.274H122.977C122.977 441.496 122.735 440.858 122.242 440.373L122.067 440.551ZM122.727 442.274V445.548H122.977V442.274H122.727ZM122.852 445.423H122.008V445.673H122.852V445.423ZM122.133 445.548V442.296H121.883V445.548H122.133ZM122.133 442.296C122.133 441.754 121.979 441.308 121.66 440.972L121.479 441.145C121.745 441.424 121.883 441.803 121.883 442.296H122.133ZM121.66 440.972C121.341 440.638 120.929 440.472 120.433 440.472V440.722C120.867 440.722 121.212 440.865 121.479 441.145L121.66 440.972ZM120.433 440.472C119.93 440.472 119.497 440.641 119.143 440.979L119.315 441.16C119.621 440.868 119.991 440.722 120.433 440.722V440.472ZM119.142 440.98C118.785 441.329 118.609 441.775 118.609 442.307H118.859C118.859 441.835 119.013 441.456 119.316 441.159L119.142 440.98ZM118.609 442.307V445.548H118.859V442.307H118.609ZM118.734 445.423H117.89V445.673H118.734V445.423ZM118.015 445.548V439.922H117.765V445.548H118.015ZM117.89 440.047H118.734V439.797H117.89V440.047ZM128.988 443.781V443.656H128.903L128.872 443.735L128.988 443.781ZM129.9 443.781L130.019 443.819L130.07 443.656H129.9V443.781ZM128.955 445.12L129.028 445.222L129.029 445.221L128.955 445.12ZM125.231 444.794L125.138 444.879L125.139 444.879L125.231 444.794ZM125.231 440.676L125.139 440.591L125.138 440.592L125.231 440.676ZM128.955 440.35L129.029 440.249L129.028 440.248L128.955 440.35ZM129.9 441.689V441.814H130.07L130.019 441.652L129.9 441.689ZM128.988 441.689L128.872 441.735L128.903 441.814H128.988V441.689ZM126.502 440.766L126.451 440.652L126.45 440.652L126.502 440.766ZM125.872 441.227L125.964 441.311L125.966 441.31L125.872 441.227ZM125.872 444.243L125.965 444.159L125.964 444.159L125.872 444.243ZM127.425 444.998C127.81 444.998 128.155 444.889 128.455 444.67L128.307 444.468C128.052 444.654 127.759 444.748 127.425 444.748V444.998ZM128.455 444.67C128.751 444.453 128.969 444.172 129.105 443.827L128.872 443.735C128.753 444.036 128.565 444.28 128.307 444.468L128.455 444.67ZM128.988 443.906H129.9V443.656H128.988V443.906ZM129.78 443.744C129.616 444.275 129.316 444.698 128.881 445.02L129.029 445.221C129.508 444.867 129.839 444.398 130.019 443.819L129.78 443.744ZM128.882 445.019C128.425 445.347 127.882 445.513 127.245 445.513V445.763C127.928 445.763 128.524 445.584 129.028 445.222L128.882 445.019ZM127.245 445.513C126.451 445.513 125.814 445.244 125.323 444.709L125.139 444.879C125.682 445.469 126.388 445.763 127.245 445.763V445.513ZM125.323 444.709C124.844 444.188 124.602 443.533 124.602 442.735H124.352C124.352 443.588 124.612 444.305 125.138 444.879L125.323 444.709ZM124.602 442.735C124.602 441.938 124.844 441.282 125.323 440.761L125.138 440.592C124.612 441.165 124.352 441.882 124.352 442.735H124.602ZM125.323 440.761C125.814 440.226 126.451 439.957 127.245 439.957V439.707C126.388 439.707 125.682 440.001 125.139 440.591L125.323 440.761ZM127.245 439.957C127.882 439.957 128.425 440.123 128.882 440.451L129.028 440.248C128.524 439.886 127.928 439.707 127.245 439.707V439.957ZM128.881 440.45C129.316 440.772 129.616 441.196 129.78 441.726L130.019 441.652C129.839 441.072 129.508 440.603 129.029 440.249L128.881 440.45ZM129.9 441.564H128.988V441.814H129.9V441.564ZM129.105 441.643C128.969 441.298 128.751 441.017 128.455 440.8L128.307 441.002C128.565 441.191 128.753 441.434 128.872 441.735L129.105 441.643ZM128.455 440.8C128.155 440.581 127.81 440.472 127.425 440.472V440.722C127.759 440.722 128.052 440.816 128.307 441.002L128.455 440.8ZM127.425 440.472C127.052 440.472 126.726 440.53 126.451 440.652L126.552 440.88C126.788 440.777 127.077 440.722 127.425 440.722V440.472ZM126.45 440.652C126.187 440.772 125.963 440.936 125.778 441.145L125.966 441.31C126.126 441.129 126.321 440.985 126.554 440.88L126.45 440.652ZM125.779 441.143C125.389 441.574 125.196 442.107 125.196 442.735H125.446C125.446 442.163 125.62 441.691 125.964 441.311L125.779 441.143ZM125.196 442.735C125.196 443.363 125.389 443.896 125.779 444.327L125.964 444.159C125.62 443.779 125.446 443.307 125.446 442.735H125.196ZM125.779 444.326C126.182 444.777 126.736 444.998 127.425 444.998V444.748C126.793 444.748 126.312 444.548 125.965 444.159L125.779 444.326ZM135.649 443.928V443.803H135.573L135.538 443.87L135.649 443.928ZM136.571 443.928L136.688 443.972L136.753 443.803H136.571V443.928ZM135.637 445.165L135.563 445.065L135.562 445.065L135.637 445.165ZM131.936 444.794L131.845 444.88L131.845 444.88L131.936 444.794ZM131.902 440.676L131.811 440.591L131.81 440.592L131.902 440.676ZM135.997 440.676L136.09 440.592L136.089 440.591L135.997 440.676ZM136.74 443.073V443.198H136.865V443.073H136.74ZM132.026 443.073V442.948H131.885L131.902 443.087L132.026 443.073ZM132.645 444.355L132.731 444.265L132.731 444.265L132.645 444.355ZM132.645 441.081L132.56 440.989L132.559 440.99L132.645 441.081ZM132.037 442.285L131.913 442.266L131.892 442.41H132.037V442.285ZM135.862 442.285V442.41H136.008L135.986 442.266L135.862 442.285ZM135.255 441.081L135.34 440.99L135.339 440.989L135.255 441.081ZM134.017 444.998C134.413 444.998 134.761 444.915 135.056 444.745C135.351 444.574 135.585 444.319 135.759 443.986L135.538 443.87C135.382 444.167 135.179 444.384 134.931 444.528C134.681 444.673 134.378 444.748 134.017 444.748V444.998ZM135.649 444.053H136.571V443.803H135.649V444.053ZM136.454 443.883C136.268 444.371 135.971 444.764 135.563 445.065L135.712 445.266C136.159 444.936 136.485 444.504 136.688 443.972L136.454 443.883ZM135.562 445.065C135.169 445.36 134.654 445.513 134.006 445.513V445.763C134.693 445.763 135.265 445.601 135.712 445.265L135.562 445.065ZM134.006 445.513C133.189 445.513 132.533 445.243 132.026 444.708L131.845 444.88C132.403 445.47 133.128 445.763 134.006 445.763V445.513ZM132.027 444.708C131.533 444.186 131.284 443.532 131.284 442.735H131.034C131.034 443.589 131.303 444.307 131.845 444.88L132.027 444.708ZM131.284 442.735C131.284 441.929 131.523 441.274 131.994 440.761L131.81 440.592C131.291 441.158 131.034 441.876 131.034 442.735H131.284ZM131.993 440.761C132.492 440.227 133.141 439.957 133.95 439.957V439.707C133.078 439.707 132.362 440 131.811 440.591L131.993 440.761ZM133.95 439.957C134.759 439.957 135.407 440.227 135.906 440.761L136.089 440.591C135.538 440 134.821 439.707 133.95 439.707V439.957ZM135.905 440.761C136.376 441.274 136.615 441.929 136.615 442.735H136.865C136.865 441.876 136.609 441.158 136.09 440.592L135.905 440.761ZM136.615 442.735V443.073H136.865V442.735H136.615ZM136.74 442.948H132.026V443.198H136.74V442.948ZM131.902 443.087C131.965 443.631 132.183 444.086 132.558 444.446L132.731 444.265C132.401 443.949 132.207 443.549 132.15 443.058L131.902 443.087ZM132.558 444.445C132.944 444.815 133.434 444.998 134.017 444.998V444.748C133.49 444.748 133.065 444.585 132.731 444.265L132.558 444.445ZM133.95 440.472C133.404 440.472 132.938 440.643 132.56 440.989L132.729 441.173C133.056 440.874 133.461 440.722 133.95 440.722V440.472ZM132.559 440.99C132.206 441.319 131.992 441.747 131.913 442.266L132.161 442.304C132.232 441.833 132.423 441.459 132.73 441.173L132.559 440.99ZM132.037 442.41H135.862V442.16H132.037V442.41ZM135.986 442.266C135.907 441.747 135.693 441.319 135.34 440.99L135.17 441.173C135.477 441.459 135.667 441.833 135.739 442.304L135.986 442.266ZM135.339 440.989C134.962 440.643 134.496 440.472 133.95 440.472V440.722C134.439 440.722 134.843 440.874 135.17 441.173L135.339 440.989ZM139.177 445.548V445.673H139.302V445.548H139.177ZM138.334 445.548H138.209V445.673H138.334V445.548ZM138.334 437.672V437.547H138.209V437.672H138.334ZM139.177 437.672H139.302V437.547H139.177V437.672ZM139.177 445.423H138.334V445.673H139.177V445.423ZM138.459 445.548V437.672H138.209V445.548H138.459ZM138.334 437.797H139.177V437.547H138.334V437.797ZM139.052 437.672V445.548H139.302V437.672H139.052Z" fill="black"/>
<path d="M101.574 446.673V446.548H101.449V446.673H101.574ZM140.471 446.673H140.596V446.548H140.471V446.673ZM140.471 447.236V447.361H140.596V447.236H140.471ZM101.574 447.236H101.449V447.361H101.574V447.236ZM101.574 446.798H140.471V446.548H101.574V446.798ZM140.346 446.673V447.236H140.596V446.673H140.346ZM140.471 447.111H101.574V447.361H140.471V447.111ZM101.699 447.236V446.673H101.449V447.236H101.699Z" fill="black"/>
<path d="M90.7075 438.305L89.8262 437.423L86.332 440.917L82.8379 437.423L81.9565 438.305L85.4507 441.799L81.9565 445.293L82.8379 446.174L86.332 442.68L89.8262 446.174L90.7075 445.293L87.2134 441.799L90.7075 438.305Z" fill="black"/>
<line x1="30.0759" y1="385.887" x2="201.345" y2="385.887" stroke="#B2B2B2" stroke-width="0.561771"/>
<path d="M34.4958 383.318C35.0284 383.318 35.4935 383.183 35.891 382.913C36.296 382.643 36.5961 382.279 36.7911 381.822H37.68C37.4324 382.527 37.0236 383.082 36.4536 383.487C35.846 383.922 35.1297 384.14 34.3046 384.14C33.217 384.14 32.3356 383.768 31.6605 383.026C31.023 382.313 30.7042 381.413 30.7042 380.325C30.7042 379.238 31.023 378.338 31.6605 377.625C32.3356 376.883 33.217 376.511 34.3046 376.511C35.1297 376.511 35.846 376.729 36.4536 377.164C37.0236 377.569 37.4324 378.124 37.68 378.829H36.7911C36.5961 378.371 36.296 378.008 35.891 377.738C35.4935 377.468 35.0284 377.333 34.4958 377.333C33.9633 377.333 33.5207 377.411 33.1682 377.569C32.8157 377.719 32.5194 377.929 32.2794 378.199C31.7918 378.746 31.548 379.455 31.548 380.325C31.548 381.195 31.7918 381.904 32.2794 382.452C32.7894 383.029 33.5282 383.318 34.4958 383.318ZM41.769 378.334C42.6091 378.334 43.2917 378.615 43.8167 379.178C44.3118 379.718 44.5593 380.404 44.5593 381.237C44.5593 382.069 44.3118 382.756 43.8167 383.296C43.2917 383.858 42.6091 384.14 41.769 384.14C40.9289 384.14 40.2463 383.858 39.7213 383.296C39.2262 382.756 38.9787 382.069 38.9787 381.237C38.9787 380.404 39.2262 379.718 39.7213 379.178C40.2463 378.615 40.9289 378.334 41.769 378.334ZM41.769 383.374C42.3766 383.374 42.8566 383.164 43.2091 382.744C43.5467 382.347 43.7155 381.844 43.7155 381.237C43.7155 380.629 43.5467 380.127 43.2091 379.729C42.8566 379.309 42.3766 379.099 41.769 379.099C41.1614 379.099 40.6814 379.309 40.3288 379.729C39.9913 380.127 39.8225 380.629 39.8225 381.237C39.8225 381.844 39.9913 382.347 40.3288 382.744C40.6814 383.164 41.1614 383.374 41.769 383.374ZM47.0847 378.424V379.302C47.2872 379.032 47.5347 378.803 47.8273 378.615C48.1198 378.428 48.4536 378.334 48.8286 378.334C49.2037 378.334 49.5262 378.386 49.7962 378.491C50.0663 378.596 50.3025 378.754 50.5051 378.964C50.9701 379.422 51.2026 380.025 51.2026 380.775V384.05H50.3588V380.798C50.3588 380.28 50.2125 379.868 49.92 379.56C49.6275 379.253 49.2487 379.099 48.7836 379.099C48.3111 379.099 47.9098 379.257 47.5797 379.572C47.2497 379.894 47.0847 380.307 47.0847 380.809V384.05H46.2408V378.424H47.0847ZM55.4963 376.883C55.0988 376.883 54.7987 376.973 54.5962 377.153C54.4012 377.325 54.3037 377.606 54.3037 377.996V378.424H55.6088V379.167H54.3037V384.05H53.4598V379.167H52.4922V378.424H53.4598V377.929C53.4598 377.314 53.6436 376.853 54.0111 376.545C54.3787 376.237 54.8887 376.084 55.5413 376.084H55.6088V376.883H55.4963ZM57.0899 378.424H57.9338V384.05H57.0899V378.424ZM57.9675 376.376V377.479H57.0562V376.376H57.9675ZM62.9302 378.334V379.178H62.8289C62.2214 379.178 61.7263 379.422 61.3438 379.909C60.9837 380.374 60.8037 380.929 60.8037 381.574V384.05H59.9599V378.424H60.8037V379.808C60.9837 379.223 61.3738 378.791 61.9739 378.514C62.2214 378.394 62.5214 378.334 62.874 378.334H62.9302ZM65.2449 379.279C65.6199 378.649 66.19 378.334 66.9551 378.334C67.3301 378.334 67.6752 378.435 67.9902 378.638C68.3127 378.833 68.564 379.11 68.744 379.47C68.9991 378.998 69.3966 378.66 69.9367 378.458C70.1542 378.375 70.398 378.334 70.668 378.334C70.9455 378.334 71.208 378.39 71.4556 378.503C71.7106 378.608 71.9356 378.761 72.1306 378.964C72.5507 379.414 72.7607 379.977 72.7607 380.652V384.05H71.9169V380.674C71.9169 380.209 71.7856 379.827 71.5231 379.527C71.2606 379.242 70.9268 379.099 70.5217 379.099C70.0942 379.099 69.7379 379.238 69.4529 379.515C69.1528 379.8 69.0028 380.19 69.0028 380.685V384.05H68.159V380.674C68.159 380.209 68.0277 379.827 67.7652 379.527C67.5026 379.242 67.1688 379.099 66.7638 379.099C66.3363 379.099 65.98 379.238 65.6949 379.515C65.3949 379.8 65.2449 380.19 65.2449 380.685V384.05H64.401V378.424H65.2449V379.279ZM78.7132 384.05H77.8694V376.601H81.2223C82.0099 376.601 82.6362 376.819 83.1012 377.254C83.5588 377.689 83.7876 378.27 83.7876 378.998C83.7876 379.733 83.555 380.318 83.09 380.753C82.6324 381.18 82.0099 381.394 81.2223 381.394H78.7132V384.05ZM78.7132 377.4V380.607H81.166C81.7511 380.607 82.1936 380.464 82.4937 380.179C82.7937 379.894 82.9437 379.504 82.9437 379.009C82.9437 378.506 82.7937 378.113 82.4937 377.828C82.1936 377.543 81.7511 377.4 81.166 377.4H78.7132ZM89.639 383.149C89.1889 383.81 88.5176 384.14 87.625 384.14C86.8149 384.14 86.1549 383.858 85.6448 383.296C85.1497 382.741 84.9022 382.054 84.9022 381.237C84.9022 380.419 85.1497 379.733 85.6448 379.178C86.1549 378.615 86.8337 378.334 87.6813 378.334C88.5289 378.334 89.1814 378.668 89.639 379.335V378.424H90.4828V384.05H89.639V383.149ZM87.7375 383.374C88.3451 383.374 88.8252 383.164 89.1777 382.744C89.5152 382.347 89.684 381.844 89.684 381.237C89.684 380.629 89.5152 380.127 89.1777 379.729C88.8252 379.309 88.3451 379.099 87.7375 379.099C87.1375 379.099 86.6499 379.309 86.2749 379.729C85.9223 380.127 85.7461 380.629 85.7461 381.237C85.7461 381.844 85.9223 382.347 86.2749 382.744C86.6499 383.164 87.1375 383.374 87.7375 383.374ZM95.8129 379.932C95.7378 379.347 95.2653 379.054 94.3952 379.054C93.5326 379.054 93.1013 379.324 93.1013 379.864C93.1013 380.089 93.1913 380.262 93.3713 380.382C93.5589 380.494 93.7914 380.588 94.0689 380.663C94.3464 380.738 94.6465 380.809 94.969 380.877C95.299 380.937 95.6028 381.027 95.8804 381.147C96.1579 381.259 96.3867 381.417 96.5667 381.619C96.7542 381.822 96.848 382.099 96.848 382.452C96.848 382.999 96.6417 383.419 96.2291 383.712C95.8166 383.997 95.2578 384.14 94.5527 384.14C93.8026 384.14 93.2063 383.952 92.7638 383.577C92.3587 383.247 92.1412 382.816 92.1112 382.283H92.9888C93.0413 382.801 93.3338 383.149 93.8664 383.329C94.0614 383.389 94.2527 383.419 94.4402 383.419C94.6352 383.419 94.8152 383.408 94.9803 383.386C95.1453 383.363 95.3065 383.322 95.4641 383.262C95.8241 383.119 96.0041 382.876 96.0041 382.531C96.0041 382.298 95.9104 382.122 95.7228 382.002C95.5428 381.874 95.314 381.773 95.0365 381.698C94.759 381.616 94.4552 381.544 94.1252 381.484C93.8026 381.417 93.5026 381.327 93.2251 381.214C92.9475 381.102 92.715 380.948 92.5275 380.753C92.3475 380.558 92.2575 380.288 92.2575 379.943C92.2575 379.433 92.4412 379.039 92.8088 378.761C93.1838 378.476 93.7351 378.334 94.4627 378.334C95.1528 378.334 95.6966 378.499 96.0941 378.829C96.4242 379.107 96.6154 379.474 96.6679 379.932H95.8129ZM101.803 379.932C101.728 379.347 101.256 379.054 100.386 379.054C99.523 379.054 99.0917 379.324 99.0917 379.864C99.0917 380.089 99.1817 380.262 99.3617 380.382C99.5493 380.494 99.7818 380.588 100.059 380.663C100.337 380.738 100.637 380.809 100.959 380.877C101.289 380.937 101.593 381.027 101.871 381.147C102.148 381.259 102.377 381.417 102.557 381.619C102.745 381.822 102.838 382.099 102.838 382.452C102.838 382.999 102.632 383.419 102.22 383.712C101.807 383.997 101.248 384.14 100.543 384.14C99.793 384.14 99.1967 383.952 98.7542 383.577C98.3491 383.247 98.1316 382.816 98.1016 382.283H98.9792C99.0317 382.801 99.3242 383.149 99.8568 383.329C100.052 383.389 100.243 383.419 100.431 383.419C100.626 383.419 100.806 383.408 100.971 383.386C101.136 383.363 101.297 383.322 101.454 383.262C101.815 383.119 101.995 382.876 101.995 382.531C101.995 382.298 101.901 382.122 101.713 382.002C101.533 381.874 101.304 381.773 101.027 381.698C100.749 381.616 100.446 381.544 100.116 381.484C99.793 381.417 99.493 381.327 99.2155 381.214C98.9379 381.102 98.7054 380.948 98.5179 380.753C98.3379 380.558 98.2479 380.288 98.2479 379.943C98.2479 379.433 98.4316 379.039 98.7992 378.761C99.1742 378.476 99.7255 378.334 100.453 378.334C101.143 378.334 101.687 378.499 102.085 378.829C102.415 379.107 102.606 379.474 102.658 379.932H101.803ZM107.996 379.56L106.59 384.05H105.622L103.856 378.424H104.756L106.106 383.003L107.535 378.424H108.457L109.886 383.003L111.237 378.424H112.137L110.37 384.05H109.403L107.996 379.56ZM115.928 378.334C116.768 378.334 117.451 378.615 117.976 379.178C118.471 379.718 118.719 380.404 118.719 381.237C118.719 382.069 118.471 382.756 117.976 383.296C117.451 383.858 116.768 384.14 115.928 384.14C115.088 384.14 114.406 383.858 113.881 383.296C113.386 382.756 113.138 382.069 113.138 381.237C113.138 380.404 113.386 379.718 113.881 379.178C114.406 378.615 115.088 378.334 115.928 378.334ZM115.928 383.374C116.536 383.374 117.016 383.164 117.368 382.744C117.706 382.347 117.875 381.844 117.875 381.237C117.875 380.629 117.706 380.127 117.368 379.729C117.016 379.309 116.536 379.099 115.928 379.099C115.321 379.099 114.841 379.309 114.488 379.729C114.151 380.127 113.982 380.629 113.982 381.237C113.982 381.844 114.151 382.347 114.488 382.744C114.841 383.164 115.321 383.374 115.928 383.374ZM123.37 378.334V379.178H123.269C122.662 379.178 122.167 379.422 121.784 379.909C121.424 380.374 121.244 380.929 121.244 381.574V384.05H120.4V378.424H121.244V379.808C121.424 379.223 121.814 378.791 122.414 378.514C122.662 378.394 122.962 378.334 123.314 378.334H123.37ZM129.086 383.149C128.636 383.81 127.965 384.14 127.073 384.14C126.262 384.14 125.602 383.858 125.092 383.296C124.597 382.741 124.35 382.054 124.35 381.237C124.35 380.419 124.597 379.733 125.092 379.178C125.602 378.615 126.281 378.334 127.129 378.334C127.976 378.334 128.629 378.668 129.086 379.335V376.174H129.93V384.05H129.086V383.149ZM127.185 383.374C127.793 383.374 128.273 383.164 128.625 382.744C128.963 382.347 129.131 381.844 129.131 381.237C129.131 380.629 128.963 380.127 128.625 379.729C128.273 379.309 127.793 379.099 127.185 379.099C126.585 379.099 126.097 379.309 125.722 379.729C125.37 380.127 125.194 380.629 125.194 381.237C125.194 381.844 125.37 382.347 125.722 382.744C126.097 383.164 126.585 383.374 127.185 383.374Z" fill="#828282" fill-opacity="0.59"/>
<line x1="31.3257" y1="345.257" x2="201.345" y2="345.257" stroke="#B2B2B2" stroke-width="0.561771"/>
<path d="M32.0206 343.04H31.1767V335.592H34.5296C35.3172 335.592 35.9435 335.809 36.4086 336.245C36.8661 336.68 37.0949 337.261 37.0949 337.988C37.0949 338.724 36.8624 339.309 36.3973 339.744C35.9398 340.171 35.3172 340.385 34.5296 340.385H32.0206V343.04ZM32.0206 336.391V339.597H34.4733C35.0584 339.597 35.501 339.455 35.801 339.17C36.101 338.885 36.251 338.495 36.251 338C36.251 337.497 36.101 337.103 35.801 336.818C35.501 336.533 35.0584 336.391 34.4733 336.391H32.0206ZM42.9463 342.14C42.4963 342.8 41.825 343.13 40.9324 343.13C40.1223 343.13 39.4622 342.849 38.9521 342.286C38.4571 341.731 38.2096 341.045 38.2096 340.227C38.2096 339.41 38.4571 338.724 38.9521 338.168C39.4622 337.606 40.141 337.325 40.9886 337.325C41.8362 337.325 42.4888 337.658 42.9463 338.326V337.415H43.7902V343.04H42.9463V342.14ZM41.0449 342.365C41.6524 342.365 42.1325 342.155 42.485 341.735C42.8226 341.338 42.9913 340.835 42.9913 340.227C42.9913 339.62 42.8226 339.117 42.485 338.72C42.1325 338.3 41.6524 338.09 41.0449 338.09C40.4448 338.09 39.9572 338.3 39.5822 338.72C39.2297 339.117 39.0534 339.62 39.0534 340.227C39.0534 340.835 39.2297 341.338 39.5822 341.735C39.9572 342.155 40.4448 342.365 41.0449 342.365ZM49.1202 338.922C49.0452 338.337 48.5726 338.045 47.7025 338.045C46.8399 338.045 46.4086 338.315 46.4086 338.855C46.4086 339.08 46.4986 339.252 46.6787 339.372C46.8662 339.485 47.0987 339.579 47.3762 339.654C47.6538 339.729 47.9538 339.8 48.2763 339.867C48.6064 339.927 48.9102 340.017 49.1877 340.137C49.4652 340.25 49.694 340.407 49.874 340.61C50.0615 340.813 50.1553 341.09 50.1553 341.443C50.1553 341.99 49.949 342.41 49.5365 342.703C49.1239 342.988 48.5651 343.13 47.86 343.13C47.11 343.13 46.5136 342.943 46.0711 342.568C45.6661 342.238 45.4485 341.806 45.4185 341.274H46.2961C46.3486 341.791 46.6412 342.14 47.1737 342.32C47.3687 342.38 47.56 342.41 47.7475 342.41C47.9426 342.41 48.1226 342.399 48.2876 342.376C48.4526 342.354 48.6139 342.313 48.7714 342.253C49.1314 342.11 49.3115 341.866 49.3115 341.521C49.3115 341.289 49.2177 341.113 49.0302 340.993C48.8502 340.865 48.6214 340.764 48.3438 340.689C48.0663 340.606 47.7625 340.535 47.4325 340.475C47.11 340.407 46.8099 340.317 46.5324 340.205C46.2549 340.092 46.0223 339.939 45.8348 339.744C45.6548 339.549 45.5648 339.279 45.5648 338.934C45.5648 338.424 45.7486 338.03 46.1161 337.752C46.4911 337.467 47.0425 337.325 47.77 337.325C48.4601 337.325 49.0039 337.49 49.4015 337.82C49.7315 338.097 49.9228 338.465 49.9753 338.922H49.1202ZM55.1106 338.922C55.0356 338.337 54.563 338.045 53.6929 338.045C52.8303 338.045 52.399 338.315 52.399 338.855C52.399 339.08 52.4891 339.252 52.6691 339.372C52.8566 339.485 53.0891 339.579 53.3666 339.654C53.6442 339.729 53.9442 339.8 54.2667 339.867C54.5968 339.927 54.9006 340.017 55.1781 340.137C55.4556 340.25 55.6844 340.407 55.8644 340.61C56.0519 340.813 56.1457 341.09 56.1457 341.443C56.1457 341.99 55.9394 342.41 55.5269 342.703C55.1143 342.988 54.5555 343.13 53.8505 343.13C53.1004 343.13 52.5041 342.943 52.0615 342.568C51.6565 342.238 51.4389 341.806 51.4089 341.274H52.2865C52.339 341.791 52.6316 342.14 53.1641 342.32C53.3591 342.38 53.5504 342.41 53.7379 342.41C53.933 342.41 54.113 342.399 54.278 342.376C54.443 342.354 54.6043 342.313 54.7618 342.253C55.1218 342.11 55.3019 341.866 55.3019 341.521C55.3019 341.289 55.2081 341.113 55.0206 340.993C54.8406 340.865 54.6118 340.764 54.3343 340.689C54.0567 340.606 53.7529 340.535 53.4229 340.475C53.1004 340.407 52.8003 340.317 52.5228 340.205C52.2453 340.092 52.0127 339.939 51.8252 339.744C51.6452 339.549 51.5552 339.279 51.5552 338.934C51.5552 338.424 51.739 338.03 52.1065 337.752C52.4816 337.467 53.0329 337.325 53.7604 337.325C54.4505 337.325 54.9943 337.49 55.3919 337.82C55.7219 338.097 55.9132 338.465 55.9657 338.922H55.1106ZM61.3035 338.551L59.8971 343.04H58.9295L57.1631 337.415H58.0632L59.4133 341.994L60.8422 337.415H61.7648L63.1937 341.994L64.5439 337.415H65.444L63.6775 343.04H62.7099L61.3035 338.551ZM69.2357 337.325C70.0757 337.325 70.7583 337.606 71.2834 338.168C71.7784 338.709 72.026 339.395 72.026 340.227C72.026 341.06 71.7784 341.746 71.2834 342.286C70.7583 342.849 70.0757 343.13 69.2357 343.13C68.3956 343.13 67.713 342.849 67.1879 342.286C66.6929 341.746 66.4453 341.06 66.4453 340.227C66.4453 339.395 66.6929 338.709 67.1879 338.168C67.713 337.606 68.3956 337.325 69.2357 337.325ZM69.2357 342.365C69.8432 342.365 70.3233 342.155 70.6758 341.735C71.0133 341.338 71.1821 340.835 71.1821 340.227C71.1821 339.62 71.0133 339.117 70.6758 338.72C70.3233 338.3 69.8432 338.09 69.2357 338.09C68.6281 338.09 68.148 338.3 67.7955 338.72C67.458 339.117 67.2892 339.62 67.2892 340.227C67.2892 340.835 67.458 341.338 67.7955 341.735C68.148 342.155 68.6281 342.365 69.2357 342.365ZM76.6778 337.325V338.168H76.5766C75.969 338.168 75.4739 338.412 75.0914 338.9C74.7314 339.365 74.5513 339.92 74.5513 340.565V343.04H73.7075V337.415H74.5513V338.799C74.7314 338.213 75.1214 337.782 75.7215 337.505C75.969 337.385 76.269 337.325 76.6216 337.325H76.6778ZM82.3938 342.14C81.9438 342.8 81.2724 343.13 80.3798 343.13C79.5697 343.13 78.9097 342.849 78.3996 342.286C77.9046 341.731 77.657 341.045 77.657 340.227C77.657 339.41 77.9046 338.724 78.3996 338.168C78.9097 337.606 79.5885 337.325 80.4361 337.325C81.2837 337.325 81.9363 337.658 82.3938 338.326V335.164H83.2377V343.04H82.3938V342.14ZM80.4923 342.365C81.0999 342.365 81.58 342.155 81.9325 341.735C82.27 341.338 82.4388 340.835 82.4388 340.227C82.4388 339.62 82.27 339.117 81.9325 338.72C81.58 338.3 81.0999 338.09 80.4923 338.09C79.8923 338.09 79.4047 338.3 79.0297 338.72C78.6771 339.117 78.5009 339.62 78.5009 340.227C78.5009 340.835 78.6771 341.338 79.0297 341.735C79.4047 342.155 79.8923 342.365 80.4923 342.365Z" fill="#828282" fill-opacity="0.59"/>
<line x1="31.1992" y1="304.097" x2="201.345" y2="304.097" stroke="#B2B2B2" stroke-width="0.561771"/>
<path d="M32.0206 295.393V297.891H36.161V298.712H32.0206V301.221H36.6561V302.031H31.1767V294.583H36.6561V295.393H32.0206ZM39.1934 297.26C39.5685 296.63 40.1385 296.315 40.9036 296.315C41.2787 296.315 41.6237 296.417 41.9387 296.619C42.2613 296.814 42.5125 297.092 42.6926 297.452C42.9476 296.979 43.3451 296.642 43.8852 296.439C44.1027 296.357 44.3465 296.315 44.6165 296.315C44.8941 296.315 45.1566 296.372 45.4041 296.484C45.6591 296.589 45.8842 296.743 46.0792 296.945C46.4992 297.395 46.7093 297.958 46.7093 298.633V302.031H45.8654V298.656C45.8654 298.191 45.7341 297.808 45.4716 297.508C45.2091 297.223 44.8753 297.08 44.4703 297.08C44.0427 297.08 43.6864 297.219 43.4014 297.497C43.1014 297.782 42.9513 298.172 42.9513 298.667V302.031H42.1075V298.656C42.1075 298.191 41.9762 297.808 41.7137 297.508C41.4512 297.223 41.1174 297.08 40.7123 297.08C40.2848 297.08 39.9285 297.219 39.6435 297.497C39.3434 297.782 39.1934 298.172 39.1934 298.667V302.031H38.3496V296.405H39.1934V297.26ZM53.0681 301.131C52.618 301.791 51.9467 302.121 51.0541 302.121C50.244 302.121 49.5839 301.84 49.0739 301.277C48.5788 300.722 48.3313 300.036 48.3313 299.218C48.3313 298.401 48.5788 297.714 49.0739 297.159C49.5839 296.597 50.2627 296.315 51.1103 296.315C51.9579 296.315 52.6105 296.649 53.0681 297.317V296.405H53.9119V302.031H53.0681V301.131ZM51.1666 301.356C51.7742 301.356 52.2542 301.146 52.6068 300.726C52.9443 300.328 53.1131 299.826 53.1131 299.218C53.1131 298.611 52.9443 298.108 52.6068 297.711C52.2542 297.29 51.7742 297.08 51.1666 297.08C50.5665 297.08 50.079 297.29 49.7039 297.711C49.3514 298.108 49.1751 298.611 49.1751 299.218C49.1751 299.826 49.3514 300.328 49.7039 300.726C50.079 301.146 50.5665 301.356 51.1666 301.356ZM55.934 296.405H56.7779V302.031H55.934V296.405ZM56.8116 294.358V295.46H55.9003V294.358H56.8116ZM59.6478 302.031H58.804V294.155H59.6478V302.031Z" fill="#828282" fill-opacity="0.59"/>
<path d="M34.0803 258H33.424V255.707L30.9912 252.207H31.7876L33.7478 255.025L35.708 252.207H36.5044L34.0803 255.707V258ZM38.691 253.555C39.3444 253.555 39.8753 253.773 40.2837 254.211C40.6687 254.631 40.8612 255.165 40.8612 255.812C40.8612 256.46 40.6687 256.994 40.2837 257.414C39.8753 257.851 39.3444 258.07 38.691 258.07C38.0376 258.07 37.5067 257.851 37.0983 257.414C36.7133 256.994 36.5208 256.46 36.5208 255.812C36.5208 255.165 36.7133 254.631 37.0983 254.211C37.5067 253.773 38.0376 253.555 38.691 253.555ZM38.691 257.475C39.1636 257.475 39.5369 257.312 39.8111 256.985C40.0737 256.676 40.2049 256.285 40.2049 255.812C40.2049 255.34 40.0737 254.949 39.8111 254.64C39.5369 254.313 39.1636 254.15 38.691 254.15C38.2185 254.15 37.8451 254.313 37.5709 254.64C37.3084 254.949 37.1771 255.34 37.1771 255.812C37.1771 256.285 37.3084 256.676 37.5709 256.985C37.8451 257.312 38.2185 257.475 38.691 257.475ZM45.3282 258V257.317C45.1707 257.527 44.9782 257.705 44.7506 257.851C44.5231 257.997 44.2635 258.07 43.9718 258.07C43.6801 258.07 43.4292 258.029 43.2192 257.947C43.0092 257.866 42.8254 257.743 42.6679 257.58C42.3062 257.224 42.1254 256.754 42.1254 256.171V253.625H42.7817V256.154C42.7817 256.556 42.8954 256.877 43.123 257.116C43.3505 257.355 43.6451 257.475 44.0068 257.475C44.3744 257.475 44.6865 257.352 44.9432 257.107C45.1999 256.857 45.3282 256.536 45.3282 256.145V253.625H45.9845V258H45.3282ZM52.5941 254.508L51.5002 258H50.7477L49.3738 253.625H50.0738L51.1239 257.186L52.2353 253.625H52.9529L54.0643 257.186L55.1144 253.625H55.8145L54.4406 258H53.688L52.5941 254.508ZM56.8988 253.625H57.5551V258H56.8988V253.625ZM57.5813 252.032V252.889H56.8725V252.032H57.5813ZM59.7873 258H59.1309V251.874H59.7873V258ZM62.0195 258H61.3631V251.874H62.0195V258ZM69.055 258V257.317C68.8974 257.527 68.7049 257.705 68.4774 257.851C68.2499 257.997 67.9903 258.07 67.6986 258.07C67.4069 258.07 67.156 258.029 66.946 257.947C66.7359 257.866 66.5522 257.743 66.3947 257.58C66.033 257.224 65.8521 256.754 65.8521 256.171V253.625H66.5084V256.154C66.5084 256.556 66.6222 256.877 66.8497 257.116C67.0772 257.355 67.3719 257.475 67.7336 257.475C68.1011 257.475 68.4132 257.352 68.6699 257.107C68.9266 256.857 69.055 256.536 69.055 256.145V253.625H69.7113V258H69.055ZM73.8628 254.797C73.8045 254.342 73.4369 254.115 72.7602 254.115C72.0893 254.115 71.7538 254.325 71.7538 254.745C71.7538 254.92 71.8238 255.054 71.9638 255.147C72.1097 255.235 72.2905 255.308 72.5064 255.366C72.7223 255.424 72.9556 255.48 73.2065 255.532C73.4632 255.579 73.6994 255.649 73.9153 255.742C74.1312 255.83 74.3091 255.952 74.4491 256.11C74.595 256.267 74.6679 256.483 74.6679 256.757C74.6679 257.183 74.5074 257.51 74.1866 257.737C73.8657 257.959 73.4311 258.07 72.8827 258.07C72.2993 258.07 71.8355 257.924 71.4913 257.632C71.1762 257.376 71.0071 257.04 70.9837 256.626H71.6663C71.7071 257.029 71.9347 257.3 72.3489 257.44C72.5006 257.487 72.6493 257.51 72.7952 257.51C72.9469 257.51 73.0869 257.501 73.2152 257.484C73.3436 257.466 73.469 257.434 73.5915 257.387C73.8715 257.277 74.0116 257.087 74.0116 256.819C74.0116 256.638 73.9386 256.501 73.7928 256.407C73.6528 256.308 73.4748 256.229 73.259 256.171C73.0431 256.107 72.8068 256.051 72.5501 256.005C72.2993 255.952 72.0659 255.882 71.8501 255.795C71.6342 255.707 71.4534 255.588 71.3075 255.436C71.1675 255.284 71.0975 255.074 71.0975 254.806C71.0975 254.409 71.2404 254.103 71.5263 253.887C71.818 253.665 72.2468 253.555 72.8127 253.555C73.3494 253.555 73.7724 253.683 74.0816 253.94C74.3383 254.155 74.487 254.441 74.5279 254.797H73.8628ZM77.9007 257.475C78.4899 257.475 78.9129 257.23 79.1696 256.74H79.8872C79.7355 257.137 79.4934 257.457 79.1608 257.702C78.8341 257.947 78.4112 258.07 77.8919 258.07C77.2327 258.07 76.696 257.851 76.2818 257.414C75.8792 256.988 75.6779 256.454 75.6779 255.812C75.6779 255.165 75.8705 254.631 76.2555 254.211C76.6639 253.773 77.1948 253.555 77.8482 253.555C78.5016 253.555 79.0325 253.773 79.4409 254.211C79.8259 254.631 80.0184 255.165 80.0184 255.812V256.075H76.3518C76.3984 256.477 76.5589 256.81 76.8331 257.072C77.1131 257.341 77.469 257.475 77.9007 257.475ZM77.8482 254.15C77.4456 254.15 77.1073 254.275 76.8331 254.526C76.5764 254.765 76.4188 255.077 76.3605 255.462H79.3358C79.2775 255.077 79.12 254.765 78.8633 254.526C78.5891 254.275 78.2507 254.15 77.8482 254.15ZM84.7223 259.733H84.0135L84.8098 257.939L83.0246 253.625H83.751L85.1599 257.212L86.595 253.625H87.3126L84.7223 259.733ZM90.1764 253.555C90.8299 253.555 91.3607 253.773 91.7691 254.211C92.1542 254.631 92.3467 255.165 92.3467 255.812C92.3467 256.46 92.1542 256.994 91.7691 257.414C91.3607 257.851 90.8299 258.07 90.1764 258.07C89.523 258.07 88.9921 257.851 88.5838 257.414C88.1987 256.994 88.0062 256.46 88.0062 255.812C88.0062 255.165 88.1987 254.631 88.5838 254.211C88.9921 253.773 89.523 253.555 90.1764 253.555ZM90.1764 257.475C90.649 257.475 91.0224 257.312 91.2966 256.985C91.5591 256.676 91.6904 256.285 91.6904 255.812C91.6904 255.34 91.5591 254.949 91.2966 254.64C91.0224 254.313 90.649 254.15 90.1764 254.15C89.7039 254.15 89.3305 254.313 89.0563 254.64C88.7938 254.949 88.6625 255.34 88.6625 255.812C88.6625 256.285 88.7938 256.676 89.0563 256.985C89.3305 257.312 89.7039 257.475 90.1764 257.475ZM96.8136 258V257.317C96.6561 257.527 96.4636 257.705 96.2361 257.851C96.0086 257.997 95.7489 258.07 95.4572 258.07C95.1655 258.07 94.9147 258.029 94.7047 257.947C94.4946 257.866 94.3109 257.743 94.1533 257.58C93.7916 257.224 93.6108 256.754 93.6108 256.171V253.625H94.2671V256.154C94.2671 256.556 94.3809 256.877 94.6084 257.116C94.8359 257.355 95.1305 257.475 95.4922 257.475C95.8598 257.475 96.1719 257.352 96.4286 257.107C96.6853 256.857 96.8136 256.536 96.8136 256.145V253.625H97.47V258H96.8136ZM101.359 253.555V254.211H101.28C100.808 254.211 100.423 254.4 100.125 254.78C99.845 255.141 99.705 255.573 99.705 256.075V258H99.0487V253.625H99.705V254.701C99.845 254.246 100.148 253.91 100.615 253.695C100.808 253.601 101.041 253.555 101.315 253.555H101.359ZM106.755 257.475C107.344 257.475 107.767 257.23 108.024 256.74H108.741C108.59 257.137 108.348 257.457 108.015 257.702C107.688 257.947 107.265 258.07 106.746 258.07C106.087 258.07 105.55 257.851 105.136 257.414C104.733 256.988 104.532 256.454 104.532 255.812C104.532 255.165 104.725 254.631 105.11 254.211C105.518 253.773 106.049 253.555 106.702 253.555C107.356 253.555 107.887 253.773 108.295 254.211C108.68 254.631 108.873 255.165 108.873 255.812V256.075H105.206C105.253 256.477 105.413 256.81 105.687 257.072C105.967 257.341 106.323 257.475 106.755 257.475ZM106.702 254.15C106.3 254.15 105.962 254.275 105.687 254.526C105.431 254.765 105.273 255.077 105.215 255.462H108.19C108.132 255.077 107.974 254.765 107.718 254.526C107.443 254.275 107.105 254.15 106.702 254.15ZM110.769 254.29C111.06 253.8 111.504 253.555 112.099 253.555C112.39 253.555 112.659 253.633 112.904 253.791C113.155 253.942 113.35 254.158 113.49 254.438C113.688 254.071 113.998 253.808 114.418 253.651C114.587 253.587 114.776 253.555 114.986 253.555C115.202 253.555 115.407 253.598 115.599 253.686C115.797 253.767 115.972 253.887 116.124 254.045C116.451 254.395 116.614 254.832 116.614 255.357V258H115.958V255.375C115.958 255.013 115.856 254.715 115.652 254.482C115.447 254.26 115.188 254.15 114.873 254.15C114.54 254.15 114.263 254.258 114.041 254.473C113.808 254.695 113.691 254.998 113.691 255.383V258H113.035V255.375C113.035 255.013 112.933 254.715 112.729 254.482C112.525 254.26 112.265 254.15 111.95 254.15C111.617 254.15 111.34 254.258 111.119 254.473C110.885 254.695 110.769 254.998 110.769 255.383V258H110.112V253.625H110.769V254.29ZM121.56 257.3C121.21 257.813 120.688 258.07 119.993 258.07C119.363 258.07 118.85 257.851 118.453 257.414C118.068 256.982 117.876 256.448 117.876 255.812C117.876 255.176 118.068 254.643 118.453 254.211C118.85 253.773 119.378 253.555 120.037 253.555C120.696 253.555 121.204 253.814 121.56 254.333V253.625H122.216V258H121.56V257.3ZM120.081 257.475C120.554 257.475 120.927 257.312 121.201 256.985C121.464 256.676 121.595 256.285 121.595 255.812C121.595 255.34 121.464 254.949 121.201 254.64C120.927 254.313 120.554 254.15 120.081 254.15C119.614 254.15 119.235 254.313 118.943 254.64C118.669 254.949 118.532 255.34 118.532 255.812C118.532 256.285 118.669 256.676 118.943 256.985C119.235 257.312 119.614 257.475 120.081 257.475ZM123.789 253.625H124.445V258H123.789V253.625ZM124.472 252.032V252.889H123.763V252.032H124.472ZM126.677 258H126.021V251.874H126.677V258ZM131.026 258V254.202H130.134V253.625H131.026V252.058H131.683V253.625H132.689V254.202H131.683V258H131.026ZM135.659 253.555C136.313 253.555 136.844 253.773 137.252 254.211C137.637 254.631 137.83 255.165 137.83 255.812C137.83 256.46 137.637 256.994 137.252 257.414C136.844 257.851 136.313 258.07 135.659 258.07C135.006 258.07 134.475 257.851 134.067 257.414C133.682 256.994 133.489 256.46 133.489 255.812C133.489 255.165 133.682 254.631 134.067 254.211C134.475 253.773 135.006 253.555 135.659 253.555ZM135.659 257.475C136.132 257.475 136.505 257.312 136.779 256.985C137.042 256.676 137.173 256.285 137.173 255.812C137.173 255.34 137.042 254.949 136.779 254.64C136.505 254.313 136.132 254.15 135.659 254.15C135.187 254.15 134.813 254.313 134.539 254.64C134.277 254.949 134.145 255.34 134.145 255.812C134.145 256.285 134.277 256.676 134.539 256.985C134.813 257.312 135.187 257.475 135.659 257.475ZM144.011 254.797C143.952 254.342 143.585 254.115 142.908 254.115C142.237 254.115 141.902 254.325 141.902 254.745C141.902 254.92 141.972 255.054 142.112 255.147C142.258 255.235 142.438 255.308 142.654 255.366C142.87 255.424 143.104 255.48 143.354 255.532C143.611 255.579 143.847 255.649 144.063 255.742C144.279 255.83 144.457 255.952 144.597 256.11C144.743 256.267 144.816 256.483 144.816 256.757C144.816 257.183 144.655 257.51 144.334 257.737C144.014 257.959 143.579 258.07 143.031 258.07C142.447 258.07 141.983 257.924 141.639 257.632C141.324 257.376 141.155 257.04 141.132 256.626H141.814C141.855 257.029 142.083 257.3 142.497 257.44C142.648 257.487 142.797 257.51 142.943 257.51C143.095 257.51 143.235 257.501 143.363 257.484C143.491 257.466 143.617 257.434 143.739 257.387C144.019 257.277 144.159 257.087 144.159 256.819C144.159 256.638 144.087 256.501 143.941 256.407C143.801 256.308 143.623 256.229 143.407 256.171C143.191 256.107 142.955 256.051 142.698 256.005C142.447 255.952 142.214 255.882 141.998 255.795C141.782 255.707 141.601 255.588 141.455 255.436C141.315 255.284 141.245 255.074 141.245 254.806C141.245 254.409 141.388 254.103 141.674 253.887C141.966 253.665 142.395 253.555 142.961 253.555C143.497 253.555 143.92 253.683 144.229 253.94C144.486 254.155 144.635 254.441 144.676 254.797H144.011ZM146.097 253.625H146.753V258H146.097V253.625ZM146.78 252.032V252.889H146.071V252.032H146.78ZM151.742 254.325V253.625H152.399V257.869C152.399 258.499 152.218 258.977 151.856 259.304C151.5 259.636 151.019 259.803 150.412 259.803C149.805 259.803 149.33 259.686 148.986 259.453C148.647 259.219 148.417 258.91 148.294 258.525H149.021C149.207 258.98 149.633 259.208 150.298 259.208C150.806 259.208 151.173 259.091 151.401 258.858C151.628 258.624 151.742 258.28 151.742 257.825V257.221C151.386 257.74 150.864 258 150.176 258C149.546 258 149.032 257.784 148.636 257.352C148.251 256.932 148.058 256.407 148.058 255.777C148.058 255.147 148.251 254.622 148.636 254.202C149.032 253.77 149.56 253.555 150.22 253.555C150.885 253.555 151.392 253.811 151.742 254.325ZM150.263 257.405C150.502 257.405 150.715 257.364 150.902 257.282C151.089 257.195 151.249 257.078 151.383 256.932C151.646 256.629 151.777 256.244 151.777 255.777C151.777 255.311 151.646 254.925 151.383 254.622C151.098 254.307 150.724 254.15 150.263 254.15C149.791 254.15 149.412 254.307 149.126 254.622C148.851 254.931 148.714 255.316 148.714 255.777C148.714 256.238 148.851 256.623 149.126 256.932C149.412 257.247 149.791 257.405 150.263 257.405ZM154.628 253.625V254.307C154.785 254.097 154.978 253.919 155.205 253.773C155.433 253.627 155.692 253.555 155.984 253.555C156.276 253.555 156.527 253.595 156.737 253.677C156.947 253.759 157.13 253.881 157.288 254.045C157.65 254.4 157.83 254.87 157.83 255.453V258H157.174V255.471C157.174 255.068 157.06 254.748 156.833 254.508C156.605 254.269 156.311 254.15 155.949 254.15C155.581 254.15 155.269 254.272 155.013 254.517C154.756 254.768 154.628 255.089 154.628 255.48V258H153.971V253.625H154.628ZM159.26 255.095H161.448V255.733H159.26V255.095ZM162.922 253.625H163.579V258H162.922V253.625ZM163.605 252.032V252.889H162.896V252.032H163.605ZM165.811 253.625V254.307C165.968 254.097 166.161 253.919 166.388 253.773C166.616 253.627 166.875 253.555 167.167 253.555C167.459 253.555 167.71 253.595 167.92 253.677C168.13 253.759 168.313 253.881 168.471 254.045C168.833 254.4 169.014 254.87 169.014 255.453V258H168.357V255.471C168.357 255.068 168.243 254.748 168.016 254.508C167.788 254.269 167.494 254.15 167.132 254.15C166.765 254.15 166.452 254.272 166.196 254.517C165.939 254.768 165.811 255.089 165.811 255.48V258H165.154V253.625H165.811ZM173.322 258V254.202H172.429V253.625H173.322V252.058H173.978V253.625H174.984V254.202H173.978V258H173.322ZM177.954 253.555C178.608 253.555 179.139 253.773 179.547 254.211C179.932 254.631 180.125 255.165 180.125 255.812C180.125 256.46 179.932 256.994 179.547 257.414C179.139 257.851 178.608 258.07 177.954 258.07C177.301 258.07 176.77 257.851 176.362 257.414C175.977 256.994 175.784 256.46 175.784 255.812C175.784 255.165 175.977 254.631 176.362 254.211C176.77 253.773 177.301 253.555 177.954 253.555ZM177.954 257.475C178.427 257.475 178.8 257.312 179.075 256.985C179.337 256.676 179.468 256.285 179.468 255.812C179.468 255.34 179.337 254.949 179.075 254.64C178.8 254.313 178.427 254.15 177.954 254.15C177.482 254.15 177.109 254.313 176.834 254.64C176.572 254.949 176.441 255.34 176.441 255.812C176.441 256.285 176.572 256.676 176.834 256.985C177.109 257.312 177.482 257.475 177.954 257.475ZM32.7327 269.733H32.0239L32.8202 267.939L31.035 263.625H31.7613L33.1702 267.212L34.6054 263.625H35.323L32.7327 269.733ZM38.1868 263.555C38.8402 263.555 39.3711 263.773 39.7795 264.211C40.1645 264.631 40.357 265.165 40.357 265.812C40.357 266.46 40.1645 266.994 39.7795 267.414C39.3711 267.851 38.8402 268.07 38.1868 268.07C37.5334 268.07 37.0025 267.851 36.5941 267.414C36.2091 266.994 36.0166 266.46 36.0166 265.812C36.0166 265.165 36.2091 264.631 36.5941 264.211C37.0025 263.773 37.5334 263.555 38.1868 263.555ZM38.1868 267.475C38.6594 267.475 39.0327 267.312 39.3069 266.985C39.5695 266.676 39.7007 266.285 39.7007 265.812C39.7007 265.34 39.5695 264.949 39.3069 264.64C39.0327 264.313 38.6594 264.15 38.1868 264.15C37.7142 264.15 37.3409 264.313 37.0667 264.64C36.8041 264.949 36.6729 265.34 36.6729 265.812C36.6729 266.285 36.8041 266.676 37.0667 266.985C37.3409 267.312 37.7142 267.475 38.1868 267.475ZM44.824 268V267.317C44.6665 267.527 44.474 267.705 44.2464 267.851C44.0189 267.997 43.7593 268.07 43.4676 268.07C43.1759 268.07 42.925 268.029 42.715 267.947C42.505 267.866 42.3212 267.743 42.1637 267.58C41.802 267.224 41.6211 266.754 41.6211 266.171V263.625H42.2775V266.154C42.2775 266.556 42.3912 266.877 42.6188 267.116C42.8463 267.355 43.1409 267.475 43.5026 267.475C43.8701 267.475 44.1823 267.352 44.439 267.107C44.6957 266.857 44.824 266.536 44.824 266.145V263.625H45.4803V268H44.824ZM49.3693 263.555V264.211H49.2906C48.818 264.211 48.433 264.4 48.1354 264.78C47.8554 265.141 47.7154 265.573 47.7154 266.075V268H47.0591V263.625H47.7154V264.701C47.8554 264.246 48.1588 263.91 48.6255 263.695C48.818 263.601 49.0514 263.555 49.3256 263.555H49.3693ZM56.2267 267.3C55.8767 267.813 55.3545 268.07 54.6603 268.07C54.0302 268.07 53.5168 267.851 53.1201 267.414C52.7351 266.982 52.5426 266.448 52.5426 265.812C52.5426 265.176 52.7351 264.643 53.1201 264.211C53.5168 263.773 54.0448 263.555 54.704 263.555C55.3633 263.555 55.8708 263.814 56.2267 264.333V263.625H56.883V268H56.2267V267.3ZM54.7478 267.475C55.2204 267.475 55.5937 267.312 55.8679 266.985C56.1305 266.676 56.2617 266.285 56.2617 265.812C56.2617 265.34 56.1305 264.949 55.8679 264.64C55.5937 264.313 55.2204 264.15 54.7478 264.15C54.2811 264.15 53.9019 264.313 53.6102 264.64C53.336 264.949 53.1989 265.34 53.1989 265.812C53.1989 266.285 53.336 266.676 53.6102 266.985C53.9019 267.312 54.2811 267.475 54.7478 267.475ZM60.4773 267.475C60.7573 267.475 61.0053 267.396 61.2211 267.239C61.437 267.081 61.5945 266.877 61.6937 266.626H62.4025C62.2683 267.058 62.0233 267.405 61.6674 267.667C61.2941 267.936 60.8507 268.07 60.3373 268.07C59.6955 268.07 59.1734 267.851 58.7709 267.414C58.38 266.988 58.1845 266.454 58.1845 265.812C58.1845 265.171 58.38 264.637 58.7709 264.211C59.1734 263.773 59.6955 263.555 60.3373 263.555C60.8507 263.555 61.2941 263.689 61.6674 263.957C62.0233 264.22 62.2683 264.567 62.4025 264.998H61.6937C61.5945 264.748 61.437 264.543 61.2211 264.386C61.0053 264.228 60.7573 264.15 60.4773 264.15C60.1973 264.15 59.9581 264.193 59.7597 264.281C59.5672 264.368 59.4038 264.488 59.2697 264.64C58.9838 264.955 58.8409 265.346 58.8409 265.812C58.8409 266.279 58.9838 266.67 59.2697 266.985C59.5614 267.312 59.9639 267.475 60.4773 267.475ZM65.6749 267.475C65.9549 267.475 66.2029 267.396 66.4187 267.239C66.6346 267.081 66.7921 266.877 66.8913 266.626H67.6001C67.4659 267.058 67.2209 267.405 66.865 267.667C66.4917 267.936 66.0483 268.07 65.5349 268.07C64.8931 268.07 64.371 267.851 63.9685 267.414C63.5776 266.988 63.3821 266.454 63.3821 265.812C63.3821 265.171 63.5776 264.637 63.9685 264.211C64.371 263.773 64.8931 263.555 65.5349 263.555C66.0483 263.555 66.4917 263.689 66.865 263.957C67.2209 264.22 67.4659 264.567 67.6001 264.998H66.8913C66.7921 264.748 66.6346 264.543 66.4187 264.386C66.2029 264.228 65.9549 264.15 65.6749 264.15C65.3949 264.15 65.1557 264.193 64.9573 264.281C64.7648 264.368 64.6014 264.488 64.4673 264.64C64.1814 264.955 64.0385 265.346 64.0385 265.812C64.0385 266.279 64.1814 266.67 64.4673 266.985C64.759 267.312 65.1615 267.475 65.6749 267.475ZM70.75 263.555C71.4034 263.555 71.9343 263.773 72.3427 264.211C72.7277 264.631 72.9202 265.165 72.9202 265.812C72.9202 266.46 72.7277 266.994 72.3427 267.414C71.9343 267.851 71.4034 268.07 70.75 268.07C70.0966 268.07 69.5657 267.851 69.1573 267.414C68.7723 266.994 68.5797 266.46 68.5797 265.812C68.5797 265.165 68.7723 264.631 69.1573 264.211C69.5657 263.773 70.0966 263.555 70.75 263.555ZM70.75 267.475C71.2225 267.475 71.5959 267.312 71.8701 266.985C72.1326 266.676 72.2639 266.285 72.2639 265.812C72.2639 265.34 72.1326 264.949 71.8701 264.64C71.5959 264.313 71.2225 264.15 70.75 264.15C70.2774 264.15 69.904 264.313 69.6299 264.64C69.3673 264.949 69.2361 265.34 69.2361 265.812C69.2361 266.285 69.3673 266.676 69.6299 266.985C69.904 267.312 70.2774 267.475 70.75 267.475ZM77.3872 268V267.317C77.2297 267.527 77.0371 267.705 76.8096 267.851C76.5821 267.997 76.3225 268.07 76.0308 268.07C75.7391 268.07 75.4882 268.029 75.2782 267.947C75.0682 267.866 74.8844 267.743 74.7269 267.58C74.3652 267.224 74.1843 266.754 74.1843 266.171V263.625H74.8406V266.154C74.8406 266.556 74.9544 266.877 75.1819 267.116C75.4095 267.355 75.7041 267.475 76.0658 267.475C76.4333 267.475 76.7454 267.352 77.0021 267.107C77.2588 266.857 77.3872 266.536 77.3872 266.145V263.625H78.0435V268H77.3872ZM80.2786 263.625V264.307C80.4361 264.097 80.6286 263.919 80.8561 263.773C81.0836 263.627 81.3433 263.555 81.635 263.555C81.9267 263.555 82.1775 263.595 82.3875 263.677C82.5976 263.759 82.7813 263.881 82.9388 264.045C83.3006 264.4 83.4814 264.87 83.4814 265.453V268H82.8251V265.471C82.8251 265.068 82.7113 264.748 82.4838 264.508C82.2563 264.269 81.9617 264.15 81.5999 264.15C81.2324 264.15 80.9203 264.272 80.6636 264.517C80.4069 264.768 80.2786 265.089 80.2786 265.48V268H79.6222V263.625H80.2786ZM85.3864 268V264.202H84.4938V263.625H85.3864V262.058H86.0427V263.625H87.0491V264.202H86.0427V268H85.3864ZM88.7957 267.107V268H87.9469V267.107H88.7957Z" fill="black"/>
<path d="M33.5863 178.618V183.614H41.8672V185.256H33.5863V190.274H42.8573V191.895H31.8986V176.998H42.8573V178.618H33.5863ZM47.482 180.643V182.398C47.887 181.858 48.3821 181.401 48.9671 181.026C49.5522 180.651 50.2198 180.463 50.9698 180.463C51.7199 180.463 52.365 180.568 52.9051 180.778C53.4451 180.988 53.9177 181.303 54.3227 181.723C55.2528 182.639 55.7179 183.846 55.7179 185.346V191.895H54.0302V185.391C54.0302 184.356 53.7376 183.531 53.1526 182.916C52.5675 182.301 51.8099 181.993 50.8798 181.993C49.9347 181.993 49.1321 182.308 48.4721 182.939C47.812 183.584 47.482 184.409 47.482 185.414V191.895H45.7943V180.643H47.482ZM60.1663 191.895V182.128H57.8711V180.643H60.1663V176.615H61.854V180.643H64.4418V182.128H61.854V191.895H60.1663ZM71.7643 190.544C73.2794 190.544 74.367 189.914 75.0271 188.654H76.8723C76.4823 189.674 75.8597 190.499 75.0046 191.129C74.1645 191.76 73.0769 192.075 71.7417 192.075C70.0466 192.075 68.6664 191.512 67.6013 190.387C66.5662 189.292 66.0486 187.919 66.0486 186.269C66.0486 184.604 66.5437 183.231 67.5338 182.151C68.5839 181.026 69.9491 180.463 71.6292 180.463C73.3094 180.463 74.6746 181.026 75.7247 182.151C76.7148 183.231 77.2099 184.604 77.2099 186.269V186.944H67.7813C67.9013 187.979 68.3139 188.834 69.0189 189.509C69.739 190.199 70.6541 190.544 71.7643 190.544ZM71.6292 181.993C70.5941 181.993 69.724 182.316 69.0189 182.961C68.3589 183.576 67.9538 184.379 67.8038 185.369H75.4547C75.3046 184.379 74.8996 183.576 74.2395 182.961C73.5344 182.316 72.6644 181.993 71.6292 181.993ZM85.8877 180.463V182.151H85.6852C84.4701 182.151 83.48 182.639 82.7149 183.614C81.9948 184.544 81.6348 185.654 81.6348 186.944V191.895H79.9471V180.643H81.6348V183.411C81.9948 182.241 82.7749 181.378 83.975 180.823C84.4701 180.583 85.0701 180.463 85.7752 180.463H85.8877ZM96.8378 196.35H95.0151L97.0629 191.737L92.4723 180.643H94.3401L97.963 189.869L101.653 180.643H103.499L96.8378 196.35ZM110.413 180.463C112.093 180.463 113.458 181.026 114.508 182.151C115.498 183.231 115.993 184.604 115.993 186.269C115.993 187.934 115.498 189.307 114.508 190.387C113.458 191.512 112.093 192.075 110.413 192.075C108.732 192.075 107.367 191.512 106.317 190.387C105.327 189.307 104.832 187.934 104.832 186.269C104.832 184.604 105.327 183.231 106.317 182.151C107.367 181.026 108.732 180.463 110.413 180.463ZM110.413 190.544C111.628 190.544 112.588 190.124 113.293 189.284C113.968 188.489 114.306 187.484 114.306 186.269C114.306 185.054 113.968 184.049 113.293 183.254C112.588 182.413 111.628 181.993 110.413 181.993C109.198 181.993 108.237 182.413 107.532 183.254C106.857 184.049 106.52 185.054 106.52 186.269C106.52 187.484 106.857 188.489 107.532 189.284C108.237 190.124 109.198 190.544 110.413 190.544ZM127.03 191.895V190.139C126.625 190.679 126.13 191.137 125.545 191.512C124.959 191.887 124.292 192.075 123.542 192.075C122.792 192.075 122.147 191.97 121.607 191.76C121.067 191.549 120.594 191.234 120.189 190.814C119.259 189.899 118.794 188.692 118.794 187.192V180.643H120.481V187.147C120.481 188.182 120.774 189.007 121.359 189.622C121.944 190.237 122.702 190.544 123.632 190.544C124.577 190.544 125.379 190.229 126.04 189.599C126.7 188.954 127.03 188.129 127.03 187.124V180.643H128.717V191.895H127.03ZM138.268 180.463V182.151H138.065C136.85 182.151 135.86 182.639 135.095 183.614C134.375 184.544 134.015 185.654 134.015 186.944V191.895H132.327V180.643H134.015V183.411C134.375 182.241 135.155 181.378 136.355 180.823C136.85 180.583 137.45 180.463 138.155 180.463H138.268ZM151.243 190.544C152.758 190.544 153.846 189.914 154.506 188.654H156.351C155.961 189.674 155.338 190.499 154.483 191.129C153.643 191.76 152.556 192.075 151.22 192.075C149.525 192.075 148.145 191.512 147.08 190.387C146.045 189.292 145.527 187.919 145.527 186.269C145.527 184.604 146.022 183.231 147.012 182.151C148.063 181.026 149.428 180.463 151.108 180.463C152.788 180.463 154.153 181.026 155.203 182.151C156.193 183.231 156.688 184.604 156.688 186.269V186.944H147.26C147.38 187.979 147.792 188.834 148.498 189.509C149.218 190.199 150.133 190.544 151.243 190.544ZM151.108 181.993C150.073 181.993 149.203 182.316 148.498 182.961C147.838 183.576 147.432 184.379 147.282 185.369H154.933C154.783 184.379 154.378 183.576 153.718 182.961C153.013 182.316 152.143 181.993 151.108 181.993ZM161.113 182.353C161.863 181.093 163.004 180.463 164.534 180.463C165.284 180.463 165.974 180.666 166.604 181.071C167.249 181.461 167.752 182.016 168.112 182.736C168.622 181.791 169.417 181.116 170.497 180.711C170.932 180.546 171.42 180.463 171.96 180.463C172.515 180.463 173.04 180.576 173.535 180.801C174.045 181.011 174.495 181.318 174.885 181.723C175.725 182.624 176.145 183.749 176.145 185.099V191.895H174.457V185.144C174.457 184.214 174.195 183.449 173.67 182.849C173.145 182.278 172.477 181.993 171.667 181.993C170.812 181.993 170.099 182.271 169.529 182.826C168.929 183.396 168.629 184.176 168.629 185.166V191.895H166.942V185.144C166.942 184.214 166.679 183.449 166.154 182.849C165.629 182.278 164.961 181.993 164.151 181.993C163.296 181.993 162.584 182.271 162.013 182.826C161.413 183.396 161.113 184.176 161.113 185.166V191.895H159.426V180.643H161.113V182.353ZM188.413 190.094C187.512 191.414 186.17 192.075 184.385 192.075C182.764 192.075 181.444 191.512 180.424 190.387C179.434 189.277 178.939 187.904 178.939 186.269C178.939 184.634 179.434 183.261 180.424 182.151C181.444 181.026 182.802 180.463 184.497 180.463C186.192 180.463 187.497 181.131 188.413 182.466V180.643H190.1V191.895H188.413V190.094ZM184.61 190.544C185.825 190.544 186.785 190.124 187.49 189.284C188.165 188.489 188.503 187.484 188.503 186.269C188.503 185.054 188.165 184.049 187.49 183.254C186.785 182.413 185.825 181.993 184.61 181.993C183.41 181.993 182.434 182.413 181.684 183.254C180.979 184.049 180.627 185.054 180.627 186.269C180.627 187.484 180.979 188.489 181.684 189.284C182.434 190.124 183.41 190.544 184.61 190.544ZM193.695 180.643H195.382V191.895H193.695V180.643ZM195.45 176.548V178.753H193.627V176.548H195.45ZM200.672 191.895H198.984V176.143H200.672V191.895ZM40.3146 213.094C39.4145 214.414 38.0718 215.075 36.2866 215.075C34.6664 215.075 33.3463 214.512 32.3262 213.387C31.3361 212.277 30.841 210.904 30.841 209.269C30.841 207.634 31.3361 206.261 32.3262 205.151C33.3463 204.026 34.7039 203.463 36.3991 203.463C38.0943 203.463 39.3995 204.131 40.3146 205.466V203.643H42.0022V214.895H40.3146V213.094ZM36.5116 213.544C37.7268 213.544 38.6869 213.124 39.392 212.284C40.067 211.489 40.4046 210.484 40.4046 209.269C40.4046 208.054 40.067 207.049 39.392 206.254C38.6869 205.413 37.7268 204.993 36.5116 204.993C35.3115 204.993 34.3364 205.413 33.5863 206.254C32.8812 207.049 32.5287 208.054 32.5287 209.269C32.5287 210.484 32.8812 211.489 33.5863 212.284C34.3364 213.124 35.3115 213.544 36.5116 213.544ZM47.2842 203.643V205.398C47.6892 204.858 48.1843 204.401 48.7693 204.026C49.3544 203.651 50.022 203.463 50.7721 203.463C51.5221 203.463 52.1672 203.568 52.7073 203.778C53.2473 203.988 53.7199 204.303 54.1249 204.723C55.055 205.639 55.5201 206.846 55.5201 208.346V214.895H53.8324V208.391C53.8324 207.356 53.5399 206.531 52.9548 205.916C52.3697 205.301 51.6122 204.993 50.6821 204.993C49.737 204.993 48.9344 205.308 48.2743 205.939C47.6142 206.584 47.2842 207.409 47.2842 208.414V214.895H45.5965V203.643H47.2842ZM67.7931 213.094C66.893 214.414 65.5503 215.075 63.7651 215.075C62.145 215.075 60.8248 214.512 59.8047 213.387C58.8146 212.277 58.3195 210.904 58.3195 209.269C58.3195 207.634 58.8146 206.261 59.8047 205.151C60.8248 204.026 62.1825 203.463 63.8777 203.463C65.5728 203.463 66.878 204.131 67.7931 205.466V199.143H69.4808V214.895H67.7931V213.094ZM63.9902 213.544C65.2053 213.544 66.1654 213.124 66.8705 212.284C67.5456 211.489 67.8831 210.484 67.8831 209.269C67.8831 208.054 67.5456 207.049 66.8705 206.254C66.1654 205.413 65.2053 204.993 63.9902 204.993C62.79 204.993 61.8149 205.413 61.0648 206.254C60.3598 207.049 60.0072 208.054 60.0072 209.269C60.0072 210.484 60.3598 211.489 61.0648 212.284C61.8149 213.124 62.79 213.544 63.9902 213.544ZM85.1564 206.659C85.0064 205.488 84.0613 204.903 82.3211 204.903C80.5959 204.903 79.7333 205.443 79.7333 206.524C79.7333 206.974 79.9133 207.319 80.2734 207.559C80.6484 207.784 81.1134 207.971 81.6685 208.121C82.2236 208.271 82.8236 208.414 83.4687 208.549C84.1288 208.669 84.7364 208.849 85.2914 209.089C85.8465 209.314 86.304 209.629 86.6641 210.034C87.0391 210.439 87.2266 210.994 87.2266 211.699C87.2266 212.794 86.8141 213.634 85.989 214.219C85.1639 214.79 84.0463 215.075 82.6361 215.075C81.136 215.075 79.9433 214.7 79.0582 213.949C78.2481 213.289 77.8131 212.427 77.7531 211.362H79.5083C79.6133 212.397 80.1983 213.094 81.2635 213.454C81.6535 213.574 82.0361 213.634 82.4111 213.634C82.8011 213.634 83.1612 213.612 83.4912 213.567C83.8212 213.522 84.1438 213.439 84.4588 213.319C85.1789 213.034 85.5389 212.547 85.5389 211.857C85.5389 211.392 85.3514 211.039 84.9764 210.799C84.6163 210.544 84.1588 210.342 83.6037 210.192C83.0487 210.026 82.4411 209.884 81.781 209.764C81.136 209.629 80.5359 209.449 79.9808 209.224C79.4258 208.999 78.9607 208.691 78.5857 208.301C78.2256 207.911 78.0456 207.371 78.0456 206.681C78.0456 205.661 78.4132 204.873 79.1482 204.318C79.8983 203.748 81.0009 203.463 82.4561 203.463C83.8363 203.463 84.9239 203.793 85.719 204.453C86.379 205.008 86.7616 205.744 86.8666 206.659H85.1564ZM95.0895 213.544C96.6047 213.544 97.6923 212.914 98.3524 211.654H100.198C99.8075 212.674 99.1849 213.499 98.3298 214.129C97.4898 214.76 96.4021 215.075 95.067 215.075C93.3718 215.075 91.9916 214.512 90.9265 213.387C89.8914 212.292 89.3739 210.919 89.3739 209.269C89.3739 207.604 89.8689 206.231 90.859 205.151C91.9091 204.026 93.2743 203.463 94.9545 203.463C96.6347 203.463 97.9998 204.026 99.0499 205.151C100.04 206.231 100.535 207.604 100.535 209.269V209.944H91.1065C91.2266 210.979 91.6391 211.834 92.3442 212.509C93.0643 213.199 93.9794 213.544 95.0895 213.544ZM94.9545 204.993C93.9194 204.993 93.0493 205.316 92.3442 205.961C91.6841 206.576 91.2791 207.379 91.1291 208.369H98.7799C98.6299 207.379 98.2248 206.576 97.5648 205.961C96.8597 205.316 95.9896 204.993 94.9545 204.993ZM104.96 214.895H103.272V199.143H104.96V214.895ZM113.58 213.544C115.095 213.544 116.183 212.914 116.843 211.654H118.688C118.298 212.674 117.676 213.499 116.821 214.129C115.98 214.76 114.893 215.075 113.558 215.075C111.863 215.075 110.482 214.512 109.417 213.387C108.382 212.292 107.865 210.919 107.865 209.269C107.865 207.604 108.36 206.231 109.35 205.151C110.4 204.026 111.765 203.463 113.445 203.463C115.125 203.463 116.491 204.026 117.541 205.151C118.531 206.231 119.026 207.604 119.026 209.269V209.944H109.597C109.717 210.979 110.13 211.834 110.835 212.509C111.555 213.199 112.47 213.544 113.58 213.544ZM113.445 204.993C112.41 204.993 111.54 205.316 110.835 205.961C110.175 206.576 109.77 207.379 109.62 208.369H117.271C117.121 207.379 116.716 206.576 116.055 205.961C115.35 205.316 114.48 204.993 113.445 204.993ZM126.961 213.544C127.681 213.544 128.319 213.342 128.874 212.937C129.429 212.532 129.834 212.007 130.089 211.362H131.912C131.567 212.472 130.937 213.364 130.021 214.039C129.061 214.73 127.921 215.075 126.601 215.075C124.951 215.075 123.608 214.512 122.573 213.387C121.568 212.292 121.065 210.919 121.065 209.269C121.065 207.619 121.568 206.246 122.573 205.151C123.608 204.026 124.951 203.463 126.601 203.463C127.921 203.463 129.061 203.808 130.021 204.498C130.937 205.173 131.567 206.066 131.912 207.176H130.089C129.834 206.531 129.429 206.006 128.874 205.601C128.319 205.196 127.681 204.993 126.961 204.993C126.241 204.993 125.626 205.106 125.116 205.331C124.621 205.556 124.201 205.864 123.856 206.254C123.121 207.064 122.753 208.069 122.753 209.269C122.753 210.469 123.121 211.474 123.856 212.284C124.606 213.124 125.641 213.544 126.961 213.544ZM135.893 214.895V205.128H133.598V203.643H135.893V199.615H137.581V203.643H140.169V205.128H137.581V214.895H135.893ZM156.935 213.094C156.035 214.414 154.692 215.075 152.907 215.075C151.286 215.075 149.966 214.512 148.946 213.387C147.956 212.277 147.461 210.904 147.461 209.269C147.461 207.634 147.956 206.261 148.946 205.151C149.966 204.026 151.324 203.463 153.019 203.463C154.714 203.463 156.02 204.131 156.935 205.466V203.643H158.622V214.895H156.935V213.094ZM153.132 213.544C154.347 213.544 155.307 213.124 156.012 212.284C156.687 211.489 157.025 210.484 157.025 209.269C157.025 208.054 156.687 207.049 156.012 206.254C155.307 205.413 154.347 204.993 153.132 204.993C151.932 204.993 150.956 205.413 150.206 206.254C149.501 207.049 149.149 208.054 149.149 209.269C149.149 210.484 149.501 211.489 150.206 212.284C150.956 213.124 151.932 213.544 153.132 213.544ZM33.2263 228.443C34.1264 227.123 35.469 226.463 37.2542 226.463C38.8744 226.463 40.187 227.026 41.1922 228.151C42.1973 229.261 42.6998 230.634 42.6998 232.269C42.6998 233.904 42.1973 235.277 41.1922 236.387C40.187 237.512 38.8369 238.075 37.1417 238.075C35.4465 238.075 34.1414 237.407 33.2263 236.072V242.35H31.5386V226.643H33.2263V228.443ZM37.0292 227.993C35.8141 227.993 34.854 228.413 34.1489 229.254C33.4738 230.049 33.1363 231.054 33.1363 232.269C33.1363 233.484 33.4738 234.489 34.1489 235.284C34.854 236.124 35.8141 236.544 37.0292 236.544C38.2293 236.544 39.2044 236.124 39.9545 235.284C40.6596 234.489 41.0121 233.484 41.0121 232.269C41.0121 231.054 40.6596 230.049 39.9545 229.254C39.2044 228.413 38.2293 227.993 37.0292 227.993ZM54.3505 236.094C53.4504 237.414 52.1077 238.075 50.3225 238.075C48.7024 238.075 47.3822 237.512 46.3621 236.387C45.372 235.277 44.8769 233.904 44.8769 232.269C44.8769 230.634 45.372 229.261 46.3621 228.151C47.3822 227.026 48.7399 226.463 50.4351 226.463C52.1302 226.463 53.4354 227.131 54.3505 228.466V226.643H56.0382V237.895H54.3505V236.094ZM50.5476 236.544C51.7627 236.544 52.7228 236.124 53.4279 235.284C54.103 234.489 54.4405 233.484 54.4405 232.269C54.4405 231.054 54.103 230.049 53.4279 229.254C52.7228 228.413 51.7627 227.993 50.5476 227.993C49.3474 227.993 48.3723 228.413 47.6222 229.254C46.9172 230.049 46.5646 231.054 46.5646 232.269C46.5646 233.484 46.9172 234.489 47.6222 235.284C48.3723 236.124 49.3474 236.544 50.5476 236.544ZM66.2482 229.659C66.0981 228.488 65.153 227.903 63.4128 227.903C61.6876 227.903 60.8251 228.443 60.8251 229.524C60.8251 229.974 61.0051 230.319 61.3651 230.559C61.7402 230.784 62.2052 230.971 62.7603 231.121C63.3153 231.271 63.9154 231.414 64.5605 231.549C65.2205 231.669 65.8281 231.849 66.3832 232.089C66.9382 232.314 67.3958 232.629 67.7558 233.034C68.1309 233.439 68.3184 233.994 68.3184 234.699C68.3184 235.794 67.9058 236.634 67.0807 237.219C66.2557 237.79 65.138 238.075 63.7279 238.075C62.2277 238.075 61.0351 237.7 60.15 236.949C59.3399 236.289 58.9048 235.427 58.8448 234.362H60.6C60.705 235.397 61.2901 236.094 62.3552 236.454C62.7453 236.574 63.1278 236.634 63.5029 236.634C63.8929 236.634 64.2529 236.612 64.583 236.567C64.913 236.522 65.2355 236.439 65.5506 236.319C66.2707 236.034 66.6307 235.547 66.6307 234.857C66.6307 234.392 66.4432 234.039 66.0681 233.799C65.7081 233.544 65.2505 233.342 64.6955 233.192C64.1404 233.026 63.5329 232.884 62.8728 232.764C62.2277 232.629 61.6276 232.449 61.0726 232.224C60.5175 231.999 60.0525 231.691 59.6774 231.301C59.3174 230.911 59.1374 230.371 59.1374 229.681C59.1374 228.661 59.5049 227.873 60.24 227.318C60.9901 226.748 62.0927 226.463 63.5479 226.463C64.928 226.463 66.0156 226.793 66.8107 227.453C67.4708 228.008 67.8533 228.744 67.9583 229.659H66.2482ZM77.7789 229.659C77.6289 228.488 76.6838 227.903 74.9436 227.903C73.2184 227.903 72.3558 228.443 72.3558 229.524C72.3558 229.974 72.5358 230.319 72.8959 230.559C73.2709 230.784 73.736 230.971 74.291 231.121C74.8461 231.271 75.4462 231.414 76.0912 231.549C76.7513 231.669 77.3589 231.849 77.9139 232.089C78.469 232.314 78.9265 232.629 79.2866 233.034C79.6616 233.439 79.8492 233.994 79.8492 234.699C79.8492 235.794 79.4366 236.634 78.6115 237.219C77.7864 237.79 76.6688 238.075 75.2586 238.075C73.7585 238.075 72.5658 237.7 71.6807 236.949C70.8707 236.289 70.4356 235.427 70.3756 234.362H72.1308C72.2358 235.397 72.8209 236.094 73.886 236.454C74.276 236.574 74.6586 236.634 75.0336 236.634C75.4237 236.634 75.7837 236.612 76.1137 236.567C76.4438 236.522 76.7663 236.439 77.0813 236.319C77.8014 236.034 78.1615 235.547 78.1615 234.857C78.1615 234.392 77.9739 234.039 77.5989 233.799C77.2389 233.544 76.7813 233.342 76.2263 233.192C75.6712 233.026 75.0636 232.884 74.4035 232.764C73.7585 232.629 73.1584 232.449 72.6033 232.224C72.0483 231.999 71.5832 231.691 71.2082 231.301C70.8482 230.911 70.6681 230.371 70.6681 229.681C70.6681 228.661 71.0357 227.873 71.7708 227.318C72.5208 226.748 73.6235 226.463 75.0786 226.463C76.4588 226.463 77.5464 226.793 78.3415 227.453C79.0016 228.008 79.3841 228.744 79.4891 229.659H77.7789ZM89.7147 228.916L86.9019 237.895H84.9667L81.4338 226.643H83.234L85.9343 235.802L88.7921 226.643H90.6373L93.4952 235.802L96.1955 226.643H97.9957L94.4628 237.895H92.5275L89.7147 228.916ZM105.129 226.463C106.809 226.463 108.174 227.026 109.224 228.151C110.215 229.231 110.71 230.604 110.71 232.269C110.71 233.934 110.215 235.307 109.224 236.387C108.174 237.512 106.809 238.075 105.129 238.075C103.449 238.075 102.084 237.512 101.033 236.387C100.043 235.307 99.5483 233.934 99.5483 232.269C99.5483 230.604 100.043 229.231 101.033 228.151C102.084 227.026 103.449 226.463 105.129 226.463ZM105.129 236.544C106.344 236.544 107.304 236.124 108.009 235.284C108.684 234.489 109.022 233.484 109.022 232.269C109.022 231.054 108.684 230.049 108.009 229.254C107.304 228.413 106.344 227.993 105.129 227.993C103.914 227.993 102.954 228.413 102.249 229.254C101.574 230.049 101.236 231.054 101.236 232.269C101.236 233.484 101.574 234.489 102.249 235.284C102.954 236.124 103.914 236.544 105.129 236.544ZM119.563 226.463V228.151H119.361C118.146 228.151 117.155 228.639 116.39 229.614C115.67 230.544 115.31 231.654 115.31 232.944V237.895H113.623V226.643H115.31V229.411C115.67 228.241 116.45 227.378 117.651 226.823C118.146 226.583 118.746 226.463 119.451 226.463H119.563ZM130.545 236.094C129.645 237.414 128.302 238.075 126.517 238.075C124.897 238.075 123.577 237.512 122.557 236.387C121.567 235.277 121.072 233.904 121.072 232.269C121.072 230.634 121.567 229.261 122.557 228.151C123.577 227.026 124.935 226.463 126.63 226.463C128.325 226.463 129.63 227.131 130.545 228.466V222.143H132.233V237.895H130.545V236.094ZM126.742 236.544C127.957 236.544 128.917 236.124 129.623 235.284C130.298 234.489 130.635 233.484 130.635 232.269C130.635 231.054 130.298 230.049 129.623 229.254C128.917 228.413 127.957 227.993 126.742 227.993C125.542 227.993 124.567 228.413 123.817 229.254C123.112 230.049 122.759 231.054 122.759 232.269C122.759 233.484 123.112 234.489 123.817 235.284C124.567 236.124 125.542 236.544 126.742 236.544ZM137.74 235.599V237.895H135.557V235.599H137.74Z" fill="black"/>
<path d="M103.756 116.803L93.0363 116.803C92.3864 116.803 91.8483 117.285 91.9076 117.932C92.2167 121.305 94.6872 128.772 99.0852 130.188C99.1152 130.197 99.1425 130.205 99.1732 130.212C99.6785 130.329 104.512 131.434 107.046 131.573C110.548 131.766 116.338 129.342 116.338 129.342" stroke="#567FD5" stroke-width="5.65409" stroke-linecap="round" stroke-linejoin="round"/>
<path d="M101.932 115.238C101.073 116.542 101.434 118.295 102.738 119.154C104.041 120.013 105.795 119.652 106.654 118.348L101.932 115.238ZM131.506 122.964C132.211 121.571 131.654 119.87 130.26 119.165C128.867 118.46 127.167 119.018 126.462 120.411L131.506 122.964ZM137.666 116.695L140.347 115.798L137.666 116.695ZM137.714 116.881L140.501 116.407L137.714 116.881ZM106.654 118.348C108.404 115.691 110.717 112.782 113.306 110.327C115.923 107.845 118.655 105.987 121.227 105.181C123.679 104.412 125.925 104.598 128.058 106.122C130.338 107.751 132.828 111.153 134.985 117.593L140.347 115.798C138.013 108.831 135.009 104.14 131.345 101.521C127.532 98.797 123.381 98.5802 119.536 99.7857C115.811 100.953 112.345 103.446 109.416 106.224C106.458 109.028 103.875 112.287 101.932 115.238L106.654 118.348ZM134.927 117.355C135.05 118.081 135.929 123.305 136.574 128.595C136.897 131.249 137.154 133.858 137.233 135.905C137.273 136.936 137.265 137.749 137.215 138.322C137.19 138.609 137.159 138.771 137.142 138.838C137.114 138.953 137.147 138.72 137.388 138.404L141.882 141.836C142.327 141.253 142.526 140.616 142.628 140.209C142.742 139.753 142.807 139.273 142.847 138.816C142.928 137.901 142.927 136.818 142.883 135.686C142.794 133.406 142.516 130.616 142.186 127.912C141.525 122.486 140.628 117.157 140.501 116.407L134.927 117.355ZM137.388 138.404C136.853 139.106 135.808 139.941 134.583 140.17C133.554 140.363 131.915 140.225 129.755 138.103L125.793 142.137C129.055 145.341 132.499 146.312 135.622 145.728C138.548 145.18 140.723 143.353 141.882 141.836L137.388 138.404ZM129.755 138.103C129.054 137.415 128.606 136.351 128.495 134.793C128.384 133.226 128.636 131.409 129.089 129.589C129.536 127.791 130.145 126.121 130.649 124.89C130.899 124.278 131.119 123.785 131.275 123.449C131.353 123.281 131.414 123.154 131.454 123.071C131.474 123.03 131.489 123 131.498 122.982C131.502 122.973 131.505 122.967 131.507 122.964C131.507 122.962 131.508 122.961 131.508 122.962C131.508 122.962 131.508 122.962 131.507 122.962C131.507 122.962 131.507 122.963 131.507 122.963C131.507 122.963 131.506 122.964 128.984 121.688C126.462 120.411 126.461 120.412 126.461 120.412C126.461 120.413 126.46 120.413 126.46 120.414C126.459 120.415 126.459 120.417 126.458 120.418C126.456 120.422 126.454 120.426 126.452 120.43C126.447 120.44 126.441 120.453 126.433 120.469C126.417 120.501 126.395 120.545 126.368 120.601C126.313 120.713 126.237 120.872 126.144 121.073C125.958 121.475 125.703 122.047 125.416 122.748C124.846 124.141 124.135 126.08 123.602 128.224C123.074 130.347 122.685 132.805 122.855 135.194C123.026 137.59 123.782 140.162 125.793 142.137L129.755 138.103ZM134.985 117.593C134.979 117.574 134.968 117.541 134.957 117.497C134.945 117.452 134.935 117.404 134.927 117.355L140.501 116.407C140.46 116.17 140.404 115.968 140.347 115.798L134.985 117.593Z" fill="#567FD5"/>
<ellipse cx="118.901" cy="113.425" rx="2.53869" ry="2.52798" fill="#567FD5"/>
<path d="M27.4723 40.4228L26.3597 39.3164L20.1777 45.5046L26.3659 51.6928L27.4723 50.5864L22.3905 45.5046L27.4723 40.4228Z" fill="black" fill-opacity="0.54"/>
<path opacity="0.35" d="M214.159 15.5014C214.159 14.7535 214.765 14.1471 215.513 14.1471H225.931C226.679 14.1471 227.285 14.7535 227.285 15.5014V19.2519C227.285 19.9998 226.679 20.6062 225.931 20.6062H215.513C214.765 20.6062 214.159 19.9998 214.159 19.2519V15.5014Z" stroke="black" stroke-width="0.625069"/>
<path opacity="0.4" d="M228.223 16.1265V18.6267C228.726 18.415 229.053 17.9224 229.053 17.3766C229.053 16.8308 228.726 16.3382 228.223 16.1265Z" fill="black"/>
<path d="M215.096 15.9181C215.096 15.4579 215.47 15.0847 215.93 15.0847H225.514C225.975 15.0847 226.348 15.4579 226.348 15.9181V18.8351C226.348 19.2954 225.975 19.6686 225.514 19.6686H215.93C215.47 19.6686 215.096 19.2954 215.096 18.8351V15.9181Z" fill="black"/>
<path fill-rule="evenodd" clip-rule="evenodd" d="M205.927 15.2564C207.312 15.2564 208.644 15.7886 209.648 16.743C209.723 16.8167 209.844 16.8157 209.919 16.7409L210.641 16.0117C210.679 15.9737 210.7 15.9223 210.7 15.8688C210.699 15.8153 210.678 15.7641 210.64 15.7266C208.005 13.2016 203.848 13.2016 201.213 15.7266C201.175 15.7641 201.154 15.8153 201.153 15.8688C201.153 15.9223 201.174 15.9737 201.212 16.0117L201.934 16.7409C202.009 16.8159 202.13 16.8168 202.205 16.743C203.209 15.7886 204.542 15.2564 205.927 15.2564ZM205.927 17.6289C206.688 17.6289 207.422 17.9118 207.986 18.4226C208.062 18.4951 208.182 18.4935 208.257 18.419L208.978 17.6898C209.016 17.6515 209.037 17.5996 209.037 17.5457C209.036 17.4918 209.014 17.4403 208.975 17.4029C207.258 15.805 204.597 15.805 202.88 17.4029C202.841 17.4403 202.819 17.4918 202.818 17.5458C202.818 17.5997 202.839 17.6516 202.877 17.6898L203.598 18.419C203.673 18.4935 203.793 18.4951 203.869 18.4226C204.433 17.9121 205.166 17.6293 205.927 17.6289ZM207.373 19.2252C207.374 19.2793 207.352 19.3315 207.314 19.3693L206.065 20.6293C206.029 20.6663 205.979 20.6871 205.927 20.6871C205.875 20.6871 205.825 20.6663 205.788 20.6293L204.54 19.3693C204.501 19.3314 204.48 19.2793 204.481 19.2252C204.482 19.1711 204.505 19.1199 204.546 19.0837C205.343 18.4093 206.511 18.4093 207.308 19.0837C207.348 19.12 207.371 19.1712 207.373 19.2252Z" fill="black"/>
<path fill-rule="evenodd" clip-rule="evenodd" d="M197.386 14.0428H196.761C196.416 14.0428 196.136 14.3227 196.136 14.6679V20.0852C196.136 20.4304 196.416 20.7103 196.761 20.7103H197.386C197.731 20.7103 198.011 20.4304 198.011 20.0852V14.6679C198.011 14.3227 197.731 14.0428 197.386 14.0428ZM193.844 15.5014H194.469C194.814 15.5014 195.094 15.7812 195.094 16.1264V20.0852C195.094 20.4304 194.814 20.7103 194.469 20.7103H193.844C193.499 20.7103 193.219 20.4304 193.219 20.0852V16.1264C193.219 15.7812 193.499 15.5014 193.844 15.5014ZM191.552 16.9598H190.927C190.582 16.9598 190.302 17.2397 190.302 17.5849V20.0852C190.302 20.4304 190.582 20.7102 190.927 20.7102H191.552C191.897 20.7102 192.177 20.4304 192.177 20.0852V17.5849C192.177 17.2397 191.897 16.9598 191.552 16.9598ZM188.635 18.2099H188.01C187.665 18.2099 187.385 18.4898 187.385 18.835V20.0852C187.385 20.4304 187.665 20.7102 188.01 20.7102H188.635C188.98 20.7102 189.26 20.4304 189.26 20.0852V18.835C189.26 18.4898 188.98 18.2099 188.635 18.2099Z" fill="black"/>
<path d="M25.5807 19.199L26.3727 19.1257C26.4399 19.4981 26.5681 19.7682 26.7573 19.9361C26.9465 20.1039 27.1892 20.1879 27.4852 20.1879C27.7386 20.1879 27.9598 20.1299 28.1491 20.0139C28.3413 19.8979 28.4985 19.7438 28.6206 19.5515C28.7427 19.3562 28.8449 19.0937 28.9274 18.7641C29.0098 18.4344 29.051 18.0987 29.051 17.7569C29.051 17.7202 29.0494 17.6653 29.0464 17.5921C28.8816 17.8545 28.6557 18.0682 28.3688 18.233C28.085 18.3948 27.7767 18.4756 27.444 18.4756C26.8886 18.4756 26.4185 18.2742 26.034 17.8713C25.6494 17.4684 25.4571 16.9374 25.4571 16.2781C25.4571 15.5975 25.657 15.0497 26.0569 14.6346C26.4597 14.2195 26.9633 14.0119 27.5676 14.0119C28.0041 14.0119 28.4024 14.1295 28.7625 14.3645C29.1257 14.5995 29.4004 14.9352 29.5866 15.3717C29.7758 15.8051 29.8704 16.4338 29.8704 17.2579C29.8704 18.1155 29.7774 18.7992 29.5912 19.3089C29.405 19.8155 29.1273 20.2016 28.758 20.4671C28.3917 20.7327 27.9614 20.8654 27.4669 20.8654C26.942 20.8654 26.5131 20.7205 26.1805 20.4305C25.8478 20.1375 25.6479 19.727 25.5807 19.199ZM28.9548 16.2369C28.9548 15.7639 28.8282 15.3884 28.5748 15.1107C28.3246 14.833 28.0224 14.6941 27.6684 14.6941C27.3021 14.6941 26.9832 14.8436 26.7115 15.1428C26.4399 15.4419 26.3041 15.8295 26.3041 16.3056C26.3041 16.7329 26.4323 17.0808 26.6886 17.3494C26.9481 17.6149 27.267 17.7477 27.6455 17.7477C28.027 17.7477 28.3398 17.6149 28.584 17.3494C28.8312 17.0808 28.9548 16.71 28.9548 16.2369ZM30.9465 16.8275V15.889H31.885V16.8275H30.9465ZM30.9465 20.751V19.8125H31.885V20.751H30.9465ZM35.5523 20.751V19.144H32.6406V18.3887L35.7034 14.0394H36.3764V18.3887H37.2828V19.144H36.3764V20.751H35.5523ZM35.5523 18.3887V15.3625L33.4509 18.3887H35.5523ZM41.0462 20.751H40.2222V15.4998C40.0238 15.6891 39.7628 15.8783 39.4393 16.0675C39.1188 16.2568 38.8304 16.3987 38.574 16.4933V15.6967C39.0349 15.48 39.4378 15.2175 39.7827 14.9093C40.1276 14.601 40.3717 14.3019 40.5152 14.0119H41.0462V20.751Z" fill="black"/>
<path d="M25.5807 19.199L25.5663 19.0434L25.4053 19.0583L25.4257 19.2187L25.5807 19.199ZM26.3727 19.1257L26.5265 19.098L26.5011 18.9569L26.3584 18.9701L26.3727 19.1257ZM28.1491 20.0139L28.0684 19.8801L28.0674 19.8807L28.1491 20.0139ZM28.6206 19.5515L28.7525 19.6353L28.7531 19.6343L28.6206 19.5515ZM29.0464 17.5921L29.2025 17.5856L29.1816 17.0829L28.914 17.509L29.0464 17.5921ZM28.3688 18.233L28.4462 18.3688L28.4467 18.3685L28.3688 18.233ZM26.0569 14.6346L25.9447 14.5257L25.9443 14.5262L26.0569 14.6346ZM28.7625 14.3645L28.6771 14.4953L28.6776 14.4957L28.7625 14.3645ZM29.5866 15.3717L29.4429 15.433L29.4434 15.4342L29.5866 15.3717ZM29.5912 19.3089L29.7379 19.3628L29.738 19.3625L29.5912 19.3089ZM28.758 20.4671L28.6667 20.3403L28.6662 20.3406L28.758 20.4671ZM26.1805 20.4305L26.0772 20.5478L26.0778 20.5483L26.1805 20.4305ZM28.5748 15.1107L28.4587 15.2153L28.4594 15.216L28.5748 15.1107ZM26.6886 17.3494L26.5756 17.4573L26.5769 17.4586L26.6886 17.3494ZM28.584 17.3494L28.469 17.2436L28.469 17.2436L28.584 17.3494ZM25.5951 19.3546L26.3871 19.2813L26.3584 18.9701L25.5663 19.0434L25.5951 19.3546ZM26.219 19.1535C26.2894 19.544 26.428 19.8528 26.6536 20.053L26.861 19.8192C26.7082 19.6836 26.5904 19.4522 26.5265 19.098L26.219 19.1535ZM26.6536 20.053C26.8762 20.2504 27.1579 20.3441 27.4852 20.3441V20.0316C27.2205 20.0316 27.0169 19.9574 26.861 19.8192L26.6536 20.053ZM27.4852 20.3441C27.7632 20.3441 28.0136 20.2802 28.2307 20.1471L28.0674 19.8807C27.9061 19.9795 27.7139 20.0316 27.4852 20.0316V20.3441ZM28.2298 20.1477C28.4431 20.019 28.6177 19.8477 28.7525 19.6353L28.4887 19.4677C28.3794 19.6399 28.2396 19.7768 28.0684 19.8801L28.2298 20.1477ZM28.7531 19.6343C28.887 19.4202 28.9943 19.1407 29.079 18.802L28.7757 18.7262C28.6956 19.0467 28.5984 19.2921 28.4881 19.4687L28.7531 19.6343ZM29.079 18.802C29.1645 18.4599 29.2072 18.1114 29.2072 17.7569H28.8947C28.8947 18.086 28.855 18.409 28.7757 18.7262L29.079 18.802ZM29.2072 17.7569C29.2072 17.7169 29.2056 17.6593 29.2025 17.5856L28.8903 17.5986C28.8933 17.6713 28.8947 17.7236 28.8947 17.7569H29.2072ZM28.914 17.509C28.7637 17.7483 28.5572 17.9445 28.291 18.0975L28.4467 18.3685C28.7542 18.1918 28.9994 17.9608 29.1787 17.6752L28.914 17.509ZM28.2914 18.0972C28.0316 18.2453 27.7501 18.3194 27.444 18.3194V18.6319C27.8033 18.6319 28.1383 18.5442 28.4462 18.3688L28.2914 18.0972ZM27.444 18.3194C26.9314 18.3194 26.5022 18.1355 26.147 17.7634L25.9209 17.9792C26.3349 18.4129 26.8457 18.6319 27.444 18.6319V18.3194ZM26.147 17.7634C25.7952 17.3949 25.6134 16.9051 25.6134 16.2781H25.3009C25.3009 16.9697 25.5036 17.542 25.9209 17.9792L26.147 17.7634ZM25.6134 16.2781C25.6134 15.6301 25.8026 15.1238 26.1694 14.743L25.9443 14.5262C25.5114 14.9756 25.3009 15.5649 25.3009 16.2781H25.6134ZM26.169 14.7434C26.541 14.3601 27.0035 14.1682 27.5676 14.1682V13.8557C26.9232 13.8557 26.3785 14.0789 25.9447 14.5257L26.169 14.7434ZM27.5676 14.1682C27.9742 14.1682 28.3428 14.2772 28.6771 14.4953L28.8479 14.2336C28.462 13.9818 28.0339 13.8557 27.5676 13.8557V14.1682ZM28.6776 14.4957C29.0122 14.7121 29.2677 15.0223 29.4429 15.433L29.7303 15.3103C29.5332 14.8482 29.2393 14.4868 28.8474 14.2333L28.6776 14.4957ZM29.4434 15.4342C29.6199 15.8383 29.7142 16.4417 29.7142 17.2579H30.0267C30.0267 16.4259 29.9318 15.7718 29.7298 15.3091L29.4434 15.4342ZM29.7142 17.2579C29.7142 18.1066 29.6217 18.7697 29.4444 19.2552L29.738 19.3625C29.933 18.8286 30.0267 18.1244 30.0267 17.2579H29.7142ZM29.4445 19.255C29.267 19.7379 29.0062 20.0961 28.6667 20.3403L28.8492 20.594C29.2483 20.3071 29.543 19.8931 29.7379 19.3628L29.4445 19.255ZM28.6662 20.3406C28.3292 20.585 27.9316 20.7092 27.4669 20.7092V21.0217C27.9911 21.0217 28.4543 20.8803 28.8497 20.5936L28.6662 20.3406ZM27.4669 20.7092C26.9722 20.7092 26.5822 20.5733 26.2831 20.3127L26.0778 20.5483C26.4441 20.8676 26.9117 21.0217 27.4669 21.0217V20.7092ZM26.2837 20.3132C25.9851 20.0502 25.7991 19.6775 25.7357 19.1793L25.4257 19.2187C25.4966 19.7765 25.7105 20.2248 26.0772 20.5478L26.2837 20.3132ZM29.1111 16.2369C29.1111 15.7354 28.9762 15.3188 28.6903 15.0054L28.4594 15.216C28.6802 15.4581 28.7986 15.7923 28.7986 16.2369H29.1111ZM28.6909 15.0061C28.4129 14.6976 28.0694 14.5378 27.6684 14.5378V14.8504C27.9754 14.8504 28.2362 14.9684 28.4587 15.2153L28.6909 15.0061ZM27.6684 14.5378C27.2532 14.5378 26.8937 14.7097 26.5958 15.0377L26.8272 15.2478C27.0726 14.9776 27.351 14.8504 27.6684 14.8504V14.5378ZM26.5958 15.0377C26.2935 15.3706 26.1478 15.798 26.1478 16.3056H26.4603C26.4603 15.861 26.5862 15.5131 26.8272 15.2478L26.5958 15.0377ZM26.1478 16.3056C26.1478 16.7666 26.2873 17.1553 26.5756 17.4573L26.8017 17.2415C26.5772 17.0064 26.4603 16.6992 26.4603 16.3056H26.1478ZM26.5769 17.4586C26.8663 17.7549 27.2259 17.904 27.6455 17.904V17.5914C27.3082 17.5914 27.0298 17.475 26.8004 17.2402L26.5769 17.4586ZM27.6455 17.904C28.0679 17.904 28.4234 17.7549 28.699 17.4552L28.469 17.2436C28.2563 17.475 27.9861 17.5914 27.6455 17.5914V17.904ZM28.699 17.4552C28.9799 17.1501 29.1111 16.7373 29.1111 16.2369H28.7986C28.7986 16.6828 28.6826 17.0116 28.469 17.2436L28.699 17.4552ZM30.9465 16.8275H30.7902V16.9838H30.9465V16.8275ZM30.9465 15.889V15.7327H30.7902V15.889H30.9465ZM31.885 15.889H32.0413V15.7327H31.885V15.889ZM31.885 16.8275V16.9838H32.0413V16.8275H31.885ZM30.9465 20.751H30.7902V20.9072H30.9465V20.751ZM30.9465 19.8125V19.6562H30.7902V19.8125H30.9465ZM31.885 19.8125H32.0413V19.6562H31.885V19.8125ZM31.885 20.751V20.9072H32.0413V20.751H31.885ZM31.1028 16.8275V15.889H30.7902V16.8275H31.1028ZM30.9465 16.0453H31.885V15.7327H30.9465V16.0453ZM31.7287 15.889V16.8275H32.0413V15.889H31.7287ZM31.885 16.6712H30.9465V16.9838H31.885V16.6712ZM31.1028 20.751V19.8125H30.7902V20.751H31.1028ZM30.9465 19.9687H31.885V19.6562H30.9465V19.9687ZM31.7287 19.8125V20.751H32.0413V19.8125H31.7287ZM31.885 20.5947H30.9465V20.9072H31.885V20.5947ZM35.5523 20.751H35.396V20.9072H35.5523V20.751ZM35.5523 19.144H35.7086V18.9878H35.5523V19.144ZM32.6406 19.144H32.4843V19.3003H32.6406V19.144ZM32.6406 18.3887L32.5128 18.2987L32.4843 18.3392V18.3887H32.6406ZM35.7034 14.0394V13.8832H35.6223L35.5756 13.9494L35.7034 14.0394ZM36.3764 14.0394H36.5326V13.8832H36.3764V14.0394ZM36.3764 18.3887H36.2201V18.5449H36.3764V18.3887ZM37.2828 18.3887H37.4391V18.2324H37.2828V18.3887ZM37.2828 19.144V19.3003H37.4391V19.144H37.2828ZM36.3764 19.144V18.9878H36.2201V19.144H36.3764ZM36.3764 20.751V20.9072H36.5326V20.751H36.3764ZM35.5523 18.3887V18.5449H35.7086V18.3887H35.5523ZM35.5523 15.3625H35.7086V14.8635L35.4239 15.2734L35.5523 15.3625ZM33.4509 18.3887L33.3226 18.2995L33.1522 18.5449H33.4509V18.3887ZM35.7086 20.751V19.144H35.396V20.751H35.7086ZM35.5523 18.9878H32.6406V19.3003H35.5523V18.9878ZM32.7969 19.144V18.3887H32.4843V19.144H32.7969ZM32.7684 18.4786L35.8311 14.1294L35.5756 13.9494L32.5128 18.2987L32.7684 18.4786ZM35.7034 14.1957H36.3764V13.8832H35.7034V14.1957ZM36.2201 14.0394V18.3887H36.5326V14.0394H36.2201ZM36.3764 18.5449H37.2828V18.2324H36.3764V18.5449ZM37.1266 18.3887V19.144H37.4391V18.3887H37.1266ZM37.2828 18.9878H36.3764V19.3003H37.2828V18.9878ZM36.2201 19.144V20.751H36.5326V19.144H36.2201ZM36.3764 20.5947H35.5523V20.9072H36.3764V20.5947ZM35.7086 18.3887V15.3625H35.396V18.3887H35.7086ZM35.4239 15.2734L33.3226 18.2995L33.5793 18.4778L35.6806 15.4516L35.4239 15.2734ZM33.4509 18.5449H35.5523V18.2324H33.4509V18.5449ZM41.0462 20.751V20.9072H41.2025V20.751H41.0462ZM40.2222 20.751H40.0659V20.9072H40.2222V20.751ZM40.2222 15.4998H40.3784V15.1348L40.1143 15.3868L40.2222 15.4998ZM39.4393 16.0675L39.3604 15.9326L39.3599 15.933L39.4393 16.0675ZM38.574 16.4933H38.4178V16.7175L38.6282 16.6399L38.574 16.4933ZM38.574 15.6967L38.5076 15.5553L38.4178 15.5975V15.6967H38.574ZM40.5152 14.0119V13.8557H40.4181L40.3751 13.9427L40.5152 14.0119ZM41.0462 14.0119H41.2025V13.8557H41.0462V14.0119ZM41.0462 20.5947H40.2222V20.9072H41.0462V20.5947ZM40.3784 20.751V15.4998H40.0659V20.751H40.3784ZM40.1143 15.3868C39.9272 15.5652 39.677 15.7475 39.3604 15.9326L39.5182 16.2024C39.8487 16.0091 40.1203 15.8129 40.33 15.6129L40.1143 15.3868ZM39.3599 15.933C39.0448 16.119 38.765 16.2563 38.5199 16.3467L38.6282 16.6399C38.8958 16.5411 39.1929 16.3945 39.5188 16.2021L39.3599 15.933ZM38.7303 16.4933V15.6967H38.4178V16.4933H38.7303ZM38.6405 15.8381C39.1137 15.6156 39.5296 15.3451 39.8868 15.0258L39.6785 14.7928C39.346 15.09 38.9561 15.3444 38.5076 15.5553L38.6405 15.8381ZM39.8868 15.0258C40.2407 14.7095 40.5 14.395 40.6552 14.0812L40.3751 13.9427C40.2435 14.2088 40.0144 14.4925 39.6785 14.7928L39.8868 15.0258ZM40.5152 14.1682H41.0462V13.8557H40.5152V14.1682ZM40.89 14.0119V20.751H41.2025V14.0119H40.89Z" fill="black"/>
<defs>
<filter id="filter0_d" x="0" y="0" width="242.401" height="518.682" filterUnits="userSpaceOnUse" color-interpolation-filters="sRGB">
<feFlood flood-opacity="0" result="BackgroundImageFix"/>
<feColorMatrix in="SourceAlpha" type="matrix" values="0 0 0 0 0 0 0 0 0 0 0 0 0 0 0 0 0 0 127 0"/>
<feOffset dy="4"/>
<feGaussianBlur stdDeviation="2"/>
<feColorMatrix type="matrix" values="0 0 0 0 0.478431 0 0 0 0 0.478431 0 0 0 0 0.478431 0 0 0 0.4 0"/>
<feBlend mode="normal" in2="BackgroundImageFix" result="effect1_dropShadow"/>
<feBlend mode="normal" in="SourceGraphic" in2="effect1_dropShadow" result="shape"/>
</filter>
</defs>
</svg>
