<svg width="243" height="520" viewBox="0 0 243 520" fill="none" xmlns="http://www.w3.org/2000/svg">
<g filter="url(#filter0_d)">
<rect x="4" y="1" width="234.401" height="510.682" fill="white"/>
</g>
<line x1="31.0076" y1="282.908" x2="186.237" y2="282.908" stroke="#B49898" stroke-width="0.55439"/>
<path d="M37.7184 273.67V281.118H36.7395L32.1378 274.829V281.118H31.2939V273.67H32.2728L36.8745 279.937V273.67H37.7184ZM44.2172 280.218C43.7672 280.878 43.0958 281.208 42.2032 281.208C41.3931 281.208 40.7331 280.927 40.223 280.364C39.728 279.809 39.4804 279.123 39.4804 278.305C39.4804 277.488 39.728 276.802 40.223 276.246C40.7331 275.684 41.4119 275.403 42.2595 275.403C43.1071 275.403 43.7597 275.736 44.2172 276.404V275.493H45.061V281.118H44.2172V280.218ZM42.3157 280.443C42.9233 280.443 43.4034 280.233 43.7559 279.813C44.0934 279.416 44.2622 278.913 44.2622 278.305C44.2622 277.698 44.0934 277.195 43.7559 276.798C43.4034 276.378 42.9233 276.168 42.3157 276.168C41.7157 276.168 41.2281 276.378 40.8531 276.798C40.5005 277.195 40.3243 277.698 40.3243 278.305C40.3243 278.913 40.5005 279.416 40.8531 279.813C41.2281 280.233 41.7157 280.443 42.3157 280.443ZM47.927 276.348C48.3021 275.718 48.8721 275.403 49.6372 275.403C50.0123 275.403 50.3573 275.504 50.6723 275.706C50.9949 275.901 51.2462 276.179 51.4262 276.539C51.6812 276.066 52.0787 275.729 52.6188 275.526C52.8363 275.444 53.0801 275.403 53.3501 275.403C53.6277 275.403 53.8902 275.459 54.1377 275.571C54.3928 275.676 54.6178 275.83 54.8128 276.033C55.2328 276.483 55.4429 277.045 55.4429 277.72V281.118H54.599V277.743C54.599 277.278 54.4678 276.895 54.2052 276.595C53.9427 276.31 53.6089 276.168 53.2039 276.168C52.7763 276.168 52.42 276.307 52.135 276.584C51.835 276.869 51.685 277.259 51.685 277.754V281.118H50.8411V277.743C50.8411 277.278 50.7098 276.895 50.4473 276.595C50.1848 276.31 49.851 276.168 49.446 276.168C49.0184 276.168 48.6621 276.307 48.3771 276.584C48.0771 276.869 47.927 277.259 47.927 277.754V281.118H47.0832V275.493H47.927V276.348ZM59.9227 280.443C60.6803 280.443 61.2241 280.128 61.5541 279.498H62.4767C62.2817 280.008 61.9704 280.421 61.5429 280.736C61.1228 281.051 60.579 281.208 59.9115 281.208C59.0639 281.208 58.3738 280.927 57.8412 280.364C57.3237 279.817 57.0649 279.131 57.0649 278.305C57.0649 277.473 57.3124 276.787 57.8075 276.246C58.3325 275.684 59.0151 275.403 59.8552 275.403C60.6953 275.403 61.3779 275.684 61.9029 276.246C62.398 276.787 62.6455 277.473 62.6455 278.305V278.643H57.9312C57.9912 279.161 58.1975 279.588 58.5501 279.926C58.9101 280.271 59.3677 280.443 59.9227 280.443ZM59.8552 276.168C59.3376 276.168 58.9026 276.329 58.5501 276.652C58.22 276.959 58.0175 277.36 57.9425 277.855H61.7679C61.6929 277.36 61.4904 276.959 61.1604 276.652C60.8078 276.329 60.3728 276.168 59.8552 276.168Z" fill="#828282" fill-opacity="0.59"/>
<path d="M34.8218 223.837H32.8003V229H32.144V223.837H30.1225V223.207H34.8218V223.837ZM36.6107 222.874V225.307C36.7683 225.097 36.9608 224.919 37.1883 224.773C37.4158 224.627 37.6754 224.555 37.9671 224.555C38.2588 224.555 38.5097 224.595 38.7197 224.677C38.9297 224.759 39.1135 224.881 39.271 225.045C39.6327 225.4 39.8136 225.87 39.8136 226.453V229H39.1573V226.471C39.1573 226.068 39.0435 225.748 38.816 225.508C38.5885 225.269 38.2938 225.15 37.9321 225.15C37.5646 225.15 37.2525 225.272 36.9958 225.517C36.7391 225.768 36.6107 226.089 36.6107 226.48V229H35.9544V222.874H36.6107ZM41.3486 224.625H42.0049V229H41.3486V224.625ZM42.0311 223.032V223.889H41.3223V223.032H42.0311ZM46.1535 225.797C46.0952 225.342 45.7277 225.115 45.0509 225.115C44.38 225.115 44.0446 225.325 44.0446 225.745C44.0446 225.92 44.1146 226.054 44.2546 226.147C44.4004 226.235 44.5813 226.308 44.7971 226.366C45.013 226.424 45.2464 226.48 45.4972 226.532C45.7539 226.579 45.9902 226.649 46.206 226.742C46.4219 226.83 46.5998 226.952 46.7399 227.11C46.8857 227.267 46.9586 227.483 46.9586 227.757C46.9586 228.183 46.7982 228.51 46.4773 228.737C46.1565 228.959 45.7218 229.07 45.1734 229.07C44.59 229.07 44.1262 228.924 43.782 228.632C43.467 228.376 43.2978 228.04 43.2745 227.626H43.957C43.9979 228.029 44.2254 228.3 44.6396 228.44C44.7913 228.487 44.9401 228.51 45.0859 228.51C45.2376 228.51 45.3776 228.501 45.506 228.484C45.6343 228.466 45.7597 228.434 45.8823 228.387C46.1623 228.277 46.3023 228.087 46.3023 227.819C46.3023 227.638 46.2294 227.501 46.0835 227.407C45.9435 227.308 45.7656 227.229 45.5497 227.171C45.3339 227.107 45.0976 227.051 44.8409 227.005C44.59 226.952 44.3567 226.882 44.1408 226.795C43.925 226.707 43.7441 226.588 43.5983 226.436C43.4582 226.284 43.3882 226.074 43.3882 225.806C43.3882 225.409 43.5312 225.103 43.817 224.887C44.1087 224.665 44.5375 224.555 45.1034 224.555C45.6401 224.555 46.0631 224.683 46.3723 224.94C46.629 225.155 46.7778 225.441 46.8186 225.797H46.1535ZM50.5405 224.625H51.1968V229H50.5405V224.625ZM51.2231 223.032V223.889H50.5143V223.032H51.2231ZM55.3455 225.797C55.2871 225.342 54.9196 225.115 54.2429 225.115C53.5719 225.115 53.2365 225.325 53.2365 225.745C53.2365 225.92 53.3065 226.054 53.4465 226.147C53.5924 226.235 53.7732 226.308 53.9891 226.366C54.2049 226.424 54.4383 226.48 54.6891 226.532C54.9458 226.579 55.1821 226.649 55.398 226.742C55.6138 226.83 55.7918 226.952 55.9318 227.11C56.0776 227.267 56.1506 227.483 56.1506 227.757C56.1506 228.183 55.9901 228.51 55.6693 228.737C55.3484 228.959 54.9138 229.07 54.3654 229.07C53.782 229.07 53.3182 228.924 52.974 228.632C52.6589 228.376 52.4897 228.04 52.4664 227.626H53.149C53.1898 228.029 53.4173 228.3 53.8316 228.44C53.9832 228.487 54.132 228.51 54.2779 228.51C54.4295 228.51 54.5696 228.501 54.6979 228.484C54.8262 228.466 54.9517 228.434 55.0742 228.387C55.3542 228.277 55.4942 228.087 55.4942 227.819C55.4942 227.638 55.4213 227.501 55.2755 227.407C55.1354 227.308 54.9575 227.229 54.7417 227.171C54.5258 227.107 54.2895 227.051 54.0328 227.005C53.782 226.952 53.5486 226.882 53.3327 226.795C53.1169 226.707 52.936 226.588 52.7902 226.436C52.6502 226.284 52.5802 226.074 52.5802 225.806C52.5802 225.409 52.7231 225.103 53.009 224.887C53.3007 224.665 53.7295 224.555 54.2954 224.555C54.8321 224.555 55.255 224.683 55.5642 224.94C55.8209 225.155 55.9697 225.441 56.0105 225.797H55.3455ZM60.205 229V225.202H59.3124V224.625H60.205V223.058H60.8613V224.625H61.8677V225.202H60.8613V229H60.205ZM63.6806 222.874V225.307C63.8382 225.097 64.0307 224.919 64.2582 224.773C64.4857 224.627 64.7453 224.555 65.037 224.555C65.3287 224.555 65.5796 224.595 65.7896 224.677C65.9996 224.759 66.1834 224.881 66.3409 225.045C66.7026 225.4 66.8835 225.87 66.8835 226.453V229H66.2272V226.471C66.2272 226.068 66.1134 225.748 65.8859 225.508C65.6584 225.269 65.3637 225.15 65.002 225.15C64.6345 225.15 64.3224 225.272 64.0657 225.517C63.809 225.768 63.6806 226.089 63.6806 226.48V229H63.0243V222.874H63.6806ZM70.3699 228.475C70.9592 228.475 71.3821 228.23 71.6388 227.74H72.3564C72.2047 228.137 71.9626 228.457 71.6301 228.702C71.3034 228.947 70.8804 229.07 70.3612 229.07C69.7019 229.07 69.1652 228.851 68.751 228.414C68.3485 227.988 68.1472 227.454 68.1472 226.812C68.1472 226.165 68.3397 225.631 68.7247 225.211C69.1331 224.773 69.664 224.555 70.3174 224.555C70.9708 224.555 71.5017 224.773 71.9101 225.211C72.2951 225.631 72.4877 226.165 72.4877 226.812V227.075H68.821C68.8677 227.477 69.0281 227.81 69.3023 228.072C69.5823 228.341 69.9382 228.475 70.3699 228.475ZM70.3174 225.15C69.9149 225.15 69.5765 225.275 69.3023 225.526C69.0456 225.765 68.8881 226.077 68.8298 226.462H71.8051C71.7467 226.077 71.5892 225.765 71.3325 225.526C71.0583 225.275 70.72 225.15 70.3174 225.15ZM76.684 224.625V225.307C76.8415 225.097 77.0341 224.919 77.2616 224.773C77.4891 224.627 77.7487 224.555 78.0404 224.555C78.3321 224.555 78.583 224.595 78.793 224.677C79.003 224.759 79.1868 224.881 79.3443 225.045C79.706 225.4 79.8869 225.87 79.8869 226.453V229H79.2306V226.471C79.2306 226.068 79.1168 225.748 78.8893 225.508C78.6617 225.269 78.3671 225.15 78.0054 225.15C77.6379 225.15 77.3258 225.272 77.0691 225.517C76.8124 225.768 76.684 226.089 76.684 226.48V229H76.0277V224.625H76.684ZM84.8347 228.3C84.4847 228.813 83.9626 229.07 83.2683 229.07C82.6382 229.07 82.1249 228.851 81.7281 228.414C81.3431 227.982 81.1506 227.448 81.1506 226.812C81.1506 226.176 81.3431 225.643 81.7281 225.211C82.1249 224.773 82.6528 224.555 83.3121 224.555C83.9713 224.555 84.4789 224.814 84.8347 225.333V224.625H85.4911V229H84.8347V228.3ZM83.3558 228.475C83.8284 228.475 84.2017 228.312 84.4759 227.985C84.7385 227.676 84.8697 227.285 84.8697 226.812C84.8697 226.34 84.7385 225.949 84.4759 225.64C84.2017 225.313 83.8284 225.15 83.3558 225.15C82.8891 225.15 82.5099 225.313 82.2182 225.64C81.944 225.949 81.8069 226.34 81.8069 226.812C81.8069 227.285 81.944 227.676 82.2182 227.985C82.5099 228.312 82.8891 228.475 83.3558 228.475ZM87.7202 225.29C88.0119 224.8 88.4552 224.555 89.0503 224.555C89.342 224.555 89.6104 224.633 89.8554 224.791C90.1063 224.942 90.3017 225.158 90.4417 225.438C90.6401 225.071 90.9493 224.808 91.3693 224.651C91.5385 224.587 91.7281 224.555 91.9381 224.555C92.154 224.555 92.3582 224.598 92.5507 224.686C92.7491 224.767 92.9241 224.887 93.0758 225.045C93.4025 225.395 93.5658 225.832 93.5658 226.357V229H92.9095V226.375C92.9095 226.013 92.8074 225.715 92.6032 225.482C92.399 225.26 92.1394 225.15 91.8244 225.15C91.4918 225.15 91.2147 225.258 90.993 225.473C90.7597 225.695 90.643 225.998 90.643 226.383V229H89.9867V226.375C89.9867 226.013 89.8846 225.715 89.6804 225.482C89.4762 225.26 89.2166 225.15 88.9015 225.15C88.569 225.15 88.2919 225.258 88.0702 225.473C87.8368 225.695 87.7202 225.998 87.7202 226.383V229H87.0638V224.625H87.7202V225.29ZM97.0501 228.475C97.6394 228.475 98.0623 228.23 98.319 227.74H99.0366C98.8849 228.137 98.6428 228.457 98.3103 228.702C97.9836 228.947 97.5606 229.07 97.0414 229.07C96.3821 229.07 95.8454 228.851 95.4312 228.414C95.0287 227.988 94.8274 227.454 94.8274 226.812C94.8274 226.165 95.0199 225.631 95.4049 225.211C95.8133 224.773 96.3442 224.555 96.9976 224.555C97.651 224.555 98.1819 224.773 98.5903 225.211C98.9753 225.631 99.1679 226.165 99.1679 226.812V227.075H95.5012C95.5479 227.477 95.7083 227.81 95.9825 228.072C96.2625 228.341 96.6184 228.475 97.0501 228.475ZM96.9976 225.15C96.5951 225.15 96.2567 225.275 95.9825 225.526C95.7258 225.765 95.5683 226.077 95.51 226.462H98.4853C98.4269 226.077 98.2694 225.765 98.0127 225.526C97.7385 225.275 97.4002 225.15 96.9976 225.15ZM104.607 224.555C105.26 224.555 105.791 224.773 106.2 225.211C106.585 225.631 106.777 226.165 106.777 226.812C106.777 227.46 106.585 227.994 106.2 228.414C105.791 228.851 105.26 229.07 104.607 229.07C103.953 229.07 103.423 228.851 103.014 228.414C102.629 227.994 102.437 227.46 102.437 226.812C102.437 226.165 102.629 225.631 103.014 225.211C103.423 224.773 103.953 224.555 104.607 224.555ZM104.607 228.475C105.079 228.475 105.453 228.312 105.727 227.985C105.99 227.676 106.121 227.285 106.121 226.812C106.121 226.34 105.99 225.949 105.727 225.64C105.453 225.313 105.079 225.15 104.607 225.15C104.134 225.15 103.761 225.313 103.487 225.64C103.224 225.949 103.093 226.34 103.093 226.812C103.093 227.285 103.224 227.676 103.487 227.985C103.761 228.312 104.134 228.475 104.607 228.475ZM108.481 229V225.202H107.588V224.625H108.481V223.058H109.137V224.625H110.143V225.202H109.137V229H108.481ZM111.956 222.874V225.307C112.114 225.097 112.306 224.919 112.534 224.773C112.761 224.627 113.021 224.555 113.313 224.555C113.604 224.555 113.855 224.595 114.065 224.677C114.275 224.759 114.459 224.881 114.617 225.045C114.978 225.4 115.159 225.87 115.159 226.453V229H114.503V226.471C114.503 226.068 114.389 225.748 114.161 225.508C113.934 225.269 113.639 225.15 113.278 225.15C112.91 225.15 112.598 225.272 112.341 225.517C112.085 225.768 111.956 226.089 111.956 226.48V229H111.3V222.874H111.956ZM118.646 228.475C119.235 228.475 119.658 228.23 119.914 227.74H120.632C120.48 228.137 120.238 228.457 119.906 228.702C119.579 228.947 119.156 229.07 118.637 229.07C117.978 229.07 117.441 228.851 117.027 228.414C116.624 227.988 116.423 227.454 116.423 226.812C116.423 226.165 116.615 225.631 117 225.211C117.409 224.773 117.94 224.555 118.593 224.555C119.246 224.555 119.777 224.773 120.186 225.211C120.571 225.631 120.763 226.165 120.763 226.812V227.075H117.097C117.143 227.477 117.304 227.81 117.578 228.072C117.858 228.341 118.214 228.475 118.646 228.475ZM118.593 225.15C118.19 225.15 117.852 225.275 117.578 225.526C117.321 225.765 117.164 226.077 117.105 226.462H120.081C120.022 226.077 119.865 225.765 119.608 225.526C119.334 225.275 118.996 225.15 118.593 225.15ZM124.313 224.555V225.211H124.234C123.762 225.211 123.377 225.4 123.079 225.78C122.799 226.141 122.659 226.573 122.659 227.075V229H122.003V224.625H122.659V225.701C122.799 225.246 123.102 224.91 123.569 224.695C123.762 224.601 123.995 224.555 124.269 224.555H124.313ZM128.414 225.29C128.706 224.8 129.149 224.555 129.744 224.555C130.036 224.555 130.304 224.633 130.549 224.791C130.8 224.942 130.995 225.158 131.135 225.438C131.334 225.071 131.643 224.808 132.063 224.651C132.232 224.587 132.422 224.555 132.632 224.555C132.848 224.555 133.052 224.598 133.244 224.686C133.443 224.767 133.618 224.887 133.769 225.045C134.096 225.395 134.26 225.832 134.26 226.357V229H133.603V226.375C133.603 226.013 133.501 225.715 133.297 225.482C133.093 225.26 132.833 225.15 132.518 225.15C132.186 225.15 131.908 225.258 131.687 225.473C131.453 225.695 131.337 225.998 131.337 226.383V229H130.68V226.375C130.68 226.013 130.578 225.715 130.374 225.482C130.17 225.26 129.91 225.15 129.595 225.15C129.263 225.15 128.986 225.258 128.764 225.473C128.531 225.695 128.414 225.998 128.414 226.383V229H127.758V224.625H128.414V225.29ZM137.744 228.475C138.333 228.475 138.756 228.23 139.013 227.74H139.73C139.579 228.137 139.337 228.457 139.004 228.702C138.677 228.947 138.254 229.07 137.735 229.07C137.076 229.07 136.539 228.851 136.125 228.414C135.722 227.988 135.521 227.454 135.521 226.812C135.521 226.165 135.714 225.631 136.099 225.211C136.507 224.773 137.038 224.555 137.691 224.555C138.345 224.555 138.876 224.773 139.284 225.211C139.669 225.631 139.862 226.165 139.862 226.812V227.075H136.195C136.242 227.477 136.402 227.81 136.676 228.072C136.956 228.341 137.312 228.475 137.744 228.475ZM137.691 225.15C137.289 225.15 136.95 225.275 136.676 225.526C136.42 225.765 136.262 226.077 136.204 226.462H139.179C139.121 226.077 138.963 225.765 138.706 225.526C138.432 225.275 138.094 225.15 137.691 225.15ZM141.757 225.29C142.049 224.8 142.492 224.555 143.088 224.555C143.379 224.555 143.648 224.633 143.893 224.791C144.143 224.942 144.339 225.158 144.479 225.438C144.677 225.071 144.987 224.808 145.407 224.651C145.576 224.587 145.765 224.555 145.975 224.555C146.191 224.555 146.395 224.598 146.588 224.686C146.786 224.767 146.961 224.887 147.113 225.045C147.44 225.395 147.603 225.832 147.603 226.357V229H146.947V226.375C146.947 226.013 146.845 225.715 146.64 225.482C146.436 225.26 146.177 225.15 145.862 225.15C145.529 225.15 145.252 225.258 145.03 225.473C144.797 225.695 144.68 225.998 144.68 226.383V229H144.024V226.375C144.024 226.013 143.922 225.715 143.718 225.482C143.513 225.26 143.254 225.15 142.939 225.15C142.606 225.15 142.329 225.258 142.107 225.473C141.874 225.695 141.757 225.998 141.757 226.383V229H141.101V224.625H141.757V225.29ZM149.792 225.333C150.148 224.814 150.67 224.555 151.359 224.555C151.989 224.555 152.499 224.773 152.89 225.211C153.281 225.643 153.476 226.176 153.476 226.812C153.476 227.448 153.281 227.982 152.89 228.414C152.499 228.851 151.971 229.07 151.306 229.07C150.647 229.07 150.142 228.813 149.792 228.3V229H149.136V222.874H149.792V225.333ZM151.271 228.475C151.738 228.475 152.117 228.312 152.409 227.985C152.683 227.676 152.82 227.285 152.82 226.812C152.82 226.34 152.683 225.949 152.409 225.64C152.117 225.313 151.738 225.15 151.271 225.15C150.799 225.15 150.425 225.313 150.151 225.64C149.888 225.949 149.757 226.34 149.757 226.812C149.757 227.285 149.888 227.676 150.151 227.985C150.425 228.312 150.799 228.475 151.271 228.475ZM156.721 228.475C157.31 228.475 157.733 228.23 157.99 227.74H158.707C158.556 228.137 158.313 228.457 157.981 228.702C157.654 228.947 157.231 229.07 156.712 229.07C156.053 229.07 155.516 228.851 155.102 228.414C154.699 227.988 154.498 227.454 154.498 226.812C154.498 226.165 154.691 225.631 155.076 225.211C155.484 224.773 156.015 224.555 156.668 224.555C157.322 224.555 157.853 224.773 158.261 225.211C158.646 225.631 158.839 226.165 158.839 226.812V227.075H155.172C155.219 227.477 155.379 227.81 155.653 228.072C155.933 228.341 156.289 228.475 156.721 228.475ZM156.668 225.15C156.266 225.15 155.927 225.275 155.653 225.526C155.396 225.765 155.239 226.077 155.181 226.462H158.156C158.098 226.077 157.94 225.765 157.683 225.526C157.409 225.275 157.071 225.15 156.668 225.15ZM162.388 224.555V225.211H162.31C161.837 225.211 161.452 225.4 161.154 225.78C160.874 226.141 160.734 226.573 160.734 227.075V229H160.078V224.625H160.734V225.701C160.874 225.246 161.178 224.91 161.644 224.695C161.837 224.601 162.07 224.555 162.345 224.555H162.388ZM166.105 225.797C166.047 225.342 165.679 225.115 165.002 225.115C164.332 225.115 163.996 225.325 163.996 225.745C163.996 225.92 164.066 226.054 164.206 226.147C164.352 226.235 164.533 226.308 164.749 226.366C164.965 226.424 165.198 226.48 165.449 226.532C165.705 226.579 165.942 226.649 166.158 226.742C166.373 226.83 166.551 226.952 166.691 227.11C166.837 227.267 166.91 227.483 166.91 227.757C166.91 228.183 166.75 228.51 166.429 228.737C166.108 228.959 165.673 229.07 165.125 229.07C164.542 229.07 164.078 228.924 163.734 228.632C163.419 228.376 163.249 228.04 163.226 227.626H163.909C163.949 228.029 164.177 228.3 164.591 228.44C164.743 228.487 164.892 228.51 165.037 228.51C165.189 228.51 165.329 228.501 165.457 228.484C165.586 228.466 165.711 228.434 165.834 228.387C166.114 228.277 166.254 228.087 166.254 227.819C166.254 227.638 166.181 227.501 166.035 227.407C165.895 227.308 165.717 227.229 165.501 227.171C165.285 227.107 165.049 227.051 164.792 227.005C164.542 226.952 164.308 226.882 164.092 226.795C163.876 226.707 163.696 226.588 163.55 226.436C163.41 226.284 163.34 226.074 163.34 225.806C163.34 225.409 163.483 225.103 163.769 224.887C164.06 224.665 164.489 224.555 165.055 224.555C165.592 224.555 166.015 224.683 166.324 224.94C166.581 225.155 166.729 225.441 166.77 225.797H166.105ZM173.222 225.508L172.128 229H171.376L170.002 224.625H170.702L171.752 228.186L172.864 224.625H173.581L174.692 228.186L175.743 224.625H176.443L175.069 229H174.316L173.222 225.508ZM177.527 224.625H178.183V229H177.527V224.625ZM178.21 223.032V223.889H177.501V223.032H178.21ZM180.415 229H179.759V222.874H180.415V229ZM182.648 229H181.991V222.874H182.648V229ZM33.1416 234.797C33.0833 234.342 32.7157 234.115 32.039 234.115C31.3681 234.115 31.0326 234.325 31.0326 234.745C31.0326 234.92 31.1026 235.054 31.2426 235.147C31.3885 235.235 31.5693 235.308 31.7852 235.366C32.0011 235.424 32.2344 235.48 32.4853 235.532C32.742 235.579 32.9782 235.649 33.1941 235.742C33.41 235.83 33.5879 235.952 33.7279 236.11C33.8738 236.267 33.9467 236.483 33.9467 236.757C33.9467 237.183 33.7863 237.51 33.4654 237.737C33.1445 237.959 32.7099 238.07 32.1615 238.07C31.5781 238.07 31.1143 237.924 30.7701 237.632C30.4551 237.376 30.2859 237.04 30.2625 236.626H30.9451C30.9859 237.029 31.2135 237.3 31.6277 237.44C31.7794 237.487 31.9281 237.51 32.074 237.51C32.2257 237.51 32.3657 237.501 32.494 237.484C32.6224 237.466 32.7478 237.434 32.8703 237.387C33.1503 237.277 33.2904 237.087 33.2904 236.819C33.2904 236.638 33.2174 236.501 33.0716 236.407C32.9316 236.308 32.7536 236.229 32.5378 236.171C32.3219 236.107 32.0856 236.051 31.829 236.005C31.5781 235.952 31.3447 235.882 31.1289 235.795C30.913 235.707 30.7322 235.588 30.5863 235.436C30.4463 235.284 30.3763 235.074 30.3763 234.806C30.3763 234.409 30.5192 234.103 30.8051 233.887C31.0968 233.665 31.5256 233.555 32.0915 233.555C32.6282 233.555 33.0512 233.683 33.3604 233.94C33.6171 234.155 33.7658 234.441 33.8067 234.797H33.1416ZM37.1795 237.475C37.7687 237.475 38.1917 237.23 38.4484 236.74H39.166C39.0143 237.137 38.7722 237.457 38.4396 237.702C38.1129 237.947 37.69 238.07 37.1707 238.07C36.5115 238.07 35.9748 237.851 35.5606 237.414C35.158 236.988 34.9567 236.454 34.9567 235.812C34.9567 235.165 35.1493 234.631 35.5343 234.211C35.9427 233.773 36.4736 233.555 37.127 233.555C37.7804 233.555 38.3113 233.773 38.7197 234.211C39.1047 234.631 39.2972 235.165 39.2972 235.812V236.075H35.6306C35.6772 236.477 35.8377 236.81 36.1119 237.072C36.3919 237.341 36.7478 237.475 37.1795 237.475ZM37.127 234.15C36.7244 234.15 36.3861 234.275 36.1119 234.526C35.8552 234.765 35.6977 235.077 35.6393 235.462H38.6146C38.5563 235.077 38.3988 234.765 38.1421 234.526C37.8679 234.275 37.5295 234.15 37.127 234.15ZM42.4882 237.475C43.0774 237.475 43.5004 237.23 43.7571 236.74H44.4746C44.323 237.137 44.0809 237.457 43.7483 237.702C43.4216 237.947 42.9987 238.07 42.4794 238.07C41.8202 238.07 41.2835 237.851 40.8693 237.414C40.4667 236.988 40.2654 236.454 40.2654 235.812C40.2654 235.165 40.458 234.631 40.843 234.211C41.2514 233.773 41.7823 233.555 42.4357 233.555C43.0891 233.555 43.62 233.773 44.0284 234.211C44.4134 234.631 44.6059 235.165 44.6059 235.812V236.075H40.9393C40.9859 236.477 41.1464 236.81 41.4206 237.072C41.7006 237.341 42.0565 237.475 42.4882 237.475ZM42.4357 234.15C42.0331 234.15 41.6948 234.275 41.4206 234.526C41.1639 234.765 41.0063 235.077 40.948 235.462H43.9233C43.865 235.077 43.7075 234.765 43.4508 234.526C43.1766 234.275 42.8382 234.15 42.4357 234.15ZM46.5892 237.107V238H45.7404V237.107H46.5892Z" fill="black"/>
<path d="M37.1363 187.644H35.4399L31.3285 174.432H32.9052L36.2981 185.528L39.8506 174.432H41.567L45.1196 185.528L48.5124 174.432H50.0891L45.9778 187.644H44.2813L40.7088 176.547L37.1363 187.644ZM53.6618 173.673V179.222C54.021 178.743 54.4601 178.337 54.979 178.004C55.4979 177.672 56.09 177.505 56.7552 177.505C57.4205 177.505 57.9926 177.598 58.4716 177.785C58.9506 177.971 59.3698 178.25 59.729 178.623C60.5539 179.435 60.9664 180.506 60.9664 181.836V187.644H59.4695V181.876C59.4695 180.958 59.2101 180.226 58.6912 179.681C58.1723 179.135 57.5003 178.862 56.6754 178.862C55.8372 178.862 55.1253 179.142 54.5399 179.701C53.9545 180.273 53.6618 181.005 53.6618 181.896V187.644H52.1649V173.673H53.6618ZM71.8516 186.047C71.0533 187.218 69.8625 187.804 68.2791 187.804C66.8422 187.804 65.6713 187.305 64.7665 186.307C63.8884 185.322 63.4493 184.105 63.4493 182.654C63.4493 181.204 63.8884 179.987 64.7665 179.002C65.6713 178.004 66.8754 177.505 68.3789 177.505C69.8824 177.505 71.04 178.097 71.8516 179.282V177.665H73.3485V187.644H71.8516V186.047ZM68.4787 186.446C69.5565 186.446 70.408 186.074 71.0334 185.329C71.6321 184.624 71.9315 183.732 71.9315 182.654C71.9315 181.577 71.6321 180.685 71.0334 179.98C70.408 179.235 69.5565 178.862 68.4787 178.862C67.4143 178.862 66.5494 179.235 65.8842 179.98C65.2588 180.685 64.9462 181.577 64.9462 182.654C64.9462 183.732 65.2588 184.624 65.8842 185.329C66.5494 186.074 67.4143 186.446 68.4787 186.446ZM77.6141 187.644V178.982H75.5783V177.665H77.6141V174.092H79.1109V177.665H81.4061V178.982H79.1109V187.644H77.6141ZM84.3034 173.913H86.2593L84.503 178.164H83.1459L84.3034 173.913ZM94.0872 180.339C93.9542 179.301 93.1159 178.783 91.5725 178.783C90.0424 178.783 89.2773 179.262 89.2773 180.22C89.2773 180.619 89.437 180.925 89.7563 181.138C90.089 181.337 90.5014 181.503 90.9937 181.637C91.486 181.77 92.0182 181.896 92.5904 182.016C93.1758 182.122 93.7147 182.282 94.207 182.495C94.6993 182.694 95.1051 182.974 95.4244 183.333C95.7571 183.692 95.9234 184.185 95.9234 184.81C95.9234 185.781 95.5575 186.526 94.8257 187.045C94.0939 187.551 93.1026 187.804 91.8519 187.804C90.5214 187.804 89.4636 187.471 88.6786 186.806C87.9601 186.22 87.5743 185.455 87.521 184.511H89.0778C89.1709 185.429 89.6898 186.047 90.6345 186.367C90.9804 186.473 91.3197 186.526 91.6524 186.526C91.9983 186.526 92.3176 186.506 92.6103 186.466C92.9031 186.426 93.1891 186.353 93.4685 186.247C94.1072 185.994 94.4265 185.562 94.4265 184.95C94.4265 184.537 94.2602 184.224 93.9276 184.012C93.6082 183.785 93.2024 183.606 92.7101 183.473C92.2178 183.326 91.679 183.2 91.0935 183.093C90.5214 182.974 89.9892 182.814 89.4969 182.614C89.0046 182.415 88.5921 182.142 88.2595 181.796C87.9402 181.45 87.7805 180.971 87.7805 180.359C87.7805 179.454 88.1065 178.756 88.7584 178.264C89.4237 177.758 90.4016 177.505 91.6923 177.505C92.9164 177.505 93.881 177.798 94.5862 178.383C95.1716 178.876 95.5109 179.528 95.604 180.339H94.0872ZM105.949 191.596H104.332L106.148 187.504L102.077 177.665H103.733L106.946 185.848L110.22 177.665H111.856L105.949 191.596ZM117.988 177.505C119.479 177.505 120.689 178.004 121.621 179.002C122.499 179.96 122.938 181.178 122.938 182.654C122.938 184.131 122.499 185.349 121.621 186.307C120.689 187.305 119.479 187.804 117.988 187.804C116.498 187.804 115.287 187.305 114.356 186.307C113.478 185.349 113.039 184.131 113.039 182.654C113.039 181.178 113.478 179.96 114.356 179.002C115.287 178.004 116.498 177.505 117.988 177.505ZM117.988 186.446C119.066 186.446 119.918 186.074 120.543 185.329C121.142 184.624 121.441 183.732 121.441 182.654C121.441 181.577 121.142 180.685 120.543 179.98C119.918 179.235 119.066 178.862 117.988 178.862C116.911 178.862 116.059 179.235 115.434 179.98C114.835 180.685 114.536 181.577 114.536 182.654C114.536 183.732 114.835 184.624 115.434 185.329C116.059 186.074 116.911 186.446 117.988 186.446ZM132.726 187.644V186.087C132.367 186.566 131.928 186.972 131.409 187.305C130.89 187.637 130.298 187.804 129.633 187.804C128.968 187.804 128.396 187.71 127.917 187.524C127.438 187.338 127.018 187.058 126.659 186.686C125.834 185.874 125.422 184.803 125.422 183.473V177.665H126.919V183.433C126.919 184.351 127.178 185.083 127.697 185.628C128.216 186.174 128.888 186.446 129.713 186.446C130.551 186.446 131.263 186.167 131.848 185.608C132.434 185.036 132.726 184.304 132.726 183.413V177.665H134.223V187.644H132.726ZM142.694 177.505V179.002H142.514C141.436 179.002 140.558 179.435 139.88 180.299C139.241 181.124 138.922 182.109 138.922 183.253V187.644H137.425V177.665H138.922V180.12C139.241 179.082 139.933 178.317 140.997 177.825C141.436 177.612 141.968 177.505 142.594 177.505H142.694ZM33.9431 197.665V199.222C34.3023 198.743 34.7414 198.337 35.2603 198.004C35.7792 197.672 36.3713 197.505 37.0365 197.505C37.7018 197.505 38.2739 197.598 38.7529 197.785C39.2319 197.971 39.6511 198.25 40.0103 198.623C40.8352 199.435 41.2477 200.506 41.2477 201.836V207.644H39.7508V201.876C39.7508 200.958 39.4914 200.226 38.9725 199.681C38.4536 199.135 37.7816 198.862 36.9567 198.862C36.1185 198.862 35.4066 199.142 34.8212 199.701C34.2358 200.273 33.9431 201.005 33.9431 201.896V207.644H32.4462V197.665H33.9431ZM52.1329 206.047C51.3346 207.218 50.1438 207.804 48.5604 207.804C47.1235 207.804 45.9526 207.305 45.0478 206.307C44.1697 205.322 43.7306 204.105 43.7306 202.654C43.7306 201.204 44.1697 199.987 45.0478 199.002C45.9526 198.004 47.1567 197.505 48.6602 197.505C50.1637 197.505 51.3213 198.097 52.1329 199.282V197.665H53.6298V207.644H52.1329V206.047ZM48.76 206.446C49.8378 206.446 50.6893 206.074 51.3147 205.329C51.9134 204.624 52.2128 203.732 52.2128 202.654C52.2128 201.577 51.9134 200.685 51.3147 199.98C50.6893 199.235 49.8378 198.862 48.76 198.862C47.6956 198.862 46.8307 199.235 46.1655 199.98C45.5401 200.685 45.2275 201.577 45.2275 202.654C45.2275 203.732 45.5401 204.624 46.1655 205.329C46.8307 206.074 47.6956 206.446 48.76 206.446ZM58.3145 199.182C58.9797 198.064 59.9909 197.505 61.3481 197.505C62.0134 197.505 62.6254 197.685 63.1842 198.044C63.7564 198.39 64.2021 198.882 64.5214 199.521C64.9738 198.683 65.679 198.084 66.637 197.725C67.0228 197.578 67.4553 197.505 67.9342 197.505C68.4265 197.505 68.8922 197.605 69.3313 197.805C69.7837 197.991 70.1829 198.264 70.5288 198.623C71.2739 199.421 71.6464 200.419 71.6464 201.617V207.644H70.1496V201.657C70.1496 200.832 69.9167 200.153 69.4511 199.621C68.9854 199.115 68.3933 198.862 67.6748 198.862C66.9164 198.862 66.2844 199.109 65.7788 199.601C65.2466 200.106 64.9805 200.798 64.9805 201.676V207.644H63.4836V201.657C63.4836 200.832 63.2508 200.153 62.7851 199.621C62.3194 199.115 61.7273 198.862 61.0088 198.862C60.2504 198.862 59.6184 199.109 59.1128 199.601C58.5806 200.106 58.3145 200.798 58.3145 201.676V207.644H56.8176V197.665H58.3145V199.182ZM79.1939 206.446C80.5377 206.446 81.5023 205.888 82.0878 204.77H83.7243C83.3784 205.675 82.8262 206.407 82.0678 206.965C81.3227 207.524 80.3581 207.804 79.1739 207.804C77.6704 207.804 76.4463 207.305 75.5016 206.307C74.5835 205.335 74.1245 204.118 74.1245 202.654C74.1245 201.178 74.5636 199.96 75.4417 199.002C76.3731 198.004 77.5839 197.505 79.0741 197.505C80.5643 197.505 81.7751 198.004 82.7065 199.002C83.5846 199.96 84.0237 201.178 84.0237 202.654V203.253H75.6613C75.7677 204.171 76.1336 204.93 76.759 205.528C77.3976 206.14 78.2093 206.446 79.1939 206.446ZM79.0741 198.862C78.156 198.862 77.3843 199.148 76.759 199.721C76.1735 200.266 75.8143 200.978 75.6812 201.856H82.467C82.3339 200.978 81.9747 200.266 81.3892 199.721C80.7639 199.148 79.9922 198.862 79.0741 198.862ZM94.1813 197.944C94.1813 198.423 94.1014 198.849 93.9418 199.222C93.7821 199.594 93.5759 199.933 93.3231 200.239C93.0836 200.532 92.8175 200.805 92.5247 201.058C92.2453 201.311 91.9792 201.577 91.7264 201.856C91.1676 202.495 90.8882 203.207 90.8882 203.992H89.4312C89.4312 202.754 89.9834 201.63 91.0878 200.619C91.7663 200.02 92.2121 199.521 92.4249 199.122C92.6511 198.709 92.7642 198.337 92.7642 198.004C92.7642 197.672 92.7243 197.379 92.6445 197.126C92.5646 196.86 92.4249 196.614 92.2254 196.388C91.773 195.895 91.1011 195.649 90.2096 195.649C89.2915 195.649 88.5464 195.922 87.9743 196.467C87.4421 196.973 87.1494 197.598 87.0961 198.343H85.6791C85.7323 197.213 86.1515 196.261 86.9365 195.489C87.7747 194.678 88.8258 194.272 90.0899 194.272C91.447 194.272 92.4848 194.645 93.2033 195.39C93.8553 196.068 94.1813 196.92 94.1813 197.944ZM91.1277 205.608V207.644H89.1917V205.608H91.1277Z" fill="black"/>
<path d="M27.9203 37.4228L26.8077 36.3164L20.6257 42.5046L26.8139 48.6928L27.9203 47.5864L22.8385 42.5046L27.9203 37.4228Z" fill="black" fill-opacity="0.54"/>
<path opacity="0.35" d="M213.982 13.1264C213.982 12.3785 214.588 11.7721 215.336 11.7721H225.754C226.502 11.7721 227.108 12.3785 227.108 13.1264V16.8769C227.108 17.6248 226.502 18.2312 225.754 18.2312H215.336C214.588 18.2312 213.982 17.6248 213.982 16.8769V13.1264Z" stroke="black" stroke-width="0.625069"/>
<path opacity="0.4" d="M228.046 13.7515V16.2517C228.549 16.04 228.876 15.5474 228.876 15.0016C228.876 14.4558 228.549 13.9632 228.046 13.7515Z" fill="black"/>
<path d="M214.919 13.5431C214.919 13.0829 215.293 12.7097 215.753 12.7097H225.337C225.798 12.7097 226.171 13.0829 226.171 13.5431V16.4601C226.171 16.9204 225.798 17.2936 225.337 17.2936H215.753C215.293 17.2936 214.919 16.9204 214.919 16.4601V13.5431Z" fill="black"/>
<path fill-rule="evenodd" clip-rule="evenodd" d="M205.75 12.8814C207.135 12.8814 208.467 13.4136 209.471 14.368C209.547 14.4417 209.667 14.4407 209.742 14.3659L210.464 13.6367C210.502 13.5987 210.523 13.5473 210.523 13.4938C210.523 13.4403 210.501 13.3891 210.463 13.3516C207.828 10.8266 203.671 10.8266 201.037 13.3516C200.999 13.3891 200.977 13.4403 200.977 13.4938C200.976 13.5473 200.997 13.5987 201.035 13.6367L201.758 14.3659C201.832 14.4409 201.953 14.4418 202.029 14.368C203.032 13.4136 204.365 12.8814 205.75 12.8814ZM205.75 15.2539C206.511 15.2539 207.245 15.5368 207.809 16.0476C207.885 16.1201 208.005 16.1185 208.08 16.044L208.802 15.3148C208.84 15.2765 208.861 15.2246 208.86 15.1707C208.86 15.1168 208.837 15.0653 208.799 15.0279C207.081 13.43 204.421 13.43 202.703 15.0279C202.664 15.0653 202.642 15.1168 202.641 15.1708C202.641 15.2247 202.662 15.2766 202.7 15.3148L203.422 16.044C203.496 16.1185 203.616 16.1201 203.692 16.0476C204.256 15.5371 204.989 15.2543 205.75 15.2539ZM207.196 16.8502C207.197 16.9043 207.176 16.9565 207.137 16.9943L205.889 18.2543C205.852 18.2913 205.802 18.3121 205.75 18.3121C205.698 18.3121 205.648 18.2913 205.611 18.2543L204.363 16.9943C204.324 16.9564 204.303 16.9043 204.304 16.8502C204.305 16.7961 204.329 16.7449 204.369 16.7087C205.166 16.0343 206.334 16.0343 207.131 16.7087C207.171 16.745 207.195 16.7962 207.196 16.8502Z" fill="black"/>
<path fill-rule="evenodd" clip-rule="evenodd" d="M197.209 11.6678H196.584C196.239 11.6678 195.959 11.9477 195.959 12.2929V17.7102C195.959 18.0554 196.239 18.3353 196.584 18.3353H197.209C197.554 18.3353 197.834 18.0554 197.834 17.7102V12.2929C197.834 11.9477 197.554 11.6678 197.209 11.6678ZM193.667 13.1264H194.292C194.637 13.1264 194.917 13.4062 194.917 13.7514V17.7102C194.917 18.0554 194.637 18.3353 194.292 18.3353H193.667C193.322 18.3353 193.042 18.0554 193.042 17.7102V13.7514C193.042 13.4062 193.322 13.1264 193.667 13.1264ZM191.375 14.5848H190.75C190.405 14.5848 190.125 14.8647 190.125 15.2099V17.7102C190.125 18.0554 190.405 18.3352 190.75 18.3352H191.375C191.72 18.3352 192 18.0554 192 17.7102V15.2099C192 14.8647 191.72 14.5848 191.375 14.5848ZM188.458 15.8349H187.833C187.488 15.8349 187.208 16.1148 187.208 16.46V17.7102C187.208 18.0554 187.488 18.3352 187.833 18.3352H188.458C188.803 18.3352 189.083 18.0554 189.083 17.7102V16.46C189.083 16.1148 188.803 15.8349 188.458 15.8349Z" fill="black"/>
<path d="M25.4037 16.824L26.1957 16.7507C26.2629 17.1231 26.3911 17.3932 26.5803 17.5611C26.7695 17.7289 27.0122 17.8129 27.3082 17.8129C27.5616 17.8129 27.7828 17.7549 27.9721 17.6389C28.1643 17.5229 28.3215 17.3688 28.4436 17.1765C28.5657 16.9812 28.6679 16.7187 28.7503 16.3891C28.8328 16.0594 28.874 15.7237 28.874 15.3819C28.874 15.3452 28.8724 15.2903 28.8694 15.2171C28.7046 15.4795 28.4787 15.6932 28.1918 15.858C27.908 16.0198 27.5997 16.1006 27.267 16.1006C26.7115 16.1006 26.2415 15.8992 25.857 15.4963C25.4724 15.0934 25.2801 14.5624 25.2801 13.9031C25.2801 13.2225 25.48 12.6747 25.8799 12.2596C26.2827 11.8445 26.7863 11.6369 27.3906 11.6369C27.8271 11.6369 28.2254 11.7545 28.5855 11.9895C28.9487 12.2245 29.2234 12.5602 29.4096 12.9967C29.5988 13.4301 29.6934 14.0588 29.6934 14.8829C29.6934 15.7405 29.6004 16.4242 29.4142 16.9339C29.228 17.4405 28.9503 17.8266 28.581 18.0921C28.2147 18.3577 27.7844 18.4904 27.2899 18.4904C26.765 18.4904 26.3361 18.3455 26.0035 18.0555C25.6708 17.7625 25.4709 17.352 25.4037 16.824ZM28.7778 13.8619C28.7778 13.3889 28.6512 13.0134 28.3978 12.7357C28.1476 12.458 27.8454 12.3191 27.4914 12.3191C27.1251 12.3191 26.8062 12.4686 26.5345 12.7678C26.2629 13.0669 26.1271 13.4545 26.1271 13.9306C26.1271 14.3579 26.2553 14.7058 26.5116 14.9744C26.7711 15.2399 27.09 15.3727 27.4685 15.3727C27.85 15.3727 28.1628 15.2399 28.407 14.9744C28.6542 14.7058 28.7778 14.335 28.7778 13.8619ZM30.7695 14.4525V13.514H31.708V14.4525H30.7695ZM30.7695 18.376V17.4375H31.708V18.376H30.7695ZM35.3753 18.376V16.769H32.4636V16.0137L35.5264 11.6644H36.1994V16.0137H37.1058V16.769H36.1994V18.376H35.3753ZM35.3753 16.0137V12.9875L33.2739 16.0137H35.3753ZM40.8692 18.376H40.0452V13.1248C39.8468 13.3141 39.5858 13.5033 39.2623 13.6925C38.9418 13.8818 38.6534 14.0237 38.397 14.1183V13.3217C38.8579 13.105 39.2608 12.8425 39.6057 12.5343C39.9506 12.226 40.1947 11.9269 40.3382 11.6369H40.8692V18.376Z" fill="black"/>
<path d="M25.4037 16.824L25.3893 16.6684L25.2283 16.6833L25.2487 16.8437L25.4037 16.824ZM26.1957 16.7507L26.3495 16.723L26.3241 16.5819L26.1814 16.5951L26.1957 16.7507ZM27.9721 17.6389L27.8914 17.5051L27.8904 17.5057L27.9721 17.6389ZM28.4436 17.1765L28.5755 17.2603L28.5761 17.2593L28.4436 17.1765ZM28.8694 15.2171L29.0255 15.2106L29.0046 14.7079L28.737 15.134L28.8694 15.2171ZM28.1918 15.858L28.2692 15.9938L28.2697 15.9935L28.1918 15.858ZM25.8799 12.2596L25.7677 12.1507L25.7673 12.1512L25.8799 12.2596ZM28.5855 11.9895L28.5001 12.1203L28.5006 12.1207L28.5855 11.9895ZM29.4096 12.9967L29.2659 13.058L29.2664 13.0592L29.4096 12.9967ZM29.4142 16.9339L29.5609 16.9878L29.561 16.9875L29.4142 16.9339ZM28.581 18.0921L28.4897 17.9653L28.4892 17.9656L28.581 18.0921ZM26.0035 18.0555L25.9002 18.1728L25.9008 18.1733L26.0035 18.0555ZM28.3978 12.7357L28.2817 12.8403L28.2824 12.841L28.3978 12.7357ZM26.5116 14.9744L26.3986 15.0823L26.3999 15.0836L26.5116 14.9744ZM28.407 14.9744L28.292 14.8686L28.292 14.8686L28.407 14.9744ZM25.4181 16.9796L26.2101 16.9063L26.1814 16.5951L25.3893 16.6684L25.4181 16.9796ZM26.042 16.7785C26.1124 17.169 26.251 17.4778 26.4766 17.678L26.684 17.4442C26.5312 17.3086 26.4134 17.0772 26.3495 16.723L26.042 16.7785ZM26.4766 17.678C26.6992 17.8754 26.9809 17.9691 27.3082 17.9691V17.6566C27.0435 17.6566 26.8399 17.5824 26.684 17.4442L26.4766 17.678ZM27.3082 17.9691C27.5862 17.9691 27.8366 17.9052 28.0537 17.7721L27.8904 17.5057C27.7291 17.6045 27.5369 17.6566 27.3082 17.6566V17.9691ZM28.0528 17.7727C28.2661 17.644 28.4407 17.4727 28.5755 17.2603L28.3117 17.0927C28.2024 17.2649 28.0626 17.4018 27.8914 17.5051L28.0528 17.7727ZM28.5761 17.2593C28.71 17.0452 28.8173 16.7657 28.902 16.427L28.5987 16.3512C28.5186 16.6717 28.4214 16.9171 28.3111 17.0937L28.5761 17.2593ZM28.902 16.427C28.9875 16.0849 29.0302 15.7364 29.0302 15.3819H28.7177C28.7177 15.711 28.678 16.034 28.5987 16.3512L28.902 16.427ZM29.0302 15.3819C29.0302 15.3419 29.0286 15.2843 29.0255 15.2106L28.7132 15.2236C28.7163 15.2963 28.7177 15.3486 28.7177 15.3819H29.0302ZM28.737 15.134C28.5867 15.3733 28.3802 15.5695 28.114 15.7225L28.2697 15.9935C28.5772 15.8168 28.8224 15.5858 29.0017 15.3002L28.737 15.134ZM28.1144 15.7222C27.8546 15.8703 27.5731 15.9444 27.267 15.9444V16.2569C27.6263 16.2569 27.9613 16.1692 28.2692 15.9938L28.1144 15.7222ZM27.267 15.9444C26.7544 15.9444 26.3252 15.7605 25.97 15.3884L25.7439 15.6042C26.1579 16.0379 26.6687 16.2569 27.267 16.2569V15.9444ZM25.97 15.3884C25.6182 15.0199 25.4364 14.5301 25.4364 13.9031H25.1238C25.1238 14.5947 25.3266 15.167 25.7439 15.6042L25.97 15.3884ZM25.4364 13.9031C25.4364 13.2551 25.6256 12.7488 25.9924 12.368L25.7673 12.1512C25.3344 12.6006 25.1238 13.1899 25.1238 13.9031H25.4364ZM25.992 12.3684C26.364 11.9851 26.8265 11.7932 27.3906 11.7932V11.4807C26.7462 11.4807 26.2015 11.7039 25.7677 12.1507L25.992 12.3684ZM27.3906 11.7932C27.7972 11.7932 28.1658 11.9022 28.5001 12.1203L28.6709 11.8586C28.285 11.6068 27.8569 11.4807 27.3906 11.4807V11.7932ZM28.5006 12.1207C28.8352 12.3371 29.0907 12.6473 29.2659 13.058L29.5533 12.9353C29.3562 12.4732 29.0623 12.1118 28.6704 11.8583L28.5006 12.1207ZM29.2664 13.0592C29.4429 13.4633 29.5372 14.0667 29.5372 14.8829H29.8497C29.8497 14.0509 29.7548 13.3968 29.5528 12.9341L29.2664 13.0592ZM29.5372 14.8829C29.5372 15.7316 29.4447 16.3947 29.2674 16.8802L29.561 16.9875C29.756 16.4536 29.8497 15.7494 29.8497 14.8829H29.5372ZM29.2675 16.88C29.09 17.3629 28.8292 17.7211 28.4897 17.9653L28.6722 18.219C29.0713 17.9321 29.366 17.5181 29.5609 16.9878L29.2675 16.88ZM28.4892 17.9656C28.1522 18.21 27.7546 18.3342 27.2899 18.3342V18.6467C27.8141 18.6467 28.2773 18.5053 28.6727 18.2186L28.4892 17.9656ZM27.2899 18.3342C26.7952 18.3342 26.4052 18.1983 26.1061 17.9377L25.9008 18.1733C26.2671 18.4926 26.7347 18.6467 27.2899 18.6467V18.3342ZM26.1067 17.9382C25.8081 17.6752 25.6221 17.3025 25.5587 16.8043L25.2487 16.8437C25.3196 17.4015 25.5335 17.8498 25.9002 18.1728L26.1067 17.9382ZM28.9341 13.8619C28.9341 13.3604 28.7992 12.9438 28.5133 12.6304L28.2824 12.841C28.5032 13.0831 28.6216 13.4173 28.6216 13.8619H28.9341ZM28.5139 12.6311C28.2359 12.3226 27.8924 12.1628 27.4914 12.1628V12.4754C27.7984 12.4754 28.0592 12.5934 28.2817 12.8403L28.5139 12.6311ZM27.4914 12.1628C27.0762 12.1628 26.7167 12.3347 26.4188 12.6627L26.6502 12.8728C26.8956 12.6026 27.174 12.4754 27.4914 12.4754V12.1628ZM26.4188 12.6627C26.1165 12.9956 25.9708 13.423 25.9708 13.9306H26.2833C26.2833 13.486 26.4092 13.1381 26.6502 12.8728L26.4188 12.6627ZM25.9708 13.9306C25.9708 14.3916 26.1103 14.7803 26.3986 15.0823L26.6247 14.8665C26.4002 14.6314 26.2833 14.3242 26.2833 13.9306H25.9708ZM26.3999 15.0836C26.6893 15.3799 27.0489 15.529 27.4685 15.529V15.2164C27.1312 15.2164 26.8528 15.1 26.6234 14.8652L26.3999 15.0836ZM27.4685 15.529C27.8909 15.529 28.2464 15.3799 28.522 15.0802L28.292 14.8686C28.0793 15.1 27.8091 15.2164 27.4685 15.2164V15.529ZM28.522 15.0802C28.8029 14.7751 28.9341 14.3623 28.9341 13.8619H28.6216C28.6216 14.3078 28.5056 14.6366 28.292 14.8686L28.522 15.0802ZM30.7695 14.4525H30.6132V14.6088H30.7695V14.4525ZM30.7695 13.514V13.3577H30.6132V13.514H30.7695ZM31.708 13.514H31.8643V13.3577H31.708V13.514ZM31.708 14.4525V14.6088H31.8643V14.4525H31.708ZM30.7695 18.376H30.6132V18.5322H30.7695V18.376ZM30.7695 17.4375V17.2812H30.6132V17.4375H30.7695ZM31.708 17.4375H31.8643V17.2812H31.708V17.4375ZM31.708 18.376V18.5322H31.8643V18.376H31.708ZM30.9258 14.4525V13.514H30.6132V14.4525H30.9258ZM30.7695 13.6703H31.708V13.3577H30.7695V13.6703ZM31.5517 13.514V14.4525H31.8643V13.514H31.5517ZM31.708 14.2962H30.7695V14.6088H31.708V14.2962ZM30.9258 18.376V17.4375H30.6132V18.376H30.9258ZM30.7695 17.5937H31.708V17.2812H30.7695V17.5937ZM31.5517 17.4375V18.376H31.8643V17.4375H31.5517ZM31.708 18.2197H30.7695V18.5322H31.708V18.2197ZM35.3753 18.376H35.219V18.5322H35.3753V18.376ZM35.3753 16.769H35.5316V16.6128H35.3753V16.769ZM32.4636 16.769H32.3073V16.9253H32.4636V16.769ZM32.4636 16.0137L32.3358 15.9237L32.3073 15.9642V16.0137H32.4636ZM35.5264 11.6644V11.5082H35.4453L35.3986 11.5744L35.5264 11.6644ZM36.1994 11.6644H36.3556V11.5082H36.1994V11.6644ZM36.1994 16.0137H36.0431V16.1699H36.1994V16.0137ZM37.1058 16.0137H37.2621V15.8574H37.1058V16.0137ZM37.1058 16.769V16.9253H37.2621V16.769H37.1058ZM36.1994 16.769V16.6128H36.0431V16.769H36.1994ZM36.1994 18.376V18.5322H36.3556V18.376H36.1994ZM35.3753 16.0137V16.1699H35.5316V16.0137H35.3753ZM35.3753 12.9875H35.5316V12.4885L35.2469 12.8984L35.3753 12.9875ZM33.2739 16.0137L33.1456 15.9245L32.9752 16.1699H33.2739V16.0137ZM35.5316 18.376V16.769H35.219V18.376H35.5316ZM35.3753 16.6128H32.4636V16.9253H35.3753V16.6128ZM32.6199 16.769V16.0137H32.3073V16.769H32.6199ZM32.5914 16.1036L35.6541 11.7544L35.3986 11.5744L32.3358 15.9237L32.5914 16.1036ZM35.5264 11.8207H36.1994V11.5082H35.5264V11.8207ZM36.0431 11.6644V16.0137H36.3556V11.6644H36.0431ZM36.1994 16.1699H37.1058V15.8574H36.1994V16.1699ZM36.9496 16.0137V16.769H37.2621V16.0137H36.9496ZM37.1058 16.6128H36.1994V16.9253H37.1058V16.6128ZM36.0431 16.769V18.376H36.3556V16.769H36.0431ZM36.1994 18.2197H35.3753V18.5322H36.1994V18.2197ZM35.5316 16.0137V12.9875H35.219V16.0137H35.5316ZM35.2469 12.8984L33.1456 15.9245L33.4023 16.1028L35.5036 13.0766L35.2469 12.8984ZM33.2739 16.1699H35.3753V15.8574H33.2739V16.1699ZM40.8692 18.376V18.5322H41.0255V18.376H40.8692ZM40.0452 18.376H39.8889V18.5322H40.0452V18.376ZM40.0452 13.1248H40.2014V12.7598L39.9373 13.0118L40.0452 13.1248ZM39.2623 13.6925L39.1834 13.5576L39.1829 13.558L39.2623 13.6925ZM38.397 14.1183H38.2408V14.3425L38.4511 14.2649L38.397 14.1183ZM38.397 13.3217L38.3306 13.1803L38.2408 13.2225V13.3217H38.397ZM40.3382 11.6369V11.4807H40.2411L40.1981 11.5677L40.3382 11.6369ZM40.8692 11.6369H41.0255V11.4807H40.8692V11.6369ZM40.8692 18.2197H40.0452V18.5322H40.8692V18.2197ZM40.2014 18.376V13.1248H39.8889V18.376H40.2014ZM39.9373 13.0118C39.7502 13.1902 39.5 13.3725 39.1834 13.5576L39.3412 13.8274C39.6717 13.6341 39.9433 13.4379 40.153 13.2379L39.9373 13.0118ZM39.1829 13.558C38.8678 13.744 38.588 13.8813 38.3429 13.9717L38.4511 14.2649C38.7188 14.1661 39.0159 14.0195 39.3418 13.8271L39.1829 13.558ZM38.5533 14.1183V13.3217H38.2408V14.1183H38.5533ZM38.4635 13.4631C38.9367 13.2406 39.3526 12.9701 39.7098 12.6508L39.5015 12.4178C39.169 12.715 38.7791 12.9694 38.3306 13.1803L38.4635 13.4631ZM39.7098 12.6508C40.0637 12.3345 40.323 12.02 40.4782 11.7062L40.1981 11.5677C40.0665 11.8338 39.8374 12.1175 39.5015 12.4178L39.7098 12.6508ZM40.3382 11.7932H40.8692V11.4807H40.3382V11.7932ZM40.713 11.6369V18.376H41.0255V11.6369H40.713Z" fill="black"/>
<path d="M103.579 113.803L92.8593 113.803C92.2094 113.803 91.6713 114.285 91.7306 114.932C92.0397 118.305 94.5102 125.772 98.9082 127.188C98.9382 127.197 98.9655 127.205 98.9962 127.212C99.5015 127.329 104.335 128.434 106.869 128.573C110.371 128.766 116.161 126.342 116.161 126.342" stroke="#567FD5" stroke-width="5.65409" stroke-linecap="round" stroke-linejoin="round"/>
<path d="M101.755 112.238C100.896 113.542 101.257 115.295 102.561 116.154C103.864 117.013 105.618 116.652 106.477 115.348L101.755 112.238ZM131.329 119.964C132.034 118.571 131.477 116.87 130.083 116.165C128.69 115.46 126.99 116.018 126.285 117.411L131.329 119.964ZM137.489 113.695L140.17 112.798L137.489 113.695ZM137.537 113.881L140.324 113.407L137.537 113.881ZM106.477 115.348C108.227 112.691 110.54 109.782 113.129 107.327C115.746 104.845 118.478 102.987 121.05 102.181C123.502 101.412 125.748 101.598 127.881 103.122C130.161 104.751 132.651 108.153 134.808 114.593L140.17 112.798C137.836 105.831 134.832 101.14 131.168 98.5213C127.355 95.797 123.204 95.5802 119.359 96.7857C115.634 97.9534 112.168 100.446 109.239 103.224C106.281 106.028 103.698 109.287 101.755 112.238L106.477 115.348ZM134.75 114.355C134.873 115.081 135.752 120.305 136.397 125.595C136.72 128.249 136.977 130.858 137.056 132.905C137.096 133.936 137.088 134.749 137.038 135.322C137.013 135.609 136.982 135.771 136.965 135.838C136.937 135.953 136.97 135.72 137.211 135.404L141.705 138.836C142.15 138.253 142.349 137.616 142.451 137.209C142.565 136.753 142.63 136.273 142.67 135.816C142.751 134.901 142.75 133.818 142.706 132.686C142.617 130.406 142.339 127.616 142.009 124.912C141.348 119.486 140.451 114.157 140.324 113.407L134.75 114.355ZM137.211 135.404C136.676 136.106 135.631 136.941 134.406 137.17C133.377 137.363 131.738 137.225 129.578 135.103L125.616 139.137C128.878 142.341 132.322 143.312 135.445 142.728C138.371 142.18 140.546 140.353 141.705 138.836L137.211 135.404ZM129.578 135.103C128.877 134.415 128.429 133.351 128.318 131.793C128.207 130.226 128.459 128.409 128.912 126.589C129.359 124.791 129.968 123.121 130.472 121.89C130.722 121.278 130.942 120.785 131.098 120.449C131.176 120.281 131.237 120.154 131.277 120.071C131.297 120.03 131.312 120 131.321 119.982C131.325 119.973 131.328 119.967 131.33 119.964C131.33 119.962 131.331 119.961 131.331 119.962C131.331 119.962 131.331 119.962 131.33 119.962C131.33 119.962 131.33 119.963 131.33 119.963C131.33 119.963 131.329 119.964 128.807 118.688C126.285 117.411 126.284 117.412 126.284 117.412C126.284 117.413 126.283 117.413 126.283 117.414C126.282 117.415 126.282 117.417 126.281 117.418C126.279 117.422 126.277 117.426 126.275 117.43C126.27 117.44 126.264 117.453 126.256 117.469C126.24 117.501 126.218 117.545 126.191 117.601C126.136 117.713 126.06 117.872 125.967 118.073C125.781 118.475 125.526 119.047 125.239 119.748C124.669 121.141 123.958 123.08 123.425 125.224C122.897 127.347 122.508 129.805 122.678 132.194C122.849 134.59 123.605 137.162 125.616 139.137L129.578 135.103ZM134.808 114.593C134.802 114.574 134.791 114.541 134.78 114.497C134.768 114.452 134.758 114.404 134.75 114.355L140.324 113.407C140.283 113.17 140.227 112.968 140.17 112.798L134.808 114.593Z" fill="#567FD5"/>
<ellipse cx="118.724" cy="110.425" rx="2.53869" ry="2.52798" fill="#567FD5"/>
<rect x="64.4374" y="405.205" width="112.817" height="24.6827" rx="12.3414" stroke="#567FD5" stroke-width="1.57017"/>
<path d="M100.37 421.052C100.902 421.052 101.367 420.917 101.765 420.647C102.17 420.377 102.47 420.013 102.665 419.555H103.554C103.306 420.26 102.898 420.815 102.328 421.22C101.72 421.655 101.004 421.873 100.179 421.873C99.091 421.873 98.2096 421.502 97.5346 420.759C96.897 420.047 96.5782 419.146 96.5782 418.059C96.5782 416.971 96.897 416.071 97.5346 415.358C98.2096 414.616 99.091 414.245 100.179 414.245C101.004 414.245 101.72 414.462 102.328 414.897C102.898 415.302 103.306 415.857 103.554 416.562H102.665C102.47 416.105 102.17 415.741 101.765 415.471C101.367 415.201 100.902 415.066 100.37 415.066C99.8373 415.066 99.3948 415.145 99.0422 415.302C98.6897 415.452 98.3934 415.662 98.1534 415.932C97.6658 416.48 97.4221 417.189 97.4221 418.059C97.4221 418.929 97.6658 419.638 98.1534 420.185C98.6634 420.763 99.4023 421.052 100.37 421.052ZM107.643 416.067C108.483 416.067 109.166 416.349 109.691 416.911C110.186 417.451 110.433 418.138 110.433 418.97C110.433 419.803 110.186 420.489 109.691 421.029C109.166 421.592 108.483 421.873 107.643 421.873C106.803 421.873 106.12 421.592 105.595 421.029C105.1 420.489 104.853 419.803 104.853 418.97C104.853 418.138 105.1 417.451 105.595 416.911C106.12 416.349 106.803 416.067 107.643 416.067ZM107.643 421.108C108.251 421.108 108.731 420.898 109.083 420.478C109.421 420.08 109.589 419.578 109.589 418.97C109.589 418.363 109.421 417.86 109.083 417.462C108.731 417.042 108.251 416.832 107.643 416.832C107.035 416.832 106.555 417.042 106.203 417.462C105.865 417.86 105.697 418.363 105.697 418.97C105.697 419.578 105.865 420.08 106.203 420.478C106.555 420.898 107.035 421.108 107.643 421.108ZM112.959 416.157V417.035C113.161 416.765 113.409 416.536 113.701 416.349C113.994 416.161 114.328 416.067 114.703 416.067C115.078 416.067 115.4 416.12 115.67 416.225C115.94 416.33 116.177 416.487 116.379 416.697C116.844 417.155 117.077 417.759 117.077 418.509V421.783H116.233V418.531C116.233 418.014 116.087 417.601 115.794 417.294C115.501 416.986 115.123 416.832 114.658 416.832C114.185 416.832 113.784 416.99 113.454 417.305C113.124 417.627 112.959 418.04 112.959 418.543V421.783H112.115V416.157H112.959ZM119.526 421.783V416.9H118.378V416.157H119.526V414.143H120.37V416.157H121.664V416.9H120.37V421.783H119.526ZM123.151 416.157H123.995V421.783H123.151V416.157ZM124.028 414.11V415.212H123.117V414.11H124.028ZM126.865 416.157V417.035C127.067 416.765 127.315 416.536 127.607 416.349C127.9 416.161 128.233 416.067 128.608 416.067C128.984 416.067 129.306 416.12 129.576 416.225C129.846 416.33 130.082 416.487 130.285 416.697C130.75 417.155 130.982 417.759 130.982 418.509V421.783H130.139V418.531C130.139 418.014 129.992 417.601 129.7 417.294C129.407 416.986 129.029 416.832 128.563 416.832C128.091 416.832 127.69 416.99 127.36 417.305C127.03 417.627 126.865 418.04 126.865 418.543V421.783H126.021V416.157H126.865ZM136.963 421.783V420.905C136.76 421.175 136.513 421.404 136.22 421.592C135.928 421.779 135.594 421.873 135.219 421.873C134.844 421.873 134.521 421.82 134.251 421.715C133.981 421.61 133.745 421.453 133.542 421.243C133.077 420.785 132.845 420.182 132.845 419.431V416.157H133.689V419.409C133.689 419.927 133.835 420.339 134.127 420.647C134.42 420.954 134.799 421.108 135.264 421.108C135.736 421.108 136.138 420.95 136.468 420.635C136.798 420.313 136.963 419.9 136.963 419.398V416.157H137.807V421.783H136.963ZM142.345 421.108C143.103 421.108 143.647 420.793 143.977 420.163H144.899C144.704 420.673 144.393 421.085 143.966 421.4C143.546 421.715 143.002 421.873 142.334 421.873C141.487 421.873 140.797 421.592 140.264 421.029C139.746 420.482 139.488 419.795 139.488 418.97C139.488 418.138 139.735 417.451 140.23 416.911C140.755 416.349 141.438 416.067 142.278 416.067C143.118 416.067 143.801 416.349 144.326 416.911C144.821 417.451 145.068 418.138 145.068 418.97V419.308H140.354C140.414 419.825 140.62 420.253 140.973 420.59C141.333 420.935 141.79 421.108 142.345 421.108ZM142.278 416.832C141.76 416.832 141.325 416.994 140.973 417.316C140.643 417.624 140.44 418.025 140.365 418.52H144.191C144.116 418.025 143.913 417.624 143.583 417.316C143.231 416.994 142.796 416.832 142.278 416.832Z" fill="#567FD5"/>
<path d="M101.765 420.647L101.678 420.516L101.677 420.517L101.765 420.647ZM102.665 419.555V419.398H102.561L102.521 419.494L102.665 419.555ZM103.554 419.555L103.702 419.607L103.776 419.398H103.554V419.555ZM102.328 421.22L102.237 421.092L102.236 421.093L102.328 421.22ZM97.5346 420.759L97.4175 420.864L97.4184 420.865L97.5346 420.759ZM97.5346 415.358L97.4184 415.253L97.4175 415.254L97.5346 415.358ZM102.328 414.897L102.236 415.025L102.237 415.025L102.328 414.897ZM103.554 416.562V416.719H103.776L103.702 416.51L103.554 416.562ZM102.665 416.562L102.521 416.624L102.561 416.719H102.665V416.562ZM101.765 415.471L101.677 415.601L101.678 415.602L101.765 415.471ZM99.0422 415.302L99.1037 415.447L99.1063 415.446L99.0422 415.302ZM98.1534 415.932L98.2706 416.037L98.2707 416.037L98.1534 415.932ZM98.1534 420.185L98.2711 420.081L98.2706 420.081L98.1534 420.185ZM100.37 421.209C100.93 421.209 101.427 421.066 101.853 420.776L101.677 420.517C101.308 420.767 100.875 420.895 100.37 420.895V421.209ZM101.852 420.777C102.283 420.49 102.603 420.102 102.81 419.617L102.521 419.494C102.337 419.924 102.057 420.263 101.678 420.516L101.852 420.777ZM102.665 419.712H103.554V419.398H102.665V419.712ZM103.406 419.503C103.168 420.18 102.778 420.707 102.237 421.092L102.419 421.348C103.017 420.923 103.445 420.341 103.702 419.607L103.406 419.503ZM102.236 421.093C101.658 421.507 100.974 421.716 100.179 421.716V422.03C101.033 422.03 101.782 421.804 102.419 421.348L102.236 421.093ZM100.179 421.716C99.1311 421.716 98.2934 421.36 97.6507 420.653L97.4184 420.865C98.1259 421.643 99.0509 422.03 100.179 422.03V421.716ZM97.6516 420.654C97.0433 419.975 96.7352 419.113 96.7352 418.059H96.4212C96.4212 419.179 96.7507 420.118 97.4175 420.864L97.6516 420.654ZM96.7352 418.059C96.7352 417.004 97.0433 416.143 97.6516 415.463L97.4175 415.254C96.7507 415.999 96.4212 416.938 96.4212 418.059H96.7352ZM97.6507 415.464C98.2934 414.757 99.1311 414.402 100.179 414.402V414.088C99.0509 414.088 98.1259 414.475 97.4184 415.253L97.6507 415.464ZM100.179 414.402C100.974 414.402 101.658 414.611 102.236 415.025L102.419 414.77C101.782 414.313 101.033 414.088 100.179 414.088V414.402ZM102.237 415.025C102.778 415.41 103.168 415.938 103.406 416.614L103.702 416.51C103.445 415.777 103.017 415.194 102.419 414.769L102.237 415.025ZM103.554 416.405H102.665V416.719H103.554V416.405ZM102.81 416.501C102.603 416.016 102.283 415.628 101.852 415.34L101.678 415.602C102.057 415.854 102.337 416.194 102.521 416.624L102.81 416.501ZM101.853 415.341C101.427 415.052 100.93 414.909 100.37 414.909V415.223C100.875 415.223 101.308 415.35 101.677 415.601L101.853 415.341ZM100.37 414.909C99.8231 414.909 99.357 414.99 98.9782 415.159L99.1063 415.446C99.4326 415.3 99.8515 415.223 100.37 415.223V414.909ZM98.9807 415.158C98.6082 415.316 98.2924 415.54 98.036 415.828L98.2707 416.037C98.4944 415.785 98.7712 415.588 99.1037 415.447L98.9807 415.158ZM98.0361 415.828C97.5183 416.409 97.265 417.158 97.265 418.059H97.5791C97.5791 417.22 97.8133 416.55 98.2706 416.037L98.0361 415.828ZM97.265 418.059C97.265 418.96 97.5183 419.708 98.0361 420.29L98.2706 420.081C97.8133 419.567 97.5791 418.898 97.5791 418.059H97.265ZM98.0357 420.289C98.5829 420.909 99.3696 421.209 100.37 421.209V420.895C99.4349 420.895 98.744 420.617 98.2711 420.081L98.0357 420.289ZM109.691 416.911L109.806 416.805L109.806 416.804L109.691 416.911ZM109.691 421.029L109.806 421.136L109.806 421.135L109.691 421.029ZM105.595 421.029L105.48 421.135L105.48 421.136L105.595 421.029ZM105.595 416.911L105.48 416.804L105.48 416.805L105.595 416.911ZM109.083 420.478L108.963 420.376L108.963 420.377L109.083 420.478ZM109.083 417.462L108.963 417.563L108.963 417.564L109.083 417.462ZM106.203 417.462L106.323 417.564L106.323 417.563L106.203 417.462ZM106.203 420.478L106.323 420.377L106.323 420.376L106.203 420.478ZM107.643 416.224C108.444 416.224 109.083 416.491 109.576 417.018L109.806 416.804C109.248 416.207 108.522 415.91 107.643 415.91V416.224ZM109.575 417.017C110.04 417.524 110.276 418.171 110.276 418.97H110.59C110.59 418.104 110.332 417.378 109.806 416.805L109.575 417.017ZM110.276 418.97C110.276 419.769 110.04 420.416 109.575 420.923L109.806 421.135C110.332 420.562 110.59 419.836 110.59 418.97H110.276ZM109.576 420.922C109.083 421.45 108.444 421.716 107.643 421.716V422.03C108.522 422.03 109.248 421.734 109.806 421.136L109.576 420.922ZM107.643 421.716C106.842 421.716 106.203 421.45 105.71 420.922L105.48 421.136C106.038 421.734 106.764 422.03 107.643 422.03V421.716ZM105.711 420.923C105.246 420.416 105.01 419.769 105.01 418.97H104.696C104.696 419.836 104.954 420.562 105.48 421.135L105.711 420.923ZM105.01 418.97C105.01 418.171 105.246 417.524 105.711 417.017L105.48 416.805C104.954 417.378 104.696 418.104 104.696 418.97H105.01ZM105.71 417.018C106.203 416.491 106.842 416.224 107.643 416.224V415.91C106.764 415.91 106.038 416.207 105.48 416.804L105.71 417.018ZM107.643 421.265C108.291 421.265 108.818 421.038 109.203 420.579L108.963 420.377C108.644 420.757 108.21 420.951 107.643 420.951V421.265ZM109.203 420.579C109.568 420.149 109.746 419.608 109.746 418.97H109.432C109.432 419.547 109.273 420.012 108.963 420.376L109.203 420.579ZM109.746 418.97C109.746 418.332 109.568 417.791 109.203 417.361L108.963 417.564C109.273 417.929 109.432 418.393 109.432 418.97H109.746ZM109.203 417.362C108.818 416.902 108.291 416.675 107.643 416.675V416.989C108.21 416.989 108.644 417.183 108.963 417.563L109.203 417.362ZM107.643 416.675C106.995 416.675 106.468 416.902 106.083 417.362L106.323 417.563C106.642 417.183 107.076 416.989 107.643 416.989V416.675ZM106.083 417.361C105.718 417.791 105.54 418.332 105.54 418.97H105.854C105.854 418.393 106.013 417.929 106.323 417.564L106.083 417.361ZM105.54 418.97C105.54 419.608 105.718 420.149 106.083 420.579L106.323 420.376C106.013 420.012 105.854 419.547 105.854 418.97H105.54ZM106.083 420.579C106.468 421.038 106.995 421.265 107.643 421.265V420.951C107.076 420.951 106.642 420.757 106.323 420.377L106.083 420.579ZM112.959 416.157H113.116V416H112.959V416.157ZM112.959 417.035H112.802V417.506L113.084 417.129L112.959 417.035ZM113.701 416.349L113.786 416.481V416.481L113.701 416.349ZM115.67 416.225L115.613 416.371L115.67 416.225ZM116.379 416.697L116.266 416.806L116.269 416.809L116.379 416.697ZM117.077 421.783V421.94H117.234V421.783H117.077ZM116.233 421.783H116.076V421.94H116.233V421.783ZM113.454 417.305L113.345 417.191L113.344 417.193L113.454 417.305ZM112.959 421.783V421.94H113.116V421.783H112.959ZM112.115 421.783H111.958V421.94H112.115V421.783ZM112.115 416.157V416H111.958V416.157H112.115ZM112.802 416.157V417.035H113.116V416.157H112.802ZM113.084 417.129C113.275 416.875 113.509 416.659 113.786 416.481L113.617 416.216C113.309 416.414 113.047 416.655 112.833 416.941L113.084 417.129ZM113.786 416.481C114.051 416.311 114.355 416.224 114.703 416.224V415.91C114.3 415.91 113.936 416.011 113.617 416.216L113.786 416.481ZM114.703 416.224C115.064 416.224 115.366 416.275 115.613 416.371L115.727 416.079C115.435 415.965 115.092 415.91 114.703 415.91V416.224ZM115.613 416.371C115.862 416.468 116.079 416.613 116.266 416.806L116.492 416.588C116.274 416.362 116.019 416.192 115.727 416.079L115.613 416.371ZM116.269 416.809C116.699 417.233 116.92 417.794 116.92 418.509H117.234C117.234 417.724 116.989 417.077 116.489 416.585L116.269 416.809ZM116.92 418.509V421.783H117.234V418.509H116.92ZM117.077 421.626H116.233V421.94H117.077V421.626ZM116.39 421.783V418.531H116.076V421.783H116.39ZM116.39 418.531C116.39 417.983 116.234 417.528 115.908 417.185L115.68 417.402C115.939 417.674 116.076 418.045 116.076 418.531H116.39ZM115.908 417.185C115.583 416.844 115.161 416.675 114.658 416.675V416.989C115.084 416.989 115.42 417.129 115.68 417.402L115.908 417.185ZM114.658 416.675C114.146 416.675 113.706 416.847 113.345 417.191L113.562 417.419C113.862 417.132 114.224 416.989 114.658 416.989V416.675ZM113.344 417.193C112.981 417.548 112.802 418.002 112.802 418.543H113.116C113.116 418.078 113.267 417.707 113.563 417.417L113.344 417.193ZM112.802 418.543V421.783H113.116V418.543H112.802ZM112.959 421.626H112.115V421.94H112.959V421.626ZM112.272 421.783V416.157H111.958V421.783H112.272ZM112.115 416.314H112.959V416H112.115V416.314ZM119.526 421.783H119.369V421.94H119.526V421.783ZM119.526 416.9H119.683V416.743H119.526V416.9ZM118.378 416.9H118.221V417.057H118.378V416.9ZM118.378 416.157V416H118.221V416.157H118.378ZM119.526 416.157V416.314H119.683V416.157H119.526ZM119.526 414.143V413.986H119.369V414.143H119.526ZM120.37 414.143H120.527V413.986H120.37V414.143ZM120.37 416.157H120.213V416.314H120.37V416.157ZM121.664 416.157H121.821V416H121.664V416.157ZM121.664 416.9V417.057H121.821V416.9H121.664ZM120.37 416.9V416.743H120.213V416.9H120.37ZM120.37 421.783V421.94H120.527V421.783H120.37ZM119.683 421.783V416.9H119.369V421.783H119.683ZM119.526 416.743H118.378V417.057H119.526V416.743ZM118.535 416.9V416.157H118.221V416.9H118.535ZM118.378 416.314H119.526V416H118.378V416.314ZM119.683 416.157V414.143H119.369V416.157H119.683ZM119.526 414.3H120.37V413.986H119.526V414.3ZM120.213 414.143V416.157H120.527V414.143H120.213ZM120.37 416.314H121.664V416H120.37V416.314ZM121.507 416.157V416.9H121.821V416.157H121.507ZM121.664 416.743H120.37V417.057H121.664V416.743ZM120.213 416.9V421.783H120.527V416.9H120.213ZM120.37 421.626H119.526V421.94H120.37V421.626ZM123.151 416.157V416H122.994V416.157H123.151ZM123.995 416.157H124.152V416H123.995V416.157ZM123.995 421.783V421.94H124.152V421.783H123.995ZM123.151 421.783H122.994V421.94H123.151V421.783ZM124.028 414.11H124.185V413.953H124.028V414.11ZM124.028 415.212V415.369H124.185V415.212H124.028ZM123.117 415.212H122.96V415.369H123.117V415.212ZM123.117 414.11V413.953H122.96V414.11H123.117ZM123.151 416.314H123.995V416H123.151V416.314ZM123.838 416.157V421.783H124.152V416.157H123.838ZM123.995 421.626H123.151V421.94H123.995V421.626ZM123.308 421.783V416.157H122.994V421.783H123.308ZM123.871 414.11V415.212H124.185V414.11H123.871ZM124.028 415.055H123.117V415.369H124.028V415.055ZM123.274 415.212V414.11H122.96V415.212H123.274ZM123.117 414.267H124.028V413.953H123.117V414.267ZM126.865 416.157H127.022V416H126.865V416.157ZM126.865 417.035H126.708V417.506L126.99 417.129L126.865 417.035ZM127.607 416.349L127.692 416.481V416.481L127.607 416.349ZM129.576 416.225L129.519 416.371L129.576 416.225ZM130.285 416.697L130.172 416.806L130.175 416.809L130.285 416.697ZM130.982 421.783V421.94H131.14V421.783H130.982ZM130.139 421.783H129.982V421.94H130.139V421.783ZM127.36 417.305L127.251 417.191L127.25 417.193L127.36 417.305ZM126.865 421.783V421.94H127.022V421.783H126.865ZM126.021 421.783H125.864V421.94H126.021V421.783ZM126.021 416.157V416H125.864V416.157H126.021ZM126.708 416.157V417.035H127.022V416.157H126.708ZM126.99 417.129C127.181 416.875 127.415 416.659 127.692 416.481L127.522 416.216C127.215 416.414 126.953 416.655 126.739 416.941L126.99 417.129ZM127.692 416.481C127.957 416.311 128.261 416.224 128.608 416.224V415.91C128.206 415.91 127.842 416.011 127.522 416.216L127.692 416.481ZM128.608 416.224C128.97 416.224 129.272 416.275 129.519 416.371L129.633 416.079C129.34 415.965 128.998 415.91 128.608 415.91V416.224ZM129.519 416.371C129.768 416.468 129.985 416.613 130.172 416.806L130.398 416.588C130.18 416.362 129.924 416.192 129.633 416.079L129.519 416.371ZM130.175 416.809C130.605 417.233 130.825 417.794 130.825 418.509H131.14C131.14 417.724 130.895 417.077 130.395 416.585L130.175 416.809ZM130.825 418.509V421.783H131.14V418.509H130.825ZM130.982 421.626H130.139V421.94H130.982V421.626ZM130.296 421.783V418.531H129.982V421.783H130.296ZM130.296 418.531C130.296 417.983 130.14 417.528 129.814 417.185L129.586 417.402C129.845 417.674 129.982 418.045 129.982 418.531H130.296ZM129.814 417.185C129.488 416.844 129.067 416.675 128.563 416.675V416.989C128.99 416.989 129.326 417.129 129.586 417.402L129.814 417.185ZM128.563 416.675C128.052 416.675 127.612 416.847 127.251 417.191L127.468 417.419C127.768 417.132 128.13 416.989 128.563 416.989V416.675ZM127.25 417.193C126.887 417.548 126.708 418.002 126.708 418.543H127.022C127.022 418.078 127.172 417.707 127.469 417.417L127.25 417.193ZM126.708 418.543V421.783H127.022V418.543H126.708ZM126.865 421.626H126.021V421.94H126.865V421.626ZM126.178 421.783V416.157H125.864V421.783H126.178ZM126.021 416.314H126.865V416H126.021V416.314ZM136.963 421.783H136.806V421.94H136.963V421.783ZM136.963 420.905H137.12V420.434L136.837 420.811L136.963 420.905ZM136.22 421.592L136.305 421.724L136.22 421.592ZM134.251 421.715L134.194 421.862L134.251 421.715ZM133.542 421.243L133.655 421.134L133.653 421.131L133.542 421.243ZM132.845 416.157V416H132.688V416.157H132.845ZM133.689 416.157H133.846V416H133.689V416.157ZM136.468 420.635L136.576 420.749L136.577 420.748L136.468 420.635ZM136.963 416.157V416H136.806V416.157H136.963ZM137.807 416.157H137.964V416H137.807V416.157ZM137.807 421.783V421.94H137.964V421.783H137.807ZM137.12 421.783V420.905H136.806V421.783H137.12ZM136.837 420.811C136.646 421.066 136.413 421.282 136.135 421.459L136.305 421.724C136.613 421.527 136.874 421.285 137.088 421L136.837 420.811ZM136.135 421.459C135.87 421.63 135.566 421.716 135.219 421.716V422.03C135.621 422.03 135.985 421.929 136.305 421.724L136.135 421.459ZM135.219 421.716C134.858 421.716 134.556 421.665 134.308 421.569L134.194 421.862C134.487 421.976 134.83 422.03 135.219 422.03V421.716ZM134.308 421.569C134.059 421.472 133.842 421.328 133.655 421.134L133.429 421.352C133.648 421.578 133.903 421.748 134.194 421.862L134.308 421.569ZM133.653 421.131C133.222 420.707 133.002 420.146 133.002 419.431H132.688C132.688 420.217 132.933 420.863 133.432 421.355L133.653 421.131ZM133.002 419.431V416.157H132.688V419.431H133.002ZM132.845 416.314H133.689V416H132.845V416.314ZM133.532 416.157V419.409H133.846V416.157H133.532ZM133.532 419.409C133.532 419.957 133.688 420.412 134.014 420.755L134.241 420.538C133.982 420.266 133.846 419.896 133.846 419.409H133.532ZM134.014 420.755C134.339 421.097 134.76 421.265 135.264 421.265V420.951C134.837 420.951 134.501 420.812 134.241 420.538L134.014 420.755ZM135.264 421.265C135.775 421.265 136.216 421.093 136.576 420.749L136.359 420.522C136.06 420.808 135.698 420.951 135.264 420.951V421.265ZM136.577 420.748C136.941 420.393 137.12 419.938 137.12 419.398H136.806C136.806 419.862 136.655 420.233 136.358 420.523L136.577 420.748ZM137.12 419.398V416.157H136.806V419.398H137.12ZM136.963 416.314H137.807V416H136.963V416.314ZM137.65 416.157V421.783H137.964V416.157H137.65ZM137.807 421.626H136.963V421.94H137.807V421.626ZM143.977 420.163V420.006H143.882L143.838 420.09L143.977 420.163ZM144.899 420.163L145.046 420.219L145.128 420.006H144.899V420.163ZM143.966 421.4L143.872 421.274L143.871 421.275L143.966 421.4ZM140.264 421.029L140.15 421.137L140.15 421.137L140.264 421.029ZM140.23 416.911L140.115 416.804L140.114 416.805L140.23 416.911ZM144.326 416.911L144.441 416.805L144.44 416.804L144.326 416.911ZM145.068 419.308V419.465H145.225V419.308H145.068ZM140.354 419.308V419.151H140.178L140.198 419.326L140.354 419.308ZM140.973 420.59L141.081 420.477L141.081 420.477L140.973 420.59ZM140.973 417.316L140.867 417.2L140.866 417.201L140.973 417.316ZM140.365 418.52L140.21 418.497L140.183 418.677H140.365V418.52ZM144.191 418.52V418.677H144.373L144.346 418.497L144.191 418.52ZM143.583 417.316L143.69 417.201L143.689 417.2L143.583 417.316ZM142.345 421.265C142.746 421.265 143.1 421.181 143.4 421.007C143.701 420.833 143.939 420.573 144.116 420.236L143.838 420.09C143.685 420.382 143.486 420.595 143.243 420.736C142.999 420.877 142.702 420.951 142.345 420.951V421.265ZM143.977 420.32H144.899V420.006H143.977V420.32ZM144.753 420.107C144.568 420.59 144.275 420.977 143.872 421.274L144.059 421.527C144.511 421.193 144.841 420.756 145.046 420.219L144.753 420.107ZM143.871 421.275C143.485 421.564 142.977 421.716 142.334 421.716V422.03C143.026 422.03 143.606 421.866 144.06 421.526L143.871 421.275ZM142.334 421.716C141.525 421.716 140.878 421.449 140.378 420.921L140.15 421.137C140.715 421.734 141.448 422.03 142.334 422.03V421.716ZM140.378 420.921C139.891 420.406 139.645 419.759 139.645 418.97H139.331C139.331 419.831 139.602 420.557 140.15 421.137L140.378 420.921ZM139.645 418.97C139.645 418.171 139.881 417.524 140.346 417.017L140.114 416.805C139.589 417.378 139.331 418.104 139.331 418.97H139.645ZM140.345 417.018C140.837 416.491 141.477 416.224 142.278 416.224V415.91C141.399 415.91 140.673 416.207 140.115 416.804L140.345 417.018ZM142.278 416.224C143.079 416.224 143.718 416.491 144.211 417.018L144.44 416.804C143.883 416.207 143.157 415.91 142.278 415.91V416.224ZM144.21 417.017C144.675 417.524 144.911 418.171 144.911 418.97H145.225C145.225 418.104 144.967 417.378 144.441 416.805L144.21 417.017ZM144.911 418.97V419.308H145.225V418.97H144.911ZM145.068 419.151H140.354V419.465H145.068V419.151ZM140.198 419.326C140.262 419.877 140.483 420.339 140.864 420.704L141.081 420.477C140.757 420.166 140.566 419.773 140.51 419.29L140.198 419.326ZM140.864 420.704C141.257 421.08 141.755 421.265 142.345 421.265V420.951C141.826 420.951 141.409 420.791 141.081 420.477L140.864 420.704ZM142.278 416.675C141.725 416.675 141.251 416.849 140.867 417.2L141.079 417.432C141.4 417.138 141.796 416.989 142.278 416.989V416.675ZM140.866 417.201C140.507 417.536 140.29 417.971 140.21 418.497L140.52 418.544C140.591 418.08 140.779 417.712 141.08 417.431L140.866 417.201ZM140.365 418.677H144.191V418.363H140.365V418.677ZM144.346 418.497C144.266 417.971 144.049 417.536 143.69 417.201L143.476 417.431C143.777 417.712 143.965 418.08 144.035 418.544L144.346 418.497ZM143.689 417.2C143.305 416.849 142.831 416.675 142.278 416.675V416.989C142.76 416.989 143.156 417.138 143.477 417.432L143.689 417.2Z" fill="#567FD5"/>
<defs>
<filter id="filter0_d" x="0" y="1" width="242.401" height="518.682" filterUnits="userSpaceOnUse" color-interpolation-filters="sRGB">
<feFlood flood-opacity="0" result="BackgroundImageFix"/>
<feColorMatrix in="SourceAlpha" type="matrix" values="0 0 0 0 0 0 0 0 0 0 0 0 0 0 0 0 0 0 127 0"/>
<feOffset dy="4"/>
<feGaussianBlur stdDeviation="2"/>
<feColorMatrix type="matrix" values="0 0 0 0 0.478431 0 0 0 0 0.478431 0 0 0 0 0.478431 0 0 0 0.4 0"/>
<feBlend mode="normal" in2="BackgroundImageFix" result="effect1_dropShadow"/>
<feBlend mode="normal" in="SourceGraphic" in2="effect1_dropShadow" result="shape"/>
</filter>
</defs>
</svg>
