<svg width="243" height="520" viewBox="0 0 243 520" fill="none" xmlns="http://www.w3.org/2000/svg">
<g filter="url(#filter0_d)">
<rect x="4.41162" y="1" width="234.401" height="510.682" fill="white"/>
</g>
<path d="M102.44 417.598V425.046H101.461L96.859 418.756V425.046H96.0151V417.598H96.994L101.596 423.865V417.598H102.44ZM106.992 419.33C107.832 419.33 108.515 419.612 109.04 420.174C109.535 420.714 109.782 421.4 109.782 422.233C109.782 423.066 109.535 423.752 109.04 424.292C108.515 424.855 107.832 425.136 106.992 425.136C106.152 425.136 105.469 424.855 104.944 424.292C104.449 423.752 104.202 423.066 104.202 422.233C104.202 421.4 104.449 420.714 104.944 420.174C105.469 419.612 106.152 419.33 106.992 419.33ZM106.992 424.371C107.599 424.371 108.08 424.161 108.432 423.741C108.77 423.343 108.938 422.841 108.938 422.233C108.938 421.626 108.77 421.123 108.432 420.725C108.08 420.305 107.599 420.095 106.992 420.095C106.384 420.095 105.904 420.305 105.552 420.725C105.214 421.123 105.045 421.626 105.045 422.233C105.045 422.841 105.214 423.343 105.552 423.741C105.904 424.161 106.384 424.371 106.992 424.371ZM115.029 425.046V420.163H113.882V419.42H115.029V417.406H115.873V419.42H117.167V420.163H115.873V425.046H115.029ZM119.498 417.17V420.298C119.7 420.028 119.948 419.799 120.24 419.612C120.533 419.424 120.867 419.33 121.242 419.33C121.617 419.33 121.939 419.383 122.209 419.488C122.479 419.593 122.716 419.75 122.918 419.96C123.383 420.418 123.616 421.022 123.616 421.772V425.046H122.772V421.794C122.772 421.277 122.626 420.864 122.333 420.557C122.041 420.249 121.662 420.095 121.197 420.095C120.724 420.095 120.323 420.253 119.993 420.568C119.663 420.89 119.498 421.303 119.498 421.806V425.046H118.654V417.17H119.498ZM129.977 424.146C129.527 424.806 128.856 425.136 127.963 425.136C127.153 425.136 126.493 424.855 125.983 424.292C125.488 423.737 125.241 423.051 125.241 422.233C125.241 421.415 125.488 420.729 125.983 420.174C126.493 419.612 127.172 419.33 128.02 419.33C128.867 419.33 129.52 419.664 129.977 420.332V419.42H130.821V425.046H129.977V424.146ZM128.076 424.371C128.683 424.371 129.164 424.161 129.516 423.741C129.854 423.343 130.022 422.841 130.022 422.233C130.022 421.626 129.854 421.123 129.516 420.725C129.164 420.305 128.683 420.095 128.076 420.095C127.476 420.095 126.988 420.305 126.613 420.725C126.261 421.123 126.084 421.626 126.084 422.233C126.084 422.841 126.261 423.343 126.613 423.741C126.988 424.161 127.476 424.371 128.076 424.371ZM133.687 419.42V420.298C133.89 420.028 134.137 419.799 134.43 419.612C134.722 419.424 135.056 419.33 135.431 419.33C135.806 419.33 136.129 419.383 136.399 419.488C136.669 419.593 136.905 419.75 137.108 419.96C137.573 420.418 137.805 421.022 137.805 421.772V425.046H136.961V421.794C136.961 421.277 136.815 420.864 136.522 420.557C136.23 420.249 135.851 420.095 135.386 420.095C134.914 420.095 134.512 420.253 134.182 420.568C133.852 420.89 133.687 421.303 133.687 421.806V425.046H132.843V419.42H133.687ZM142.254 421.637L144.684 425.046H143.649L141.68 422.222L140.623 423.268V425.046H139.779V417.17H140.623V422.211L143.334 419.42H144.515L142.254 421.637ZM149.143 420.928C149.068 420.343 148.595 420.05 147.725 420.05C146.863 420.05 146.431 420.32 146.431 420.86C146.431 421.085 146.521 421.258 146.701 421.378C146.889 421.491 147.121 421.584 147.399 421.659C147.676 421.734 147.976 421.806 148.299 421.873C148.629 421.933 148.933 422.023 149.21 422.143C149.488 422.256 149.717 422.413 149.897 422.616C150.084 422.818 150.178 423.096 150.178 423.448C150.178 423.996 149.972 424.416 149.559 424.708C149.147 424.993 148.588 425.136 147.883 425.136C147.133 425.136 146.536 424.948 146.094 424.573C145.689 424.243 145.471 423.812 145.441 423.279H146.319C146.371 423.797 146.664 424.146 147.196 424.326C147.391 424.386 147.583 424.416 147.77 424.416C147.965 424.416 148.145 424.405 148.31 424.382C148.475 424.36 148.637 424.318 148.794 424.258C149.154 424.116 149.334 423.872 149.334 423.527C149.334 423.294 149.24 423.118 149.053 422.998C148.873 422.871 148.644 422.769 148.367 422.694C148.089 422.612 147.785 422.541 147.455 422.481C147.133 422.413 146.833 422.323 146.555 422.211C146.278 422.098 146.045 421.944 145.858 421.749C145.677 421.554 145.587 421.284 145.587 420.939C145.587 420.429 145.771 420.035 146.139 419.758C146.514 419.473 147.065 419.33 147.793 419.33C148.483 419.33 149.027 419.495 149.424 419.825C149.754 420.103 149.945 420.47 149.998 420.928H149.143Z" fill="black"/>
<path d="M95.1038 426.171H151.089V426.734H95.1038V426.171Z" fill="black"/>
<path d="M102.44 417.598H102.565V417.473H102.44V417.598ZM102.44 425.046V425.171H102.565V425.046H102.44ZM101.461 425.046L101.36 425.12L101.397 425.171H101.461V425.046ZM96.859 418.756L96.9598 418.683L96.7339 418.374V418.756H96.859ZM96.859 425.046V425.171H96.984V425.046H96.859ZM96.0151 425.046H95.8901V425.171H96.0151V425.046ZM96.0151 417.598V417.473H95.8901V417.598H96.0151ZM96.994 417.598L97.0947 417.524L97.0573 417.473H96.994V417.598ZM101.596 423.865L101.495 423.939L101.721 424.246V423.865H101.596ZM101.596 417.598V417.473H101.471V417.598H101.596ZM102.315 417.598V425.046H102.565V417.598H102.315ZM102.44 424.921H101.461V425.171H102.44V424.921ZM101.562 424.972L96.9598 418.683L96.7581 418.83L101.36 425.12L101.562 424.972ZM96.7339 418.756V425.046H96.984V418.756H96.7339ZM96.859 424.921H96.0151V425.171H96.859V424.921ZM96.1401 425.046V417.598H95.8901V425.046H96.1401ZM96.0151 417.723H96.994V417.473H96.0151V417.723ZM96.8932 417.672L101.495 423.939L101.696 423.791L97.0947 417.524L96.8932 417.672ZM101.721 423.865V417.598H101.471V423.865H101.721ZM101.596 417.723H102.44V417.473H101.596V417.723ZM109.04 420.174L109.132 420.09L109.131 420.089L109.04 420.174ZM109.04 424.292L109.131 424.377L109.132 424.377L109.04 424.292ZM104.944 424.292L104.852 424.377L104.853 424.377L104.944 424.292ZM104.944 420.174L104.853 420.089L104.852 420.09L104.944 420.174ZM108.432 423.741L108.337 423.66L108.336 423.66L108.432 423.741ZM108.432 420.725L108.336 420.806L108.337 420.806L108.432 420.725ZM105.552 420.725L105.647 420.806L105.648 420.806L105.552 420.725ZM105.552 423.741L105.648 423.66L105.647 423.66L105.552 423.741ZM106.992 419.455C107.801 419.455 108.449 419.725 108.948 420.259L109.131 420.089C108.58 419.498 107.863 419.205 106.992 419.205V419.455ZM108.948 420.259C109.419 420.772 109.657 421.427 109.657 422.233H109.907C109.907 421.374 109.651 420.656 109.132 420.09L108.948 420.259ZM109.657 422.233C109.657 423.039 109.419 423.694 108.948 424.208L109.132 424.377C109.651 423.81 109.907 423.092 109.907 422.233H109.657ZM108.948 424.207C108.449 424.742 107.801 425.011 106.992 425.011V425.261C107.863 425.261 108.58 424.968 109.131 424.377L108.948 424.207ZM106.992 425.011C106.183 425.011 105.535 424.742 105.036 424.207L104.853 424.377C105.404 424.968 106.121 425.261 106.992 425.261V425.011ZM105.036 424.208C104.565 423.694 104.327 423.039 104.327 422.233H104.077C104.077 423.092 104.333 423.81 104.852 424.377L105.036 424.208ZM104.327 422.233C104.327 421.427 104.565 420.772 105.036 420.259L104.852 420.09C104.333 420.656 104.077 421.374 104.077 422.233H104.327ZM105.036 420.259C105.535 419.725 106.183 419.455 106.992 419.455V419.205C106.121 419.205 105.404 419.498 104.853 420.089L105.036 420.259ZM106.992 424.496C107.632 424.496 108.149 424.273 108.528 423.821L108.336 423.66C108.01 424.049 107.567 424.246 106.992 424.246V424.496ZM108.527 423.822C108.887 423.398 109.063 422.865 109.063 422.233H108.813C108.813 422.816 108.652 423.289 108.337 423.66L108.527 423.822ZM109.063 422.233C109.063 421.601 108.887 421.068 108.527 420.645L108.337 420.806C108.652 421.178 108.813 421.65 108.813 422.233H109.063ZM108.528 420.645C108.149 420.193 107.632 419.97 106.992 419.97V420.22C107.567 420.22 108.01 420.417 108.336 420.806L108.528 420.645ZM106.992 419.97C106.352 419.97 105.835 420.193 105.456 420.645L105.648 420.806C105.974 420.417 106.417 420.22 106.992 420.22V419.97ZM105.456 420.645C105.097 421.068 104.92 421.601 104.92 422.233H105.17C105.17 421.65 105.332 421.178 105.647 420.806L105.456 420.645ZM104.92 422.233C104.92 422.865 105.097 423.398 105.456 423.822L105.647 423.66C105.332 423.289 105.17 422.816 105.17 422.233H104.92ZM105.456 423.821C105.835 424.273 106.352 424.496 106.992 424.496V424.246C106.417 424.246 105.974 424.049 105.648 423.66L105.456 423.821ZM115.029 425.046H114.904V425.171H115.029V425.046ZM115.029 420.163H115.154V420.038H115.029V420.163ZM113.882 420.163H113.757V420.288H113.882V420.163ZM113.882 419.42V419.295H113.757V419.42H113.882ZM115.029 419.42V419.545H115.154V419.42H115.029ZM115.029 417.406V417.281H114.904V417.406H115.029ZM115.873 417.406H115.998V417.281H115.873V417.406ZM115.873 419.42H115.748V419.545H115.873V419.42ZM117.167 419.42H117.292V419.295H117.167V419.42ZM117.167 420.163V420.288H117.292V420.163H117.167ZM115.873 420.163V420.038H115.748V420.163H115.873ZM115.873 425.046V425.171H115.998V425.046H115.873ZM115.154 425.046V420.163H114.904V425.046H115.154ZM115.029 420.038H113.882V420.288H115.029V420.038ZM114.007 420.163V419.42H113.757V420.163H114.007ZM113.882 419.545H115.029V419.295H113.882V419.545ZM115.154 419.42V417.406H114.904V419.42H115.154ZM115.029 417.531H115.873V417.281H115.029V417.531ZM115.748 417.406V419.42H115.998V417.406H115.748ZM115.873 419.545H117.167V419.295H115.873V419.545ZM117.042 419.42V420.163H117.292V419.42H117.042ZM117.167 420.038H115.873V420.288H117.167V420.038ZM115.748 420.163V425.046H115.998V420.163H115.748ZM115.873 424.921H115.029V425.171H115.873V424.921ZM119.498 417.17H119.623V417.045H119.498V417.17ZM119.498 420.298H119.373V420.673L119.598 420.373L119.498 420.298ZM120.24 419.612L120.308 419.717L120.308 419.717L120.24 419.612ZM122.209 419.488L122.164 419.604V419.604L122.209 419.488ZM122.918 419.96L122.828 420.047L122.831 420.049L122.918 419.96ZM123.616 425.046V425.171H123.741V425.046H123.616ZM122.772 425.046H122.647V425.171H122.772V425.046ZM119.993 420.568L119.907 420.477L119.906 420.478L119.993 420.568ZM119.498 425.046V425.171H119.623V425.046H119.498ZM118.654 425.046H118.529V425.171H118.654V425.046ZM118.654 417.17V417.045H118.529V417.17H118.654ZM119.373 417.17V420.298H119.623V417.17H119.373ZM119.598 420.373C119.791 420.115 120.028 419.896 120.308 419.717L120.173 419.506C119.868 419.702 119.61 419.941 119.398 420.223L119.598 420.373ZM120.308 419.717C120.579 419.543 120.889 419.455 121.242 419.455V419.205C120.845 419.205 120.487 419.305 120.173 419.506L120.308 419.717ZM121.242 419.455C121.606 419.455 121.912 419.506 122.164 419.604L122.255 419.371C121.967 419.259 121.628 419.205 121.242 419.205V419.455ZM122.164 419.604C122.417 419.703 122.638 419.85 122.828 420.047L123.008 419.874C122.793 419.651 122.542 419.483 122.255 419.371L122.164 419.604ZM122.831 420.049C123.268 420.48 123.491 421.05 123.491 421.772H123.741C123.741 420.994 123.498 420.356 123.006 419.871L122.831 420.049ZM123.491 421.772V425.046H123.741V421.772H123.491ZM123.616 424.921H122.772V425.171H123.616V424.921ZM122.897 425.046V421.794H122.647V425.046H122.897ZM122.897 421.794C122.897 421.252 122.743 420.806 122.424 420.47L122.243 420.643C122.508 420.922 122.647 421.301 122.647 421.794H122.897ZM122.424 420.47C122.105 420.136 121.692 419.97 121.197 419.97V420.22C121.631 420.22 121.976 420.363 122.243 420.643L122.424 420.47ZM121.197 419.97C120.693 419.97 120.261 420.139 119.907 420.477L120.079 420.658C120.385 420.366 120.755 420.22 121.197 420.22V419.97ZM119.906 420.478C119.549 420.827 119.373 421.273 119.373 421.806H119.623C119.623 421.333 119.777 420.954 120.08 420.657L119.906 420.478ZM119.373 421.806V425.046H119.623V421.806H119.373ZM119.498 424.921H118.654V425.171H119.498V424.921ZM118.779 425.046V417.17H118.529V425.046H118.779ZM118.654 417.295H119.498V417.045H118.654V417.295ZM129.977 424.146H130.102V423.741L129.874 424.075L129.977 424.146ZM125.983 424.292L125.89 424.375L125.891 424.376L125.983 424.292ZM125.983 420.174L125.891 420.09L125.89 420.091L125.983 420.174ZM129.977 420.332L129.874 420.402L130.102 420.735V420.332H129.977ZM129.977 419.42V419.295H129.852V419.42H129.977ZM130.821 419.42H130.946V419.295H130.821V419.42ZM130.821 425.046V425.171H130.946V425.046H130.821ZM129.977 425.046H129.852V425.171H129.977V425.046ZM129.516 423.741L129.421 423.66L129.42 423.66L129.516 423.741ZM129.516 420.725L129.42 420.806L129.421 420.806L129.516 420.725ZM126.613 420.725L126.52 420.642L126.52 420.642L126.613 420.725ZM126.613 423.741L126.52 423.824L126.52 423.824L126.613 423.741ZM129.874 424.075C129.45 424.697 128.82 425.011 127.963 425.011V425.261C128.892 425.261 129.604 424.915 130.081 424.216L129.874 424.075ZM127.963 425.011C127.186 425.011 126.56 424.743 126.076 424.208L125.891 424.376C126.426 424.967 127.121 425.261 127.963 425.261V425.011ZM126.076 424.209C125.604 423.679 125.366 423.023 125.366 422.233H125.116C125.116 423.078 125.372 423.795 125.89 424.375L126.076 424.209ZM125.366 422.233C125.366 421.443 125.604 420.787 126.076 420.257L125.89 420.091C125.372 420.671 125.116 421.388 125.116 422.233H125.366ZM126.076 420.258C126.559 419.725 127.203 419.455 128.02 419.455V419.205C127.141 419.205 126.427 419.498 125.891 420.09L126.076 420.258ZM128.02 419.455C128.828 419.455 129.441 419.771 129.874 420.402L130.08 420.261C129.598 419.557 128.906 419.205 128.02 419.205V419.455ZM130.102 420.332V419.42H129.852V420.332H130.102ZM129.977 419.545H130.821V419.295H129.977V419.545ZM130.696 419.42V425.046H130.946V419.42H130.696ZM130.821 424.921H129.977V425.171H130.821V424.921ZM130.102 425.046V424.146H129.852V425.046H130.102ZM128.076 424.496C128.716 424.496 129.233 424.273 129.612 423.821L129.42 423.66C129.094 424.049 128.651 424.246 128.076 424.246V424.496ZM129.611 423.822C129.971 423.398 130.147 422.865 130.147 422.233H129.897C129.897 422.816 129.736 423.289 129.421 423.66L129.611 423.822ZM130.147 422.233C130.147 421.601 129.971 421.068 129.611 420.645L129.421 420.806C129.736 421.178 129.897 421.65 129.897 422.233H130.147ZM129.612 420.645C129.233 420.193 128.716 419.97 128.076 419.97V420.22C128.651 420.22 129.094 420.417 129.42 420.806L129.612 420.645ZM128.076 419.97C127.443 419.97 126.92 420.194 126.52 420.642L126.706 420.809C127.056 420.417 127.509 420.22 128.076 420.22V419.97ZM126.52 420.642C126.144 421.066 125.959 421.6 125.959 422.233H126.209C126.209 421.651 126.377 421.18 126.707 420.808L126.52 420.642ZM125.959 422.233C125.959 422.867 126.144 423.4 126.52 423.824L126.707 423.658C126.377 423.286 126.209 422.815 126.209 422.233H125.959ZM126.52 423.824C126.92 424.273 127.443 424.496 128.076 424.496V424.246C127.509 424.246 127.056 424.049 126.706 423.657L126.52 423.824ZM133.687 419.42H133.812V419.295H133.687V419.42ZM133.687 420.298H133.562V420.673L133.787 420.373L133.687 420.298ZM134.43 419.612L134.497 419.717V419.717L134.43 419.612ZM136.399 419.488L136.353 419.604V419.604L136.399 419.488ZM137.108 419.96L137.018 420.047L137.02 420.049L137.108 419.96ZM137.805 425.046V425.171H137.93V425.046H137.805ZM136.961 425.046H136.836V425.171H136.961V425.046ZM134.182 420.568L134.096 420.477L134.095 420.478L134.182 420.568ZM133.687 425.046V425.171H133.812V425.046H133.687ZM132.843 425.046H132.718V425.171H132.843V425.046ZM132.843 419.42V419.295H132.718V419.42H132.843ZM133.562 419.42V420.298H133.812V419.42H133.562ZM133.787 420.373C133.98 420.115 134.217 419.896 134.497 419.717L134.362 419.506C134.058 419.702 133.799 419.941 133.587 420.223L133.787 420.373ZM134.497 419.717C134.768 419.543 135.078 419.455 135.431 419.455V419.205C135.034 419.205 134.677 419.305 134.362 419.506L134.497 419.717ZM135.431 419.455C135.795 419.455 136.101 419.506 136.353 419.604L136.444 419.371C136.156 419.259 135.817 419.205 135.431 419.205V419.455ZM136.353 419.604C136.606 419.703 136.828 419.85 137.018 420.047L137.198 419.874C136.983 419.651 136.731 419.483 136.444 419.371L136.353 419.604ZM137.02 420.049C137.457 420.48 137.68 421.05 137.68 421.772H137.93C137.93 420.994 137.688 420.356 137.195 419.871L137.02 420.049ZM137.68 421.772V425.046H137.93V421.772H137.68ZM137.805 424.921H136.961V425.171H137.805V424.921ZM137.086 425.046V421.794H136.836V425.046H137.086ZM137.086 421.794C137.086 421.252 136.932 420.806 136.613 420.47L136.432 420.643C136.698 420.922 136.836 421.301 136.836 421.794H137.086ZM136.613 420.47C136.295 420.136 135.882 419.97 135.386 419.97V420.22C135.821 420.22 136.165 420.363 136.432 420.643L136.613 420.47ZM135.386 419.97C134.883 419.97 134.45 420.139 134.096 420.477L134.269 420.658C134.574 420.366 134.944 420.22 135.386 420.22V419.97ZM134.095 420.478C133.738 420.827 133.562 421.273 133.562 421.806H133.812C133.812 421.333 133.966 420.954 134.27 420.657L134.095 420.478ZM133.562 421.806V425.046H133.812V421.806H133.562ZM133.687 424.921H132.843V425.171H133.687V424.921ZM132.968 425.046V419.42H132.718V425.046H132.968ZM132.843 419.545H133.687V419.295H132.843V419.545ZM142.254 421.637L142.166 421.547L142.09 421.622L142.152 421.709L142.254 421.637ZM144.684 425.046V425.171H144.927L144.786 424.973L144.684 425.046ZM143.649 425.046L143.547 425.117L143.584 425.171H143.649V425.046ZM141.68 422.222L141.783 422.15L141.698 422.029L141.592 422.133L141.68 422.222ZM140.623 423.268L140.535 423.179L140.498 423.216V423.268H140.623ZM140.623 425.046V425.171H140.748V425.046H140.623ZM139.779 425.046H139.654V425.171H139.779V425.046ZM139.779 417.17V417.045H139.654V417.17H139.779ZM140.623 417.17H140.748V417.045H140.623V417.17ZM140.623 422.211H140.498V422.519L140.712 422.298L140.623 422.211ZM143.334 419.42V419.295H143.281L143.244 419.333L143.334 419.42ZM144.515 419.42L144.603 419.51L144.822 419.295H144.515V419.42ZM142.152 421.709L144.582 425.118L144.786 424.973L142.356 421.564L142.152 421.709ZM144.684 424.921H143.649V425.171H144.684V424.921ZM143.752 424.974L141.783 422.15L141.578 422.293L143.547 425.117L143.752 424.974ZM141.592 422.133L140.535 423.179L140.71 423.357L141.768 422.311L141.592 422.133ZM140.498 423.268V425.046H140.748V423.268H140.498ZM140.623 424.921H139.779V425.171H140.623V424.921ZM139.904 425.046V417.17H139.654V425.046H139.904ZM139.779 417.295H140.623V417.045H139.779V417.295ZM140.498 417.17V422.211H140.748V417.17H140.498ZM140.712 422.298L143.424 419.507L143.244 419.333L140.533 422.123L140.712 422.298ZM143.334 419.545H144.515V419.295H143.334V419.545ZM144.428 419.331L142.166 421.547L142.341 421.726L144.603 419.51L144.428 419.331ZM149.143 420.928L149.019 420.944L149.033 421.053H149.143V420.928ZM146.701 421.378L146.632 421.482L146.637 421.485L146.701 421.378ZM147.399 421.659L147.432 421.539L147.399 421.659ZM148.299 421.873L148.273 421.995L148.277 421.996L148.299 421.873ZM149.21 422.143L149.161 422.258L149.163 422.259L149.21 422.143ZM149.897 422.616L149.803 422.699L149.805 422.701L149.897 422.616ZM149.559 424.708L149.63 424.811L149.631 424.81L149.559 424.708ZM146.094 424.573L146.175 424.478L146.173 424.476L146.094 424.573ZM145.441 423.279V423.154H145.309L145.316 423.286L145.441 423.279ZM146.319 423.279L146.443 423.267L146.432 423.154H146.319V423.279ZM147.196 424.326L147.156 424.444L147.16 424.445L147.196 424.326ZM148.31 424.382L148.327 424.506L148.31 424.382ZM148.794 424.258L148.839 424.375L148.84 424.375L148.794 424.258ZM149.053 422.998L148.981 423.1L148.985 423.103L149.053 422.998ZM148.367 422.694L148.331 422.814L148.334 422.815L148.367 422.694ZM147.455 422.481L147.43 422.603L147.433 422.604L147.455 422.481ZM146.555 422.211L146.508 422.326L146.555 422.211ZM145.858 421.749L145.766 421.834L145.767 421.836L145.858 421.749ZM146.139 419.758L146.214 419.858L146.214 419.857L146.139 419.758ZM149.424 419.825L149.505 419.73L149.504 419.729L149.424 419.825ZM149.998 420.928V421.053H150.138L150.122 420.914L149.998 420.928ZM149.267 420.912C149.225 420.585 149.069 420.331 148.798 420.163C148.534 420 148.171 419.925 147.725 419.925V420.175C148.149 420.175 148.458 420.247 148.666 420.376C148.868 420.501 148.986 420.686 149.019 420.944L149.267 420.912ZM147.725 419.925C147.285 419.925 146.933 419.994 146.688 420.147C146.434 420.306 146.306 420.551 146.306 420.86H146.556C146.556 420.63 146.645 420.469 146.821 420.359C147.007 420.242 147.303 420.175 147.725 420.175V419.925ZM146.306 420.86C146.306 421.125 146.416 421.338 146.632 421.482L146.771 421.274C146.627 421.178 146.556 421.046 146.556 420.86H146.306ZM146.637 421.485C146.837 421.605 147.081 421.703 147.366 421.78L147.432 421.539C147.162 421.466 146.941 421.376 146.766 421.271L146.637 421.485ZM147.366 421.78C147.646 421.856 147.949 421.927 148.273 421.995L148.325 421.751C148.004 421.684 147.706 421.613 147.432 421.539L147.366 421.78ZM148.277 421.996C148.598 422.055 148.893 422.142 149.161 422.258L149.26 422.028C148.973 421.904 148.66 421.812 148.321 421.75L148.277 421.996ZM149.163 422.259C149.425 422.365 149.637 422.512 149.803 422.699L149.99 422.533C149.796 422.314 149.551 422.146 149.257 422.027L149.163 422.259ZM149.805 422.701C149.966 422.874 150.053 423.118 150.053 423.448H150.303C150.303 423.073 150.203 422.762 149.988 422.531L149.805 422.701ZM150.053 423.448C150.053 423.959 149.863 424.339 149.487 424.606L149.631 424.81C150.08 424.492 150.303 424.032 150.303 423.448H150.053ZM149.488 424.606C149.103 424.871 148.572 425.011 147.883 425.011V425.261C148.603 425.261 149.19 425.115 149.63 424.811L149.488 424.606ZM147.883 425.011C147.153 425.011 146.589 424.829 146.175 424.478L146.013 424.669C146.484 425.068 147.112 425.261 147.883 425.261V425.011ZM146.173 424.476C145.796 424.169 145.594 423.771 145.566 423.272L145.316 423.286C145.348 423.853 145.582 424.318 146.015 424.67L146.173 424.476ZM145.441 423.404H146.319V423.154H145.441V423.404ZM146.194 423.292C146.223 423.572 146.317 423.813 146.482 424.01C146.646 424.205 146.873 424.349 147.156 424.444L147.236 424.207C146.987 424.123 146.802 424.002 146.673 423.849C146.545 423.696 146.467 423.504 146.443 423.267L146.194 423.292ZM147.16 424.445C147.366 424.509 147.569 424.541 147.77 424.541V424.291C147.596 424.291 147.417 424.263 147.233 424.206L147.16 424.445ZM147.77 424.541C147.97 424.541 148.156 424.529 148.327 424.506L148.293 424.258C148.135 424.28 147.961 424.291 147.77 424.291V424.541ZM148.327 424.506C148.502 424.482 148.672 424.438 148.839 424.375L148.75 424.141C148.601 424.198 148.449 424.237 148.293 424.258L148.327 424.506ZM148.84 424.375C149.036 424.297 149.192 424.188 149.3 424.043C149.408 423.897 149.459 423.722 149.459 423.527H149.209C149.209 423.677 149.171 423.797 149.099 423.894C149.026 423.993 148.912 424.077 148.748 424.142L148.84 424.375ZM149.459 423.527C149.459 423.254 149.346 423.037 149.12 422.893L148.985 423.103C149.135 423.199 149.209 423.335 149.209 423.527H149.459ZM149.125 422.896C148.93 422.758 148.687 422.651 148.399 422.574L148.334 422.815C148.601 422.887 148.816 422.983 148.981 423.1L149.125 422.896ZM148.402 422.575C148.12 422.491 147.811 422.418 147.478 422.358L147.433 422.604C147.759 422.663 148.058 422.733 148.331 422.814L148.402 422.575ZM147.481 422.358C147.165 422.292 146.872 422.204 146.602 422.095L146.508 422.326C146.793 422.442 147.1 422.534 147.43 422.603L147.481 422.358ZM146.602 422.095C146.339 421.988 146.122 421.844 145.948 421.663L145.767 421.836C145.968 422.045 146.216 422.208 146.508 422.326L146.602 422.095ZM145.949 421.664C145.796 421.499 145.712 421.263 145.712 420.939H145.462C145.462 421.306 145.559 421.61 145.766 421.834L145.949 421.664ZM145.712 420.939C145.712 420.463 145.882 420.109 146.214 419.858L146.063 419.658C145.661 419.962 145.462 420.395 145.462 420.939H145.712ZM146.214 419.857C146.559 419.596 147.078 419.455 147.793 419.455V419.205C147.052 419.205 146.469 419.35 146.063 419.658L146.214 419.857ZM147.793 419.455C148.463 419.455 148.976 419.616 149.344 419.922L149.504 419.729C149.077 419.375 148.502 419.205 147.793 419.205V419.455ZM149.344 419.921C149.648 420.176 149.825 420.514 149.874 420.942L150.122 420.914C150.066 420.427 149.861 420.029 149.505 419.73L149.344 419.921ZM149.998 420.803H149.143V421.053H149.998V420.803Z" fill="black"/>
<path d="M95.1038 426.171V426.046H94.9787V426.171H95.1038ZM151.089 426.171H151.214V426.046H151.089V426.171ZM151.089 426.734V426.859H151.214V426.734H151.089ZM95.1038 426.734H94.9787V426.859H95.1038V426.734ZM95.1038 426.296H151.089V426.046H95.1038V426.296ZM150.964 426.171V426.734H151.214V426.171H150.964ZM151.089 426.609H95.1038V426.859H151.089V426.609ZM95.2288 426.734V426.171H94.9787V426.734H95.2288Z" fill="black"/>
<path d="M35.8218 224.837H33.8003V230H33.144V224.837H31.1225V224.207H35.8218V224.837ZM37.6107 223.874V226.307C37.7683 226.097 37.9608 225.919 38.1883 225.773C38.4158 225.627 38.6754 225.555 38.9671 225.555C39.2588 225.555 39.5097 225.595 39.7197 225.677C39.9297 225.759 40.1135 225.881 40.271 226.045C40.6327 226.4 40.8136 226.87 40.8136 227.453V230H40.1573V227.471C40.1573 227.068 40.0435 226.748 39.816 226.508C39.5885 226.269 39.2938 226.15 38.9321 226.15C38.5646 226.15 38.2525 226.272 37.9958 226.517C37.7391 226.768 37.6107 227.089 37.6107 227.48V230H36.9544V223.874H37.6107ZM42.3486 225.625H43.0049V230H42.3486V225.625ZM43.0311 224.032V224.889H42.3223V224.032H43.0311ZM47.1535 226.797C47.0952 226.342 46.7277 226.115 46.0509 226.115C45.38 226.115 45.0446 226.325 45.0446 226.745C45.0446 226.92 45.1146 227.054 45.2546 227.147C45.4004 227.235 45.5813 227.308 45.7971 227.366C46.013 227.424 46.2464 227.48 46.4972 227.532C46.7539 227.579 46.9902 227.649 47.206 227.742C47.4219 227.83 47.5998 227.952 47.7399 228.11C47.8857 228.267 47.9586 228.483 47.9586 228.757C47.9586 229.183 47.7982 229.51 47.4773 229.737C47.1565 229.959 46.7218 230.07 46.1734 230.07C45.59 230.07 45.1262 229.924 44.782 229.632C44.467 229.376 44.2978 229.04 44.2745 228.626H44.957C44.9979 229.029 45.2254 229.3 45.6396 229.44C45.7913 229.487 45.9401 229.51 46.0859 229.51C46.2376 229.51 46.3776 229.501 46.506 229.484C46.6343 229.466 46.7597 229.434 46.8823 229.387C47.1623 229.277 47.3023 229.087 47.3023 228.819C47.3023 228.638 47.2294 228.501 47.0835 228.407C46.9435 228.308 46.7656 228.229 46.5497 228.171C46.3339 228.107 46.0976 228.051 45.8409 228.005C45.59 227.952 45.3567 227.882 45.1408 227.795C44.925 227.707 44.7441 227.588 44.5983 227.436C44.4582 227.284 44.3882 227.074 44.3882 226.806C44.3882 226.409 44.5312 226.103 44.817 225.887C45.1087 225.665 45.5375 225.555 46.1034 225.555C46.6401 225.555 47.0631 225.683 47.3723 225.94C47.629 226.155 47.7778 226.441 47.8186 226.797H47.1535ZM54.2708 226.508L53.1769 230H52.4244L51.0505 225.625H51.7505L52.8006 229.186L53.912 225.625H54.6296L55.741 229.186L56.7911 225.625H57.4912L56.1173 230H55.3647L54.2708 226.508ZM58.5755 225.625H59.2318V230H58.5755V225.625ZM59.258 224.032V224.889H58.5492V224.032H59.258ZM61.464 230H60.8076V223.874H61.464V230ZM63.6961 230H63.0398V223.874H63.6961V230ZM70.9854 229.3C70.6354 229.813 70.1133 230.07 69.419 230.07C68.7889 230.07 68.2755 229.851 67.8788 229.414C67.4938 228.982 67.3013 228.448 67.3013 227.812C67.3013 227.176 67.4938 226.643 67.8788 226.211C68.2755 225.773 68.8035 225.555 69.4628 225.555C70.122 225.555 70.6296 225.814 70.9854 226.333V225.625H71.6418V230H70.9854V229.3ZM69.5065 229.475C69.9791 229.475 70.3524 229.312 70.6266 228.985C70.8892 228.676 71.0204 228.285 71.0204 227.812C71.0204 227.34 70.8892 226.949 70.6266 226.64C70.3524 226.313 69.9791 226.15 69.5065 226.15C69.0398 226.15 68.6606 226.313 68.3689 226.64C68.0947 226.949 67.9576 227.34 67.9576 227.812C67.9576 228.285 68.0947 228.676 68.3689 228.985C68.6606 229.312 69.0398 229.475 69.5065 229.475ZM73.8709 230H73.2145V223.874H73.8709V230ZM76.103 230H75.4467V223.874H76.103V230ZM79.5779 225.555C80.2313 225.555 80.7622 225.773 81.1705 226.211C81.5556 226.631 81.7481 227.165 81.7481 227.812C81.7481 228.46 81.5556 228.994 81.1705 229.414C80.7622 229.851 80.2313 230.07 79.5779 230.07C78.9245 230.07 78.3936 229.851 77.9852 229.414C77.6001 228.994 77.4076 228.46 77.4076 227.812C77.4076 227.165 77.6001 226.631 77.9852 226.211C78.3936 225.773 78.9245 225.555 79.5779 225.555ZM79.5779 229.475C80.0504 229.475 80.4238 229.312 80.698 228.985C80.9605 228.676 81.0918 228.285 81.0918 227.812C81.0918 227.34 80.9605 226.949 80.698 226.64C80.4238 226.313 80.0504 226.15 79.5779 226.15C79.1053 226.15 78.7319 226.313 78.4577 226.64C78.1952 226.949 78.0639 227.34 78.0639 227.812C78.0639 228.285 78.1952 228.676 78.4577 228.985C78.7319 229.312 79.1053 229.475 79.5779 229.475ZM85.7521 226.508L84.6582 230H83.9056L82.5317 225.625H83.2318L84.2819 229.186L85.3933 225.625H86.1109L87.2222 229.186L88.2724 225.625H88.9724L87.5985 230H86.8459L85.7521 226.508ZM95.5164 230V229.317C95.3589 229.527 95.1663 229.705 94.9388 229.851C94.7113 229.997 94.4517 230.07 94.16 230.07C93.8683 230.07 93.6174 230.029 93.4074 229.947C93.1974 229.866 93.0136 229.743 92.8561 229.58C92.4944 229.224 92.3135 228.754 92.3135 228.171V225.625H92.9698V228.154C92.9698 228.556 93.0836 228.877 93.3111 229.116C93.5387 229.355 93.8333 229.475 94.195 229.475C94.5625 229.475 94.8746 229.352 95.1313 229.107C95.388 228.857 95.5164 228.536 95.5164 228.145V225.625H96.1727V230H95.5164ZM100.324 226.797C100.266 226.342 99.8983 226.115 99.2216 226.115C98.5507 226.115 98.2152 226.325 98.2152 226.745C98.2152 226.92 98.2852 227.054 98.4253 227.147C98.5711 227.235 98.752 227.308 98.9678 227.366C99.1837 227.424 99.417 227.48 99.6679 227.532C99.9246 227.579 100.161 227.649 100.377 227.742C100.593 227.83 100.771 227.952 100.911 228.11C101.056 228.267 101.129 228.483 101.129 228.757C101.129 229.183 100.969 229.51 100.648 229.737C100.327 229.959 99.8925 230.07 99.3441 230.07C98.7607 230.07 98.2969 229.924 97.9527 229.632C97.6377 229.376 97.4685 229.04 97.4451 228.626H98.1277C98.1686 229.029 98.3961 229.3 98.8103 229.44C98.962 229.487 99.1107 229.51 99.2566 229.51C99.4083 229.51 99.5483 229.501 99.6766 229.484C99.805 229.466 99.9304 229.434 100.053 229.387C100.333 229.277 100.473 229.087 100.473 228.819C100.473 228.638 100.4 228.501 100.254 228.407C100.114 228.308 99.9363 228.229 99.7204 228.171C99.5045 228.107 99.2683 228.051 99.0116 228.005C98.7607 227.952 98.5273 227.882 98.3115 227.795C98.0956 227.707 97.9148 227.588 97.7689 227.436C97.6289 227.284 97.5589 227.074 97.5589 226.806C97.5589 226.409 97.7018 226.103 97.9877 225.887C98.2794 225.665 98.7082 225.555 99.2741 225.555C99.8108 225.555 100.234 225.683 100.543 225.94C100.8 226.155 100.948 226.441 100.989 226.797H100.324ZM105.184 230V226.202H104.291V225.625H105.184V224.058H105.84V225.625H106.846V226.202H105.84V230H105.184ZM109.817 225.555C110.47 225.555 111.001 225.773 111.409 226.211C111.794 226.631 111.987 227.165 111.987 227.812C111.987 228.46 111.794 228.994 111.409 229.414C111.001 229.851 110.47 230.07 109.817 230.07C109.163 230.07 108.632 229.851 108.224 229.414C107.839 228.994 107.646 228.46 107.646 227.812C107.646 227.165 107.839 226.631 108.224 226.211C108.632 225.773 109.163 225.555 109.817 225.555ZM109.817 229.475C110.289 229.475 110.662 229.312 110.937 228.985C111.199 228.676 111.33 228.285 111.33 227.812C111.33 227.34 111.199 226.949 110.937 226.64C110.662 226.313 110.289 226.15 109.817 226.15C109.344 226.15 108.971 226.313 108.696 226.64C108.434 226.949 108.303 227.34 108.303 227.812C108.303 228.285 108.434 228.676 108.696 228.985C108.971 229.312 109.344 229.475 109.817 229.475ZM117.617 229.475C117.897 229.475 118.145 229.396 118.361 229.239C118.576 229.081 118.734 228.877 118.833 228.626H119.542C119.408 229.058 119.163 229.405 118.807 229.667C118.433 229.936 117.99 230.07 117.477 230.07C116.835 230.07 116.313 229.851 115.91 229.414C115.519 228.988 115.324 228.454 115.324 227.812C115.324 227.171 115.519 226.637 115.91 226.211C116.313 225.773 116.835 225.555 117.477 225.555C117.99 225.555 118.433 225.689 118.807 225.957C119.163 226.22 119.408 226.567 119.542 226.998H118.833C118.734 226.748 118.576 226.543 118.361 226.386C118.145 226.228 117.897 226.15 117.617 226.15C117.337 226.15 117.097 226.193 116.899 226.281C116.707 226.368 116.543 226.488 116.409 226.64C116.123 226.955 115.98 227.346 115.98 227.812C115.98 228.279 116.123 228.67 116.409 228.985C116.701 229.312 117.103 229.475 117.617 229.475ZM122.692 225.555C123.345 225.555 123.876 225.773 124.284 226.211C124.669 226.631 124.862 227.165 124.862 227.812C124.862 228.46 124.669 228.994 124.284 229.414C123.876 229.851 123.345 230.07 122.692 230.07C122.038 230.07 121.507 229.851 121.099 229.414C120.714 228.994 120.522 228.46 120.522 227.812C120.522 227.165 120.714 226.631 121.099 226.211C121.507 225.773 122.038 225.555 122.692 225.555ZM122.692 229.475C123.164 229.475 123.538 229.312 123.812 228.985C124.074 228.676 124.206 228.285 124.206 227.812C124.206 227.34 124.074 226.949 123.812 226.64C123.538 226.313 123.164 226.15 122.692 226.15C122.219 226.15 121.846 226.313 121.572 226.64C121.309 226.949 121.178 227.34 121.178 227.812C121.178 228.285 121.309 228.676 121.572 228.985C121.846 229.312 122.219 229.475 122.692 229.475ZM126.826 225.625V226.307C126.984 226.097 127.176 225.919 127.404 225.773C127.631 225.627 127.891 225.555 128.183 225.555C128.474 225.555 128.725 225.595 128.935 225.677C129.145 225.759 129.329 225.881 129.486 226.045C129.848 226.4 130.029 226.87 130.029 227.453V230H129.373V227.471C129.373 227.068 129.259 226.748 129.031 226.508C128.804 226.269 128.509 226.15 128.148 226.15C127.78 226.15 127.468 226.272 127.211 226.517C126.955 226.768 126.826 227.089 126.826 227.48V230H126.17V225.625H126.826ZM132.22 225.625V226.307C132.378 226.097 132.57 225.919 132.798 225.773C133.025 225.627 133.285 225.555 133.577 225.555C133.868 225.555 134.119 225.595 134.329 225.677C134.539 225.759 134.723 225.881 134.881 226.045C135.242 226.4 135.423 226.87 135.423 227.453V230H134.767V227.471C134.767 227.068 134.653 226.748 134.426 226.508C134.198 226.269 133.903 226.15 133.542 226.15C133.174 226.15 132.862 226.272 132.605 226.517C132.349 226.768 132.22 227.089 132.22 227.48V230H131.564V225.625H132.22ZM138.91 229.475C139.499 229.475 139.922 229.23 140.179 228.74H140.896C140.744 229.137 140.502 229.457 140.17 229.702C139.843 229.947 139.42 230.07 138.901 230.07C138.242 230.07 137.705 229.851 137.291 229.414C136.888 228.988 136.687 228.454 136.687 227.812C136.687 227.165 136.879 226.631 137.264 226.211C137.673 225.773 138.204 225.555 138.857 225.555C139.511 225.555 140.041 225.773 140.45 226.211C140.835 226.631 141.027 227.165 141.027 227.812V228.075H137.361C137.407 228.477 137.568 228.81 137.842 229.072C138.122 229.341 138.478 229.475 138.91 229.475ZM138.857 226.15C138.455 226.15 138.116 226.275 137.842 226.526C137.585 226.765 137.428 227.077 137.369 227.462H140.345C140.286 227.077 140.129 226.765 139.872 226.526C139.598 226.275 139.26 226.15 138.857 226.15ZM144.288 229.475C144.568 229.475 144.816 229.396 145.032 229.239C145.248 229.081 145.406 228.877 145.505 228.626H146.214C146.079 229.058 145.834 229.405 145.478 229.667C145.105 229.936 144.662 230.07 144.148 230.07C143.507 230.07 142.984 229.851 142.582 229.414C142.191 228.988 141.996 228.454 141.996 227.812C141.996 227.171 142.191 226.637 142.582 226.211C142.984 225.773 143.507 225.555 144.148 225.555C144.662 225.555 145.105 225.689 145.478 225.957C145.834 226.22 146.079 226.567 146.214 226.998H145.505C145.406 226.748 145.248 226.543 145.032 226.386C144.816 226.228 144.568 226.15 144.288 226.15C144.008 226.15 143.769 226.193 143.571 226.281C143.378 226.368 143.215 226.488 143.081 226.64C142.795 226.955 142.652 227.346 142.652 227.812C142.652 228.279 142.795 228.67 143.081 228.985C143.372 229.312 143.775 229.475 144.288 229.475ZM147.937 230V226.202H147.044V225.625H147.937V224.058H148.593V225.625H149.6V226.202H148.593V230H147.937ZM154.221 231.733H153.512L154.308 229.939L152.523 225.625H153.249L154.658 229.212L156.093 225.625H156.811L154.221 231.733ZM159.675 225.555C160.328 225.555 160.859 225.773 161.268 226.211C161.653 226.631 161.845 227.165 161.845 227.812C161.845 228.46 161.653 228.994 161.268 229.414C160.859 229.851 160.328 230.07 159.675 230.07C159.021 230.07 158.491 229.851 158.082 229.414C157.697 228.994 157.505 228.46 157.505 227.812C157.505 227.165 157.697 226.631 158.082 226.211C158.491 225.773 159.021 225.555 159.675 225.555ZM159.675 229.475C160.147 229.475 160.521 229.312 160.795 228.985C161.058 228.676 161.189 228.285 161.189 227.812C161.189 227.34 161.058 226.949 160.795 226.64C160.521 226.313 160.147 226.15 159.675 226.15C159.202 226.15 158.829 226.313 158.555 226.64C158.292 226.949 158.161 227.34 158.161 227.812C158.161 228.285 158.292 228.676 158.555 228.985C158.829 229.312 159.202 229.475 159.675 229.475ZM166.312 230V229.317C166.155 229.527 165.962 229.705 165.735 229.851C165.507 229.997 165.247 230.07 164.956 230.07C164.664 230.07 164.413 230.029 164.203 229.947C163.993 229.866 163.809 229.743 163.652 229.58C163.29 229.224 163.109 228.754 163.109 228.171V225.625H163.766V228.154C163.766 228.556 163.879 228.877 164.107 229.116C164.334 229.355 164.629 229.475 164.991 229.475C165.358 229.475 165.67 229.352 165.927 229.107C166.184 228.857 166.312 228.536 166.312 228.145V225.625H166.968V230H166.312ZM173.578 226.508L172.484 230H171.732L170.358 225.625H171.058L172.108 229.186L173.219 225.625H173.937L175.048 229.186L176.098 225.625H176.798L175.424 230H174.672L173.578 226.508ZM177.883 225.625H178.539V230H177.883V225.625ZM178.565 224.032V224.889H177.856V224.032H178.565ZM180.587 230V226.202H179.695V225.625H180.587V224.058H181.244V225.625H182.25V226.202H181.244V230H180.587ZM184.063 223.874V226.307C184.221 226.097 184.413 225.919 184.641 225.773C184.868 225.627 185.128 225.555 185.419 225.555C185.711 225.555 185.962 225.595 186.172 225.677C186.382 225.759 186.566 225.881 186.723 226.045C187.085 226.4 187.266 226.87 187.266 227.453V230H186.61V227.471C186.61 227.068 186.496 226.748 186.268 226.508C186.041 226.269 185.746 226.15 185.384 226.15C185.017 226.15 184.705 226.272 184.448 226.517C184.191 226.768 184.063 227.089 184.063 227.48V230H183.407V223.874H184.063ZM34.9817 238.3C34.6317 238.813 34.1095 239.07 33.4153 239.07C32.7852 239.07 32.2718 238.851 31.8751 238.414C31.4901 237.982 31.2975 237.448 31.2975 236.812C31.2975 236.176 31.4901 235.643 31.8751 235.211C32.2718 234.773 32.7998 234.555 33.459 234.555C34.1183 234.555 34.6258 234.814 34.9817 235.333V232.874H35.638V239H34.9817V238.3ZM33.5028 238.475C33.9753 238.475 34.3487 238.312 34.6229 237.985C34.8854 237.676 35.0167 237.285 35.0167 236.812C35.0167 236.34 34.8854 235.949 34.6229 235.64C34.3487 235.313 33.9753 235.15 33.5028 235.15C33.0361 235.15 32.6569 235.313 32.3652 235.64C32.091 235.949 31.9539 236.34 31.9539 236.812C31.9539 237.285 32.091 237.676 32.3652 237.985C32.6569 238.312 33.0361 238.475 33.5028 238.475ZM39.1098 234.555C39.7632 234.555 40.2941 234.773 40.7024 235.211C41.0875 235.631 41.28 236.165 41.28 236.812C41.28 237.46 41.0875 237.994 40.7024 238.414C40.2941 238.851 39.7632 239.07 39.1098 239.07C38.4563 239.07 37.9255 238.851 37.5171 238.414C37.132 237.994 36.9395 237.46 36.9395 236.812C36.9395 236.165 37.132 235.631 37.5171 235.211C37.9255 234.773 38.4563 234.555 39.1098 234.555ZM39.1098 238.475C39.5823 238.475 39.9557 238.312 40.2299 237.985C40.4924 237.676 40.6237 237.285 40.6237 236.812C40.6237 236.34 40.4924 235.949 40.2299 235.64C39.9557 235.313 39.5823 235.15 39.1098 235.15C38.6372 235.15 38.2638 235.313 37.9896 235.64C37.7271 235.949 37.5958 236.34 37.5958 236.812C37.5958 237.285 37.7271 237.676 37.9896 237.985C38.2638 238.312 38.6372 238.475 39.1098 238.475ZM46.0007 235.325V234.625H46.6571V238.869C46.6571 239.499 46.4762 239.977 46.1145 240.304C45.7586 240.636 45.2773 240.803 44.6706 240.803C44.0639 240.803 43.5884 240.686 43.2442 240.453C42.9058 240.219 42.6754 239.91 42.5529 239.525H43.2792C43.4659 239.98 43.8917 240.208 44.5568 240.208C45.0644 240.208 45.4319 240.091 45.6594 239.858C45.887 239.624 46.0007 239.28 46.0007 238.825V238.221C45.6449 238.74 45.1227 239 44.4343 239C43.8042 239 43.2908 238.784 42.8941 238.352C42.5091 237.932 42.3166 237.407 42.3166 236.777C42.3166 236.147 42.5091 235.622 42.8941 235.202C43.2908 234.77 43.8188 234.555 44.4781 234.555C45.1431 234.555 45.6507 234.811 46.0007 235.325ZM44.5218 238.405C44.761 238.405 44.974 238.364 45.1606 238.282C45.3473 238.195 45.5078 238.078 45.6419 237.932C45.9045 237.629 46.0357 237.244 46.0357 236.777C46.0357 236.311 45.9045 235.925 45.6419 235.622C45.3561 235.307 44.9827 235.15 44.5218 235.15C44.0493 235.15 43.6701 235.307 43.3842 235.622C43.11 235.931 42.9729 236.316 42.9729 236.777C42.9729 237.238 43.11 237.623 43.3842 237.932C43.6701 238.247 44.0493 238.405 44.5218 238.405ZM50.8026 235.797C50.7443 235.342 50.3767 235.115 49.7 235.115C49.0291 235.115 48.6936 235.325 48.6936 235.745C48.6936 235.92 48.7636 236.054 48.9037 236.147C49.0495 236.235 49.2304 236.308 49.4462 236.366C49.6621 236.424 49.8954 236.48 50.1463 236.532C50.403 236.579 50.6393 236.649 50.8551 236.742C51.071 236.83 51.2489 236.952 51.3889 237.11C51.5348 237.267 51.6077 237.483 51.6077 237.757C51.6077 238.183 51.4473 238.51 51.1264 238.737C50.8055 238.959 50.3709 239.07 49.8225 239.07C49.2391 239.07 48.7753 238.924 48.4311 238.632C48.1161 238.376 47.9469 238.04 47.9236 237.626H48.6061C48.647 238.029 48.8745 238.3 49.2887 238.44C49.4404 238.487 49.5892 238.51 49.735 238.51C49.8867 238.51 50.0267 238.501 50.1551 238.484C50.2834 238.466 50.4088 238.434 50.5313 238.387C50.8114 238.277 50.9514 238.087 50.9514 237.819C50.9514 237.638 50.8785 237.501 50.7326 237.407C50.5926 237.308 50.4147 237.229 50.1988 237.171C49.9829 237.107 49.7467 237.051 49.49 237.005C49.2391 236.952 49.0058 236.882 48.7899 236.795C48.574 236.707 48.3932 236.588 48.2473 236.436C48.1073 236.284 48.0373 236.074 48.0373 235.806C48.0373 235.409 48.1802 235.103 48.4661 234.887C48.7578 234.665 49.1866 234.555 49.7525 234.555C50.2892 234.555 50.7122 234.683 51.0214 234.94C51.2781 235.155 51.4269 235.441 51.4677 235.797H50.8026ZM57.9199 235.508L56.826 239H56.0734L54.6995 234.625H55.3996L56.4497 238.186L57.5611 234.625H58.2787L59.3901 238.186L60.4402 234.625H61.1403L59.7663 239H59.0138L57.9199 235.508ZM62.2245 234.625H62.8809V239H62.2245V234.625ZM62.9071 233.032V233.889H62.1983V233.032H62.9071ZM64.9293 239V235.202H64.0367V234.625H64.9293V233.058H65.5856V234.625H66.592V235.202H65.5856V239H64.9293ZM68.4049 232.874V235.307C68.5624 235.097 68.755 234.919 68.9825 234.773C69.21 234.627 69.4696 234.555 69.7613 234.555C70.053 234.555 70.3039 234.595 70.5139 234.677C70.7239 234.759 70.9077 234.881 71.0652 235.045C71.4269 235.4 71.6078 235.87 71.6078 236.453V239H70.9515V236.471C70.9515 236.068 70.8377 235.748 70.6102 235.508C70.3826 235.269 70.088 235.15 69.7263 235.15C69.3588 235.15 69.0467 235.272 68.79 235.517C68.5333 235.768 68.4049 236.089 68.4049 236.48V239H67.7486V232.874H68.4049ZM73.1428 234.625H73.7991V239H73.1428V234.625ZM73.8253 233.032V233.889H73.1165V233.032H73.8253ZM76.0313 234.625V235.307C76.1888 235.097 76.3813 234.919 76.6088 234.773C76.8363 234.627 77.096 234.555 77.3877 234.555C77.6794 234.555 77.9302 234.595 78.1402 234.677C78.3503 234.759 78.534 234.881 78.6915 235.045C79.0533 235.4 79.2341 235.87 79.2341 236.453V239H78.5778V236.471C78.5778 236.068 78.464 235.748 78.2365 235.508C78.009 235.269 77.7144 235.15 77.3527 235.15C76.9851 235.15 76.673 235.272 76.4163 235.517C76.1596 235.768 76.0313 236.089 76.0313 236.48V239H75.3749V234.625H76.0313ZM84.2335 240.733H83.5247L84.321 238.939L82.5358 234.625H83.2622L84.6711 238.212L86.1062 234.625H86.8238L84.2335 240.733ZM89.6876 234.555C90.341 234.555 90.8719 234.773 91.2803 235.211C91.6653 235.631 91.8579 236.165 91.8579 236.812C91.8579 237.46 91.6653 237.994 91.2803 238.414C90.8719 238.851 90.341 239.07 89.6876 239.07C89.0342 239.07 88.5033 238.851 88.0949 238.414C87.7099 237.994 87.5174 237.46 87.5174 236.812C87.5174 236.165 87.7099 235.631 88.0949 235.211C88.5033 234.773 89.0342 234.555 89.6876 234.555ZM89.6876 238.475C90.1602 238.475 90.5335 238.312 90.8077 237.985C91.0703 237.676 91.2015 237.285 91.2015 236.812C91.2015 236.34 91.0703 235.949 90.8077 235.64C90.5335 235.313 90.1602 235.15 89.6876 235.15C89.2151 235.15 88.8417 235.313 88.5675 235.64C88.305 235.949 88.1737 236.34 88.1737 236.812C88.1737 237.285 88.305 237.676 88.5675 237.985C88.8417 238.312 89.2151 238.475 89.6876 238.475ZM96.3248 239V238.317C96.1673 238.527 95.9748 238.705 95.7473 238.851C95.5197 238.997 95.2601 239.07 94.9684 239.07C94.6767 239.07 94.4259 239.029 94.2158 238.947C94.0058 238.866 93.822 238.743 93.6645 238.58C93.3028 238.224 93.122 237.754 93.122 237.171V234.625H93.7783V237.154C93.7783 237.556 93.8921 237.877 94.1196 238.116C94.3471 238.355 94.6417 238.475 95.0034 238.475C95.371 238.475 95.6831 238.352 95.9398 238.107C96.1965 237.857 96.3248 237.536 96.3248 237.145V234.625H96.9811V239H96.3248ZM100.87 234.555V235.211H100.791C100.319 235.211 99.9338 235.4 99.6362 235.78C99.3562 236.141 99.2162 236.573 99.2162 237.075V239H98.5599V234.625H99.2162V235.701C99.3562 235.246 99.6596 234.91 100.126 234.695C100.319 234.601 100.552 234.555 100.826 234.555H100.87ZM107.728 238.3C107.378 238.813 106.855 239.07 106.161 239.07C105.531 239.07 105.018 238.851 104.621 238.414C104.236 237.982 104.043 237.448 104.043 236.812C104.043 236.176 104.236 235.643 104.621 235.211C105.018 234.773 105.546 234.555 106.205 234.555C106.864 234.555 107.372 234.814 107.728 235.333V234.625H108.384V239H107.728V238.3ZM106.249 238.475C106.721 238.475 107.095 238.312 107.369 237.985C107.631 237.676 107.763 237.285 107.763 236.812C107.763 236.34 107.631 235.949 107.369 235.64C107.095 235.313 106.721 235.15 106.249 235.15C105.782 235.15 105.403 235.313 105.111 235.64C104.837 235.949 104.7 236.34 104.7 236.812C104.7 237.285 104.837 237.676 105.111 237.985C105.403 238.312 105.782 238.475 106.249 238.475ZM112.267 234.555V235.211H112.188C111.716 235.211 111.331 235.4 111.033 235.78C110.753 236.141 110.613 236.573 110.613 237.075V239H109.957V234.625H110.613V235.701C110.753 235.246 111.056 234.91 111.523 234.695C111.716 234.601 111.949 234.555 112.223 234.555H112.267ZM115.251 238.475C115.84 238.475 116.263 238.23 116.52 237.74H117.238C117.086 238.137 116.844 238.457 116.511 238.702C116.185 238.947 115.762 239.07 115.243 239.07C114.583 239.07 114.047 238.851 113.632 238.414C113.23 237.988 113.029 237.454 113.029 236.812C113.029 236.165 113.221 235.631 113.606 235.211C114.014 234.773 114.545 234.555 115.199 234.555C115.852 234.555 116.383 234.773 116.791 235.211C117.176 235.631 117.369 236.165 117.369 236.812V237.075H113.702C113.749 237.477 113.909 237.81 114.184 238.072C114.464 238.341 114.82 238.475 115.251 238.475ZM115.199 235.15C114.796 235.15 114.458 235.275 114.184 235.526C113.927 235.765 113.769 236.077 113.711 236.462H116.686C116.628 236.077 116.471 235.765 116.214 235.526C115.94 235.275 115.601 235.15 115.199 235.15ZM122.021 238.3C121.671 238.813 121.149 239.07 120.455 239.07C119.825 239.07 119.311 238.851 118.915 238.414C118.53 237.982 118.337 237.448 118.337 236.812C118.337 236.176 118.53 235.643 118.915 235.211C119.311 234.773 119.839 234.555 120.499 234.555C121.158 234.555 121.665 234.814 122.021 235.333V234.625H122.678V239H122.021V238.3ZM120.542 238.475C121.015 238.475 121.388 238.312 121.663 237.985C121.925 237.676 122.056 237.285 122.056 236.812C122.056 236.34 121.925 235.949 121.663 235.64C121.388 235.313 121.015 235.15 120.542 235.15C120.076 235.15 119.697 235.313 119.405 235.64C119.131 235.949 118.994 236.34 118.994 236.812C118.994 237.285 119.131 237.676 119.405 237.985C119.697 238.312 120.076 238.475 120.542 238.475ZM124.994 238.107V239H124.145V238.107H124.994Z" fill="black"/>
<path d="M34.2319 175.742V180.738H42.5129V182.381H34.2319V187.399H43.503V189.019H32.5443V174.122H43.503V175.742H34.2319ZM48.1276 177.768V179.523C48.5326 178.983 49.0277 178.525 49.6128 178.15C50.1978 177.775 50.8654 177.588 51.6155 177.588C52.3656 177.588 53.0106 177.693 53.5507 177.903C54.0907 178.113 54.5633 178.428 54.9683 178.848C55.8984 179.763 56.3635 180.971 56.3635 182.471V189.019H54.6758V182.516C54.6758 181.481 54.3833 180.655 53.7982 180.04C53.2131 179.425 52.4556 179.118 51.5255 179.118C50.5804 179.118 49.7778 179.433 49.1177 180.063C48.4576 180.708 48.1276 181.533 48.1276 182.538V189.019H46.4399V177.768H48.1276ZM68.6365 187.219C67.7364 188.539 66.3937 189.199 64.6086 189.199C62.9884 189.199 61.6682 188.636 60.6481 187.511C59.658 186.401 59.1629 185.028 59.1629 183.393C59.1629 181.758 59.658 180.385 60.6481 179.275C61.6682 178.15 63.0259 177.588 64.7211 177.588C66.4163 177.588 67.7214 178.255 68.6365 179.59V177.768H70.3242V189.019H68.6365V187.219ZM64.8336 187.669C66.0487 187.669 67.0088 187.249 67.7139 186.409C68.389 185.614 68.7265 184.608 68.7265 183.393C68.7265 182.178 68.389 181.173 67.7139 180.378C67.0088 179.538 66.0487 179.118 64.8336 179.118C63.6334 179.118 62.6583 179.538 61.9083 180.378C61.2032 181.173 60.8506 182.178 60.8506 183.393C60.8506 184.608 61.2032 185.614 61.9083 186.409C62.6583 187.249 63.6334 187.669 64.8336 187.669ZM75.6061 179.59C76.5212 178.255 77.8639 177.588 79.6341 177.588C81.2542 177.588 82.5669 178.15 83.572 179.275C84.5771 180.385 85.0797 181.758 85.0797 183.393C85.0797 185.028 84.5771 186.401 83.572 187.511C82.5669 188.636 81.2092 189.199 79.499 189.199C77.8039 189.199 76.5062 188.539 75.6061 187.219V189.019H73.9184V173.267H75.6061V179.59ZM79.409 187.669C80.6092 187.669 81.5843 187.249 82.3344 186.409C83.0394 185.614 83.392 184.608 83.392 183.393C83.392 182.178 83.0394 181.173 82.3344 180.378C81.5843 179.538 80.6092 179.118 79.409 179.118C78.1939 179.118 77.2338 179.538 76.5287 180.378C75.8536 181.173 75.5161 182.178 75.5161 183.393C75.5161 184.608 75.8536 185.614 76.5287 186.409C77.2338 187.249 78.1939 187.669 79.409 187.669ZM89.642 189.019H87.9544V173.267H89.642V189.019ZM98.2623 187.669C99.7774 187.669 100.865 187.039 101.525 185.779H103.37C102.98 186.799 102.358 187.624 101.503 188.254C100.663 188.884 99.5749 189.199 98.2398 189.199C96.5446 189.199 95.1644 188.636 94.0993 187.511C93.0642 186.416 92.5466 185.043 92.5466 183.393C92.5466 181.728 93.0417 180.355 94.0318 179.275C95.0819 178.15 96.4471 177.588 98.1272 177.588C99.8074 177.588 101.173 178.15 102.223 179.275C103.213 180.355 103.708 181.728 103.708 183.393V184.068H94.2793C94.3993 185.103 94.8119 185.959 95.517 186.634C96.237 187.324 97.1521 187.669 98.2623 187.669ZM98.1272 179.118C97.0921 179.118 96.222 179.44 95.517 180.085C94.8569 180.7 94.4518 181.503 94.3018 182.493H101.953C101.803 181.503 101.398 180.7 100.738 180.085C100.032 179.44 99.1624 179.118 98.1272 179.118ZM113.598 189.019H111.911V173.267H113.598V189.019ZM122.084 177.588C123.764 177.588 125.129 178.15 126.179 179.275C127.169 180.355 127.664 181.728 127.664 183.393C127.664 185.058 127.169 186.431 126.179 187.511C125.129 188.636 123.764 189.199 122.084 189.199C120.403 189.199 119.038 188.636 117.988 187.511C116.998 186.431 116.503 185.058 116.503 183.393C116.503 181.728 116.998 180.355 117.988 179.275C119.038 178.15 120.403 177.588 122.084 177.588ZM122.084 187.669C123.299 187.669 124.259 187.249 124.964 186.409C125.639 185.614 125.977 184.608 125.977 183.393C125.977 182.178 125.639 181.173 124.964 180.378C124.259 179.538 123.299 179.118 122.084 179.118C120.868 179.118 119.908 179.538 119.203 180.378C118.528 181.173 118.191 182.178 118.191 183.393C118.191 184.608 118.528 185.614 119.203 186.409C119.908 187.249 120.868 187.669 122.084 187.669ZM135.775 187.669C136.495 187.669 137.133 187.466 137.688 187.061C138.243 186.656 138.648 186.131 138.903 185.486H140.726C140.381 186.596 139.751 187.489 138.836 188.164C137.876 188.854 136.735 189.199 135.415 189.199C133.765 189.199 132.422 188.636 131.387 187.511C130.382 186.416 129.88 185.043 129.88 183.393C129.88 181.743 130.382 180.37 131.387 179.275C132.422 178.15 133.765 177.588 135.415 177.588C136.735 177.588 137.876 177.933 138.836 178.623C139.751 179.298 140.381 180.19 140.726 181.301H138.903C138.648 180.655 138.243 180.13 137.688 179.725C137.133 179.32 136.495 179.118 135.775 179.118C135.055 179.118 134.44 179.23 133.93 179.455C133.435 179.68 133.015 179.988 132.67 180.378C131.935 181.188 131.567 182.193 131.567 183.393C131.567 184.593 131.935 185.599 132.67 186.409C133.42 187.249 134.455 187.669 135.775 187.669ZM152.268 187.219C151.368 188.539 150.026 189.199 148.24 189.199C146.62 189.199 145.3 188.636 144.28 187.511C143.29 186.401 142.795 185.028 142.795 183.393C142.795 181.758 143.29 180.385 144.28 179.275C145.3 178.15 146.658 177.588 148.353 177.588C150.048 177.588 151.353 178.255 152.268 179.59V177.768H153.956V189.019H152.268V187.219ZM148.465 187.669C149.681 187.669 150.641 187.249 151.346 186.409C152.021 185.614 152.358 184.608 152.358 183.393C152.358 182.178 152.021 181.173 151.346 180.378C150.641 179.538 149.681 179.118 148.465 179.118C147.265 179.118 146.29 179.538 145.54 180.378C144.835 181.173 144.483 182.178 144.483 183.393C144.483 184.608 144.835 185.614 145.54 186.409C146.29 187.249 147.265 187.669 148.465 187.669ZM158.765 189.019V179.253H156.47V177.768H158.765V173.74H160.453V177.768H163.041V179.253H160.453V189.019H158.765ZM165.565 177.768H167.253V189.019H165.565V177.768ZM167.32 173.672V175.877H165.498V173.672H167.32ZM175.738 177.588C177.418 177.588 178.783 178.15 179.833 179.275C180.824 180.355 181.319 181.728 181.319 183.393C181.319 185.058 180.824 186.431 179.833 187.511C178.783 188.636 177.418 189.199 175.738 189.199C174.058 189.199 172.693 188.636 171.643 187.511C170.652 186.431 170.157 185.058 170.157 183.393C170.157 181.728 170.652 180.355 171.643 179.275C172.693 178.15 174.058 177.588 175.738 177.588ZM175.738 187.669C176.953 187.669 177.913 187.249 178.618 186.409C179.293 185.614 179.631 184.608 179.631 183.393C179.631 182.178 179.293 181.173 178.618 180.378C177.913 179.538 176.953 179.118 175.738 179.118C174.523 179.118 173.563 179.538 172.858 180.378C172.183 181.173 171.845 182.178 171.845 183.393C171.845 184.608 172.183 185.614 172.858 186.409C173.563 187.249 174.523 187.669 175.738 187.669ZM185.919 177.768V179.523C186.324 178.983 186.819 178.525 187.404 178.15C187.99 177.775 188.657 177.588 189.407 177.588C190.157 177.588 190.802 177.693 191.342 177.903C191.882 178.113 192.355 178.428 192.76 178.848C193.69 179.763 194.155 180.971 194.155 182.471V189.019H192.468V182.516C192.468 181.481 192.175 180.655 191.59 180.04C191.005 179.425 190.247 179.118 189.317 179.118C188.372 179.118 187.569 179.433 186.909 180.063C186.249 180.708 185.919 181.533 185.919 182.538V189.019H184.232V177.768H185.919ZM38.8 203.783C38.6499 202.613 37.7048 202.028 35.9646 202.028C34.2394 202.028 33.3769 202.568 33.3769 203.648C33.3769 204.098 33.5569 204.443 33.9169 204.683C34.292 204.908 34.757 205.096 35.3121 205.246C35.8671 205.396 36.4672 205.538 37.1123 205.673C37.7723 205.793 38.3799 205.973 38.935 206.213C39.49 206.438 39.9476 206.753 40.3076 207.158C40.6827 207.563 40.8702 208.118 40.8702 208.824C40.8702 209.919 40.4576 210.759 39.6325 211.344C38.8075 211.914 37.6898 212.199 36.2797 212.199C34.7795 212.199 33.5869 211.824 32.7018 211.074C31.8917 210.414 31.4566 209.551 31.3966 208.486H33.1518C33.2568 209.521 33.8419 210.219 34.907 210.579C35.2971 210.699 35.6796 210.759 36.0546 210.759C36.4447 210.759 36.8047 210.736 37.1348 210.691C37.4648 210.646 37.7873 210.564 38.1024 210.444C38.8225 210.159 39.1825 209.671 39.1825 208.981C39.1825 208.516 38.995 208.163 38.6199 207.923C38.2599 207.668 37.8023 207.466 37.2473 207.316C36.6922 207.151 36.0847 207.008 35.4246 206.888C34.7795 206.753 34.1794 206.573 33.6244 206.348C33.0693 206.123 32.6043 205.816 32.2292 205.426C31.8692 205.036 31.6892 204.496 31.6892 203.806C31.6892 202.785 32.0567 201.998 32.7918 201.443C33.5419 200.873 34.6445 200.588 36.0997 200.588C37.4798 200.588 38.5674 200.918 39.3625 201.578C40.0226 202.133 40.4051 202.868 40.5101 203.783H38.8ZM48.733 210.669C50.2482 210.669 51.3358 210.039 51.9959 208.779H53.8411C53.4511 209.799 52.8285 210.624 51.9734 211.254C51.1333 211.884 50.0457 212.199 48.7105 212.199C47.0154 212.199 45.6352 211.636 44.5701 210.511C43.535 209.416 43.0174 208.043 43.0174 206.393C43.0174 204.728 43.5125 203.355 44.5026 202.275C45.5527 201.15 46.9178 200.588 48.598 200.588C50.2782 200.588 51.6434 201.15 52.6935 202.275C53.6836 203.355 54.1786 204.728 54.1786 206.393V207.068H44.7501C44.8701 208.103 45.2827 208.959 45.9877 209.634C46.7078 210.324 47.6229 210.669 48.733 210.669ZM48.598 202.118C47.5629 202.118 46.6928 202.44 45.9877 203.085C45.3277 203.7 44.9226 204.503 44.7726 205.493H52.4235C52.2734 204.503 51.8684 203.7 51.2083 203.085C50.5032 202.44 49.6331 202.118 48.598 202.118ZM62.8565 200.588V202.275H62.654C61.4389 202.275 60.4488 202.763 59.6837 203.738C58.9636 204.668 58.6036 205.778 58.6036 207.068V212.019H56.9159V200.768H58.6036V203.535C58.9636 202.365 59.7437 201.503 60.9438 200.948C61.4389 200.708 62.0389 200.588 62.744 200.588H62.8565ZM74.7767 200.768L70.3887 212.019H68.4085L63.998 200.768H65.8432L69.3986 210.219L72.9315 200.768H74.7767ZM77.0327 200.768H78.7204V212.019H77.0327V200.768ZM78.7879 196.672V198.877H76.9652V196.672H78.7879ZM87.5207 210.669C88.2407 210.669 88.8783 210.466 89.4334 210.061C89.9884 209.656 90.3935 209.131 90.6485 208.486H92.4712C92.1262 209.596 91.4961 210.489 90.581 211.164C89.6209 211.854 88.4808 212.199 87.1606 212.199C85.5104 212.199 84.1678 211.636 83.1327 210.511C82.1276 209.416 81.625 208.043 81.625 206.393C81.625 204.743 82.1276 203.37 83.1327 202.275C84.1678 201.15 85.5104 200.588 87.1606 200.588C88.4808 200.588 89.6209 200.933 90.581 201.623C91.4961 202.298 92.1262 203.19 92.4712 204.301H90.6485C90.3935 203.655 89.9884 203.13 89.4334 202.725C88.8783 202.32 88.2407 202.118 87.5207 202.118C86.8006 202.118 86.1855 202.23 85.6755 202.455C85.1804 202.68 84.7604 202.988 84.4153 203.378C83.6802 204.188 83.3127 205.193 83.3127 206.393C83.3127 207.593 83.6802 208.599 84.4153 209.409C85.1654 210.249 86.2005 210.669 87.5207 210.669ZM100.256 210.669C101.771 210.669 102.859 210.039 103.519 208.779H105.364C104.974 209.799 104.351 210.624 103.496 211.254C102.656 211.884 101.568 212.199 100.233 212.199C98.5381 212.199 97.158 211.636 96.0929 210.511C95.0578 209.416 94.5402 208.043 94.5402 206.393C94.5402 204.728 95.0353 203.355 96.0254 202.275C97.0755 201.15 98.4406 200.588 100.121 200.588C101.801 200.588 103.166 201.15 104.216 202.275C105.206 203.355 105.701 204.728 105.701 206.393V207.068H96.2729C96.3929 208.103 96.8055 208.959 97.5105 209.634C98.2306 210.324 99.1457 210.669 100.256 210.669ZM100.121 202.118C99.0857 202.118 98.2156 202.44 97.5105 203.085C96.8505 203.7 96.4454 204.503 96.2954 205.493H103.946C103.796 204.503 103.391 203.7 102.731 203.085C102.026 202.44 101.156 202.118 100.121 202.118ZM115.054 203.783C114.904 202.613 113.959 202.028 112.219 202.028C110.494 202.028 109.631 202.568 109.631 203.648C109.631 204.098 109.811 204.443 110.171 204.683C110.546 204.908 111.011 205.096 111.567 205.246C112.122 205.396 112.722 205.538 113.367 205.673C114.027 205.793 114.634 205.973 115.189 206.213C115.744 206.438 116.202 206.753 116.562 207.158C116.937 207.563 117.125 208.118 117.125 208.824C117.125 209.919 116.712 210.759 115.887 211.344C115.062 211.914 113.944 212.199 112.534 212.199C111.034 212.199 109.841 211.824 108.956 211.074C108.146 210.414 107.711 209.551 107.651 208.486H109.406C109.511 209.521 110.096 210.219 111.161 210.579C111.552 210.699 111.934 210.759 112.309 210.759C112.699 210.759 113.059 210.736 113.389 210.691C113.719 210.646 114.042 210.564 114.357 210.444C115.077 210.159 115.437 209.671 115.437 208.981C115.437 208.516 115.249 208.163 114.874 207.923C114.514 207.668 114.057 207.466 113.502 207.316C112.947 207.151 112.339 207.008 111.679 206.888C111.034 206.753 110.434 206.573 109.879 206.348C109.324 206.123 108.859 205.816 108.484 205.426C108.124 205.036 107.944 204.496 107.944 203.806C107.944 202.785 108.311 201.998 109.046 201.443C109.796 200.873 110.899 200.588 112.354 200.588C113.734 200.588 114.822 200.918 115.617 201.578C116.277 202.133 116.66 202.868 116.765 203.783H115.054ZM128.97 201.083C128.97 201.623 128.88 202.103 128.7 202.523C128.52 202.943 128.288 203.325 128.003 203.67C127.733 204.001 127.433 204.308 127.103 204.593C126.788 204.878 126.488 205.178 126.203 205.493C125.573 206.213 125.258 207.016 125.258 207.901H123.615C123.615 206.506 124.237 205.238 125.483 204.098C126.248 203.423 126.75 202.86 126.99 202.41C127.245 201.945 127.373 201.525 127.373 201.15C127.373 200.775 127.328 200.445 127.238 200.16C127.148 199.86 126.99 199.583 126.765 199.328C126.255 198.772 125.498 198.495 124.492 198.495C123.457 198.495 122.617 198.802 121.972 199.418C121.372 199.988 121.042 200.693 120.982 201.533H119.384C119.444 200.258 119.917 199.185 120.802 198.315C121.747 197.4 122.932 196.942 124.357 196.942C125.888 196.942 127.058 197.362 127.868 198.202C128.603 198.967 128.97 199.928 128.97 201.083ZM125.528 209.724V212.019H123.345V209.724H125.528Z" fill="black"/>
<path fill-rule="evenodd" clip-rule="evenodd" d="M124.79 104.175C116.033 104.175 108.951 111.257 108.951 120.013C108.951 131.892 124.79 149.427 124.79 149.427C124.79 149.427 140.628 131.892 140.628 120.013C140.628 111.257 133.546 104.175 124.79 104.175ZM113.477 120.013C113.477 113.769 118.545 108.7 124.79 108.7C131.035 108.7 136.103 113.769 136.103 120.013C136.103 126.53 129.586 136.282 124.79 142.368C120.083 136.327 113.477 126.462 113.477 120.013ZM119.133 120.013C119.133 116.889 121.666 114.357 124.79 114.357C126.811 114.357 128.678 115.435 129.688 117.185C130.699 118.935 130.699 121.091 129.688 122.842C128.678 124.592 126.811 125.67 124.79 125.67C121.666 125.67 119.133 123.137 119.133 120.013Z" fill="#DD4B39"/>
<path d="M28.7433 37.4228L27.6307 36.3164L21.4487 42.5046L27.6369 48.6928L28.7433 47.5864L23.6615 42.5046L28.7433 37.4228Z" fill="black" fill-opacity="0.54"/>
<path opacity="0.35" d="M214.804 13.1264C214.804 12.3785 215.411 11.7721 216.159 11.7721H226.577C227.325 11.7721 227.931 12.3785 227.931 13.1264V16.8769C227.931 17.6248 227.325 18.2312 226.577 18.2312H216.159C215.411 18.2312 214.804 17.6248 214.804 16.8769V13.1264Z" stroke="black" stroke-width="0.625069"/>
<path opacity="0.4" d="M228.869 13.7515V16.2517C229.372 16.04 229.699 15.5474 229.699 15.0016C229.699 14.4558 229.372 13.9632 228.869 13.7515Z" fill="black"/>
<path d="M215.742 13.5431C215.742 13.0829 216.115 12.7097 216.575 12.7097H226.16C226.62 12.7097 226.993 13.0829 226.993 13.5431V16.4601C226.993 16.9204 226.62 17.2936 226.16 17.2936H216.575C216.115 17.2936 215.742 16.9204 215.742 16.4601V13.5431Z" fill="black"/>
<path fill-rule="evenodd" clip-rule="evenodd" d="M206.573 12.8814C207.958 12.8814 209.29 13.4136 210.294 14.368C210.369 14.4417 210.49 14.4407 210.565 14.3659L211.287 13.6367C211.325 13.5987 211.346 13.5473 211.345 13.4938C211.345 13.4403 211.324 13.3891 211.285 13.3516C208.651 10.8266 204.494 10.8266 201.859 13.3516C201.821 13.3891 201.8 13.4403 201.799 13.4938C201.799 13.5473 201.82 13.5987 201.857 13.6367L202.58 14.3659C202.655 14.4409 202.776 14.4418 202.851 14.368C203.855 13.4136 205.187 12.8814 206.573 12.8814ZM206.573 15.2539C207.334 15.2539 208.067 15.5368 208.632 16.0476C208.708 16.1201 208.828 16.1185 208.902 16.044L209.624 15.3148C209.662 15.2765 209.683 15.2246 209.683 15.1707C209.682 15.1168 209.66 15.0653 209.621 15.0279C207.903 13.43 205.243 13.43 203.525 15.0279C203.487 15.0653 203.464 15.1168 203.464 15.1708C203.463 15.2247 203.485 15.2766 203.523 15.3148L204.244 16.044C204.319 16.1185 204.439 16.1201 204.515 16.0476C205.079 15.5371 205.812 15.2543 206.573 15.2539ZM208.018 16.8502C208.019 16.9043 207.998 16.9565 207.96 16.9943L206.711 18.2543C206.675 18.2913 206.625 18.3121 206.573 18.3121C206.52 18.3121 206.471 18.2913 206.434 18.2543L205.185 16.9943C205.147 16.9564 205.126 16.9043 205.127 16.8502C205.128 16.7961 205.151 16.7449 205.191 16.7087C205.989 16.0343 207.156 16.0343 207.954 16.7087C207.994 16.745 208.017 16.7962 208.018 16.8502Z" fill="black"/>
<path fill-rule="evenodd" clip-rule="evenodd" d="M198.032 11.6678H197.407C197.062 11.6678 196.782 11.9477 196.782 12.2929V17.7102C196.782 18.0554 197.062 18.3353 197.407 18.3353H198.032C198.377 18.3353 198.657 18.0554 198.657 17.7102V12.2929C198.657 11.9477 198.377 11.6678 198.032 11.6678ZM194.49 13.1264H195.115C195.46 13.1264 195.74 13.4062 195.74 13.7514V17.7102C195.74 18.0554 195.46 18.3353 195.115 18.3353H194.49C194.145 18.3353 193.865 18.0554 193.865 17.7102V13.7514C193.865 13.4062 194.145 13.1264 194.49 13.1264ZM192.198 14.5848H191.573C191.228 14.5848 190.948 14.8647 190.948 15.2099V17.7102C190.948 18.0554 191.228 18.3352 191.573 18.3352H192.198C192.543 18.3352 192.823 18.0554 192.823 17.7102V15.2099C192.823 14.8647 192.543 14.5848 192.198 14.5848ZM189.281 15.8349H188.656C188.311 15.8349 188.031 16.1148 188.031 16.46V17.7102C188.031 18.0554 188.311 18.3352 188.656 18.3352H189.281C189.626 18.3352 189.906 18.0554 189.906 17.7102V16.46C189.906 16.1148 189.626 15.8349 189.281 15.8349Z" fill="black"/>
<path d="M26.2265 16.824L27.0185 16.7507C27.0856 17.1231 27.2138 17.3932 27.4031 17.5611C27.5923 17.7289 27.8349 17.8129 28.131 17.8129C28.3843 17.8129 28.6056 17.7549 28.7948 17.6389C28.9871 17.5229 29.1443 17.3688 29.2664 17.1765C29.3885 16.9812 29.4907 16.7187 29.5731 16.3891C29.6555 16.0594 29.6967 15.7237 29.6967 15.3819C29.6967 15.3452 29.6952 15.2903 29.6921 15.2171C29.5273 15.4795 29.3015 15.6932 29.0146 15.858C28.7307 16.0198 28.4225 16.1006 28.0898 16.1006C27.5343 16.1006 27.0643 15.8992 26.6797 15.4963C26.2952 15.0934 26.1029 14.5624 26.1029 13.9031C26.1029 13.2225 26.3028 12.6747 26.7026 12.2596C27.1055 11.8445 27.6091 11.6369 28.2134 11.6369C28.6498 11.6369 29.0481 11.7545 29.4083 11.9895C29.7715 12.2245 30.0462 12.5602 30.2324 12.9967C30.4216 13.4301 30.5162 14.0588 30.5162 14.8829C30.5162 15.7405 30.4231 16.4242 30.2369 16.9339C30.0508 17.4405 29.773 17.8266 29.4037 18.0921C29.0375 18.3577 28.6071 18.4904 28.1127 18.4904C27.5877 18.4904 27.1589 18.3455 26.8262 18.0555C26.4935 17.7625 26.2936 17.352 26.2265 16.824ZM29.6006 13.8619C29.6006 13.3889 29.4739 13.0134 29.2206 12.7357C28.9703 12.458 28.6682 12.3191 28.3141 12.3191C27.9479 12.3191 27.6289 12.4686 27.3573 12.7678C27.0856 13.0669 26.9498 13.4545 26.9498 13.9306C26.9498 14.3579 27.078 14.7058 27.3344 14.9744C27.5938 15.2399 27.9128 15.3727 28.2912 15.3727C28.6727 15.3727 28.9856 15.2399 29.2297 14.9744C29.477 14.7058 29.6006 14.335 29.6006 13.8619ZM31.5922 14.4525V13.514H32.5308V14.4525H31.5922ZM31.5922 18.376V17.4375H32.5308V18.376H31.5922ZM36.198 18.376V16.769H33.2863V16.0137L36.3491 11.6644H37.0221V16.0137H37.9286V16.769H37.0221V18.376H36.198ZM36.198 16.0137V12.9875L34.0967 16.0137H36.198ZM41.692 18.376H40.8679V13.1248C40.6695 13.3141 40.4086 13.5033 40.0851 13.6925C39.7646 13.8818 39.4762 14.0237 39.2198 14.1183V13.3217C39.6807 13.105 40.0835 12.8425 40.4284 12.5343C40.7733 12.226 41.0175 11.9269 41.1609 11.6369H41.692V18.376Z" fill="black"/>
<path d="M26.2265 16.824L26.2121 16.6684L26.0511 16.6833L26.0715 16.8437L26.2265 16.824ZM27.0185 16.7507L27.1723 16.723L27.1468 16.5819L27.0041 16.5951L27.0185 16.7507ZM28.7948 17.6389L28.7141 17.5051L28.7132 17.5057L28.7948 17.6389ZM29.2664 17.1765L29.3983 17.2603L29.3989 17.2593L29.2664 17.1765ZM29.6921 15.2171L29.8483 15.2106L29.8273 14.7079L29.5598 15.134L29.6921 15.2171ZM29.0146 15.858L29.0919 15.9938L29.0924 15.9935L29.0146 15.858ZM26.7026 12.2596L26.5905 12.1507L26.5901 12.1512L26.7026 12.2596ZM29.4083 11.9895L29.3229 12.1203L29.3234 12.1207L29.4083 11.9895ZM30.2324 12.9967L30.0886 13.058L30.0891 13.0592L30.2324 12.9967ZM30.2369 16.9339L30.3836 16.9878L30.3837 16.9875L30.2369 16.9339ZM29.4037 18.0921L29.3125 17.9653L29.312 17.9656L29.4037 18.0921ZM26.8262 18.0555L26.7229 18.1728L26.7235 18.1733L26.8262 18.0555ZM29.2206 12.7357L29.1045 12.8403L29.1051 12.841L29.2206 12.7357ZM27.3344 14.9744L27.2213 15.0823L27.2226 15.0836L27.3344 14.9744ZM29.2297 14.9744L29.1148 14.8686L29.1147 14.8686L29.2297 14.9744ZM26.2409 16.9796L27.0329 16.9063L27.0041 16.5951L26.2121 16.6684L26.2409 16.9796ZM26.8647 16.7785C26.9351 17.169 27.0737 17.4778 27.2994 17.678L27.5068 17.4442C27.354 17.3086 27.2362 17.0772 27.1723 16.723L26.8647 16.7785ZM27.2994 17.678C27.522 17.8754 27.8036 17.9691 28.131 17.9691V17.6566C27.8663 17.6566 27.6626 17.5824 27.5068 17.4442L27.2994 17.678ZM28.131 17.9691C28.409 17.9691 28.6593 17.9052 28.8765 17.7721L28.7132 17.5057C28.5518 17.6045 28.3597 17.6566 28.131 17.6566V17.9691ZM28.8755 17.7727C29.0888 17.644 29.2634 17.4727 29.3983 17.2603L29.1344 17.0927C29.0251 17.2649 28.8854 17.4018 28.7141 17.5051L28.8755 17.7727ZM29.3989 17.2593C29.5327 17.0452 29.64 16.7657 29.7247 16.427L29.4215 16.3512C29.3414 16.6717 29.2442 16.9171 29.1339 17.0937L29.3989 17.2593ZM29.7247 16.427C29.8102 16.0849 29.853 15.7364 29.853 15.3819H29.5404C29.5404 15.711 29.5008 16.034 29.4215 16.3512L29.7247 16.427ZM29.853 15.3819C29.853 15.3419 29.8513 15.2843 29.8483 15.2106L29.536 15.2236C29.539 15.2963 29.5404 15.3486 29.5404 15.3819H29.853ZM29.5598 15.134C29.4095 15.3733 29.203 15.5695 28.9367 15.7225L29.0924 15.9935C29.3999 15.8168 29.6451 15.5858 29.8245 15.3002L29.5598 15.134ZM28.9372 15.7222C28.6774 15.8703 28.3958 15.9444 28.0898 15.9444V16.2569C28.4491 16.2569 28.7841 16.1692 29.0919 15.9938L28.9372 15.7222ZM28.0898 15.9444C27.5771 15.9444 27.1479 15.7605 26.7928 15.3884L26.5667 15.6042C26.9806 16.0379 27.4915 16.2569 28.0898 16.2569V15.9444ZM26.7928 15.3884C26.4409 15.0199 26.2591 14.5301 26.2591 13.9031H25.9466C25.9466 14.5947 26.1494 15.167 26.5667 15.6042L26.7928 15.3884ZM26.2591 13.9031C26.2591 13.2551 26.4484 12.7488 26.8152 12.368L26.5901 12.1512C26.1572 12.6006 25.9466 13.1899 25.9466 13.9031H26.2591ZM26.8147 12.3684C27.1867 11.9851 27.6492 11.7932 28.2134 11.7932V11.4807C27.5689 11.4807 27.0242 11.7039 26.5905 12.1507L26.8147 12.3684ZM28.2134 11.7932C28.62 11.7932 28.9885 11.9022 29.3229 12.1203L29.4937 11.8586C29.1077 11.6068 28.6797 11.4807 28.2134 11.4807V11.7932ZM29.3234 12.1207C29.6579 12.3371 29.9134 12.6473 30.0886 13.058L30.3761 12.9353C30.1789 12.4732 29.885 12.1118 29.4932 11.8583L29.3234 12.1207ZM30.0891 13.0592C30.2656 13.4633 30.3599 14.0667 30.3599 14.8829H30.6725C30.6725 14.0509 30.5776 13.3968 30.3756 12.9341L30.0891 13.0592ZM30.3599 14.8829C30.3599 15.7316 30.2675 16.3947 30.0902 16.8802L30.3837 16.9875C30.5787 16.4536 30.6725 15.7494 30.6725 14.8829H30.3599ZM30.0903 16.88C29.9128 17.3629 29.652 17.7211 29.3125 17.9653L29.4949 18.219C29.894 17.9321 30.1887 17.5181 30.3836 16.9878L30.0903 16.88ZM29.312 17.9656C28.9749 18.21 28.5774 18.3342 28.1127 18.3342V18.6467C28.6368 18.6467 29.1 18.5053 29.4954 18.2186L29.312 17.9656ZM28.1127 18.3342C27.6179 18.3342 27.2279 18.1983 26.9289 17.9377L26.7235 18.1733C27.0899 18.4926 27.5575 18.6467 28.1127 18.6467V18.3342ZM26.9295 17.9382C26.6309 17.6752 26.4449 17.3025 26.3815 16.8043L26.0715 16.8437C26.1424 17.4015 26.3562 17.8498 26.7229 18.1728L26.9295 17.9382ZM29.7568 13.8619C29.7568 13.3604 29.6219 12.9438 29.336 12.6304L29.1051 12.841C29.3259 13.0831 29.4443 13.4173 29.4443 13.8619H29.7568ZM29.3367 12.6311C29.0586 12.3226 28.7151 12.1628 28.3141 12.1628V12.4754C28.6212 12.4754 28.882 12.5934 29.1045 12.8403L29.3367 12.6311ZM28.3141 12.1628C27.899 12.1628 27.5394 12.3347 27.2416 12.6627L27.473 12.8728C27.7184 12.6026 27.9967 12.4754 28.3141 12.4754V12.1628ZM27.2416 12.6627C26.9393 12.9956 26.7936 13.423 26.7936 13.9306H27.1061C27.1061 13.486 27.232 13.1381 27.473 12.8728L27.2416 12.6627ZM26.7936 13.9306C26.7936 14.3916 26.933 14.7803 27.2214 15.0823L27.4474 14.8665C27.223 14.6314 27.1061 14.3242 27.1061 13.9306H26.7936ZM27.2226 15.0836C27.5121 15.3799 27.8716 15.529 28.2912 15.529V15.2164C27.9539 15.2164 27.6756 15.1 27.4462 14.8652L27.2226 15.0836ZM28.2912 15.529C28.7136 15.529 29.0691 15.3799 29.3448 15.0802L29.1147 14.8686C28.902 15.1 28.6319 15.2164 28.2912 15.2164V15.529ZM29.3447 15.0802C29.6256 14.7751 29.7568 14.3623 29.7568 13.8619H29.4443C29.4443 14.3078 29.3283 14.6366 29.1148 14.8686L29.3447 15.0802ZM31.5922 14.4525H31.436V14.6088H31.5922V14.4525ZM31.5922 13.514V13.3577H31.436V13.514H31.5922ZM32.5308 13.514H32.687V13.3577H32.5308V13.514ZM32.5308 14.4525V14.6088H32.687V14.4525H32.5308ZM31.5922 18.376H31.436V18.5322H31.5922V18.376ZM31.5922 17.4375V17.2812H31.436V17.4375H31.5922ZM32.5308 17.4375H32.687V17.2812H32.5308V17.4375ZM32.5308 18.376V18.5322H32.687V18.376H32.5308ZM31.7485 14.4525V13.514H31.436V14.4525H31.7485ZM31.5922 13.6703H32.5308V13.3577H31.5922V13.6703ZM32.3745 13.514V14.4525H32.687V13.514H32.3745ZM32.5308 14.2962H31.5922V14.6088H32.5308V14.2962ZM31.7485 18.376V17.4375H31.436V18.376H31.7485ZM31.5922 17.5937H32.5308V17.2812H31.5922V17.5937ZM32.3745 17.4375V18.376H32.687V17.4375H32.3745ZM32.5308 18.2197H31.5922V18.5322H32.5308V18.2197ZM36.198 18.376H36.0418V18.5322H36.198V18.376ZM36.198 16.769H36.3543V16.6128H36.198V16.769ZM33.2863 16.769H33.1301V16.9253H33.2863V16.769ZM33.2863 16.0137L33.1586 15.9237L33.1301 15.9642V16.0137H33.2863ZM36.3491 11.6644V11.5082H36.268L36.2214 11.5744L36.3491 11.6644ZM37.0221 11.6644H37.1784V11.5082H37.0221V11.6644ZM37.0221 16.0137H36.8658V16.1699H37.0221V16.0137ZM37.9286 16.0137H38.0848V15.8574H37.9286V16.0137ZM37.9286 16.769V16.9253H38.0848V16.769H37.9286ZM37.0221 16.769V16.6128H36.8658V16.769H37.0221ZM37.0221 18.376V18.5322H37.1784V18.376H37.0221ZM36.198 16.0137V16.1699H36.3543V16.0137H36.198ZM36.198 12.9875H36.3543V12.4885L36.0697 12.8984L36.198 12.9875ZM34.0967 16.0137L33.9683 15.9245L33.7979 16.1699H34.0967V16.0137ZM36.3543 18.376V16.769H36.0418V18.376H36.3543ZM36.198 16.6128H33.2863V16.9253H36.198V16.6128ZM33.4426 16.769V16.0137H33.1301V16.769H33.4426ZM33.4141 16.1036L36.4769 11.7544L36.2214 11.5744L33.1586 15.9237L33.4141 16.1036ZM36.3491 11.8207H37.0221V11.5082H36.3491V11.8207ZM36.8658 11.6644V16.0137H37.1784V11.6644H36.8658ZM37.0221 16.1699H37.9286V15.8574H37.0221V16.1699ZM37.7723 16.0137V16.769H38.0848V16.0137H37.7723ZM37.9286 16.6128H37.0221V16.9253H37.9286V16.6128ZM36.8658 16.769V18.376H37.1784V16.769H36.8658ZM37.0221 18.2197H36.198V18.5322H37.0221V18.2197ZM36.3543 16.0137V12.9875H36.0418V16.0137H36.3543ZM36.0697 12.8984L33.9683 15.9245L34.225 16.1028L36.3264 13.0766L36.0697 12.8984ZM34.0967 16.1699H36.198V15.8574H34.0967V16.1699ZM41.692 18.376V18.5322H41.8483V18.376H41.692ZM40.8679 18.376H40.7117V18.5322H40.8679V18.376ZM40.8679 13.1248H41.0242V12.7598L40.7601 13.0118L40.8679 13.1248ZM40.0851 13.6925L40.0062 13.5576L40.0056 13.558L40.0851 13.6925ZM39.2198 14.1183H39.0635V14.3425L39.2739 14.2649L39.2198 14.1183ZM39.2198 13.3217L39.1533 13.1803L39.0635 13.2225V13.3217H39.2198ZM41.1609 11.6369V11.4807H41.0639L41.0209 11.5677L41.1609 11.6369ZM41.692 11.6369H41.8483V11.4807H41.692V11.6369ZM41.692 18.2197H40.8679V18.5322H41.692V18.2197ZM41.0242 18.376V13.1248H40.7117V18.376H41.0242ZM40.7601 13.0118C40.573 13.1902 40.3228 13.3725 40.0062 13.5576L40.164 13.8274C40.4944 13.6341 40.7661 13.4379 40.9758 13.2379L40.7601 13.0118ZM40.0056 13.558C39.6905 13.744 39.4108 13.8813 39.1657 13.9717L39.2739 14.2649C39.5416 14.1661 39.8387 14.0195 40.1645 13.8271L40.0056 13.558ZM39.3761 14.1183V13.3217H39.0635V14.1183H39.3761ZM39.2863 13.4631C39.7595 13.2406 40.1753 12.9701 40.5326 12.6508L40.3243 12.4178C39.9918 12.715 39.6019 12.9694 39.1533 13.1803L39.2863 13.4631ZM40.5326 12.6508C40.8864 12.3345 41.1458 12.02 41.301 11.7062L41.0209 11.5677C40.8892 11.8338 40.6602 12.1175 40.3243 12.4178L40.5326 12.6508ZM41.1609 11.7932H41.692V11.4807H41.1609V11.7932ZM41.5357 11.6369V18.376H41.8483V11.6369H41.5357Z" fill="black"/>
<rect x="65.2604" y="372.701" width="112.817" height="24.6827" rx="12.3414" stroke="#567FD5" stroke-width="1.57017"/>
<path d="M104.373 382.641V385.139H108.513V385.96H104.373V388.469H109.008V389.279H103.529V381.831H109.008V382.641H104.373ZM111.546 383.654V384.531C111.748 384.261 111.996 384.033 112.288 383.845C112.581 383.658 112.915 383.564 113.29 383.564C113.665 383.564 113.987 383.616 114.257 383.721C114.527 383.826 114.764 383.984 114.966 384.194C115.431 384.651 115.664 385.255 115.664 386.005V389.279H114.82V386.028C114.82 385.51 114.674 385.098 114.381 384.79C114.089 384.483 113.71 384.329 113.245 384.329C112.772 384.329 112.371 384.486 112.041 384.801C111.711 385.124 111.546 385.537 111.546 386.039V389.279H110.702V383.654H111.546ZM122.025 388.379C121.575 389.039 120.904 389.369 120.011 389.369C119.201 389.369 118.541 389.088 118.031 388.526C117.536 387.971 117.288 387.284 117.288 386.467C117.288 385.649 117.536 384.963 118.031 384.408C118.541 383.845 119.22 383.564 120.067 383.564C120.915 383.564 121.568 383.898 122.025 384.565V383.654H122.869V389.279H122.025V388.379ZM120.124 388.604C120.731 388.604 121.211 388.394 121.564 387.974C121.901 387.577 122.07 387.074 122.07 386.467C122.07 385.859 121.901 385.356 121.564 384.959C121.211 384.539 120.731 384.329 120.124 384.329C119.524 384.329 119.036 384.539 118.661 384.959C118.309 385.356 118.132 385.859 118.132 386.467C118.132 387.074 118.309 387.577 118.661 387.974C119.036 388.394 119.524 388.604 120.124 388.604ZM125.735 384.565C126.193 383.898 126.864 383.564 127.749 383.564C128.559 383.564 129.215 383.845 129.718 384.408C130.221 384.963 130.472 385.649 130.472 386.467C130.472 387.284 130.221 387.971 129.718 388.526C129.215 389.088 128.537 389.369 127.682 389.369C126.834 389.369 126.185 389.039 125.735 388.379V389.279H124.891V381.404H125.735V384.565ZM127.637 388.604C128.237 388.604 128.724 388.394 129.099 387.974C129.452 387.577 129.628 387.074 129.628 386.467C129.628 385.859 129.452 385.356 129.099 384.959C128.724 384.539 128.237 384.329 127.637 384.329C127.029 384.329 126.549 384.539 126.196 384.959C125.859 385.356 125.69 385.859 125.69 386.467C125.69 387.074 125.859 387.577 126.196 387.974C126.549 388.394 127.029 388.604 127.637 388.604ZM132.978 389.279H132.134V381.404H132.978V389.279ZM137.513 388.604C138.271 388.604 138.815 388.289 139.145 387.659H140.067C139.872 388.169 139.561 388.582 139.133 388.897C138.713 389.212 138.169 389.369 137.502 389.369C136.654 389.369 135.964 389.088 135.432 388.526C134.914 387.978 134.655 387.292 134.655 386.467C134.655 385.634 134.903 384.948 135.398 384.408C135.923 383.845 136.606 383.564 137.446 383.564C138.286 383.564 138.968 383.845 139.493 384.408C139.988 384.948 140.236 385.634 140.236 386.467V386.804H135.522C135.582 387.322 135.788 387.749 136.141 388.087C136.501 388.432 136.958 388.604 137.513 388.604ZM137.446 384.329C136.928 384.329 136.493 384.49 136.141 384.813C135.81 385.12 135.608 385.522 135.533 386.017H139.358C139.283 385.522 139.081 385.12 138.751 384.813C138.398 384.49 137.963 384.329 137.446 384.329Z" fill="#567FD5"/>
<path d="M104.373 382.641V382.484H104.216V382.641H104.373ZM104.373 385.139H104.216V385.296H104.373V385.139ZM108.513 385.139H108.67V384.982H108.513V385.139ZM108.513 385.96V386.117H108.67V385.96H108.513ZM104.373 385.96V385.803H104.216V385.96H104.373ZM104.373 388.469H104.216V388.626H104.373V388.469ZM109.008 388.469H109.165V388.312H109.008V388.469ZM109.008 389.279V389.436H109.165V389.279H109.008ZM103.529 389.279H103.372V389.436H103.529V389.279ZM103.529 381.831V381.674H103.372V381.831H103.529ZM109.008 381.831H109.165V381.674H109.008V381.831ZM109.008 382.641V382.798H109.165V382.641H109.008ZM104.216 382.641V385.139H104.53V382.641H104.216ZM104.373 385.296H108.513V384.982H104.373V385.296ZM108.356 385.139V385.96H108.67V385.139H108.356ZM108.513 385.803H104.373V386.117H108.513V385.803ZM104.216 385.96V388.469H104.53V385.96H104.216ZM104.373 388.626H109.008V388.312H104.373V388.626ZM108.851 388.469V389.279H109.165V388.469H108.851ZM109.008 389.122H103.529V389.436H109.008V389.122ZM103.686 389.279V381.831H103.372V389.279H103.686ZM103.529 381.988H109.008V381.674H103.529V381.988ZM108.851 381.831V382.641H109.165V381.831H108.851ZM109.008 382.484H104.373V382.798H109.008V382.484ZM111.546 383.654H111.703V383.497H111.546V383.654ZM111.546 384.531H111.389V385.002L111.671 384.626L111.546 384.531ZM112.288 383.845L112.373 383.977V383.977L112.288 383.845ZM114.257 383.721L114.2 383.868L114.257 383.721ZM114.966 384.194L114.853 384.303L114.856 384.306L114.966 384.194ZM115.664 389.279V389.436H115.821V389.279H115.664ZM114.82 389.279H114.663V389.436H114.82V389.279ZM112.041 384.801L111.932 384.688L111.931 384.689L112.041 384.801ZM111.546 389.279V389.436H111.703V389.279H111.546ZM110.702 389.279H110.545V389.436H110.702V389.279ZM110.702 383.654V383.497H110.545V383.654H110.702ZM111.389 383.654V384.531H111.703V383.654H111.389ZM111.671 384.626C111.862 384.371 112.096 384.155 112.373 383.977L112.204 383.713C111.896 383.91 111.634 384.152 111.42 384.437L111.671 384.626ZM112.373 383.977C112.638 383.807 112.942 383.721 113.29 383.721V383.407C112.887 383.407 112.523 383.508 112.204 383.713L112.373 383.977ZM113.29 383.721C113.651 383.721 113.953 383.771 114.2 383.868L114.314 383.575C114.022 383.461 113.679 383.407 113.29 383.407V383.721ZM114.2 383.868C114.449 383.964 114.666 384.109 114.853 384.303L115.079 384.085C114.861 383.859 114.606 383.688 114.314 383.575L114.2 383.868ZM114.856 384.306C115.286 384.729 115.507 385.29 115.507 386.005H115.821C115.821 385.22 115.576 384.573 115.076 384.082L114.856 384.306ZM115.507 386.005V389.279H115.821V386.005H115.507ZM115.664 389.122H114.82V389.436H115.664V389.122ZM114.977 389.279V386.028H114.663V389.279H114.977ZM114.977 386.028C114.977 385.479 114.821 385.025 114.495 384.682L114.267 384.898C114.526 385.171 114.663 385.541 114.663 386.028H114.977ZM114.495 384.682C114.17 384.34 113.748 384.172 113.245 384.172V384.486C113.671 384.486 114.007 384.625 114.267 384.898L114.495 384.682ZM113.245 384.172C112.733 384.172 112.293 384.344 111.932 384.688L112.149 384.915C112.449 384.629 112.811 384.486 113.245 384.486V384.172ZM111.931 384.689C111.568 385.044 111.389 385.498 111.389 386.039H111.703C111.703 385.575 111.854 385.204 112.151 384.914L111.931 384.689ZM111.389 386.039V389.279H111.703V386.039H111.389ZM111.546 389.122H110.702V389.436H111.546V389.122ZM110.859 389.279V383.654H110.545V389.279H110.859ZM110.702 383.811H111.546V383.497H110.702V383.811ZM122.025 388.379H122.182V387.87L121.895 388.291L122.025 388.379ZM118.031 388.526L117.914 388.63L117.915 388.631L118.031 388.526ZM118.031 384.408L117.915 384.302L117.914 384.303L118.031 384.408ZM122.025 384.565L121.896 384.654L122.182 385.072V384.565H122.025ZM122.025 383.654V383.497H121.868V383.654H122.025ZM122.869 383.654H123.026V383.497H122.869V383.654ZM122.869 389.279V389.436H123.026V389.279H122.869ZM122.025 389.279H121.868V389.436H122.025V389.279ZM121.564 387.974L121.444 387.873L121.444 387.873L121.564 387.974ZM121.564 384.959L121.444 385.06L121.444 385.061L121.564 384.959ZM118.661 384.959L118.544 384.854L118.544 384.855L118.661 384.959ZM118.661 387.974L118.544 388.078L118.544 388.079L118.661 387.974ZM121.895 388.291C121.478 388.902 120.859 389.212 120.011 389.212V389.526C120.949 389.526 121.672 389.176 122.155 388.468L121.895 388.291ZM120.011 389.212C119.242 389.212 118.625 388.947 118.147 388.42L117.915 388.631C118.457 389.229 119.16 389.526 120.011 389.526V389.212ZM118.148 388.421C117.681 387.898 117.445 387.25 117.445 386.467H117.131C117.131 387.319 117.391 388.043 117.914 388.63L118.148 388.421ZM117.445 386.467C117.445 385.683 117.681 385.035 118.148 384.512L117.914 384.303C117.391 384.89 117.131 385.615 117.131 386.467H117.445ZM118.147 384.513C118.624 383.987 119.258 383.721 120.067 383.721V383.407C119.181 383.407 118.458 383.703 117.915 384.302L118.147 384.513ZM120.067 383.721C120.866 383.721 121.469 384.031 121.896 384.654L122.155 384.476C121.666 383.764 120.964 383.407 120.067 383.407V383.721ZM122.182 384.565V383.654H121.868V384.565H122.182ZM122.025 383.811H122.869V383.497H122.025V383.811ZM122.712 383.654V389.279H123.026V383.654H122.712ZM122.869 389.122H122.025V389.436H122.869V389.122ZM122.182 389.279V388.379H121.868V389.279H122.182ZM120.124 388.761C120.772 388.761 121.298 388.535 121.684 388.075L121.444 387.873C121.124 388.254 120.691 388.447 120.124 388.447V388.761ZM121.684 388.076C122.049 387.645 122.227 387.105 122.227 386.467H121.913C121.913 387.043 121.754 387.508 121.444 387.873L121.684 388.076ZM122.227 386.467C122.227 385.828 122.049 385.288 121.684 384.857L121.444 385.061C121.754 385.425 121.913 385.89 121.913 386.467H122.227ZM121.684 384.858C121.298 384.398 120.772 384.172 120.124 384.172V384.486C120.691 384.486 121.124 384.679 121.444 385.06L121.684 384.858ZM120.124 384.172C119.482 384.172 118.951 384.399 118.544 384.854L118.778 385.064C119.121 384.679 119.565 384.486 120.124 384.486V384.172ZM118.544 384.855C118.162 385.285 117.975 385.827 117.975 386.467H118.289C118.289 385.892 118.455 385.428 118.779 385.063L118.544 384.855ZM117.975 386.467C117.975 387.107 118.162 387.648 118.544 388.078L118.779 387.87C118.455 387.505 118.289 387.042 118.289 386.467H117.975ZM118.544 388.079C118.951 388.535 119.482 388.761 120.124 388.761V388.447C119.565 388.447 119.121 388.254 118.778 387.87L118.544 388.079ZM125.735 384.565H125.578V385.072L125.865 384.654L125.735 384.565ZM129.718 384.408L129.601 384.512L129.602 384.513L129.718 384.408ZM129.718 388.526L129.602 388.42L129.601 388.421L129.718 388.526ZM125.735 388.379L125.865 388.291L125.578 387.87V388.379H125.735ZM125.735 389.279V389.436H125.892V389.279H125.735ZM124.891 389.279H124.734V389.436H124.891V389.279ZM124.891 381.404V381.247H124.734V381.404H124.891ZM125.735 381.404H125.892V381.247H125.735V381.404ZM129.099 387.974L129.216 388.079L129.217 388.078L129.099 387.974ZM129.099 384.959L129.217 384.855L129.216 384.854L129.099 384.959ZM126.196 384.959L126.316 385.061L126.317 385.06L126.196 384.959ZM126.196 387.974L126.317 387.873L126.316 387.873L126.196 387.974ZM125.865 384.654C126.29 384.034 126.91 383.721 127.749 383.721V383.407C126.818 383.407 126.095 383.762 125.606 384.476L125.865 384.654ZM127.749 383.721C128.518 383.721 129.131 383.986 129.601 384.512L129.835 384.303C129.3 383.704 128.6 383.407 127.749 383.407V383.721ZM129.602 384.513C130.076 385.036 130.315 385.684 130.315 386.467H130.629C130.629 385.614 130.366 384.889 129.834 384.302L129.602 384.513ZM130.315 386.467C130.315 387.249 130.076 387.897 129.602 388.42L129.834 388.631C130.366 388.044 130.629 387.319 130.629 386.467H130.315ZM129.601 388.421C129.132 388.946 128.499 389.212 127.682 389.212V389.526C128.575 389.526 129.299 389.231 129.835 388.63L129.601 388.421ZM127.682 389.212C126.882 389.212 126.284 388.905 125.865 388.291L125.605 388.468C126.087 389.174 126.786 389.526 127.682 389.526V389.212ZM125.578 388.379V389.279H125.892V388.379H125.578ZM125.735 389.122H124.891V389.436H125.735V389.122ZM125.048 389.279V381.404H124.734V389.279H125.048ZM124.891 381.561H125.735V381.247H124.891V381.561ZM125.578 381.404V384.565H125.892V381.404H125.578ZM127.637 388.761C128.278 388.761 128.809 388.535 129.216 388.079L128.982 387.87C128.639 388.254 128.195 388.447 127.637 388.447V388.761ZM129.217 388.078C129.598 387.648 129.785 387.107 129.785 386.467H129.471C129.471 387.042 129.305 387.505 128.982 387.87L129.217 388.078ZM129.785 386.467C129.785 385.827 129.598 385.285 129.217 384.855L128.982 385.063C129.305 385.428 129.471 385.892 129.471 386.467H129.785ZM129.216 384.854C128.809 384.399 128.278 384.172 127.637 384.172V384.486C128.195 384.486 128.639 384.679 128.982 385.064L129.216 384.854ZM127.637 384.172C126.988 384.172 126.462 384.398 126.076 384.858L126.317 385.06C126.636 384.679 127.07 384.486 127.637 384.486V384.172ZM126.077 384.857C125.711 385.288 125.533 385.828 125.533 386.467H125.847C125.847 385.89 126.006 385.425 126.316 385.061L126.077 384.857ZM125.533 386.467C125.533 387.105 125.711 387.645 126.077 388.076L126.316 387.873C126.006 387.508 125.847 387.043 125.847 386.467H125.533ZM126.076 388.075C126.462 388.535 126.988 388.761 127.637 388.761V388.447C127.07 388.447 126.636 388.254 126.317 387.873L126.076 388.075ZM132.978 389.279V389.436H133.135V389.279H132.978ZM132.134 389.279H131.977V389.436H132.134V389.279ZM132.134 381.404V381.247H131.977V381.404H132.134ZM132.978 381.404H133.135V381.247H132.978V381.404ZM132.978 389.122H132.134V389.436H132.978V389.122ZM132.291 389.279V381.404H131.977V389.279H132.291ZM132.134 381.561H132.978V381.247H132.134V381.561ZM132.821 381.404V389.279H133.135V381.404H132.821ZM139.145 387.659V387.502H139.05L139.006 387.586L139.145 387.659ZM140.067 387.659L140.214 387.715L140.295 387.502H140.067V387.659ZM139.133 388.897L139.04 388.77L139.039 388.771L139.133 388.897ZM135.432 388.526L135.318 388.633L135.318 388.634L135.432 388.526ZM135.398 384.408L135.283 384.3L135.282 384.302L135.398 384.408ZM139.493 384.408L139.609 384.302L139.608 384.3L139.493 384.408ZM140.236 386.804V386.961H140.393V386.804H140.236ZM135.522 386.804V386.647H135.345L135.366 386.822L135.522 386.804ZM136.141 388.087L136.249 387.973L136.249 387.973L136.141 388.087ZM136.141 384.813L136.035 384.697L136.033 384.698L136.141 384.813ZM135.533 386.017L135.378 385.993L135.35 386.174H135.533V386.017ZM139.358 386.017V386.174H139.541L139.514 385.993L139.358 386.017ZM138.751 384.813L138.858 384.698L138.857 384.697L138.751 384.813ZM137.513 388.761C137.914 388.761 138.268 388.678 138.568 388.504C138.869 388.33 139.107 388.07 139.284 387.732L139.006 387.586C138.852 387.879 138.653 388.091 138.411 388.232C138.167 388.373 137.87 388.447 137.513 388.447V388.761ZM139.145 387.816H140.067V387.502H139.145V387.816ZM139.921 387.603C139.736 388.086 139.443 388.474 139.04 388.77L139.226 389.023C139.679 388.69 140.008 388.253 140.214 387.715L139.921 387.603ZM139.039 388.771C138.653 389.061 138.145 389.212 137.502 389.212V389.526C138.194 389.526 138.774 389.363 139.228 389.022L139.039 388.771ZM137.502 389.212C136.693 389.212 136.046 388.946 135.546 388.418L135.318 388.634C135.883 389.231 136.616 389.526 137.502 389.526V389.212ZM135.546 388.418C135.059 387.902 134.812 387.256 134.812 386.467H134.498C134.498 387.328 134.77 388.054 135.318 388.633L135.546 388.418ZM134.812 386.467C134.812 385.668 135.049 385.021 135.514 384.514L135.282 384.302C134.757 384.875 134.498 385.6 134.498 386.467H134.812ZM135.513 384.515C136.005 383.987 136.645 383.721 137.446 383.721V383.407C136.566 383.407 135.841 383.703 135.283 384.3L135.513 384.515ZM137.446 383.721C138.247 383.721 138.886 383.987 139.379 384.515L139.608 384.3C139.051 383.703 138.325 383.407 137.446 383.407V383.721ZM139.378 384.514C139.842 385.021 140.079 385.668 140.079 386.467H140.393C140.393 385.6 140.134 384.875 139.609 384.302L139.378 384.514ZM140.079 386.467V386.804H140.393V386.467H140.079ZM140.236 386.647H135.522V386.961H140.236V386.647ZM135.366 386.822C135.43 387.373 135.651 387.836 136.032 388.2L136.249 387.973C135.925 387.663 135.734 387.27 135.678 386.786L135.366 386.822ZM136.032 388.2C136.425 388.576 136.923 388.761 137.513 388.761V388.447C136.994 388.447 136.577 388.287 136.249 387.973L136.032 388.2ZM137.446 384.172C136.892 384.172 136.419 384.346 136.035 384.697L136.247 384.929C136.568 384.635 136.964 384.486 137.446 384.486V384.172ZM136.033 384.698C135.675 385.032 135.457 385.467 135.378 385.993L135.688 386.04C135.759 385.576 135.946 385.208 136.248 384.928L136.033 384.698ZM135.533 386.174H139.358V385.86H135.533V386.174ZM139.514 385.993C139.434 385.467 139.217 385.032 138.858 384.698L138.644 384.928C138.945 385.208 139.133 385.576 139.203 386.04L139.514 385.993ZM138.857 384.697C138.473 384.346 137.999 384.172 137.446 384.172V384.486C137.928 384.486 138.324 384.635 138.645 384.929L138.857 384.697Z" fill="#567FD5"/>
<defs>
<filter id="filter0_d" x="0.411621" y="1" width="242.401" height="518.682" filterUnits="userSpaceOnUse" color-interpolation-filters="sRGB">
<feFlood flood-opacity="0" result="BackgroundImageFix"/>
<feColorMatrix in="SourceAlpha" type="matrix" values="0 0 0 0 0 0 0 0 0 0 0 0 0 0 0 0 0 0 127 0"/>
<feOffset dy="4"/>
<feGaussianBlur stdDeviation="2"/>
<feColorMatrix type="matrix" values="0 0 0 0 0.478431 0 0 0 0 0.478431 0 0 0 0 0.478431 0 0 0 0.4 0"/>
<feBlend mode="normal" in2="BackgroundImageFix" result="effect1_dropShadow"/>
<feBlend mode="normal" in="SourceGraphic" in2="effect1_dropShadow" result="shape"/>
</filter>
</defs>
</svg>
