<?xml version="1.0" encoding="UTF-8"?>
<svg width="256px" height="256px" viewBox="0 0 256 256" version="1.1" xmlns="http://www.w3.org/2000/svg" xmlns:xlink="http://www.w3.org/1999/xlink">
    <!-- Generator: Sketch 54.1 (76490) - https://sketchapp.com -->
    <title>chequing</title>
    <desc>Created with Sketch.</desc>
    <g id="chequing" stroke="none" stroke-width="1" fill="none" fill-rule="evenodd">
        <g id="Icons/Illustrative/Oval" fill="#F2F3F2">
            <circle id="Oval" cx="128" cy="128" r="128"></circle>
        </g>
        <g transform="translate(57.000000, 70.000000)" fill-rule="nonzero">
            <rect id="Rectangle" fill="#C42040" x="0.31" y="0.28" width="141.39" height="73.21" rx="5.05"></rect>
            <polygon id="Path" fill="#FFFFFF" points="129.49 22.89 12.51 22.89 12.51 15.63 123.2 15.63 129.49 15.63"></polygon>
            <polygon id="Path" fill="#FFFFFF" points="129.49 36.31 12.51 36.31 12.51 29.05 123.61 29.05 129.49 29.05"></polygon>
            <path d="M23.71,55.78 C27.22,53.47 30.07,50.53 30.18,47.14 L30.18,46.37 C28.54,47.13 24.75,51.57 23.71,55.78 Z M65,62 C61.81,63.68 59,64.06 56.61,63 C54.9877224,62.2270242 53.6760861,60.9259656 52.89,59.31 L47.64,61.64 C44.96,62.85 42.81,62.88 41.22,61.76 C40.7213915,61.3943454 40.3056491,60.9274871 40,60.39 C36.123882,64.6898166 30.015869,66.1880833 24.59,64.17 C23.0682058,63.6805737 21.7796858,62.648334 20.97,61.27 C18.5447347,62.4198286 16.0379282,63.3891271 13.47,64.17 L12.55,60.93 C15.1623339,60.152353 17.7019387,59.1485567 20.14,57.93 C20.1377877,56.9796449 20.251971,56.0325955 20.48,55.11 C21.84,49.51 27.19,42.5 30.95,43 C31.78,43.12 33.71,43.8 33.58,47.33 C33.39,52.76 28.73,56.87 23.95,59.67 C24.3254759,60.2904647 24.9053716,60.760746 25.59,61 C34.53,64.18 39.12,56 39.33,55.7 C39.7049776,55.0216627 40.4974008,54.690483 41.2435521,54.9002635 C41.9897034,55.1100441 42.493448,55.8056416 42.46,56.58 C42.46,57.17 42.46,58.58 43.18,59.07 C43.9,59.56 44.86,59.27 46.27,58.63 L52.98,55.63 C53.4287955,55.4144582 53.9512045,55.4144582 54.4,55.63 C54.842415,55.8499189 55.1672709,56.2514261 55.29,56.73 C55.656664,58.1574787 56.592885,59.3720356 57.88,60.09 C59.7345636,60.6219694 61.7301954,60.2875266 63.31,59.18 L65,62 Z" id="Shape" fill="#FFFFFF"></path>
            <path d="M4.65,108.06 L22.14,115.06 L22.14,99.06 L4.65,106.06 C4.27628443,106.253701 4.04120958,106.63907 4.03999635,107.06 C4.03892641,107.481572 4.27466912,107.868035 4.65,108.06 L4.65,108.06 Z" id="Path" fill="#C42040"></path>
            <path d="M22.14,99 L22.14,115 L127.43,115 L127.43,112.9 L133,112.9 C135.761424,112.9 138,110.661424 138,107.9 L138,106 C138,103.238576 135.761424,101 133,101 L127.47,101 L127.47,99 L22.14,99 Z" id="Path" fill="#8B1D41"></path>
        </g>
    </g>
</svg>