<?xml version="1.0" encoding="UTF-8"?>
<svg width="256px" height="256px" viewBox="0 0 256 256" version="1.1" xmlns="http://www.w3.org/2000/svg" xmlns:xlink="http://www.w3.org/1999/xlink">
    <!-- Generator: Sketch 54.1 (76490) - https://sketchapp.com -->
    <title>compare</title>
    <desc>Created with Sketch.</desc>
    <g id="compare" stroke="none" stroke-width="1" fill="none" fill-rule="evenodd">
        <g id="Icons/Illustrative/Oval" fill="#F2F3F2">
            <circle id="Oval" cx="128" cy="128" r="128"></circle>
        </g>
        <g transform="translate(64.000000, 65.000000)" fill-rule="nonzero" id="Path">
            <path d="M128.67,125.81 L128.67,66.56 C128.659145,65.3605445 127.689455,64.3908555 126.49,64.38 L96.16,64.38 C95.5570098,64.3906719 94.9581663,64.2783887 94.4,64.05 C92.7872146,63.3758202 91.7379807,61.7980249 91.74,60.05 L91.74,29.65 C91.74,28.4460192 90.7639808,27.47 89.56,27.47 L64.69,27.47 L72.9,35.75 C73.801506,36.8804803 74.2474058,38.3073597 74.15,39.75 L74.39,101.37 L57,101.37 L57,125.8 L128.67,125.81 Z" fill="#8B1D41"></path>
            <path d="M94.24,30.58 L94.24,59.7 C94.24,60.9039808 95.2160192,61.88 96.42,61.88 L125.54,61.88 L94.24,30.58 Z" fill="#C42040"></path>
            <path d="M37.4,3.64 L37.4,32.76 C37.4054748,33.9617057 38.3782943,34.9345252 39.58,34.94 L68.7,34.94 L37.4,3.64 Z" fill="#8B1D41"></path>
            <path d="M71.81,98.88 L71.81,39.63 C71.7991445,38.4305445 70.8294555,37.4608555 69.63,37.45 L39.2,37.45 C36.8141299,37.45 34.88,35.5158701 34.88,33.13 L34.88,2.73 C34.8826601,2.15009736 34.6541571,1.59303336 34.2450391,1.18203869 C33.8359211,0.771044016 33.2799087,0.539993899 32.7,0.54 L0.11,0.54 L0.11,98.88 L71.81,98.88 Z" fill="#C42040"></path>
            <polygon fill="#FFFFFF" points="79.69 88.41 87.26 95.83 89.46 93.8 85.57 89.95 108.3 89.95 108.3 88.41 108.3 86.87 85.57 86.87 89.46 83.02 87.26 80.99"></polygon>
            <polygon fill="#FFFFFF" points="51.3 67.16 43.73 74.58 41.53 72.55 45.42 68.69 22.7 68.69 22.7 67.16 22.7 65.62 45.42 65.62 41.53 61.77 43.73 59.74"></polygon>
        </g>
    </g>
</svg>