<?xml version="1.0" encoding="UTF-8"?>
<svg width="256px" height="256px" viewBox="0 0 256 256" version="1.1" xmlns="http://www.w3.org/2000/svg" xmlns:xlink="http://www.w3.org/1999/xlink">
    <!-- Generator: Sketch 54.1 (76490) - https://sketchapp.com -->
    <title>did-you-know</title>
    <desc>Created with Sketch.</desc>
    <g id="did-you-know" stroke="none" stroke-width="1" fill="none" fill-rule="evenodd">
        <g id="Icons/Illustrative/Oval" fill="#F2F3F2">
            <circle id="Oval" cx="128" cy="128" r="128"></circle>
        </g>
        <g transform="translate(63.000000, 48.000000)" fill-rule="nonzero">
            <path d="M64.46,-1.35525272e-20 C33.0389586,0.0128156474 6.20359382,22.6753823 0.930600838,53.650817 C-4.34239215,84.6262516 13.4829971,114.891483 43.13,125.3 L43.13,124.9 C43.1298797,123.825985 43.4616855,122.778177 44.08,121.9 C43.197151,120.928584 42.7086105,119.662658 42.71,118.35 L42.71,112.35 C42.7704111,103.784018 39.7340382,95.4845983 34.16,88.98 C23.9717719,77.2283391 21.4765175,60.6540659 27.7531437,46.4236235 C34.02977,32.1931812 47.9519648,22.8601581 63.5,22.46 L64.5,22.46 C80.2369567,22.4712551 94.5164537,31.6751833 101.025696,46.0028381 C107.534939,60.330493 105.073675,77.1399697 94.73,89 C89.1829542,95.4436701 86.156439,103.677781 86.21,112.18 L86.21,118.37 C86.2150924,119.681501 85.7300529,120.947597 84.85,121.92 C85.4860939,122.792246 85.8355278,123.840547 85.85,124.92 L85.85,125.32 C115.538499,114.928268 133.394106,84.6291132 128.101865,53.6228675 C122.809625,22.6166217 95.91462,-0.0443619269 64.46,-1.35525272e-20 Z" id="Path" fill="#8B1D41"></path>
            <path d="M102.36,62.35 C102.367612,45.5225802 91.2790329,30.7051484 75.1325766,25.9665764 C58.9861203,21.2280043 41.6487174,27.7031372 32.5614967,41.8659242 C23.474276,56.0287112 24.8135445,74.487293 35.85,87.19 C41.7061959,94.0199329 44.9018131,102.733316 44.85,111.73 L44.85,117.73 C44.8554538,119.529811 46.3102145,120.989034 48.11,121 L80.82,121 C82.6236919,120.994509 84.0845093,119.533692 84.09,117.73 L84.09,111.57 C84.0476516,102.635224 87.2451016,93.9878978 93.09,87.23 C99.08759,80.330885 102.381014,71.4915771 102.36,62.35 Z" id="Path" fill="#CB1943"></path>
            <path d="M80.43,121 L48.5,121 C46.7050746,121 45.25,122.455075 45.25,124.25 L45.25,146.25 C45.25,148.044925 46.7050746,149.5 48.5,149.5 L49.05,149.5 C51.1342773,156.265202 57.3860055,160.880824 64.465,160.880824 C71.5439945,160.880824 77.7957227,156.265202 79.88,149.5 L80.43,149.5 C82.2249254,149.5 83.68,148.044925 83.68,146.25 L83.68,124.25 C83.68,122.455075 82.2249254,121 80.43,121 L80.43,121 Z" id="Path" fill="#7B003A"></path>
            <path d="M77.89,83.23 C77.8837851,78.3540393 74.3281517,74.208629 69.51,73.46 L69.51,59.6 L76.35,59.6 L76.35,56.6 L69.51,56.6 L69.51,48.87 C69.5045149,47.3369262 68.2630738,46.0954851 66.73,46.09 L62.17,46.09 C60.6385551,46.0955088 59.3999901,47.3385452 59.4,48.87 L59.4,56.68 C54.5026378,57.3455842 50.8505262,61.527616 50.8505262,66.47 C50.8505262,71.412384 54.5026378,75.5944158 59.4,76.26 L59.4,90.1 L52.34,90.1 L52.34,93.1 L59.4,93.1 L59.4,121 L62.4,121 L62.4,49.1 L66.5,49.1 L66.5,121 L69.5,121 L69.5,93 C74.3221242,92.2558019 77.8830176,88.1092073 77.89,83.23 Z M53.89,66.47 C53.8948787,63.1868892 56.2188144,60.3646682 59.44,59.73 L59.44,73.21 C56.2029164,72.5920996 53.8586148,69.7655177 53.85,66.47 L53.89,66.47 Z M69.51,89.93 L69.51,76.53 C72.6559713,77.2216236 74.8970438,80.008901 74.8970438,83.23 C74.8970438,86.451099 72.6559713,89.2383764 69.51,89.93 L69.51,89.93 Z" id="Shape" fill="#FFFFFF"></path>
        </g>
    </g>
</svg>