<?xml version="1.0" encoding="UTF-8"?>
<svg width="256px" height="256px" viewBox="0 0 256 256" version="1.1" xmlns="http://www.w3.org/2000/svg" xmlns:xlink="http://www.w3.org/1999/xlink">
    <!-- Generator: Sketch 54.1 (76490) - https://sketchapp.com -->
    <title>savings</title>
    <desc>Created with Sketch.</desc>
    <g id="savings" stroke="none" stroke-width="1" fill="none" fill-rule="evenodd">
        <g id="Icons/Illustrative/Oval" fill="#F2F3F2">
            <circle id="Oval" cx="128" cy="128" r="128"></circle>
        </g>
        <g transform="translate(90.000000, 61.000000)" fill-rule="nonzero">
            <path d="M72.14,43.45 L62.34,34.38 L13.7,34.38 L4.29,43.45 C1.5123779,46.9249197 -0.000497898678,51.2413765 -1.77635681e-15,55.69 L-1.77635681e-15,123.05 C-1.05333465e-15,128.953924 4.78607602,133.74 10.69,133.74 L65.74,133.74 C68.5759779,133.742657 71.296565,132.617245 73.3019051,130.611905 C75.3072452,128.606565 76.4326567,125.885978 76.43,123.05 L76.43,55.69 C76.4304979,51.2413765 74.9176221,46.9249197 72.14,43.45 Z" id="Path" fill="#C41F3F"></path>
            <rect id="Rectangle" fill="#C41F3F" x="11.84" y="25.76" width="52.33" height="6.25" rx="3.12"></rect>
            <circle id="Oval" fill="#FFFFFF" cx="54.21" cy="62.24" r="14.72"></circle>
            <path d="M58.05,14.71 C58.0513293,17.7761084 57.0932336,20.7657866 55.31,23.26 L31.31,23.26 C27.6226553,18.0849367 27.6751176,11.1271633 31.4400797,6.00829119 C35.2050417,0.889419068 41.8313182,-1.23327346 47.8698461,0.745102627 C53.9083739,2.72347872 57.9939585,8.35565074 58,14.71 L58.05,14.71 Z" id="Path" fill="#8B1D41"></path>
            <circle id="Oval" fill="#FFFFFF" cx="22.21" cy="83.36" r="14.72"></circle>
            <rect id="Rectangle" fill="#FFFFFF" x="32.99" y="100.73" width="30.31" height="7.47" rx="1.04"></rect>
            <rect id="Rectangle" fill="#FFFFFF" x="32.99" y="110.71" width="30.31" height="7.47" rx="1.04"></rect>
            <rect id="Rectangle" fill="#FFFFFF" x="27.23" y="120.67" width="30.31" height="7.47" rx="1.04"></rect>
            <path d="M54.22,66.4 C55.7,66.4 56.45,65.79 56.45,64.7 C56.45,63.88 56.11,63.34 54.7,62.84 L54.16,66.4 L54.22,66.4 Z M54.22,57.23 C52.92,57.23 52.29,57.79 52.29,58.7 C52.29,59.61 52.68,59.92 53.97,60.38 L54.46,57.23 L54.22,57.23 Z M58,56.3 L57.69,58.21 C57.0400855,57.8203829 56.33067,57.5399949 55.59,57.38 L55.08,60.75 C57.39,61.53 58.48,62.5 58.48,64.49 C58.48,66.88 56.74,68.16 54.12,68.16 L54,68.16 L53.67,70.35 L52.38,70.07 C52.38,70.07 52.7,68.07 52.68,68.07 C51.7444553,67.9200508 50.8393916,67.6194886 50,67.18 L50.29,65.27 C51.1659193,65.7699376 52.1244426,66.1086384 53.12,66.27 L53.68,62.43 C51.45,61.67 50.31,60.88 50.31,58.94 C50.31,56.72 51.93,55.5 54.49,55.5 L54.67,55.5 L54.89,54.11 L56.19,54.4 L56,55.65 C56.6936616,55.7725591 57.3668223,55.9913364 58,56.3 L58,56.3 Z" id="Shape" fill="#8B1D41"></path>
            <path d="M22.22,88.22 C23.7,88.22 24.45,87.61 24.45,86.52 C24.45,85.7 24.11,85.16 22.7,84.67 L22.16,88.22 L22.22,88.22 Z M22.22,79.05 C20.92,79.05 20.29,79.61 20.29,80.52 C20.29,81.43 20.68,81.74 21.97,82.2 L22.46,79.05 L22.22,79.05 Z M26,78.12 L25.67,80 C25.0200855,79.6103829 24.31067,79.3299949 23.57,79.17 L23.06,82.54 C25.37,83.32 26.46,84.29 26.46,86.28 C26.46,88.67 24.72,89.95 22.1,89.95 L22,89.95 L21.67,92.14 L20.38,91.86 C20.38,91.86 20.7,89.86 20.68,89.86 C19.746192,89.719489 18.8412065,89.4290832 18,89 L18.29,87.09 C19.1659193,87.5899376 20.1244426,87.9286384 21.12,88.09 L21.68,84.25 C19.45,83.49 18.31,82.7 18.31,80.76 C18.31,78.54 19.93,77.32 22.49,77.32 L22.67,77.32 L22.84,76 L24.14,76.3 L24,77.47 C24.6936616,77.5925591 25.3668223,77.8113364 26,78.12 L26,78.12 Z" id="Shape" fill="#8B1D41"></path>
            <path d="M43.35,18.32 C44.83,18.32 45.57,17.7 45.57,16.61 C45.57,15.79 45.24,15.26 43.83,14.76 L43.29,18.32 L43.35,18.32 Z M43.29,9.14 C42,9.14 41.36,9.7 41.36,10.61 C41.36,11.52 41.76,11.83 43.05,12.3 L43.54,9.14 L43.29,9.14 Z M47.11,8.22 L46.8,10.12 C46.1500855,9.73038286 45.44067,9.44999486 44.7,9.29 L44.19,12.66 C46.5,13.44 47.59,14.41 47.59,16.4 C47.59,18.8 45.85,20.07 43.23,20.07 L43.14,20.07 L42.81,22.26 L41.52,22 C41.52,22 41.84,20 41.82,20 C40.8645241,19.8591866 39.9387864,19.5618694 39.08,19.12 L39.37,17.22 C40.2402339,17.7245036 41.196343,18.0635494 42.19,18.22 L42.76,14.39 C40.53,13.63 39.39,12.83 39.39,10.89 C39.39,8.67 41.01,7.45 43.57,7.45 L43.75,7.45 L44,6 L45.3,6.3 L45.12,7.52 C45.8113241,7.66446956 46.4804735,7.89984875 47.11,8.22 Z" id="Shape" fill="#FFFFFF"></path>
        </g>
    </g>
</svg>