<svg width="280" height="143" viewBox="0 0 280 143" fill="none" xmlns="http://www.w3.org/2000/svg">
<rect width="280" height="143" fill="#CEA1A1"/>
<g clip-path="url(#clip0)">
<path d="M183.399 53.7606C180.277 47.6663 172.781 45.2461 166.685 48.3646L104.044 80.4303C104.015 80.4454 103.993 80.4687 103.965 80.486C103.927 80.5086 103.893 80.5351 103.857 80.5612C103.756 80.6359 103.669 80.7223 103.591 80.8221C103.569 80.8524 103.542 80.8771 103.522 80.9083C103.513 80.9201 103.501 80.9307 103.493 80.9426L92.556 98.9436C92.5066 99.0248 92.4725 99.1124 92.4415 99.1995C92.436 99.2166 92.4256 99.2307 92.4201 99.2477C92.3731 99.3978 92.3589 99.5542 92.3647 99.7112C92.3659 99.7479 92.3697 99.781 92.374 99.8172C92.393 99.9784 92.4294 100.14 92.5059 100.289C92.5904 100.454 92.7065 100.597 92.8442 100.714C92.9819 100.831 93.1407 100.919 93.3101 100.973C93.4112 101.006 93.5174 101.027 93.6248 101.036L114.623 102.689C114.661 102.693 114.699 102.683 114.737 102.683C114.786 102.682 114.834 102.679 114.883 102.673C114.992 102.66 115.097 102.635 115.199 102.597C115.239 102.582 115.278 102.574 115.317 102.557C115.331 102.549 115.346 102.548 115.359 102.541L178.002 70.4747C184.099 67.3537 186.519 59.8559 183.399 53.7606ZM180.943 55.0179C183.155 59.341 181.777 64.5625 177.923 67.2913L169.221 50.2911C173.689 48.7612 178.731 50.6962 180.943 55.0179ZM168.148 72.4191L159.345 55.2226L161.801 53.9653L170.604 71.1618L168.148 72.4191ZM100.618 96.1365C100.27 95.4573 99.4403 95.1894 98.7611 95.537L97.4462 96.2101L105.348 83.2059L111.362 84.4357L108.444 90.9202C108.422 90.9684 108.426 91.0203 108.41 91.0689C108.394 91.1188 108.361 91.1575 108.351 91.2091C108.342 91.2541 108.353 91.2968 108.348 91.3418C108.34 91.423 108.339 91.4998 108.344 91.5796C108.351 91.676 108.366 91.7666 108.392 91.8576C108.413 91.9311 108.437 91.9981 108.47 92.0667C108.511 92.154 108.561 92.2326 108.619 92.3092C108.665 92.369 108.709 92.4253 108.765 92.478C108.838 92.5467 108.921 92.5996 109.008 92.6525C109.054 92.6804 109.086 92.7211 109.135 92.7442C109.181 92.7647 109.227 92.7826 109.276 92.7983L109.277 92.7987L109.279 92.7991L109.28 92.7996L109.281 92.8C109.328 92.8152 109.378 92.8283 109.427 92.8383L116.394 94.2625L113.874 99.8609L98.7035 98.6663L100.018 97.9932C100.696 97.6464 100.964 96.8152 100.618 96.1365ZM119.42 94.2622L158.292 74.3627C158.971 74.015 159.239 73.1852 158.891 72.506C158.543 71.8268 157.713 71.5589 157.034 71.9066L118.163 91.806L111.671 90.4786L114.39 84.4358L153.264 64.5385C153.943 64.1908 154.211 63.361 153.863 62.6818C153.515 62.0026 152.685 61.7347 152.006 62.0824L113.133 81.9797L108.803 81.0952L156.889 56.4799L165.692 73.6764L117.606 98.2917L119.42 94.2622ZM173.06 69.9045L164.257 52.708L166.715 51.4498L175.518 68.6463L173.06 69.9045Z" fill="#4A3333"/>
</g>
<defs>
<clipPath id="clip0">
<rect width="76.236" height="76.236" fill="white" transform="translate(115.422 28) rotate(17.8921)"/>
</clipPath>
</defs>
</svg>
