<svg width="280" height="143" viewBox="0 0 280 143" fill="none" xmlns="http://www.w3.org/2000/svg">
<rect width="280" height="143" fill="#B8A2CE"/>
<path d="M189.057 74.0647C175.581 60.4806 157.623 53 138.488 53C138.442 53 138.398 53.0035 138.352 53.0035C138.329 53.0035 138.307 53 138.286 53C138.222 53 138.16 53.0089 138.098 53.0089C119.11 53.1097 101.303 60.5727 87.9203 74.0647L87.5131 74.4753C86.8246 75.1692 86.8299 76.2897 87.5238 76.9783C87.8689 77.32 88.3203 77.4917 88.7699 77.4917C89.2249 77.4917 89.6816 77.3164 90.0267 76.9677L90.4339 76.557C99.7183 67.1983 111.247 60.9072 123.812 58.144C118.609 62.3658 115.274 68.8038 115.274 76.0118C115.274 88.7002 125.598 99.0236 138.286 99.0236C150.974 99.0236 161.298 88.7002 161.298 76.0118C161.298 68.7259 157.885 62.233 152.585 58.0148C165.376 60.709 177.116 67.0549 186.544 76.5588C187.232 77.2545 188.354 77.258 189.047 76.5694C189.74 75.8791 189.746 74.7586 189.057 74.0647ZM157.758 76.01C157.758 86.7459 149.022 95.4816 138.286 95.4816C127.55 95.4816 118.815 86.7459 118.815 76.01C118.815 65.3379 127.449 56.65 138.097 56.5474C138.182 56.5474 138.267 56.5421 138.352 56.5421C149.057 56.5792 157.758 65.2972 157.758 76.01Z" fill="#41275C"/>
<path d="M150.725 74.24C149.748 74.24 148.955 75.033 148.955 76.0101C148.955 81.8675 144.191 86.631 138.334 86.631C132.476 86.631 127.713 81.8675 127.713 76.0101C127.713 70.1527 132.476 65.3893 138.334 65.3893C139.311 65.3893 140.104 64.5963 140.104 63.6191C140.104 62.642 139.311 61.849 138.334 61.849C130.526 61.849 124.173 68.202 124.173 76.0101C124.173 83.8182 130.526 90.1712 138.334 90.1712C146.142 90.1712 152.495 83.8182 152.495 76.0101C152.495 75.033 151.702 74.24 150.725 74.24Z" fill="#41275C"/>
</svg>
