<svg width="90" height="84" viewBox="0 0 90 84" fill="none" xmlns="http://www.w3.org/2000/svg">
<path fill-rule="evenodd" clip-rule="evenodd" d="M46 10.2371C33.575 10.2371 23.5 20.3121 23.5 32.7371C23.5 45.1621 33.575 55.2371 46 55.2371C58.425 55.2371 68.5 45.1621 68.5 32.7371C68.5 20.3121 58.425 10.2371 46 10.2371ZM46 52.0001C35.5229 52.0001 27 43.4772 27 33.0001C27 22.5229 35.5229 14.0001 46 14.0001C56.4771 14.0001 65 22.5229 65 33.0001C65 43.4772 56.4771 52.0001 46 52.0001ZM44 31.2631V23.0001H48V31.2631H56V34.7631H48V43.0001H44V34.7631H36V31.2631H44Z" fill="#56CCF2"/>
<path d="M8.672 77.732H3.772L2.806 80H0.93L5.34 70.2H7.132L11.556 80H9.652L8.672 77.732ZM8.07 76.304L6.222 72.02L4.388 76.304H8.07ZM20.588 69.612V80H18.908V79.034C18.6186 79.3887 18.2593 79.6547 17.83 79.832C17.41 80.0093 16.9433 80.098 16.43 80.098C15.7113 80.098 15.0626 79.9393 14.484 79.622C13.9146 79.3047 13.4666 78.8567 13.14 78.278C12.8133 77.69 12.65 77.018 12.65 76.262C12.65 75.506 12.8133 74.8387 13.14 74.26C13.4666 73.6813 13.9146 73.2333 14.484 72.916C15.0626 72.5987 15.7113 72.44 16.43 72.44C16.9246 72.44 17.3773 72.524 17.788 72.692C18.1986 72.86 18.5486 73.112 18.838 73.448V69.612H20.588ZM16.64 78.6C17.06 78.6 17.438 78.5067 17.774 78.32C18.11 78.124 18.376 77.8487 18.572 77.494C18.768 77.1393 18.866 76.7287 18.866 76.262C18.866 75.7953 18.768 75.3847 18.572 75.03C18.376 74.6753 18.11 74.4047 17.774 74.218C17.438 74.022 17.06 73.924 16.64 73.924C16.22 73.924 15.842 74.022 15.506 74.218C15.17 74.4047 14.904 74.6753 14.708 75.03C14.512 75.3847 14.414 75.7953 14.414 76.262C14.414 76.7287 14.512 77.1393 14.708 77.494C14.904 77.8487 15.17 78.124 15.506 78.32C15.842 78.5067 16.22 78.6 16.64 78.6ZM30.8993 69.612V80H29.2193V79.034C28.93 79.3887 28.5706 79.6547 28.1413 79.832C27.7213 80.0093 27.2546 80.098 26.7413 80.098C26.0226 80.098 25.374 79.9393 24.7953 79.622C24.226 79.3047 23.778 78.8567 23.4513 78.278C23.1246 77.69 22.9613 77.018 22.9613 76.262C22.9613 75.506 23.1246 74.8387 23.4513 74.26C23.778 73.6813 24.226 73.2333 24.7953 72.916C25.374 72.5987 26.0226 72.44 26.7413 72.44C27.236 72.44 27.6886 72.524 28.0993 72.692C28.51 72.86 28.86 73.112 29.1493 73.448V69.612H30.8993ZM26.9513 78.6C27.3713 78.6 27.7493 78.5067 28.0853 78.32C28.4213 78.124 28.6873 77.8487 28.8833 77.494C29.0793 77.1393 29.1773 76.7287 29.1773 76.262C29.1773 75.7953 29.0793 75.3847 28.8833 75.03C28.6873 74.6753 28.4213 74.4047 28.0853 74.218C27.7493 74.022 27.3713 73.924 26.9513 73.924C26.5313 73.924 26.1533 74.022 25.8173 74.218C25.4813 74.4047 25.2153 74.6753 25.0193 75.03C24.8233 75.3847 24.7253 75.7953 24.7253 76.262C24.7253 76.7287 24.8233 77.1393 25.0193 77.494C25.2153 77.8487 25.4813 78.124 25.8173 78.32C26.1533 78.5067 26.5313 78.6 26.9513 78.6ZM41.3138 72.44C42.4151 72.44 43.2551 72.706 43.8338 73.238C44.4218 73.7607 44.7158 74.554 44.7158 75.618V80H43.0638V79.09C42.8491 79.4167 42.5411 79.6687 42.1398 79.846C41.7478 80.014 41.2718 80.098 40.7118 80.098C40.1518 80.098 39.6618 80.0047 39.2418 79.818C38.8218 79.622 38.4951 79.356 38.2618 79.02C38.0378 78.6747 37.9258 78.2873 37.9258 77.858C37.9258 77.186 38.1731 76.6493 38.6678 76.248C39.1718 75.8373 39.9604 75.632 41.0338 75.632H42.9658V75.52C42.9658 74.9973 42.8071 74.596 42.4898 74.316C42.1818 74.036 41.7198 73.896 41.1038 73.896C40.6838 73.896 40.2684 73.9613 39.8578 74.092C39.4564 74.2227 39.1158 74.4047 38.8358 74.638L38.1498 73.364C38.5418 73.0653 39.0131 72.8367 39.5638 72.678C40.1144 72.5193 40.6978 72.44 41.3138 72.44ZM41.0758 78.824C41.5144 78.824 41.9018 78.726 42.2378 78.53C42.5831 78.3247 42.8258 78.0353 42.9658 77.662V76.794H41.1598C40.1518 76.794 39.6478 77.1253 39.6478 77.788C39.6478 78.1053 39.7738 78.3573 40.0258 78.544C40.2778 78.7307 40.6278 78.824 41.0758 78.824ZM54.5408 80.098C53.9341 80.098 53.3415 80.0187 52.7628 79.86C52.1841 79.7013 51.7221 79.5007 51.3768 79.258L52.0488 77.928C52.3848 78.152 52.7861 78.334 53.2528 78.474C53.7288 78.6047 54.1955 78.67 54.6528 78.67C55.6981 78.67 56.2208 78.3947 56.2208 77.844C56.2208 77.5827 56.0855 77.4007 55.8148 77.298C55.5535 77.1953 55.1288 77.0973 54.5408 77.004C53.9248 76.9107 53.4208 76.8033 53.0288 76.682C52.6461 76.5607 52.3101 76.3507 52.0208 76.052C51.7408 75.744 51.6008 75.3193 51.6008 74.778C51.6008 74.0687 51.8948 73.504 52.4828 73.084C53.0801 72.6547 53.8828 72.44 54.8908 72.44C55.4041 72.44 55.9175 72.5007 56.4308 72.622C56.9441 72.734 57.3641 72.888 57.6908 73.084L57.0188 74.414C56.3841 74.0407 55.6701 73.854 54.8768 73.854C54.3635 73.854 53.9715 73.9333 53.7008 74.092C53.4395 74.2413 53.3088 74.442 53.3088 74.694C53.3088 74.974 53.4488 75.1747 53.7288 75.296C54.0181 75.408 54.4615 75.5153 55.0588 75.618C55.6561 75.7113 56.1461 75.8187 56.5288 75.94C56.9115 76.0613 57.2381 76.2667 57.5088 76.556C57.7888 76.8453 57.9288 77.256 57.9288 77.788C57.9288 78.488 57.6255 79.048 57.0188 79.468C56.4121 79.888 55.5861 80.098 54.5408 80.098ZM63.4959 80.098C62.7399 80.098 62.0586 79.9347 61.4519 79.608C60.8452 79.2813 60.3692 78.8287 60.0239 78.25C59.6879 77.662 59.5199 76.9993 59.5199 76.262C59.5199 75.5247 59.6879 74.8667 60.0239 74.288C60.3692 73.7093 60.8452 73.2567 61.4519 72.93C62.0586 72.6033 62.7399 72.44 63.4959 72.44C64.2612 72.44 64.9472 72.6033 65.5539 72.93C66.1606 73.2567 66.6319 73.7093 66.9679 74.288C67.3132 74.8667 67.4859 75.5247 67.4859 76.262C67.4859 76.9993 67.3132 77.662 66.9679 78.25C66.6319 78.8287 66.1606 79.2813 65.5539 79.608C64.9472 79.9347 64.2612 80.098 63.4959 80.098ZM63.4959 78.6C64.1399 78.6 64.6719 78.3853 65.0919 77.956C65.5119 77.5267 65.7219 76.962 65.7219 76.262C65.7219 75.562 65.5119 74.9973 65.0919 74.568C64.6719 74.1387 64.1399 73.924 63.4959 73.924C62.8519 73.924 62.3199 74.1387 61.8999 74.568C61.4892 74.9973 61.2839 75.562 61.2839 76.262C61.2839 76.962 61.4892 77.5267 61.8999 77.956C62.3199 78.3853 62.8519 78.6 63.4959 78.6ZM74.1013 72.44C75.044 72.44 75.8 72.7153 76.3693 73.266C76.9387 73.8167 77.2233 74.6333 77.2233 75.716V80H75.4733V75.94C75.4733 75.2867 75.3193 74.7967 75.0113 74.47C74.7033 74.134 74.2647 73.966 73.6953 73.966C73.0513 73.966 72.5427 74.162 72.1693 74.554C71.796 74.9367 71.6093 75.492 71.6093 76.22V80H69.8593V72.524H71.5253V73.49C71.8147 73.1447 72.1787 72.8833 72.6173 72.706C73.056 72.5287 73.5507 72.44 74.1013 72.44ZM87.6317 72.524V78.866C87.6317 81.498 86.2877 82.814 83.5997 82.814C82.881 82.814 82.1997 82.7207 81.5557 82.534C80.9117 82.3567 80.3797 82.0953 79.9597 81.75L80.7437 80.434C81.0703 80.7047 81.481 80.9193 81.9757 81.078C82.4797 81.246 82.9883 81.33 83.5017 81.33C84.323 81.33 84.925 81.1433 85.3077 80.77C85.6903 80.3967 85.8817 79.8273 85.8817 79.062V78.67C85.583 78.9967 85.219 79.244 84.7897 79.412C84.3603 79.58 83.889 79.664 83.3757 79.664C82.6663 79.664 82.0223 79.5147 81.4437 79.216C80.8743 78.908 80.4217 78.4787 80.0857 77.928C79.759 77.3773 79.5957 76.7473 79.5957 76.038C79.5957 75.3287 79.759 74.7033 80.0857 74.162C80.4217 73.6113 80.8743 73.1867 81.4437 72.888C82.0223 72.5893 82.6663 72.44 83.3757 72.44C83.917 72.44 84.407 72.5287 84.8457 72.706C85.2937 72.8833 85.667 73.154 85.9657 73.518V72.524H87.6317ZM83.6417 78.18C84.3043 78.18 84.8457 77.984 85.2657 77.592C85.695 77.1907 85.9097 76.6727 85.9097 76.038C85.9097 75.4127 85.695 74.904 85.2657 74.512C84.8457 74.12 84.3043 73.924 83.6417 73.924C82.9697 73.924 82.419 74.12 81.9897 74.512C81.5697 74.904 81.3597 75.4127 81.3597 76.038C81.3597 76.6727 81.5697 77.1907 81.9897 77.592C82.419 77.984 82.9697 78.18 83.6417 78.18Z" fill="#56CCF2"/>
</svg>
