<svg width="37" height="27" viewBox="0 0 37 27" fill="none" xmlns="http://www.w3.org/2000/svg">
<path d="M3.51029 8.35202C3.97294 8.65498 5.36752 9.55476 7.69411 11.0509C10.0208 12.5471 11.8031 13.6991 13.0413 14.507C13.1774 14.5955 13.4664 14.7881 13.9085 15.0848C14.3507 15.3817 14.7181 15.6216 15.0105 15.8047C15.3031 15.9876 15.6568 16.1929 16.072 16.4201C16.487 16.6471 16.8782 16.8178 17.2456 16.9309C17.613 17.0448 17.9531 17.1013 18.266 17.1013H18.2865H18.3071C18.62 17.1013 18.9603 17.0448 19.3277 16.9309C19.6949 16.8178 20.0865 16.6469 20.5012 16.4201C20.9161 16.1926 21.2698 15.9876 21.5624 15.8047C21.8549 15.6216 22.2221 15.3817 22.6644 15.0848C23.1065 14.7878 23.3958 14.5955 23.5319 14.507C24.7834 13.6991 27.9675 11.6472 33.0832 8.35162C34.0764 7.70796 34.9062 6.93129 35.5728 6.02215C36.2399 5.1134 36.5731 4.16008 36.5731 3.16271C36.5731 2.32926 36.2497 1.61581 35.6034 1.02243C34.9571 0.428915 34.1916 0.132324 33.3075 0.132324H3.26532C2.21772 0.132324 1.41152 0.460557 0.846871 1.11702C0.28229 1.77362 0 2.59434 0 3.5791C0 4.37455 0.37429 5.23652 1.12251 6.1645C1.87066 7.09255 2.66685 7.82179 3.51029 8.35202Z" fill="#4F4F4F"/>
<path d="M34.5319 10.3793C30.0696 13.1819 26.6812 15.36 24.3685 16.9132C23.593 17.4432 22.9639 17.857 22.4807 18.1535C21.9975 18.4502 21.355 18.7532 20.5521 19.0624C19.7494 19.3721 19.0014 19.5264 18.3074 19.5264H18.2866H18.2661C17.5722 19.5264 16.8237 19.3721 16.0211 19.0624C15.2185 18.7532 14.5755 18.4502 14.0925 18.1535C13.6096 17.857 12.9803 17.4432 12.2048 16.9132C10.3679 15.6633 6.98684 13.4851 2.06153 10.3793C1.28578 9.89982 0.598678 9.35025 0 8.73169V23.7684C0 24.6022 0.319605 25.3152 0.959172 25.9087C1.5986 26.5023 2.36748 26.799 3.26553 26.799H33.3078C34.2056 26.799 34.9745 26.5023 35.6139 25.9087C36.2537 25.315 36.5731 24.6023 36.5731 23.7684V8.73169C35.9879 9.33744 35.3078 9.88701 34.5319 10.3793Z" fill="#4F4F4F"/>
</svg>
