<svg width="31" height="30" viewBox="0 0 31 30" fill="none" xmlns="http://www.w3.org/2000/svg">
<path d="M28.5852 0H3.18757C1.97142 0 0.985718 0.957787 0.985718 2.13993V27.7266C0.985718 28.9088 1.97177 29.8674 3.18757 29.8674H28.5852C29.8011 29.8674 30.7857 28.9082 30.7857 27.7266V2.13993C30.7857 0.958134 29.8011 0 28.5852 0ZM10.0202 25.0011H5.51766V11.5163H10.0202V25.0011ZM7.76939 9.67404H7.73912C6.22921 9.67404 5.25043 8.63911 5.25043 7.34342C5.25043 6.02163 6.25796 5.01475 7.7978 5.01475C9.33778 5.01475 10.285 6.02136 10.315 7.34342C10.315 8.63938 9.33812 9.67404 7.76939 9.67404ZM26.2506 25.0011H21.7495V17.7862C21.7495 15.9734 21.0974 14.7364 19.4696 14.7364C18.2244 14.7364 17.4852 15.5709 17.1606 16.3766C17.0403 16.6644 17.0105 17.0668 17.0105 17.4688V25.0008H12.5102C12.5102 25.0008 12.5691 12.7808 12.5102 11.5161H17.0112V13.4278C17.6087 12.5092 18.6764 11.1988 21.0667 11.1988C24.0293 11.1988 26.2506 13.125 26.2506 17.2688V25.0011ZM16.9821 13.4707C16.9898 13.458 17.0005 13.4428 17.0112 13.428V13.4707H16.9821Z" fill="black"/>
</svg>
