<svg width="131" height="154" viewBox="0 0 131 154" fill="none" xmlns="http://www.w3.org/2000/svg">
<path d="M61.2916 19.9242C59.537 20.2139 34.9911 24.3567 38.1473 28.8975C41.4202 33.6063 57.7222 28.8975 54.9886 33.6063C52.2551 38.3151 35.3485 93.8087 31.1875 105.795C27.0265 117.781 5.93903 95.3258 0.600437 99.1386C-4.73816 102.951 26.8561 170.924 42.5857 149.781C58.3154 128.638 66.1113 35.7466 67.3916 28.8975C68.6541 22.1434 64.0547 20.1071 61.4969 19.9151C61.4249 19.9097 61.3628 19.9124 61.2916 19.9242Z" fill="#4F4F4F"/>
<path d="M110.559 69.4671C113.811 66.349 143.111 52.9567 125.293 53.9798C103.912 53.9798 70.0523 71.2682 55.7953 77.8907C48.9188 81.1139 53.0056 88.1572 54.9465 90.882C55.4344 91.5669 56.3149 91.7931 57.1014 91.4954C65.1364 88.4533 107.616 72.2893 110.559 69.4671Z" fill="#4F4F4F"/>
<path d="M104.023 65.5612L102.531 68.1902C102.336 68.5341 102.217 68.8694 102.172 69.2627C101.512 74.9683 96.0638 123.213 99.287 132.549C99.8944 134.308 103.11 134.759 104.963 134.956C106.985 135.17 110.112 134.606 114.719 131.723C122.523 126.838 113.484 83.7599 109.456 66.328C108.846 63.6883 105.355 63.2134 104.023 65.5612Z" fill="#4F4F4F"/>
<path d="M60.7683 116.93C57.9539 116.92 60.5126 104.583 61.5414 100.075C61.789 98.9904 62.0926 97.8201 63.1161 97.3447C63.766 97.0428 64.6541 96.762 65.7111 96.5023C75.9051 93.9979 85.2809 103.271 81.4555 113.071C80.5427 115.409 79.4015 116.997 77.9856 116.992L60.7683 116.93Z" fill="#4F4F4F"/>
<path d="M64.1824 109.105C63.1303 109.103 63.95 105.297 64.3716 103.586C64.5058 103.041 64.2745 102.887 64.7378 102.553C68.5124 99.8278 75.6301 107.979 71.1755 109.098C71.108 109.115 71.0386 109.124 70.9675 109.124L64.1824 109.105Z" fill="white"/>
<ellipse cx="67.1898" cy="6.06503" rx="6.16769" ry="6.06503" fill="#4F4F4F"/>
</svg>
