<svg width="24" height="32" viewBox="0 0 24 32" fill="none" xmlns="http://www.w3.org/2000/svg">
<path d="M6.95033 10.1843C6.95653 10.1822 7.54286 9.99762 7.54286 9.99762C7.96405 9.8651 8.41268 10.0939 8.56351 10.5182L9.36606 12.7753L10.1686 10.5181C10.3197 10.0938 10.769 9.86521 11.1893 9.99762C11.1893 9.99762 11.7756 10.1822 11.7818 10.1843C12.6557 10.4828 13.2774 11.2523 13.4162 12.1635V5.47262C13.4162 5.12991 13.1451 4.85205 12.8107 4.85205H5.92137C5.58701 4.85205 5.31592 5.12991 5.31592 5.47262V12.1635C5.45467 11.2523 6.07642 10.4829 6.95033 10.1843ZM9.36606 5.75349C10.4419 5.75349 11.3173 6.65063 11.3173 7.75343C11.3173 8.85613 10.442 9.75337 9.36606 9.75337C8.29011 9.75337 7.41483 8.85624 7.41483 7.75343C7.41494 6.65063 8.29022 5.75349 9.36606 5.75349Z" fill="black"/>
<path d="M11.4441 11.8835L10.549 14.4016H11.7903V12.5471C11.7903 12.2756 11.6569 12.0288 11.4441 11.8835Z" fill="black"/>
<path d="M6.94189 12.5471V14.4016H8.18335L7.28816 11.8835C7.07529 12.0288 6.94189 12.2756 6.94189 12.5471Z" fill="black"/>
<path d="M22.8963 0H1.6894C1.07984 0 0.585693 0.506508 0.585693 1.13132V30.8689C0.585693 31.4937 1.07984 32.0002 1.6894 32.0002H22.8963C23.5059 32.0002 24 31.4937 24 30.8689V1.13132C24 0.506508 23.5059 0 22.8963 0ZM3.6603 4.00003C3.6603 3.53144 4.03093 3.15154 4.48808 3.15154H14.244C14.7012 3.15154 15.0718 3.53144 15.0718 4.00003V15.2501C15.0718 15.7187 14.7012 16.0986 14.244 16.0986H4.48808C4.03093 16.0986 3.6603 15.7187 3.6603 15.2501V4.00003ZM20.0976 26.8487H4.48808C4.03093 26.8487 3.6603 26.4688 3.6603 26.0002C3.6603 25.5316 4.03093 25.1517 4.48808 25.1517H20.0976C20.5548 25.1517 20.9254 25.5316 20.9254 26.0002C20.9254 26.4688 20.5548 26.8487 20.0976 26.8487ZM20.0976 20.8486H4.48808C4.03093 20.8486 3.6603 20.4687 3.6603 20.0001C3.6603 19.5315 4.03093 19.1516 4.48808 19.1516H20.0976C20.5548 19.1516 20.9254 19.5315 20.9254 20.0001C20.9254 20.4687 20.5548 20.8486 20.0976 20.8486ZM20.0976 12.8486H18.1464C17.6892 12.8486 17.3186 12.4687 17.3186 12.0001C17.3186 11.5315 17.6892 11.1516 18.1464 11.1516H20.0976C20.5548 11.1516 20.9254 11.5315 20.9254 12.0001C20.9254 12.4687 20.5548 12.8486 20.0976 12.8486ZM20.0976 8.84854H18.1464C17.6892 8.84854 17.3186 8.46863 17.3186 8.00005C17.3186 7.53147 17.6892 7.15156 18.1464 7.15156H20.0976C20.5548 7.15156 20.9254 7.53147 20.9254 8.00005C20.9254 8.46863 20.5548 8.84854 20.0976 8.84854Z" fill="black"/>
</svg>
